<svg width="167" height="44" viewBox="0 0 167 44" fill="none" xmlns="http://www.w3.org/2000/svg">
<path d="M22.7623 28.0011C20.3333 32.5249 16.1436 33.7153 12.0005 33.7153C4.99936 33.7153 0 28.9537 0 22.0008C0 15.048 5.04757 10.2863 12.1434 10.2863C19.9525 10.2863 24.6676 15.8576 24.0009 24.2387H6.28619C6.85811 27.5721 9.90561 28.5248 12.5242 28.5248C14.619 28.5248 16.7621 28.0493 17.7629 26.2387L22.7623 28.0011ZM18.0954 19.62C17.477 16.7621 14.7138 15.4287 12.19 15.4287C9.42845 15.4287 6.90467 16.905 6.28453 19.62H18.0954Z" fill="white"/>
<path d="M42.0964 18.0472C41.6209 15.3805 37.9532 15.0945 36.5251 15.0945C33.9065 15.0945 31.5723 15.8094 31.5723 17.5235C31.5723 19.0481 34.3338 19.3324 37.3813 19.5236C42.6666 19.9043 48.8098 20.6192 48.3809 27.0467C47.7142 31.6654 41.9999 33.8084 36.5716 33.8084C30.6662 33.8084 25.4291 31.8566 25.0483 25.9029L30.9538 25.9977C31.0968 28.2837 33.8118 28.8556 36.7163 28.8556C39.9067 28.8556 41.955 27.903 42.0498 26.5696C42.1446 25.3792 40.6682 24.5695 36.7645 24.4265C31.6687 24.1406 25.4789 23.4273 25.4789 17.5701C25.4789 11.7128 31.8117 10.1882 36.4785 10.1882C41.5743 10.1882 47.3351 11.7128 47.8123 17.8544L42.098 18.0456L42.0964 18.0472Z" fill="white"/>
<path d="M55.382 10.6671L56.0005 13.8093C57.8575 10.9996 60.905 10.0951 63.8096 10.2847C71.5721 10.8084 75.0951 16.4279 75.0951 21.9992C75.0951 28.5713 70.2853 33.7619 62.7621 33.7619C60.2866 33.7619 58.0005 33.0952 56.3812 30.6662V44H50.238V10.6671H55.382ZM56.1434 21.8579C56.0952 25.4773 58.476 28.3336 62.5726 28.3336C66.6692 28.3336 68.9053 25.1431 68.9053 22.0008C68.9053 18.8586 66.8105 15.6681 62.5726 15.6681C58.6672 15.6681 56.1434 18.3349 56.1434 21.8579Z" fill="white"/>
<path d="M103.336 7.33361V0H109.431V7.33361H103.336ZM103.336 33.3346V10.6671H109.431V33.3346H103.336Z" fill="white"/>
<path d="M118.907 33.3346H112.764V0H118.907V33.3346Z" fill="white"/>
<path d="M144.526 28.0011C142.097 32.5249 137.907 33.7153 133.764 33.7153C126.765 33.7153 121.764 28.9537 121.764 22.0008C121.764 15.048 126.811 10.2863 133.907 10.2863C141.716 10.2863 146.431 15.8576 145.764 24.2387H128.05C128.622 27.5721 131.669 28.5248 134.288 28.5248C136.383 28.5248 138.526 28.0493 139.526 26.2387L144.526 28.0011ZM139.859 19.62C139.241 16.7621 136.477 15.4287 133.954 15.4287C131.192 15.4287 128.668 16.905 128.048 19.62H139.859Z" fill="white"/>
<path d="M153.431 10.6671L153.811 13.3338C155.477 10.7153 157.954 10.1434 159.763 10.1434C162.001 10.1434 164.954 10.9048 166.763 13.1426L164.048 17.2376C163 16.2849 161.572 15.713 160.142 15.713C157.095 15.713 154.476 17.9043 154.333 21.2843V33.3313H148.19V10.6671H153.431Z" fill="white"/>
<path d="M76.3587 21.9526C76.3587 14.8601 81.7471 9.91891 89.0774 9.91891C96.4076 9.91891 101.7 14.8601 101.7 21.9526C101.7 29.0452 96.3112 34.0345 89.0774 34.0345C81.8435 34.0345 76.3587 29.0934 76.3587 21.9526Z" fill="#BC00FF"/>
<path d="M85.2468 17.5884V25.7483C85.2468 27.0085 86.6882 27.7251 87.6941 26.9636L93.0958 22.8704C93.9038 22.2585 93.9005 21.0449 93.0925 20.4363L87.6908 16.3697C86.6849 15.6132 85.2484 16.3298 85.2484 17.5884H85.2468Z" fill="white"/>
</svg>

