<svg width="24" height="24" viewBox="0 0 24 24" fill="none" xmlns="http://www.w3.org/2000/svg">
<g clip-path="url(#clip0_7_1551)">
<circle cx="12" cy="12" r="11.5" transform="rotate(-180 12 12)" fill="black" fill-opacity="0.5" stroke="white"/>
<path d="M12.3527 8.35266C12.1579 8.15789 11.8421 8.15789 11.6473 8.35266C11.4527 8.5473 11.4526 8.86284 11.647 9.05766L14.085 11.5L8.5 11.5C8.22386 11.5 8 11.7239 8 12C8 12.2761 8.22386 12.5 8.5 12.5L14.085 12.5L11.6455 14.9352C11.4492 15.1311 11.4491 15.4491 11.6452 15.6452C11.8411 15.8411 12.1589 15.8411 12.3548 15.6452L15.2929 12.7071C15.6834 12.3166 15.6834 11.6834 15.2929 11.2929L12.3527 8.35266Z" fill="#F7F7F7"/>
</g>
<defs>
<clipPath id="clip0_7_1551">
<rect width="24" height="24" fill="white" transform="translate(24 24) rotate(-180)"/>
</clipPath>
</defs>
</svg>
