<svg width="24" height="24" viewBox="0 0 24 24" fill="none" xmlns="http://www.w3.org/2000/svg">
<g clip-path="url(#clip0_7_1554)">
<circle cx="12" cy="12" r="11.5" fill="black" fill-opacity="0.5" stroke="white"/>
<path d="M11.6473 15.6473C11.8421 15.8421 12.1579 15.8421 12.3527 15.6473C12.5473 15.4527 12.5474 15.1372 12.353 14.9423L9.915 12.5L15.5 12.5C15.7761 12.5 16 12.2761 16 12C16 11.7239 15.7761 11.5 15.5 11.5L9.915 11.5L12.3545 9.06484C12.5508 8.86892 12.5509 8.55094 12.3548 8.35484C12.1589 8.15887 11.8411 8.15887 11.6452 8.35484L8.70711 11.2929C8.31658 11.6834 8.31658 12.3166 8.70711 12.7071L11.6473 15.6473Z" fill="#F7F7F7"/>
</g>
<defs>
<clipPath id="clip0_7_1554">
<rect width="24" height="24" fill="white"/>
</clipPath>
</defs>
</svg>
