<svg width="21" height="18" viewBox="0 0 21 18" fill="none" xmlns="http://www.w3.org/2000/svg">
<path d="M20.9915 11.3276C20.8775 12.8671 20.3193 15.4562 16.3639 16.7349C13.753 17.5683 11.2861 17.1675 9.94162 16.8049C9.91161 17.3711 9.85159 17.6128 9.76756 17.7082C9.65352 17.8291 8.80122 18.3507 8.33305 17.6128C8.12298 17.2629 8.01494 16.6268 7.95492 16.0606C4.92985 14.5847 3.53735 12.46 3.48333 12.3646C3.41731 12.2946 2.72707 11.5312 3.41731 10.5961C4.06554 9.74999 6.18429 8.90391 8.09297 8.56039C8.15899 6.83007 8.35106 5.52596 8.57914 4.92798C8.85524 4.23458 9.20336 4.858 9.50346 5.32875C9.75555 5.67864 9.90561 7.18631 9.91761 8.38863C11.1661 8.32502 11.9043 8.42044 13.2968 8.68762C15.1094 9.0375 16.3219 10.0172 16.2138 11.1304C16.1358 12.2246 15.1875 12.6763 14.8273 12.7081C14.4492 12.7399 13.861 12.4536 13.861 12.4536C13.4589 12.2501 13.831 12.0719 14.3172 11.8493C14.8454 11.5757 14.7253 11.2958 14.7253 11.2958C14.5272 10.6851 12.1744 10.2589 9.83358 10.2589C9.82158 11.6266 9.8876 13.8977 9.91761 15.2209C11.5562 15.5517 12.7806 15.4881 12.7806 15.4881C12.7806 15.4881 18.7587 15.3099 18.9388 11.264C19.1189 7.21812 12.9787 3.32488 8.43509 2.09075C3.89748 0.83118 1.32857 1.70906 1.10649 1.82993C0.866409 1.95716 1.08849 1.99533 1.08849 1.99533C1.31707 2.03955 1.54189 2.10337 1.76073 2.18618C2.21088 2.33885 1.86276 2.58695 1.86276 2.58695C1.08849 2.84777 0.218179 2.68237 0.0501198 2.30704C-0.11794 1.93172 0.16416 1.59456 0.488275 1.11109C0.81239 0.602166 1.16651 0.62125 1.16651 0.62125C6.7785 -1.43987 13.6149 2.28796 13.6149 2.28796C20.0192 5.72953 21.1116 9.76271 20.9915 11.3276ZM4.05354 11.1177C3.41731 11.4485 3.85547 11.9256 3.85547 11.9256C5.04989 13.287 6.52041 14.1394 7.9189 14.6674C8.08096 12.32 8.05695 11.493 8.07496 10.3098C5.89019 10.4688 4.62974 10.8378 4.05354 11.1177Z" fill="white"/>
</svg>
