<svg width="18" height="18" viewBox="0 0 18 18" fill="none" xmlns="http://www.w3.org/2000/svg">
<path fill-rule="evenodd" clip-rule="evenodd" d="M13.7872 16.6249C14.3407 17.4333 15.6409 17.9999 17.1559 17.9999C17.4474 17.9999 18 16.2534 18 16.2534C16.9613 16.1024 16.0953 15.6779 15.6097 15.1119C17.0949 13.5064 18 11.3589 18 9C18 4.029 13.9707 0 9 0C4.02876 0 0 4.02909 0 9C0 13.9701 4.02859 18 9 18C10.7586 18 12.4011 17.4966 13.7874 16.6251M7.87495 8.99992C7.87495 8.37797 8.37837 7.8744 9 7.8744C9.62094 7.8744 10.1251 8.37797 10.1251 8.99992C10.1251 9.621 9.62094 10.1249 9 10.1249C8.37837 10.1249 7.87495 9.621 7.87495 8.99992ZM2.24925 8.99992C2.24925 7.75792 3.25627 6.7494 4.49936 6.7494C5.74227 6.7494 6.74946 7.75787 6.74946 8.99992C6.74946 10.2424 5.74227 11.2499 4.49936 11.2499C3.25627 11.2499 2.24925 10.2424 2.24925 8.99992ZM6.74946 4.50034C6.74946 3.25731 7.757 2.24983 9.00009 2.24983C10.243 2.24983 11.2502 3.25731 11.2502 4.50034C11.2502 5.74187 10.243 6.74936 9.00009 6.74936C7.757 6.74936 6.74946 5.74187 6.74946 4.50034ZM11.8128 8.99992C11.8128 7.75792 12.8204 6.7494 14.063 6.7494C15.3064 6.7494 16.3136 7.75787 16.3136 8.99992C16.3136 10.2424 15.3064 11.2499 14.063 11.2499C12.8204 11.2499 11.8128 10.2424 11.8128 8.99992ZM6.74946 13.4999C6.74946 12.2569 7.757 11.2499 9.00009 11.2499C10.243 11.2499 11.2502 12.2569 11.2502 13.4999C11.2502 14.7429 10.243 15.7499 9.00009 15.7499C7.757 15.7499 6.74946 14.7429 6.74946 13.4999Z" fill="white"/>
</svg>
