<svg width="150" height="25" viewBox="0 0 150 25" fill="none" xmlns="http://www.w3.org/2000/svg">
<path fill-rule="evenodd" clip-rule="evenodd" d="M115.555 9.03921C115.555 11.7375 115.555 14.4359 115.555 17.1342C115.555 18.167 115.985 18.6242 116.926 18.6324C117.831 18.6406 118.266 18.1548 118.266 17.1016C118.274 14.6604 118.234 12.2193 118.286 9.77809C118.309 8.74938 118.064 7.96151 117.179 7.43082C116.902 7.25937 116.539 7.08384 116.642 6.63479C116.76 6.12452 117.199 6.34496 117.483 6.30414C119.123 6.10411 120.759 5.95307 122.396 5.76528C123.004 5.69589 123.194 5.89591 123.182 6.5654C123.135 10.0638 123.162 13.5623 123.123 17.0648C123.111 17.8772 123.253 18.4528 124.142 18.5712C124.502 18.6161 124.66 18.8202 124.632 19.2284C124.597 19.6897 124.293 19.6121 124.028 19.6121C119.27 19.6121 114.515 19.6121 109.757 19.6121C109.504 19.6121 109.184 19.7346 109.121 19.2692C109.058 18.8161 109.255 18.5957 109.651 18.5426C110.536 18.4364 110.698 17.8649 110.694 17.0485C110.67 12.5866 110.662 8.12072 110.698 3.65478C110.706 2.69547 110.437 2.04231 109.536 1.71982C109.212 1.60143 108.908 1.45039 108.975 0.976857C109.046 0.466581 109.445 0.625787 109.702 0.597212C111.397 0.433924 113.108 0.307375 114.808 0.152252C115.333 0.0991829 115.626 0.209402 115.622 0.850309C115.598 3.5813 115.614 6.30822 115.614 9.03513H115.547L115.555 9.03921Z" fill="white"/>
<path fill-rule="evenodd" clip-rule="evenodd" d="M88.2744 17.9262C87.567 18.363 86.9386 18.7589 86.3063 19.1427C85.8163 19.4366 85.2867 19.6121 84.7413 19.7428C81.7774 20.4449 80.0938 19.0692 80.0899 15.9381C80.0899 13.7542 80.0504 11.5743 80.1096 9.39028C80.1333 8.48403 79.8725 7.85129 79.09 7.42266C78.7857 7.25529 78.3391 7.08384 78.4933 6.57764C78.6197 6.16126 79.0228 6.34088 79.2995 6.30414C80.7775 6.11635 82.2595 5.94898 83.7415 5.79386C84.9389 5.66731 84.9547 5.6918 84.9547 6.90422C84.9547 9.60256 84.9468 12.2968 84.9547 14.9951C84.9587 16.8689 85.5712 17.3465 87.3259 17.0036C87.9345 16.8852 88.1361 16.6403 88.1242 15.9994C88.0847 13.7827 88.0768 11.5661 88.1242 9.35354C88.14 8.48811 87.895 7.87578 87.152 7.45123C86.8477 7.27978 86.3814 7.1369 86.5039 6.63479C86.6304 6.10002 87.1323 6.33271 87.4524 6.29189C88.9581 6.08778 90.4796 5.96939 91.9853 5.76937C92.7915 5.66323 93.0009 5.96123 92.993 6.76542C92.9574 9.94138 92.997 13.1214 92.9653 16.3015C92.9574 17.1587 93.0997 17.8364 94.0087 18.065C94.3485 18.1507 94.4434 18.363 94.4315 18.6977C94.4197 19.1631 94.0719 19.061 93.8229 19.0978C92.3212 19.3386 90.8115 19.5386 89.3137 19.8122C88.4838 19.9673 88.1479 19.7019 88.2665 18.8243C88.302 18.5548 88.2744 18.2772 88.2744 17.9303V17.9262Z" fill="white"/>
<path fill-rule="evenodd" clip-rule="evenodd" d="M14.7877 17.3343C14.6876 18.8528 13.9051 19.6121 12.4403 19.6121C8.55944 19.6121 4.67467 19.6121 0.789891 19.5999C0.513254 19.5999 0.0745871 19.8489 0.00740379 19.2325C-0.0518756 18.6936 0.252425 18.5508 0.647621 18.5099C1.77788 18.3915 1.81345 17.518 1.82926 16.6729C1.85692 15.0033 1.83716 13.3337 1.83716 11.6682V4.74065C1.83716 3.73643 1.66723 2.86284 0.457927 2.76078C0.0469234 2.72404 -0.012356 2.45462 0.0153077 2.08722C0.0469234 1.6096 0.390744 1.74431 0.635765 1.74431C3.30729 1.73615 5.97881 1.73615 8.65034 1.74431C8.92697 1.74431 9.28265 1.61368 9.33007 2.14437C9.3775 2.65873 9.05739 2.7567 8.71752 2.78527C7.68606 2.871 7.39361 3.4915 7.40152 4.47531C7.42128 8.51669 7.40152 12.5622 7.41732 16.6076C7.41732 17.9507 7.69001 18.1915 9.00996 18.2813C10.5354 18.3834 11.7171 17.918 12.4403 16.3953C12.9145 15.3911 13.4994 14.4359 13.8827 13.3868C14.0685 12.8683 14.4004 12.7744 14.8272 12.8724C15.3094 12.9826 15.0565 13.4072 15.0367 13.6725C14.9932 14.3747 14.9616 14.9992 14.9379 15.7626L14.7877 17.3383V17.3343Z" fill="white"/>
<path fill-rule="evenodd" clip-rule="evenodd" d="M136.413 17.3302C134.698 19.6121 131.402 20.5102 128.466 19.5019C125.968 18.6406 124.585 16.3709 124.451 13.3133C124.213 7.81047 128.201 5.64282 132.596 5.72854C133.532 5.74487 134.453 5.84285 135.311 6.29597C136.318 6.83074 136.793 7.77373 136.559 8.82286C136.35 9.76993 135.544 10.3863 134.56 10.3414C133.493 10.2924 132.924 9.69645 132.647 8.46362C132.524 7.90028 132.773 7.05526 131.833 6.9777C130.94 6.90422 130.165 7.25121 129.857 8.11663C128.928 10.7129 128.857 13.3419 130.133 15.832C130.79 17.1138 132.086 17.3138 133.378 17.2567C134.445 17.2159 135.433 16.8281 136.405 16.3913C136.5 16.6076 136.516 17.1832 136.413 17.3302Z" fill="white"/>
<path fill-rule="evenodd" clip-rule="evenodd" d="M120.696 0.0052922C122.174 0.0461143 123.194 1.09932 123.162 2.54442C123.127 3.98136 121.949 5.03049 120.459 4.95701C119.001 4.88761 117.926 3.77317 117.965 2.3893C118.005 0.956446 119.155 -0.0396121 120.696 0.00120999V0.0052922Z" fill="white"/>
<path fill-rule="evenodd" clip-rule="evenodd" d="M90.1792 2.29541C90.1871 3.0547 89.8868 3.64662 89.1636 3.82624C87.7172 4.17731 86.2549 4.4549 84.8006 4.75698C84.6188 4.79372 84.441 4.81005 84.3343 4.57328C84.2157 4.32427 84.2908 4.15689 84.4607 3.98136C85.4566 2.96897 86.4288 1.93618 87.4445 0.952364C87.9622 0.454335 88.6301 0.348197 89.2703 0.642116C89.9303 0.944199 90.1753 1.56469 90.1832 2.29133L90.1792 2.29541Z" fill="white"/>
<path fill-rule="evenodd" clip-rule="evenodd" d="M50.7742 18.5263C50.1498 18.412 49.8534 17.9262 49.5452 17.4404C48.3873 15.6116 47.4151 13.6766 46.518 11.709C46.2532 11.1211 46.1781 10.7864 46.9329 10.5333C47.9881 10.1863 48.7192 9.3862 49.0472 8.26768C49.9009 5.37339 48.6837 3.07103 45.858 2.24642C45.3245 2.08722 44.7712 1.96883 44.218 1.91168C40.6256 1.5402 37.0175 1.82187 33.4173 1.73615C33.1406 1.72798 32.8679 1.68716 32.8482 2.14437C32.8284 2.55667 32.9904 2.7567 33.3422 2.78527C34.4843 2.87916 34.6226 3.65887 34.6147 4.61818C34.591 6.60622 34.6068 8.59833 34.6068 10.5864C34.6068 12.6765 34.591 14.7625 34.6107 16.8444C34.6226 17.7588 34.3973 18.4283 33.3777 18.5181C32.9628 18.5548 32.8166 18.7998 32.8482 19.2366C32.8837 19.7142 33.1999 19.5999 33.4528 19.5999C36.0611 19.608 38.6734 19.5999 41.2816 19.5999C41.6018 19.5999 41.9021 19.6448 41.9298 19.1468C41.9574 18.7059 41.7045 18.563 41.3844 18.5263C40.3529 18.4201 40.1751 17.6853 40.1751 16.8158C40.1712 15.5626 40.1474 14.3093 40.1909 13.0602C40.1988 12.7254 39.8827 12.1948 40.5624 12.0723C41.171 11.9621 41.2737 12.3907 41.4318 12.8193C42.2064 14.9543 43.1391 17.0077 44.2614 18.9712C44.4709 19.3386 44.6803 19.6203 45.1901 19.608C46.9922 19.5713 48.7904 19.5958 50.5964 19.5917C50.8217 19.5917 51.126 19.6815 51.1378 19.2733C51.1497 18.9508 51.205 18.5916 50.7782 18.514L50.7742 18.5263ZM43.4908 8.88409C43.3327 9.76993 42.981 10.5292 42.0286 10.7905C40.5268 11.2069 40.1712 10.9374 40.1712 9.36579V6.96137C40.1712 5.93674 40.1988 4.9121 40.1593 3.88747C40.1356 3.34862 40.3529 3.169 40.8311 3.09144C42.4475 2.83426 43.2853 3.467 43.5303 5.1652C43.7161 6.41027 43.7081 7.65534 43.4868 8.88817L43.4908 8.88409Z" fill="white"/>
<path fill-rule="evenodd" clip-rule="evenodd" d="M78.351 9.43927C77.7622 7.21038 76.1023 5.8306 74.0039 5.72854C72.3164 5.6469 70.9569 6.41027 69.5856 7.61044C69.5658 7.27162 69.5421 7.11241 69.55 6.95729C69.5895 5.70813 69.5737 5.67548 68.4079 5.79794C66.9575 5.94898 65.5071 6.12044 64.0607 6.30414C63.7841 6.34088 63.3849 6.15718 63.2545 6.56948C63.1004 7.0471 63.4758 7.2757 63.788 7.46756C64.6061 7.95743 64.8551 8.66773 64.8432 9.63113C64.8037 13.9338 64.8195 18.2364 64.8353 22.535C64.8393 23.2739 64.6733 23.7882 63.8829 23.9066C63.5193 23.9597 63.2269 24.0944 63.2901 24.5842C63.3652 25.168 63.796 24.9598 64.0844 24.9598C66.2304 24.9802 68.3763 24.9802 70.5182 24.9598C70.8028 24.9598 71.2335 25.1843 71.2928 24.572C71.3481 24.0046 70.9767 23.9433 70.6052 23.8984C69.9017 23.8086 69.6686 23.38 69.7199 22.6983C69.7436 22.3431 69.7239 21.988 69.7199 21.6369C69.712 21.0613 69.4789 20.3102 69.7476 19.9591C70.0914 19.5101 70.8423 19.8856 71.4153 19.8856C74.9523 19.8775 77.3275 18.2936 78.2483 15.2278C78.8173 13.3174 78.8569 11.3702 78.3431 9.43927H78.351ZM73.3044 17.1791C72.9566 18.514 71.7038 19.0406 70.5103 18.4691C69.9966 18.2283 69.6962 17.8731 69.716 17.2118C69.7634 15.9014 69.7278 14.591 69.7278 13.2765C69.7278 11.9621 69.7674 10.7129 69.712 9.43519C69.6883 8.80653 69.957 8.60242 70.4787 8.4922C72.0239 8.17379 73.0554 8.75346 73.419 10.3414C73.9406 12.6193 73.8893 14.9217 73.3044 17.1791Z" fill="white"/>
<path fill-rule="evenodd" clip-rule="evenodd" d="M109.109 10.6558C108.663 7.2308 106.461 5.35298 103.489 5.7857C102.256 5.96123 101.249 6.63479 100.245 7.50022C100.245 5.25093 100.209 3.16492 100.265 1.07891C100.284 0.274718 100.031 0.0787719 99.3003 0.160416C97.6642 0.340033 96.0202 0.450253 94.3841 0.605376C94.1391 0.62987 93.7953 0.51965 93.7162 0.948282C93.6451 1.35242 93.8664 1.56878 94.1747 1.67083C95.1943 2.00557 95.38 2.76894 95.376 3.77317C95.3444 8.30033 95.376 12.8275 95.3444 17.3506C95.3444 18.0323 95.5736 18.3793 96.1269 18.6773C98.2135 19.8122 100.446 19.9959 102.739 19.8326C106.22 19.5835 108.398 17.5629 109.046 14.0154C109.247 12.901 109.259 11.7702 109.113 10.6598L109.109 10.6558ZM103.869 17.024C103.541 18.4609 102.418 19.012 101.162 18.5222C100.525 18.2732 100.154 17.8935 100.193 17.0975C100.257 15.8483 100.209 14.5951 100.209 13.3459C100.209 12.0315 100.245 10.7129 100.193 9.39845C100.17 8.80244 100.419 8.62283 100.905 8.51261C102.494 8.14929 103.576 8.74938 103.94 10.3578C104.442 12.5785 104.363 14.8196 103.865 17.024H103.869Z" fill="white"/>
<path fill-rule="evenodd" clip-rule="evenodd" d="M28.5287 18.2772C28.501 17.9588 28.2481 17.967 28.0426 17.9425C27.0941 17.8445 26.8333 17.2608 26.8491 16.3504C26.8807 14.1338 26.8689 11.9212 26.857 9.70869C26.8451 7.52471 25.9481 6.3817 23.8654 5.95715C21.8262 5.54076 19.787 5.63057 17.7794 6.16942C17.0799 6.3572 16.4357 6.67562 15.9654 7.2757C15.258 8.18195 15.3924 9.54132 16.2341 10.0843C17.5857 10.9538 19.3127 10.1822 19.6249 8.57384C19.6803 8.29217 19.7237 8.00641 19.7514 7.71658C19.8146 6.96953 20.2651 6.84299 20.8698 6.96545C21.4744 7.08792 21.755 7.52063 21.8538 8.10031C21.9961 8.89225 21.9447 9.70461 22.0159 10.4966C22.0949 11.3946 21.8301 11.7906 20.937 11.9621C19.6012 12.2152 18.2773 12.5866 17.0522 13.2398C16.0365 13.7787 15.2857 14.5379 15.0999 15.7626C15.0604 15.9994 15.0525 16.877 15.0999 17.1465C15.337 18.5793 16.1946 19.4366 17.5264 19.7264C19.0756 20.0653 20.5576 19.9305 21.7866 18.7222C21.9487 18.5671 22.0514 18.1915 22.419 18.6079C23.7271 20.1142 26.7543 20.2979 28.2639 19.0284C28.5247 18.812 28.5642 18.5712 28.5366 18.2691L28.5287 18.2772ZM21.3598 17.6649C20.8184 17.7915 20.3244 17.6363 20.0952 17.1138C19.617 16.0484 19.617 14.9258 20.0952 13.8644C20.4114 13.1663 21.1148 13.2112 21.7353 13.2316C22.0238 13.2439 21.9882 13.546 21.9882 13.7623C21.9961 14.2767 21.9882 14.791 21.9882 15.3054C21.9882 15.7544 21.9724 16.2035 21.9961 16.6525C22.0238 17.1628 21.8775 17.5424 21.3598 17.669V17.6649Z" fill="white"/>
<path fill-rule="evenodd" clip-rule="evenodd" d="M150 18.2854C149.972 17.967 149.731 17.967 149.522 17.9425C148.565 17.8527 148.313 17.2363 148.32 16.3423C148.34 14.0971 148.332 11.8519 148.324 9.60664C148.32 7.59411 147.443 6.43068 145.534 5.98164C143.788 5.57342 142.021 5.65098 140.262 5.93265C139.421 6.06737 138.622 6.30005 137.923 6.81033C137.144 7.38184 136.816 8.31666 137.073 9.16984C137.35 10.0883 138.045 10.3537 138.875 10.3741C140.021 10.4068 140.701 9.99853 140.99 9.03921C141.124 8.58609 141.183 8.10439 141.239 7.62269C141.298 7.09608 141.606 6.9083 142.061 6.91647C142.796 6.92871 143.183 7.36143 143.329 8.0799C143.519 9.03513 143.408 10.0026 143.471 10.9538C143.511 11.5375 143.274 11.7212 142.772 11.8478C141.42 12.1866 140.045 12.4805 138.78 13.1051C137.607 13.6848 136.69 14.493 136.571 15.9545C136.54 16.3709 136.508 16.8403 136.587 17.322C136.907 18.5793 137.674 19.4039 138.899 19.6979C140.484 20.0734 141.981 19.9346 143.27 18.7549C143.412 18.6201 143.495 18.1589 143.882 18.5916C145.246 20.1061 148.21 20.302 149.719 19.0365C149.976 18.8202 150.02 18.5793 149.992 18.2772L150 18.2854ZM142.803 17.6772C142.258 17.7915 141.768 17.5833 141.551 17.0771C141.1 16.0402 141.116 14.9502 141.559 13.9174C141.855 13.2153 142.535 13.2071 143.163 13.2276C143.523 13.2398 143.46 13.5745 143.463 13.8154C143.471 14.3257 143.463 14.8359 143.463 15.3503C143.463 15.7667 143.436 16.1831 143.471 16.5995C143.511 17.1465 143.365 17.5629 142.803 17.6772Z" fill="white"/>
<path fill-rule="evenodd" clip-rule="evenodd" d="M56.2596 12.2193C58.4331 12.2846 60.6146 12.2192 62.7882 12.2519C63.3731 12.2642 63.5272 12.0845 63.5035 11.4885C63.3533 7.87578 61.3971 5.87959 57.8206 5.72446C54.9278 5.59791 52.3629 7.20222 51.3078 9.79442C50.1577 12.6275 50.7584 16.3994 52.6514 18.2446C55.1649 20.698 60.7292 20.3347 62.8475 17.5914C63.1399 17.2159 63.1083 16.8321 63.0095 16.3464C62.0452 16.873 61.0375 17.1873 59.9784 17.2444C57.3345 17.3832 55.9711 16.5096 55.5877 13.7256C55.564 13.5337 55.5403 13.3419 55.5008 13.1541C55.3625 12.4968 55.485 12.1988 56.2596 12.2193ZM55.5877 9.47601C55.6589 8.8596 55.7972 8.27584 56.0699 7.72882C56.3465 7.17773 56.7733 6.84707 57.4175 6.90014C58.0696 6.94912 58.4055 7.36959 58.5952 7.95743C58.856 8.76162 58.7967 9.60664 58.856 10.4394C58.8876 10.8231 58.6584 10.9211 58.3304 10.9293C57.868 10.9415 57.4017 10.9783 56.9393 11.0028C55.398 11.064 55.4099 11.064 55.5917 9.48009L55.5877 9.47601Z" fill="white"/>
</svg>
