<svg width="18" height="4" viewBox="0 0 18 4" fill="none" xmlns="http://www.w3.org/2000/svg">
<path d="M9.27985 4C9.10641 3.9959 8.93296 3.9959 8.75951 4C8.52102 3.98769 8.28252 3.97949 8.04403 3.96308C7.41094 3.91795 6.78219 3.82769 6.16645 3.69231C4.03736 3.22462 2.16845 2.28514 0.538032 0.919003C0.386264 0.791825 0.243169 0.660544 0.0957371 0.529263C0.0610474 0.500546 0.0306941 0.459521 0.0133492 0.418495C-0.0126681 0.36106 0.0003404 0.299522 0.0437026 0.254394C0.0870648 0.209267 0.156444 0.192856 0.217151 0.217471C0.256177 0.233881 0.295204 0.250292 0.329893 0.270804C1.8866 1.18156 3.5864 1.84617 5.36858 2.24002C5.96698 2.3713 6.56972 2.47386 7.17679 2.54771C8.04837 2.65027 8.92862 2.68719 9.80454 2.65847C10.2772 2.64617 10.7455 2.60514 11.2138 2.54771C12.3065 2.41642 13.3863 2.18258 14.4313 1.85438C14.982 1.68207 15.5197 1.48515 16.0444 1.25541C16.1224 1.21439 16.2178 1.20208 16.3045 1.22259C16.4476 1.25541 16.5344 1.3949 16.4997 1.53028C16.4953 1.54669 16.4867 1.5672 16.478 1.58361C16.4433 1.64515 16.3956 1.69848 16.3349 1.73951C15.8362 2.10874 15.2985 2.43284 14.7305 2.7036C13.6594 3.21642 12.5147 3.58154 11.3352 3.79077C10.6544 3.90564 9.96931 3.97538 9.27985 4Z" fill="#00A8E1"/>
<path d="M16.7338 0C17.02 0.00820505 17.3019 0.0246153 17.5794 0.0943582C17.6574 0.114871 17.7312 0.139486 17.8049 0.172307C17.9046 0.209229 17.9696 0.299485 17.9827 0.397946C18 0.512816 18.0043 0.631789 17.9957 0.750762C17.9393 1.45229 17.7095 2.12921 17.3279 2.73228C17.1891 2.94972 17.02 3.14664 16.8249 3.31894C16.7859 3.35587 16.7382 3.38458 16.6861 3.40099C16.6037 3.42151 16.5517 3.38048 16.5474 3.30253C16.5517 3.26151 16.5604 3.22048 16.5777 3.17946C16.7295 2.79382 16.8769 2.41229 16.994 2.01434C17.0634 1.79691 17.1111 1.57537 17.1414 1.34973C17.1501 1.26768 17.1544 1.18563 17.1458 1.10358C17.1414 0.964094 17.046 0.845121 16.9029 0.804095C16.7685 0.76307 16.6298 0.738455 16.4867 0.73025C16.0877 0.71384 15.6888 0.73025 15.2942 0.77948L14.7695 0.841018C14.7131 0.84512 14.6611 0.841018 14.6308 0.791788C14.6004 0.742557 14.6134 0.693327 14.6438 0.644097C14.6785 0.598969 14.7218 0.557944 14.7739 0.529226C15.0947 0.311792 15.4546 0.180511 15.8362 0.0943582C16.1311 0.0369229 16.4303 0.00820505 16.7338 0Z" fill="#00A8E1"/>
</svg>
