<svg width="18" height="18" viewBox="0 0 18 18" fill="none" xmlns="http://www.w3.org/2000/svg">
<path d="M8.13321 17.98C7.83091 17.9515 7.03555 17.8119 6.74052 17.7356C4.1899 17.0759 2.02986 15.3065 0.886784 12.9405C0.260134 11.6435 -0.00102741 10.4835 3.03658e-06 9.0019C0.00102216 7.51849 0.266207 6.33532 0.882711 5.06331C1.34446 4.11059 1.87558 3.36425 2.62958 2.60856C4.03998 1.19499 5.8265 0.319926 7.85012 0.0514706C8.51171 -0.0362955 9.91216 -0.00773883 10.5301 0.106118C11.8151 0.342903 12.9688 0.807967 14.0026 1.50594C16.1506 2.95602 17.5438 5.17372 17.907 7.7209C17.9848 8.26625 18.0298 9.40114 17.9774 9.49595C17.9488 9.54766 17.934 9.49348 17.9153 9.26932C17.8226 8.158 17.348 6.81423 16.6934 5.80896C14.7035 2.75348 10.9908 1.45717 7.55345 2.61764C4.9003 3.51334 2.90627 5.78581 2.35899 8.53745C2.08838 9.89805 2.16958 11.2317 2.60321 12.5483C3.36793 14.8703 5.19821 16.7253 7.51932 17.5309C8.06672 17.7208 8.76971 17.8791 9.23329 17.9168C9.78837 17.9619 9.64847 18.0049 8.96361 17.9996C8.58993 17.9967 8.21625 17.9879 8.13321 17.98Z" fill="#F78B24"/>
<path d="M10.0393 16.8574C7.17015 16.6457 4.79288 14.4784 4.29677 11.6221C4.20647 11.1022 4.18906 10.1303 4.2615 9.65195C4.69163 6.81151 6.84836 4.65657 9.66189 4.25603C10.2322 4.17485 11.2483 4.20331 11.7945 4.31575C12.2696 4.41357 12.7962 4.58719 13.21 4.78241L13.5308 4.93379L13.2288 5.07826C12.1391 5.59959 11.4666 6.81901 11.6245 7.98716C11.7826 9.15694 12.5811 10.0751 13.7274 10.4052C14.1401 10.524 14.7712 10.524 15.184 10.4051C15.7179 10.2514 16.1365 10 16.5175 9.6044C16.6461 9.47084 16.7597 9.37528 16.7698 9.39204C16.7799 9.4088 16.8093 9.59294 16.8351 9.80124C16.8988 10.3151 16.8614 11.2928 16.7594 11.781C16.4346 13.3356 15.6162 14.6405 14.3612 15.6047C13.1734 16.5173 11.602 16.9727 10.0393 16.8574Z" fill="#F78B24"/>
</svg>
