<svg width="18" height="8" viewBox="0 0 18 8" fill="none" xmlns="http://www.w3.org/2000/svg">
<path d="M5.27693 7.4706H3.30247V4.81391H2.02509V7.4706H0V0.617585H2.0212V3.17507H3.29857V0.617585H5.27304V7.4706H5.27693ZM14.3276 7.5C16.3488 7.5 18 5.9126 18 3.97979C18 2.01759 16.3488 0.5 14.3276 0.5C12.2791 0.5 11.2432 1.90367 10.9939 2.4769C10.9939 1.62808 10.0943 0.613911 9.05062 0.613911H5.67806V7.4706H8.81696C10.0943 7.4706 10.9939 6.44173 10.9939 5.5378C11.2782 6.09633 12.283 7.5 14.3276 7.5ZM8.56772 4.7147C8.8598 4.7147 9.09346 4.98294 9.09346 5.28793C9.09346 5.60761 8.8598 5.87585 8.56772 5.87585H7.56295V4.7147H8.56772ZM8.56772 2.14252C8.8598 2.14252 9.09346 2.41076 9.09346 2.71575C9.09346 3.02073 8.8598 3.28898 8.56772 3.28898H7.56295V2.14252H8.56772ZM9.89572 3.97979C10.1294 3.96509 10.511 3.71155 10.6551 3.56089C10.6006 3.74462 10.6006 4.3252 10.6551 4.50892C10.4955 4.28478 10.1294 4.02021 9.89572 3.97979ZM12.4855 3.97979C12.4855 3.01339 13.3189 2.23438 14.3431 2.23806C15.3713 2.24541 16.1891 3.03543 16.1774 4.00551C16.1618 4.96089 15.344 5.72887 14.3315 5.72887C13.3111 5.72887 12.4855 4.94987 12.4855 3.97979ZM14.3276 5.35407C15.1142 5.35407 15.7763 4.74409 15.7763 3.97979C15.7763 3.21549 15.1142 2.61286 14.3276 2.61286C13.5175 2.61286 12.871 3.21549 12.871 3.97979C12.871 4.74409 13.5175 5.35407 14.3276 5.35407Z" fill="white"/>
</svg>
