<?xml version="1.0" encoding="utf-8"?><svg version="1.1" id="Capa_1" xmlns="http://www.w3.org/2000/svg" xmlns:xlink="http://www.w3.org/1999/xlink" x="0px" y="0px" width="192px" height="46.7px" viewBox="0 0 192 46.7" style="enable-background:new 0 0 192 46.7;" xml:space="preserve"><style type="text/css">.st0{fill:#FF9D14}.st1{fill:#1F25C7}</style><g> <g> <path class="st0" d="M20.4,19.1c-0.4-2.9-2.7-4.5-5.9-4.5c-5,0-6.8,4.3-6.8,8.7s1.9,8.7,6.8,8.7c3.6,0,5.6-2,5.9-5.4H28 c-0.4,7.6-5.9,12-13.4,12C5.7,38.7,0,31.9,0,23.4S5.7,8,14.7,8C21,8,27.8,12,28,19.1H20.4z"/> <path class="st0" d="M55.4,25.9c0,8.5-3.9,12.7-12.7,12.7S30,34.5,30,25.9V8.7h7.7v17.7c0,3.8,1.4,5.7,5.2,5.7 c3.8,0,5.2-1.9,5.2-5.7V8.7h7.7v17.3H55.4z"/> <path class="st0" d="M97.6,15.3h-8.7V38h-7.7V15.3h-8.7V8.7h25.1V15.3z"/> <path class="st0" d="M98.9,8.7h15c5.2,0,10.2,2.4,10.2,8.3c0,3.1-1.5,6.1-4.6,7.3v0.1c3.1,0.8,4,4.2,4.3,7 c0.1,1.2,0.2,5.5,1.2,6.6h-7.6c-0.6-1-0.8-3.9-0.9-4.6c-0.2-2.9-0.6-6-4.3-6h-5.8V38h-7.7V8.7H98.9z M106.6,21.4h6.4 c2.3,0,3.6-1.2,3.6-3.5c0-2.2-1.7-3.1-3.9-3.1h-6C106.6,14.8,106.6,21.4,106.6,21.4z"/> <path class="st0" d="M139.9,8c9.3,0,14.5,6.8,14.5,15.3s-5.2,15.3-14.5,15.3s-14.5-6.8-14.5-15.3S130.7,8,139.9,8z M139.9,32.1 c5,0,6.8-4.3,6.8-8.7s-1.9-8.7-6.8-8.7c-5,0-6.8,4.3-6.8,8.7S135,32.1,139.9,32.1z"/> </g> <g> <path class="st1" d="M165,8.7h12.6c9,0,14.3,5.5,14.3,14.6c0,9.6-5.5,14.8-14.3,14.8H165V8.7z M172.7,31.4h3.7 c5.8-0.1,8.1-2.4,8.1-8.3c0-5.4-2.9-8-8.1-8h-3.7V31.4z"/> </g> <g> <path class="st1" d="M77.1,25.4v6h-3.9V38h-7.1v-6.6H53.3v-6.7L66.4,8.6h6.9v16.7h3.8V25.4z M66.3,25.4v-9.5h-0.1l-7.4,9.5H66.3z" /> </g> </g> </svg>