<svg xmlns="http://www.w3.org/2000/svg" xmlns:xlink="http://www.w3.org/1999/xlink" width="50" height="20" viewBox="0 0 50 20"><defs><style>.cls-1{fill:none;}.cls-2{isolation:isolate;}.cls-10,.cls-3{fill:#fff;}.cls-3,.cls-4,.cls-5,.cls-7,.cls-8{fill-rule:evenodd;}.cls-4,.cls-9{fill:#240073;}.cls-5{fill:#5bbb33;}.cls-6{mix-blend-mode:multiply;}.cls-7{fill:#cecece;}.cls-8{fill:#d8d8d8;}.cls-11{clip-path:url(#clip-path);}.cls-12{clip-path:url(#clip-path-2);}</style><clipPath id="clip-path"><path class="cls-1" d="M49.91,18.77,48.4,9.33a1,1,0,0,0-.95-.81H45.28a1,1,0,0,0-1,.81v.09a1,1,0,0,0-1-.9H41.84A1,1,0,0,0,41,9a.94.94,0,0,0-.84-.49H38.66a1,1,0,0,0-.84.49,3.19,3.19,0,0,0-2-.6,3.24,3.24,0,0,0-2,.62,1,1,0,0,0-.85-.51H31.61a.94.94,0,0,0-.76.37,1,1,0,0,0-.77-.37H28.22a1,1,0,0,0-.95.85v0a1,1,0,0,0-1-.81H24.13a1,1,0,0,0-.95.81l-.13.82a2.62,2.62,0,0,0-.52-.81,3,3,0,0,0-2.36-.93,3,3,0,0,0-2.37.93A3.44,3.44,0,0,0,17,11.75v4.91a3.44,3.44,0,0,0,.81,2.41,3,3,0,0,0,2.37.93,3.4,3.4,0,0,0,1.74-.43.93.93,0,0,0,.71.32H24a1,1,0,0,0,1-.82l.13-.89h.16l.13.89a1,1,0,0,0,1,.82h1.5l.2,0,.2,0h1.34a1,1,0,0,0,.92-.68,1,1,0,0,0,.93.68h1.52a1,1,0,0,0,.85-.52,3.18,3.18,0,0,0,2,.63,3.25,3.25,0,0,0,2-.61.94.94,0,0,0,.83.5h1.49A1,1,0,0,0,41,19.4a1,1,0,0,0,.85.49h1.51l.2,0,.22,0h1.36a1,1,0,0,0,.95-.82l.14-.89h.15l.14.89a1,1,0,0,0,1,.82H49a.94.94,0,0,0,.73-.34A.92.92,0,0,0,49.91,18.77Z"/></clipPath><clipPath id="clip-path-2"><path class="cls-1" d="M47.49,17.46,46,8.3a.93.93,0,0,0-.92-.79H43a.94.94,0,0,0-.93.79v.09a.93.93,0,0,0-.93-.88H39.65a1,1,0,0,0-.82.48A.92.92,0,0,0,38,7.51H36.58a.93.93,0,0,0-.82.48,3.11,3.11,0,0,0-1.94-.59,3.16,3.16,0,0,0-2,.61.91.91,0,0,0-.82-.5H29.73a.91.91,0,0,0-.73.36,1,1,0,0,0-.74-.36H26.45a.94.94,0,0,0-.93.83v0a.94.94,0,0,0-.93-.79h-2.1a.94.94,0,0,0-.93.79l-.13.79a2.71,2.71,0,0,0-.5-.79,3,3,0,0,0-2.29-.9,3,3,0,0,0-2.3.9,3.38,3.38,0,0,0-.78,2.34v4.77a3.35,3.35,0,0,0,.78,2.33,3,3,0,0,0,2.3.9,3.33,3.33,0,0,0,1.69-.41.9.9,0,0,0,.69.31h1.32a.94.94,0,0,0,.93-.8l.13-.86h.15l.13.86a.94.94,0,0,0,.93.8h1.45l.19,0,.2,0h1.3a.93.93,0,0,0,.89-.66.94.94,0,0,0,.9.66H31a.93.93,0,0,0,.82-.5,3.15,3.15,0,0,0,2,.6,3.11,3.11,0,0,0,1.94-.58,1,1,0,0,0,.82.48H38a.92.92,0,0,0,.81-.48,1,1,0,0,0,.82.48h1.47l.2,0,.2,0h1.33a.93.93,0,0,0,.92-.8l.13-.86h.15l.13.86a.94.94,0,0,0,.93.8h1.45a.91.91,0,0,0,.71-.33A.94.94,0,0,0,47.49,17.46Z"/></clipPath></defs><g class="cls-2"><g id="Capa_1" data-name="Capa 1"><path class="cls-3" d="M8.34,20c-.92-.29-3.77-2.4-5.89-6.49A22.85,22.85,0,0,1,0,4a.37.37,0,0,1,.36-.39h0A19.32,19.32,0,0,0,3,3.31c0-.41-.11-.87.28-1h0A10.57,10.57,0,0,0,8.18.11a.37.37,0,0,1,.53,0,10.57,10.57,0,0,0,4.95,2.25c.39.08.29.54.28,1a20.84,20.84,0,0,0,2.59.33.38.38,0,0,1,.36.4,22.83,22.83,0,0,1-2.46,9.46c-2.12,4.11-5,6.23-5.88,6.49a.5.5,0,0,1-.21,0Z"/><path class="cls-4" d="M8.44,19.62C7.11,19.24.86,14.22.38,4A18.63,18.63,0,0,0,4.3,3.37h8.28A18.72,18.72,0,0,0,16.51,4C16,14.22,9.78,19.24,8.44,19.62Z"/><path class="cls-3" d="M8.44,18.73c-1-.36-5.95-5.16-6.28-14.9A17.34,17.34,0,0,0,4.3,3.37h8.28a17.5,17.5,0,0,0,2.15.46C14.4,13.57,9.49,18.37,8.44,18.73Z"/><path class="cls-5" d="M8.44,18C6,16.29,3.88,9.43,3.55,6.89c-.13-1-.22-3-.24-4.16A10.87,10.87,0,0,0,8.44.38a10.86,10.86,0,0,0,5.14,2.35c0,1.18-.11,3.13-.25,4.16C13,9.43,10.94,16.24,8.44,18Z"/><polygon class="cls-3" points="8.44 14.55 8.75 15.26 9.52 15.33 8.94 15.85 9.11 16.6 8.44 16.21 7.78 16.6 7.94 15.85 7.36 15.33 8.13 15.26 8.44 14.55"/><path class="cls-3" d="M8.44,14a4.91,4.91,0,1,0-4.9-4.9A4.91,4.91,0,0,0,8.44,14Z"/><g class="cls-6"><path class="cls-7" d="M8.44,12.49a3,3,0,1,0-3-3.05A3.06,3.06,0,0,0,8.44,12.49Z"/></g><path class="cls-3" d="M8.44,11.94a3,3,0,1,0-3-3A3,3,0,0,0,8.44,11.94Z"/><path class="cls-8" d="M10.26,6.58A3,3,0,1,1,6,10.67a3,3,0,0,0,4.26-4.09Z"/><path class="cls-4" d="M11,7.33a3.38,3.38,0,0,0-.77-.83l-.32-.21a3.16,3.16,0,0,0-1-.35,3.59,3.59,0,0,0-.47,0H8.12a2.66,2.66,0,0,0-.49.1l-.13,0a3.22,3.22,0,0,0-1.07.6,3,3,0,0,0-.63.79,3,3,0,0,0,0,3,3,3,0,0,0,.63.79,3.22,3.22,0,0,0,1.07.6l.13,0a2.66,2.66,0,0,0,.49.1h.32a3.59,3.59,0,0,0,.47,0,3.16,3.16,0,0,0,1-.35,2.92,2.92,0,0,0,.32-.21,3.38,3.38,0,0,0,.77-.83,3,3,0,0,0,0-3.24ZM9.93,6.5a3.62,3.62,0,0,1,.32.22l.22.2.18.2h0a2.16,2.16,0,0,0-.37-.37l-.14-.1-.18-.12a3,3,0,0,0-.42-.16.79.79,0,0,0-.17-.14A3.15,3.15,0,0,1,9.93,6.5Zm-1,.06a1.15,1.15,0,0,1,.55-.15,2.07,2.07,0,0,1,.47.18l.16.1.16.12a2.66,2.66,0,0,1,.43.45,1,1,0,0,1,.09.7l-.52.14L10,8.17l-.05-.06A2.47,2.47,0,0,0,9,7.54,4.34,4.34,0,0,0,9,7a1.21,1.21,0,0,0-.05-.18,1.43,1.43,0,0,0-.08-.22Zm-.79-.13a1.51,1.51,0,0,1,.67.2A2,2,0,0,1,8.91,7h0A2.85,2.85,0,0,1,9,7.54l-.08,0a3.73,3.73,0,0,0-.79.6l0,0L7.63,8.1l-.1,0h0A5.14,5.14,0,0,0,7,8a2.2,2.2,0,0,1-.16-.84,2.08,2.08,0,0,1,.41-.43,1.53,1.53,0,0,1,.3-.19l.13-.07.14-.06A2,2,0,0,1,8.12,6.43Zm.34,2.91c-.1.17-.21.33-.33.5h0c-.11.16-.24.31-.37.47H7.5a2.7,2.7,0,0,1-.86-.2,3.68,3.68,0,0,1-.21-.45s0-.08,0-.12A4,4,0,0,1,6.25,9c.06-.14.12-.26.18-.37a2.09,2.09,0,0,1,.51-.55l.56.07h0l.11,0a3.93,3.93,0,0,1,.44.1c0,.06,0,.12,0,.18C8.23,8.73,8.34,9,8.46,9.34Zm-2-2.42h0A2.9,2.9,0,0,1,7.5,6.24l.13,0,.15,0a.33.33,0,0,0-.08.24l-.07,0-.13.06a2.66,2.66,0,0,0-.33.21,2.49,2.49,0,0,0-.42.44,1.68,1.68,0,0,0-.32.09,1.05,1.05,0,0,0-.38.27.2.2,0,0,1,0-.07v0A2.8,2.8,0,0,1,6.42,6.92Zm-.62.93A2.81,2.81,0,0,1,6,7.46s0,.06,0,.08v0A1.56,1.56,0,0,0,5.8,8a1.67,1.67,0,0,0-.09.62,1.09,1.09,0,0,0-.13.17A2.76,2.76,0,0,1,5.8,7.85Zm.44,2.92h0a2.66,2.66,0,0,1-.42-.71A2.7,2.7,0,0,1,5.58,9V8.87l0-.07h0l.12-.16.07.07A1,1,0,0,0,6.2,9a3.75,3.75,0,0,0,.14.6l.09.24c.06.12.12.24.19.36a1.64,1.64,0,0,0-.14.69H6.43A.7.7,0,0,1,6.24,10.77Zm1.26.89A2.77,2.77,0,0,1,6.43,11h0l-.13-.14.14,0H6.5a1.63,1.63,0,0,0,.94.64.31.31,0,0,0,.06.13Zm2.16-.12a3,3,0,0,1-.75.24,3.57,3.57,0,0,1-.47,0l-.32,0a2.66,2.66,0,0,1-.49-.1h0a.25.25,0,0,1-.08-.14h.13a1.09,1.09,0,0,0,.49-.22.39.39,0,0,0,.1-.08,1.45,1.45,0,0,0,.55.08h.14a2.43,2.43,0,0,0,.55-.1.67.67,0,0,0,.26.24A.21.21,0,0,1,9.66,11.54Zm.27-.14-.19.11,0-.06.16,0h0Zm0-.69a1.64,1.64,0,0,1-.41.42,2,2,0,0,1-.61.12H8.76a1.56,1.56,0,0,1-.53-.08A1.71,1.71,0,0,0,8.12,11a2.37,2.37,0,0,1-.33-.7,4.71,4.71,0,0,0,.33-.42l.05-.06a3.08,3.08,0,0,0,.32-.48l.42,0c.25,0,.5,0,.74,0a3.89,3.89,0,0,1,.28.39l0,0a2.37,2.37,0,0,1,.2.46A1.88,1.88,0,0,1,9.93,10.71Zm.32-.45H10.2A3.48,3.48,0,0,0,10,9.78l-.06-.11a3.71,3.71,0,0,0-.23-.32,4.21,4.21,0,0,0,.23-.65A3.85,3.85,0,0,0,10,8.21l.25-.06L10.77,8a.88.88,0,0,1,.25.3,1.69,1.69,0,0,1,.17.45,2.17,2.17,0,0,1-.06.73A2.83,2.83,0,0,1,11,9.8a1.82,1.82,0,0,1-.15.27A1.35,1.35,0,0,1,10.25,10.26Zm.59.27a1,1,0,0,0,.07-.44L11,9.91a2.74,2.74,0,0,0,.15-.4,2.53,2.53,0,0,0,.08-.68l.05-.09a1.48,1.48,0,0,1,0,.21A3,3,0,0,1,11,10.21Z"/><path class="cls-9" d="M26.74,8h-1l-.17-1.14H24.37L24.2,8h-.91l1-6.28h1.45ZM24.49,6h1L25,2.84Z"/><path class="cls-9" d="M26.8,8.05H25.71l-.17-1.14H24.4l-.17,1.14h-1l1-6.37h1.52Zm-1-.09h.9l-1-6.19H24.33L23.34,8h.82l.17-1.13h1.29Zm-.3-1.9h-1L25,2.54ZM24.54,6h.85L25,3.14Z"/><path class="cls-9" d="M30.3,8a.56.56,0,0,1,0-.12,1.3,1.3,0,0,1,0-.13,1.15,1.15,0,0,1,0-.21V6.25a.92.92,0,0,0-.16-.62.6.6,0,0,0-.49-.18h-.34V8h-1V1.73h1.49a1.49,1.49,0,0,1,1.12.36,1.51,1.51,0,0,1,.34,1.08v.5a1.26,1.26,0,0,1-.64,1.27.87.87,0,0,1,.51.5,2.11,2.11,0,0,1,.14.84v1c0,.15,0,.29,0,.4A1.19,1.19,0,0,0,31.3,8ZM29.22,2.63V4.55h.38A.6.6,0,0,0,30,4.41a.7.7,0,0,0,.16-.52V3.27a.78.78,0,0,0-.12-.49.47.47,0,0,0-.39-.15Z"/><path class="cls-9" d="M31.37,8.05H30.26V8l0-.11a.54.54,0,0,1,0-.15s0-.12,0-.21a2.82,2.82,0,0,1,0-.31v-1A1,1,0,0,0,30,5.66a.57.57,0,0,0-.46-.16h-.3V8.05H28.19V1.68h1.53a1.53,1.53,0,0,1,1.15.38,1.53,1.53,0,0,1,.36,1.11v.5a1.35,1.35,0,0,1-.59,1.27.93.93,0,0,1,.46.48,2.42,2.42,0,0,1,.14.86v1a2.42,2.42,0,0,0,0,.4,1.4,1.4,0,0,0,.08.34Zm-1-.09h.91a1.09,1.09,0,0,1-.07-.3,2.62,2.62,0,0,1,0-.41v-1A2.19,2.19,0,0,0,31,5.46.83.83,0,0,0,30.52,5l-.09,0,.09,0a1.22,1.22,0,0,0,.62-1.23v-.5a1.47,1.47,0,0,0-.33-1,1.47,1.47,0,0,0-1.09-.35H28.28V8h.89V5.41h.39a.66.66,0,0,1,.53.19,1,1,0,0,1,.16.65v1.3c0,.08,0,.15,0,.2a1.3,1.3,0,0,0,0,.13ZM29.6,4.6h-.43v-2h.52a.51.51,0,0,1,.42.17.81.81,0,0,1,.13.52v.62a.74.74,0,0,1-.17.55A.64.64,0,0,1,29.6,4.6Zm-.34-.09h.34A.58.58,0,0,0,30,4.38a.68.68,0,0,0,.14-.49V3.27A.71.71,0,0,0,30,2.81a.38.38,0,0,0-.35-.14h-.43Z"/><path class="cls-9" d="M34.85,8h-1l-.17-1.14H32.48L32.31,8H31.4l1-6.28h1.45ZM32.6,6h.95l-.47-3.18Z"/><path class="cls-9" d="M34.91,8.05H33.82l-.17-1.14H32.51l-.17,1.14h-1l1-6.37h1.52ZM33.9,8h.9l-1-6.19H32.44L31.45,8h.82l.17-1.13h1.29Zm-.3-1.9H32.55l.53-3.52Zm-1-.09h.85l-.42-2.83Z"/><path class="cls-9" d="M35,3.24a1.71,1.71,0,0,1,.36-1.17,1.65,1.65,0,0,1,2.18,0,1.71,1.71,0,0,1,.36,1.17v.19H37V3.17a.71.71,0,0,0-.13-.48.49.49,0,0,0-.36-.14.5.5,0,0,0-.37.14.76.76,0,0,0-.13.48,1.05,1.05,0,0,0,.15.57,2,2,0,0,0,.36.47c.14.15.29.29.46.44a5.22,5.22,0,0,1,.46.48,2.66,2.66,0,0,1,.36.59,2.05,2.05,0,0,1,.14.78,1.66,1.66,0,0,1-.37,1.17,1.68,1.68,0,0,1-2.2,0A1.66,1.66,0,0,1,35,6.5V6.12h.93v.44a.67.67,0,0,0,.14.48.51.51,0,0,0,.37.13A.53.53,0,0,0,36.8,7a.67.67,0,0,0,.13-.48A1.1,1.1,0,0,0,36.79,6a1.92,1.92,0,0,0-.36-.46c-.14-.15-.3-.29-.46-.44a5.22,5.22,0,0,1-.46-.48A2.08,2.08,0,0,1,35.15,4,1.87,1.87,0,0,1,35,3.24Z"/><path class="cls-9" d="M36.45,8.12a1.44,1.44,0,0,1-1.13-.42,1.7,1.7,0,0,1-.39-1.2V6.07h1v.49a.64.64,0,0,0,.12.45.49.49,0,0,0,.34.12A.45.45,0,0,0,36.76,7a.59.59,0,0,0,.13-.45A1.06,1.06,0,0,0,36.75,6a2.15,2.15,0,0,0-.35-.46c-.14-.14-.29-.29-.46-.44s-.32-.31-.47-.48A2.8,2.8,0,0,1,35.11,4,1.92,1.92,0,0,1,35,3.24,1.73,1.73,0,0,1,35.34,2a1.42,1.42,0,0,1,1.12-.43A1.44,1.44,0,0,1,37.58,2,1.74,1.74,0,0,1,38,3.24v.24h-1V3.17a.67.67,0,0,0-.12-.45.45.45,0,0,0-.33-.12.42.42,0,0,0-.33.12.67.67,0,0,0-.12.45,1.09,1.09,0,0,0,.13.55,3,3,0,0,0,.36.46c.14.14.29.29.46.44a4.19,4.19,0,0,1,.46.48,2.62,2.62,0,0,1,.37.6,2,2,0,0,1,.15.8,1.7,1.7,0,0,1-.39,1.2A1.44,1.44,0,0,1,36.45,8.12ZM35,6.16V6.5a1.62,1.62,0,0,0,.36,1.14,1.63,1.63,0,0,0,2.14,0,1.62,1.62,0,0,0,.36-1.14,1.94,1.94,0,0,0-.14-.76,2.58,2.58,0,0,0-.36-.58,5.11,5.11,0,0,0-.45-.48c-.17-.14-.32-.29-.47-.44a2.56,2.56,0,0,1-.36-.47,1.19,1.19,0,0,1-.15-.6.72.72,0,0,1,.14-.51.54.54,0,0,1,.4-.15.51.51,0,0,1,.39.15.72.72,0,0,1,.14.51v.22h.85V3.24a1.72,1.72,0,0,0-.35-1.15,1.37,1.37,0,0,0-1.06-.39,1.35,1.35,0,0,0-1.06.39,1.72,1.72,0,0,0-.35,1.15,2,2,0,0,0,.14.76,2.24,2.24,0,0,0,.35.58,5.22,5.22,0,0,0,.46.48,4.83,4.83,0,0,1,.46.44,2.63,2.63,0,0,1,.37.47,1.15,1.15,0,0,1,.15.59.69.69,0,0,1-.15.51.56.56,0,0,1-.41.15.55.55,0,0,1-.4-.15.69.69,0,0,1-.15-.51v-.4Z"/><path class="cls-9" d="M39.23,4h1a1,1,0,0,1,.73.26,1.07,1.07,0,0,1,.25.77V7.09a1.07,1.07,0,0,1-.25.77,1,1,0,0,1-.73.26h-1Zm.66.6v3h.37a.32.32,0,0,0,.24-.09.43.43,0,0,0,.09-.31V5a.45.45,0,0,0-.09-.32.36.36,0,0,0-.24-.08Z"/><path class="cls-9" d="M40.27,8.15H39.2V3.92h1.07a1,1,0,0,1,.76.27,1.17,1.17,0,0,1,.25.79V7.09a1.17,1.17,0,0,1-.25.79A1,1,0,0,1,40.27,8.15Zm-1-.06h1A.94.94,0,0,0,41,7.84a1.06,1.06,0,0,0,.24-.75V5A1.06,1.06,0,0,0,41,4.23.9.9,0,0,0,40.27,4h-1Zm1-.54h-.4v-3h.4a.36.36,0,0,1,.26.09.46.46,0,0,1,.1.34V7.12a.42.42,0,0,1-.1.33A.33.33,0,0,1,40.26,7.55Zm-.34-.06h.34a.27.27,0,0,0,.22-.08.42.42,0,0,0,.08-.29V5a.42.42,0,0,0-.08-.29.27.27,0,0,0-.22-.08h-.34Z"/><path class="cls-9" d="M42.2,5.71h.9V6.3h-.9V7.52h1.13v.6H41.54V4h1.79v.6H42.2Z"/><path class="cls-9" d="M43.36,8.15H41.51V3.92h1.85v.66H42.23v1.1h.9v.65h-.9V7.49h1.13Zm-1.79-.06H43.3V7.55H42.17V6.27h.9V5.74h-.9V4.52H43.3V4H41.57Z"/><path class="cls-10" d="M20.17,19.5a2.58,2.58,0,0,1-2-.77,3,3,0,0,1-.69-2.09V11.73a3,3,0,0,1,.69-2.08,2.58,2.58,0,0,1,2-.77,2.58,2.58,0,0,1,2,.77,3,3,0,0,1,.68,2.08v.92a.47.47,0,0,1-.48.48H21a.48.48,0,0,1-.49-.48v-1c0-.31-.06-.38-.06-.38a.38.38,0,0,0-.44,0s-.07.07-.07.38v5.1a.69.69,0,0,0,.06.37s.07.06.23.06.2,0,.22-.06h0a.69.69,0,0,0,.06-.37V15.39a.48.48,0,0,1,.49-.48h1.4a.47.47,0,0,1,.48.48v1.25a3,3,0,0,1-.68,2.09A2.61,2.61,0,0,1,20.17,19.5Z"/><path class="cls-10" d="M20.17,9.36a2.11,2.11,0,0,1,1.65.61,2.55,2.55,0,0,1,.56,1.76v.92H21v-1a1,1,0,0,0-.21-.72.76.76,0,0,0-.56-.21.75.75,0,0,0-.56.21,1,1,0,0,0-.21.72v5.1a1,1,0,0,0,.21.71.75.75,0,0,0,.56.21.76.76,0,0,0,.56-.21,1,1,0,0,0,.21-.71V15.39h1.4v1.25a2.56,2.56,0,0,1-.56,1.77,2.14,2.14,0,0,1-1.65.61,2.18,2.18,0,0,1-1.66-.61A2.56,2.56,0,0,1,18,16.64V11.73A2.55,2.55,0,0,1,18.51,10a2.15,2.15,0,0,1,1.66-.61m0-1a3.08,3.08,0,0,0-2.37.93A3.44,3.44,0,0,0,17,11.73v4.91a3.47,3.47,0,0,0,.81,2.42,3.08,3.08,0,0,0,2.37.93,3.06,3.06,0,0,0,2.36-.93,3.48,3.48,0,0,0,.82-2.42V15.39a1,1,0,0,0-1-1H21a.93.93,0,0,0-.57.19V13.43a.93.93,0,0,0,.57.19h1.4a1,1,0,0,0,1-1v-.92a3.45,3.45,0,0,0-.82-2.41,3.06,3.06,0,0,0-2.36-.93Z"/><path class="cls-10" d="M26.32,19.39a.48.48,0,0,1-.48-.41l-.19-1.3h-1l-.2,1.3a.47.47,0,0,1-.47.41H22.62a.46.46,0,0,1-.36-.17.42.42,0,0,1-.11-.38l1.51-9.45A.48.48,0,0,1,24.13,9h2.18a.48.48,0,0,1,.47.41l1.51,9.45a.44.44,0,0,1-.1.38.5.5,0,0,1-.37.17Zm-1-4-.15-1-.16,1Z"/><path class="cls-10" d="M26.31,9.47l1.51,9.44h-1.5l-.26-1.71H24.24L24,18.91H22.62l1.51-9.44h2.18m-1.88,6.45h1.43l-.71-4.78-.72,4.78M26.31,8.5H24.13a1,1,0,0,0-.95.81l-1.51,9.45a.93.93,0,0,0,.22.78,1,1,0,0,0,.73.34H24a1,1,0,0,0,1-.83l.13-.89h.16l.13.89a1,1,0,0,0,1,.83h1.5a1,1,0,0,0,.73-.34.93.93,0,0,0,.22-.78L27.26,9.31a1,1,0,0,0-1-.81Z"/><path class="cls-10" d="M31.41,19.39a.48.48,0,0,1-.47-.35L30,15.71v3.2a.47.47,0,0,1-.48.48H28.22a.48.48,0,0,1-.48-.48V9.47A.49.49,0,0,1,28.22,9h1.86a.49.49,0,0,1,.47.36l.58,2.13v-2A.48.48,0,0,1,31.61,9h1.32a.48.48,0,0,1,.48.49v9.44a.47.47,0,0,1-.48.48Z"/><path class="cls-10" d="M32.93,9.47v9.44H31.41l-1.85-6.84v6.84H28.22V9.47h1.86l1.53,5.65V9.47h1.32m0-1H31.61a1,1,0,0,0-.76.37,1,1,0,0,0-.77-.37H28.22a1,1,0,0,0-1,1v9.44a1,1,0,0,0,1,1h1.34a1,1,0,0,0,.92-.69,1,1,0,0,0,.93.69h1.52a1,1,0,0,0,1-1V9.47a1,1,0,0,0-1-1Z"/><path class="cls-10" d="M35.82,19.5a2.6,2.6,0,0,1-2-.77,3,3,0,0,1-.69-2.09V11.73a3,3,0,0,1,.69-2.08,2.6,2.6,0,0,1,2-.77,2.56,2.56,0,0,1,2,.77,3,3,0,0,1,.68,2.08v.92a.47.47,0,0,1-.48.48h-1.4a.47.47,0,0,1-.48-.48v-1c0-.31-.07-.38-.07-.38a.38.38,0,0,0-.44,0s-.07.07-.07.38v5.1c0,.29.07.37.07.37s.06.06.22.06.2,0,.22-.06.07-.08.07-.37V15.39a.47.47,0,0,1,.48-.48H38a.47.47,0,0,1,.48.48v1.25a3,3,0,0,1-.68,2.09A2.6,2.6,0,0,1,35.82,19.5Z"/><path class="cls-10" d="M35.82,9.36a2.11,2.11,0,0,1,1.65.61A2.55,2.55,0,0,1,38,11.73v.92h-1.4v-1a1,1,0,0,0-.21-.72.85.85,0,0,0-1.12,0,1,1,0,0,0-.21.72v5.1a1,1,0,0,0,.21.71.85.85,0,0,0,1.12,0,1,1,0,0,0,.21-.71V15.39H38v1.25a2.56,2.56,0,0,1-.56,1.77,2.54,2.54,0,0,1-3.3,0,2.51,2.51,0,0,1-.56-1.77V11.73A2.5,2.5,0,0,1,34.17,10a2.11,2.11,0,0,1,1.65-.61m0-1a3.08,3.08,0,0,0-2.37.93,3.44,3.44,0,0,0-.81,2.41v4.91a3.47,3.47,0,0,0,.81,2.42,3.48,3.48,0,0,0,4.74,0A3.52,3.52,0,0,0,39,16.64V15.39a1,1,0,0,0-1-1h-1.4a.93.93,0,0,0-.57.19V13.43a.93.93,0,0,0,.57.19H38a1,1,0,0,0,1-1v-.92a3.49,3.49,0,0,0-.81-2.41,3.09,3.09,0,0,0-2.37-.93Z"/><path class="cls-10" d="M41.84,19.39a.48.48,0,0,1-.49-.48V15.35h-.72v3.56a.47.47,0,0,1-.48.48H38.67a.48.48,0,0,1-.49-.48V9.47A.49.49,0,0,1,38.67,9h1.48a.48.48,0,0,1,.48.49V13h.72V9.47A.49.49,0,0,1,41.84,9h1.51a.49.49,0,0,1,.48.49v9.44a.48.48,0,0,1-.48.48Z"/><path class="cls-10" d="M43.35,9.47v9.44H41.84V14.86H40.15v4.05H38.67V9.47h1.48v4h1.69v-4h1.51m0-1H41.84A1,1,0,0,0,41,9a1,1,0,0,0-.84-.49H38.67a1,1,0,0,0-1,1v9.44a1,1,0,0,0,1,1h1.48a1,1,0,0,0,.84-.5,1,1,0,0,0,.85.5h1.51a1,1,0,0,0,1-1V9.47a1,1,0,0,0-1-1Z"/><path class="cls-10" d="M47.46,19.39A.47.47,0,0,1,47,19l-.2-1.3h-1L45.61,19a.48.48,0,0,1-.48.41H43.77a.47.47,0,0,1-.37-.17.48.48,0,0,1-.11-.38L44.8,9.39A.49.49,0,0,1,45.28,9h2.17a.49.49,0,0,1,.48.41l1.51,9.45a.48.48,0,0,1-.48.55Zm-1-4-.15-1-.16,1Z"/><path class="cls-10" d="M47.45,9.47,49,18.91h-1.5l-.25-1.71H45.39l-.26,1.71H43.77l1.51-9.44h2.17m-1.88,6.45H47l-.71-4.78-.72,4.78M47.45,8.5H45.28a1,1,0,0,0-1,.81l-1.51,9.45a1,1,0,0,0,.22.78,1,1,0,0,0,.74.34h1.36a1,1,0,0,0,.95-.83l.14-.89h.15l.14.89a1,1,0,0,0,1,.83H49a1,1,0,0,0,.74-.34,1,1,0,0,0,.21-.78L48.4,9.31a1,1,0,0,0-.95-.81Z"/><path class="cls-9" d="M22.38,15.39v1.25a2.56,2.56,0,0,1-.56,1.77,2.14,2.14,0,0,1-1.65.61,2.18,2.18,0,0,1-1.66-.61A2.56,2.56,0,0,1,18,16.64V11.73A2.55,2.55,0,0,1,18.51,10a2.15,2.15,0,0,1,1.66-.61,2.11,2.11,0,0,1,1.65.61,2.55,2.55,0,0,1,.56,1.76v.92H21v-1a1,1,0,0,0-.21-.72.76.76,0,0,0-.56-.21.75.75,0,0,0-.56.21,1,1,0,0,0-.21.72v5.1a1,1,0,0,0,.21.71.75.75,0,0,0,.56.21.76.76,0,0,0,.56-.21,1,1,0,0,0,.21-.71V15.39Z"/><path class="cls-9" d="M20.17,19.09a2.19,2.19,0,0,1-1.7-.64,2.57,2.57,0,0,1-.58-1.81V11.73a2.55,2.55,0,0,1,.58-1.8,2.19,2.19,0,0,1,1.7-.64,2.2,2.2,0,0,1,1.7.64,2.61,2.61,0,0,1,.58,1.8v1H20.91V11.64a1,1,0,0,0-.19-.68.71.71,0,0,0-.51-.19.69.69,0,0,0-.51.19,1,1,0,0,0-.19.68v5.1a1,1,0,0,0,.18.67.73.73,0,0,0,.52.18.71.71,0,0,0,.51-.18.93.93,0,0,0,.19-.67V15.32h1.54v1.32a2.62,2.62,0,0,1-.58,1.81A2.2,2.2,0,0,1,20.17,19.09Zm0-9.66a2.06,2.06,0,0,0-1.61.59A2.45,2.45,0,0,0,18,11.73v4.91a2.46,2.46,0,0,0,.54,1.72,2.09,2.09,0,0,0,1.61.59,2.08,2.08,0,0,0,1.6-.59,2.46,2.46,0,0,0,.54-1.72V15.46H21v1.28a1,1,0,0,1-.23.76.81.81,0,0,1-.6.22.83.83,0,0,1-.61-.22,1,1,0,0,1-.23-.76v-5.1a1.07,1.07,0,0,1,.23-.77.84.84,0,0,1,.61-.23.85.85,0,0,1,.61.23,1.07,1.07,0,0,1,.22.77v.94h1.27v-.85A2.45,2.45,0,0,0,21.77,10,2,2,0,0,0,20.17,9.43Z"/><path class="cls-9" d="M27.82,18.91h-1.5l-.26-1.71H24.24L24,18.91H22.62l1.51-9.44h2.18Zm-3.39-3h1.43l-.71-4.78Z"/><path class="cls-9" d="M27.9,19H26.26L26,17.26H24.3L24,19h-1.5L24.08,9.4h2.28Zm-1.52-.14h1.36L26.25,9.53H24.19L22.7,18.84h1.23l.25-1.71h1.94ZM25.94,16H24.35l.8-5.29Zm-1.43-.13h1.27l-.63-4.26Z"/><path class="cls-9" d="M29.56,12.07v6.84H28.22V9.47h1.86l1.53,5.65V9.47h1.32v9.44H31.41Z"/><path class="cls-9" d="M33,19H31.36l-1.73-6.41V19H28.16V9.4h2l1.4,5.22V9.4H33Zm-1.54-.14h1.4V9.53H31.68v6.09L30,9.53H28.29v9.31h1.2V11.57Z"/><path class="cls-9" d="M38,15.39v1.25a2.56,2.56,0,0,1-.56,1.77,2.54,2.54,0,0,1-3.3,0,2.51,2.51,0,0,1-.56-1.77V11.73A2.5,2.5,0,0,1,34.17,10a2.54,2.54,0,0,1,3.3,0A2.55,2.55,0,0,1,38,11.73v.92h-1.4v-1a1,1,0,0,0-.21-.72.85.85,0,0,0-1.12,0,1,1,0,0,0-.21.72v5.1a1,1,0,0,0,.21.71.85.85,0,0,0,1.12,0,1,1,0,0,0,.21-.71V15.39Z"/><path class="cls-9" d="M35.82,19.09a2.19,2.19,0,0,1-1.7-.64,2.57,2.57,0,0,1-.58-1.81V11.73a2.55,2.55,0,0,1,.58-1.8,2.58,2.58,0,0,1,3.4,0,2.61,2.61,0,0,1,.58,1.8v1H36.56V11.64a1,1,0,0,0-.19-.68.71.71,0,0,0-.51-.19.69.69,0,0,0-.51.19,1,1,0,0,0-.19.68v5.1a.93.93,0,0,0,.19.67.81.81,0,0,0,1,0,.91.91,0,0,0,.19-.67V15.32H38.1v1.32a2.62,2.62,0,0,1-.58,1.81A2.2,2.2,0,0,1,35.82,19.09Zm0-9.66a2,2,0,0,0-1.6.59,2.46,2.46,0,0,0-.55,1.71v4.91a2.47,2.47,0,0,0,.55,1.72,2.05,2.05,0,0,0,1.6.59,2.08,2.08,0,0,0,1.6-.59A2.47,2.47,0,0,0,38,16.64V15.46H36.7v1.28a1,1,0,0,1-.23.76.85.85,0,0,1-.61.22.83.83,0,0,1-.61-.22,1,1,0,0,1-.23-.76v-5.1a1.07,1.07,0,0,1,.23-.77.84.84,0,0,1,.61-.23.85.85,0,0,1,.61.23,1.07,1.07,0,0,1,.23.77v.94H38v-.85A2.46,2.46,0,0,0,37.42,10,2,2,0,0,0,35.82,9.43Z"/><path class="cls-9" d="M40.15,18.91H38.67V9.47h1.48v4h1.69v-4h1.51v9.44H41.84V14.86H40.15Z"/><path class="cls-9" d="M43.41,19H41.77V14.93H40.22V19H38.6V9.4h1.62v4h1.55v-4h1.64Zm-1.51-.14h1.38V9.53H41.9v4.05H40.08V9.53H38.73v9.31h1.35v-4H41.9Z"/><path class="cls-9" d="M49,18.91h-1.5l-.25-1.71H45.39l-.26,1.71H43.77l1.51-9.44h2.17Zm-3.39-3H47l-.71-4.78Z"/><path class="cls-9" d="M49,19H47.41l-.26-1.72H45.44L45.19,19h-1.5V18.9l1.52-9.5h2.29v.06Zm-1.52-.14h1.36L47.39,9.53H45.33l-1.49,9.31h1.23l.26-1.71h1.93ZM47.08,16H45.5l.79-5.29Zm-1.43-.13h1.28l-.64-4.26Z"/><g class="cls-11"><path class="cls-10" d="M48.87,18.4a2.35,2.35,0,0,0,0,.59,3.47,3.47,0,0,1-.38-.59,2.26,2.26,0,0,0,0,.26l-.16-.22v0l0-.07v.15l-.16.26-.3-.41v.44l-.35-.69,0,.55-.06-.25-.17.36-.22-.51,0,.13-.15-.28,0,.71-.27-.41-.06.52a1.9,1.9,0,0,1-.3-.67.68.68,0,0,1,0-.2l0,.06s0-.07,0-.1a1.72,1.72,0,0,0-.07.21.92.92,0,0,0,0,1l0,0a10.37,10.37,0,0,1-.53-1s0-.07,0-.11a.21.21,0,0,0,0,.06c-.07-.15-.14-.3-.2-.45,0,.23,0,.46.05.69l0,0a3.62,3.62,0,0,1-.13-.35,3.14,3.14,0,0,0-.1,1.1H44.9a.81.81,0,0,1-.21-.95,1.28,1.28,0,0,0-.34.45c-.07-.17-.14-.33-.2-.5a5.13,5.13,0,0,0,0,1,.91.91,0,0,1-.33-1.05,1.15,1.15,0,0,0-.31.51l-.07-.05v0h0l0,0-.09-.23-.12.6a1.82,1.82,0,0,1-.12-.65,2,2,0,0,0-.3.81l-.49-.91,0,1.08-.38-.93-.13.66-.13-.17-.2-.49,0,.12a1.66,1.66,0,0,1-.14-.37,1.84,1.84,0,0,0,0,.84l0,.25-.35-1,0,.35-.14-.35-.1.52-.13-.32-.16.77L40,18l-.05.48,0-.48L39.56,19l-.15-.77-.13.32-.1-.52L39,18.4l0-.35-.32.94h0l0-.15a1.71,1.71,0,0,0,0-.84,1.63,1.63,0,0,1-.13.37l0-.12-.21.49a1.09,1.09,0,0,1-.13.17L38,18.25l-.3.73h-.07l0-.89-.49.91a2,2,0,0,0-.31-.81,1.62,1.62,0,0,1-.11.65l-.12-.6-.1.23,0,0h0l0,0-.06.05a1.09,1.09,0,0,0-.32-.51.91.91,0,0,1-.32,1.05,6.15,6.15,0,0,0,0-1,5.32,5.32,0,0,1-.21.5,1.14,1.14,0,0,0-.33-.45.83.83,0,0,1-.2.94H35a3.06,3.06,0,0,0-.11-1.08,3.59,3.59,0,0,1-.12.35s0,0,0,0c0-.23,0-.46.05-.69-.06.15-.13.3-.2.45l0-.06a.45.45,0,0,1,0,.11c-.13.29-.28.57-.44.85h0a.94.94,0,0,0-.11-.78,1.66,1.66,0,0,0-.06-.21s0,.06,0,.1a.21.21,0,0,1,0-.06,1.36,1.36,0,0,1,0,.2,1.9,1.9,0,0,1-.3.67l-.06-.52-.27.41,0-.71-.15.28,0-.13-.23.51-.16-.36-.06.25,0-.55-.35.69v-.44l-.29.41-.17-.26v-.15l-.05.07v0l-.15.22a2.28,2.28,0,0,0,0-.26,2.89,2.89,0,0,1-.37.59,2.94,2.94,0,0,0-.05-.59,3.59,3.59,0,0,1-.17.34l0-.29-.52.66a2.54,2.54,0,0,0-.14-.86,2.91,2.91,0,0,1-.12.39,2.19,2.19,0,0,0-.12-.49,2.73,2.73,0,0,1-.28.8l-.06-.16.1-.64-.18.29a2.63,2.63,0,0,1,0-.49,4.4,4.4,0,0,0-.34.69v-.83l-.32.8a1,1,0,0,0-.08-.29L28.77,18l0,.1a1.48,1.48,0,0,0-.22-.29,1.17,1.17,0,0,1-.09.93v-.39l-.14.21-.12-.16a1.09,1.09,0,0,1,0,.31l-.27.4-.12-.29a1.61,1.61,0,0,0-.07-.37,1.55,1.55,0,0,1-.26.49,1.32,1.32,0,0,0-.33-.64,1.09,1.09,0,0,1-.24.85v-.8l-.12.16v-.06a1.93,1.93,0,0,1-.28.36.84.84,0,0,1-.05-.17,1.63,1.63,0,0,1,.21-.74l-.32.36a1.08,1.08,0,0,0-.23.38v-.29l-.26.5v0l-.21-.29a1,1,0,0,1-.09-.59c-.06.1-.12.2-.17.3a.36.36,0,0,0,0,.09.29.29,0,0,0,0-.09,2.19,2.19,0,0,0-.12.33l-.33.44a2.89,2.89,0,0,1,0-.72c-.08.11-.15.22-.21.32a3.45,3.45,0,0,0-.14-.42,3.29,3.29,0,0,1-.25.79L24,18.25l-.29,1,.07-1.2-.45.92a1.16,1.16,0,0,0,0-.18,5.17,5.17,0,0,0,0-.79,6,6,0,0,1-.37.77c-.13.21-.29.42-.43.63a1.13,1.13,0,0,1,.2-.62,1.65,1.65,0,0,0,.18-.41A.52.52,0,0,0,23,18a.58.58,0,0,1-.12.41,2.91,2.91,0,0,1-.34.38,2.66,2.66,0,0,0-.23.24v-.43l-.37.5a1.59,1.59,0,0,1,0-.89,1.88,1.88,0,0,0-.25.46,1.28,1.28,0,0,0-.14-.37,1.16,1.16,0,0,1-.08.42,1.77,1.77,0,0,0-.15-.42,1.26,1.26,0,0,1-.11.51,4.16,4.16,0,0,1,0-.61c-.1.17-.18.34-.26.5v-.1l-.25.34a.19.19,0,0,0,0-.07,9.7,9.7,0,0,1,.32-1.26c-.13.18-.24.35-.36.53v0c0,.05,0,.09,0,.14s-.21.35-.31.52a10.82,10.82,0,0,0-.71-1.15,8.64,8.64,0,0,1,.33,1.38l-.28-.39v.62a1.6,1.6,0,0,1-.35-.92,1.18,1.18,0,0,0-.15.42,1.43,1.43,0,0,1-.09-.42,1.63,1.63,0,0,0-.13.37,2.3,2.3,0,0,0-.25-.46,1.68,1.68,0,0,1,0,.89l-.37-.5V19l-.23-.24a2.91,2.91,0,0,1-.34-.38.54.54,0,0,1-.12-.41.52.52,0,0,0-.05.42,1.35,1.35,0,0,0,.18.41,1.19,1.19,0,0,1,.2.62h0c-.15-.21-.3-.42-.43-.63A6,6,0,0,1,17,18a5.17,5.17,0,0,0,0,.79l0,.18-.44-.92.07,1.2-.29-1L16.2,19a2.81,2.81,0,0,1-.19-.53.2.2,0,0,0,0,.15s-.05.06-.11.06,0-.11-.05-.12a2.06,2.06,0,0,1-.24.39.22.22,0,0,1,0,.08l0,0a1.33,1.33,0,0,0-.14.19,8.46,8.46,0,0,0-.16,1.41H49.34v-1.1S49,18.77,48.87,18.4Zm-19.23.76v-.07h0A.25.25,0,0,1,29.64,19.16Z"/></g><g class="cls-12"><path class="cls-10" d="M46.47,17.1a2.69,2.69,0,0,0,0,.57,3.26,3.26,0,0,1-.36-.58,2.18,2.18,0,0,0,0,.25l-.15-.21v0l-.05-.06v.14l-.16.25-.29-.39v.42L45,16.81l0,.53-.06-.24-.16.34L44.55,17l0,.12-.14-.27,0,.69-.26-.39-.06.5a1.76,1.76,0,0,1-.29-.66.55.55,0,0,1,0-.18.1.1,0,0,0,0,0s0-.07,0-.1a.83.83,0,0,0-.06.21.89.89,0,0,0,0,.92l0,0a9.7,9.7,0,0,1-.51-.95s0-.07,0-.1a.1.1,0,0,0,0,0c-.07-.14-.13-.29-.19-.44a4.91,4.91,0,0,0,.05.67.14.14,0,0,0,0,.06c0-.12-.09-.23-.13-.34a3.16,3.16,0,0,0-.1,1.06h0a.79.79,0,0,1-.21-.92,1.15,1.15,0,0,0-.32.43,3.26,3.26,0,0,1-.2-.48,4.82,4.82,0,0,0,0,.93.88.88,0,0,1-.31-1,1.18,1.18,0,0,0-.31.5l-.06-.05v0h0l0,0L41.09,17l-.11.58a1.76,1.76,0,0,1-.12-.63,1.82,1.82,0,0,0-.29.78l-.48-.87,0,1-.36-.9-.13.64c0-.06-.09-.11-.13-.16L39.3,17l0,.12a1.74,1.74,0,0,1-.13-.36,1.59,1.59,0,0,0,0,.81l0,.24-.34-1,0,.33-.13-.33-.1.5L38.4,17l-.15.75-.35-1,0,.46-.05-.46-.35,1L37.3,17l-.13.31-.09-.5-.14.33,0-.33-.3.91h-.06l0-.14a1.71,1.71,0,0,0,0-.81,2.6,2.6,0,0,1-.13.36l0-.12-.19.48-.13.16L36,17l-.29.71h-.08l0-.86-.47.87a2,2,0,0,0-.3-.78,1.74,1.74,0,0,1-.11.63L34.61,17l-.09.22,0,0h0v0l-.06.05a1.18,1.18,0,0,0-.31-.5.88.88,0,0,1-.31,1,4.82,4.82,0,0,0,0-.93,4.78,4.78,0,0,1-.19.48,1.27,1.27,0,0,0-.32-.43.8.8,0,0,1-.2.91H33a2.82,2.82,0,0,0-.1-1c0,.11-.08.22-.12.34a.14.14,0,0,1,0-.06c0-.22,0-.44,0-.67,0,.15-.12.3-.18.44l0,0s0,.07,0,.1a9.16,9.16,0,0,1-.43.82h0a.91.91,0,0,0-.1-.75,1.72,1.72,0,0,0-.07-.21.34.34,0,0,1,0,.1.1.1,0,0,0,0,0,.55.55,0,0,1,0,.18,1.61,1.61,0,0,1-.29.66l-.05-.5-.27.39,0-.69-.14.27,0-.12-.22.49-.16-.34-.05.24-.06-.53-.34.66v-.42l-.29.39-.16-.25v-.14l-.05.06v0l-.16.21a2.18,2.18,0,0,0,0-.25,2.77,2.77,0,0,1-.36.58,2.69,2.69,0,0,0-.05-.57,2,2,0,0,1-.17.32l0-.28-.51.64a2.37,2.37,0,0,0-.14-.83,1.82,1.82,0,0,1-.11.38,2.77,2.77,0,0,0-.11-.48,2.74,2.74,0,0,1-.28.77.88.88,0,0,1-.05-.15l.09-.62-.18.28a3.59,3.59,0,0,1,0-.47,3.2,3.2,0,0,0-.33.67v-.81l-.31.78a1,1,0,0,0-.08-.29l-.08-.3,0,.09a2.55,2.55,0,0,0-.21-.28,1.14,1.14,0,0,1-.09.9v-.37l-.14.2-.11-.15a1,1,0,0,1,0,.3l-.26.38-.12-.28a1.53,1.53,0,0,0-.07-.36,1.34,1.34,0,0,1-.25.47,1.29,1.29,0,0,0-.32-.61,1.07,1.07,0,0,1-.23.82v-.77l-.12.15v-.06a2.19,2.19,0,0,1-.27.35,1,1,0,0,1-.05-.16,1.67,1.67,0,0,1,.2-.72l-.31.35a1.13,1.13,0,0,0-.22.36v-.27l-.25.48v0l-.2-.28a.92.92,0,0,1-.09-.57c-.06.1-.12.19-.17.29l0,.08a.24.24,0,0,1,0-.08,2,2,0,0,0-.12.31l-.32.43a2.66,2.66,0,0,1,0-.69c-.08.1-.14.21-.21.31a2.16,2.16,0,0,0-.13-.41,3,3,0,0,1-.24.76L22.39,17l-.28,1,.07-1.16-.43.89,0-.18a4.83,4.83,0,0,0,0-.76,5.6,5.6,0,0,1-.36.74c-.13.2-.27.41-.42.61a1.18,1.18,0,0,1,.2-.6,2,2,0,0,0,.18-.4.52.52,0,0,0-.06-.4.48.48,0,0,1-.11.39,2.83,2.83,0,0,1-.33.37l-.22.23v-.41l-.35.49a1.52,1.52,0,0,1,0-.87,2.11,2.11,0,0,0-.24.44,1.28,1.28,0,0,0-.14-.35,1.47,1.47,0,0,1-.07.41,1.56,1.56,0,0,0-.15-.41,1.21,1.21,0,0,1-.11.49,3.9,3.9,0,0,1,0-.59c-.09.16-.17.33-.25.49v-.1l-.24.33s0-.05,0-.07a7.53,7.53,0,0,1,.31-1.22l-.35.51v0a.69.69,0,0,0-.05.13c-.11.17-.2.34-.3.51A10.25,10.25,0,0,0,18,16.28a7.94,7.94,0,0,1,.33,1.34l-.28-.38v.6A1.57,1.57,0,0,1,17.7,17a1.56,1.56,0,0,0-.15.41,1.49,1.49,0,0,1-.08-.41,1.66,1.66,0,0,0-.13.35,1.77,1.77,0,0,0-.25-.44,1.52,1.52,0,0,1,0,.87l-.36-.49v.41a2.5,2.5,0,0,0-.23-.23,2.17,2.17,0,0,1-.32-.37.52.52,0,0,1-.12-.39.52.52,0,0,0-.05.4,1.59,1.59,0,0,0,.18.4,1.14,1.14,0,0,1,.19.6h0c-.14-.2-.29-.41-.41-.61a5.68,5.68,0,0,1-.37-.74,4.83,4.83,0,0,0,0,.76c0,.06,0,.12,0,.18l-.43-.89.07,1.16L15,17l-.21.71a3,3,0,0,1-.19-.5.17.17,0,0,0,0,.14s-.05.05-.11.05,0-.11-.05-.11a1.62,1.62,0,0,1-.23.37.19.19,0,0,1,0,.08l0,0-.14.18a9,9,0,0,0-.15,1.37H46.93V18.14S46.62,17.45,46.47,17.1Zm-18.64.73v-.06h0A.43.43,0,0,1,27.83,17.83Z"/></g></g></g></svg>