<?xml version="1.0" encoding="utf-8"?>
<!-- Generator: Adobe Illustrator 25.1.0, SVG Export Plug-In . SVG Version: 6.00 Build 0)  -->
<svg version="1.1" id="Capa_1" xmlns="http://www.w3.org/2000/svg" xmlns:xlink="http://www.w3.org/1999/xlink" x="0px" y="0px"
	 width="93px" height="46px" viewBox="0 0 93 46" style="enable-background:new 0 0 93 46;" xml:space="preserve">
<style type="text/css">
	.st0{fill:#DD0000;}
	.st1{fill:#FFFFFF;}
</style>
<g id="Capa_2_1_">
	<g id="Capa_1-2">
		<g>
			<path class="st0" d="M32.9,0.8h26.3C68,0.8,75,7.9,75,16.6v0.7C75,26,68,33.1,59.3,33.1H32.9c-8.7,0-15.8-7.1-15.8-15.8v-0.7
				C17.2,7.9,24.2,0.8,32.9,0.8z"/>
		</g>
		<g>
			<path class="st1" d="M31.5,23.7l0.6-0.2c0.7-0.2,1-0.3,1-1.7v-9.8c0-1.5-0.2-1.5-1-1.7l-0.6-0.1V9.5h8v0.7l-0.7,0.1
				c-0.8,0.2-1,0.3-1,1.7v9.5c0,1.6,0.1,1.8,1.6,1.8c1.6,0,2-0.3,2.7-1.4c0.6-1,1.2-2.1,1.6-3.2h0.8l-0.4,5.6H31.5V23.7z"/>
		</g>
		<g>
			<path class="st1" d="M44.9,23.7l0.6-0.2c0.7-0.2,0.9-0.3,0.9-1.7v-9.8c0-1.5-0.2-1.5-0.9-1.7l-0.6-0.1V9.5h7.6
				c4.7,0,6.6,1.4,6.6,4c0,2-0.8,3-2.7,3.6v0.1c0.9,2.1,2,4.1,3.2,5.9c0.2,0.3,0.4,0.3,0.8,0.5l0.3,0.1v0.7h-5.6
				c-1-1.4-2.4-4.4-3-6.3c-0.3,0-0.7,0-0.9,0v3.7c0,1.5,0.2,1.6,0.9,1.7l0.6,0.2v0.7h-7.8V23.7z M54.3,13.8c0-2.4-0.4-3.3-1.9-3.3
				c-0.4,0-0.8,0-1.1,0.1v6.4c0.3,0,0.6,0.1,0.9,0.1C53.6,17.2,54.3,16.5,54.3,13.8"/>
		</g>
		<g>
			<path class="st0" d="M75.4,7.4c0,3.8-3.1,6.9-6.9,6.9c-3.8,0-6.9-3.1-6.9-6.9s3.1-6.9,6.9-6.9c0,0,0,0,0,0
				C72.3,0.5,75.4,3.6,75.4,7.4C75.4,7.4,75.4,7.4,75.4,7.4"/>
		</g>
		<g>
			<path class="st1" d="M68.5,14.7c-4.1,0-7.4-3.3-7.4-7.4c0-4.1,3.3-7.4,7.4-7.4c4.1,0,7.4,3.3,7.4,7.4v0
				C75.8,11.4,72.5,14.7,68.5,14.7z M68.5,0.9c-3.5,0-6.4,2.9-6.4,6.4s2.9,6.4,6.4,6.4s6.4-2.9,6.4-6.4v0C74.9,3.8,72,0.9,68.5,0.9z
				"/>
		</g>
		<g>
			<polygon class="st1" points="67.7,4 69.2,4 69.2,6.6 71.8,6.6 71.8,8.1 69.2,8.1 69.2,10.7 67.7,10.7 67.7,8.1 65.1,8.1 
				65.1,6.6 67.7,6.6 			"/>
		</g>
		<g>
			<path d="M17.3,37.4H19l3.9,5.2v-5.2h1.8v8.4h-1.6l-4.1-5.3v5.3h-1.8V37.4z"/>
		</g>
		<g>
			<path d="M26.2,41.7L26.2,41.7c0-2.4,1.9-4.4,4.3-4.4c0,0,0.1,0,0.1,0c2.6,0,4.5,1.9,4.5,4.3v0c0,2.4-1.9,4.3-4.3,4.4
				c0,0-0.1,0-0.1,0C28.1,46,26.2,44.1,26.2,41.7z M33.2,41.7L33.2,41.7c0-1.4-1.1-2.6-2.5-2.7c0,0-0.1,0-0.1,0
				c-1.4,0-2.5,1.1-2.5,2.5c0,0,0,0.1,0,0.1v0c0,1.4,1.1,2.6,2.5,2.6c0,0,0.1,0,0.1,0c1.4,0,2.5-1.1,2.5-2.5
				C33.2,41.7,33.2,41.7,33.2,41.7z"/>
		</g>
		<g>
			<path d="M38.5,39.2H36v-1.7h7v1.7h-2.6v6.7h-1.8V39.2z"/>
		</g>
		<g>
			<path d="M44.2,37.4H46v8.4h-1.8V37.4z"/>
		</g>
		<g>
			<path d="M47.5,41.7L47.5,41.7c0-2.4,1.8-4.3,4.2-4.4c0.1,0,0.1,0,0.2,0c1.2-0.1,2.4,0.4,3.3,1.3L54,40c-0.6-0.6-1.3-0.9-2.1-0.9
				c-1.4,0-2.4,1.2-2.4,2.6v0c0,1.4,1,2.6,2.4,2.6c1,0,1.5-0.4,2.2-1l1.2,1.2c-0.9,1-2.1,1.6-3.4,1.5c-2.3,0-4.3-1.8-4.3-4.2
				C47.5,41.8,47.5,41.7,47.5,41.7z"/>
		</g>
		<g>
			<path d="M56.6,37.4h1.8v8.4h-1.8V37.4z"/>
		</g>
		<g>
			<path d="M63.2,37.4h1.7l3.6,8.5h-1.9L65.8,44h-3.6l-0.8,1.9h-1.9L63.2,37.4z M65.2,42.3L64,39.6l-1.1,2.7H65.2z"/>
		</g>
		<g>
			<path d="M69,44.6l1.1-1.3c0.7,0.6,1.6,1,2.5,1c0.8,0,1.2-0.3,1.2-0.8v0c0-0.5-0.3-0.7-1.7-1.1c-1.7-0.4-2.8-0.9-2.8-2.6v0
				c0-1.5,1.2-2.5,2.9-2.5c1.1,0,2.2,0.4,3.1,1.1l-1,1.4c-0.6-0.5-1.4-0.8-2.2-0.8c-0.7,0-1.1,0.3-1.1,0.7v0c0,0.6,0.4,0.7,1.8,1.1
				c1.7,0.4,2.7,1.1,2.7,2.5v0c0,1.7-1.3,2.6-3.1,2.6C71.2,46,70,45.5,69,44.6z"/>
		</g>
	</g>
</g>
</svg>
