<svg xmlns="http://www.w3.org/2000/svg" width="166.7" height="46.7"><path d="M50.1 31.4h116.6v15.3H50.1z" fill="red"/><path d="M56.2 35.5h6v1.6h-4.3v1.6h3.7v1.6h-3.7V42h4.3v1.6h-6v-8.1zm7.4 0h1.6l3.7 4.9v-4.9h1.7v7.9h-1.5l-3.8-5.1v5.1h-1.7v-7.9zm12.2 0h1.7v6.3h4v1.6h-5.7v-7.9zm9.6-.1H87l3.4 8h-1.8l-.7-1.8h-3.4l-.7 1.8H82l3.4-8zm1.8 4.7l-1.1-2.6-1.1 2.6h2.2zm7.6-4.6h3.6c1 0 1.8.3 2.3.8.4.4.7 1.1.7 1.8 0 1.3-.7 2.1-1.7 2.5l2 2.8h-2L98 40.8h-1.4v2.6h-1.7v-7.9h-.1zm3.5 3.8c.9 0 1.3-.5 1.3-1.1 0-.8-.5-1.1-1.4-1.1h-1.7v2.3c0-.1 1.8-.1 1.8-.1zm4.6-3.8h6v1.6h-4.3v1.6h3.7v1.6h-3.7V42h4.3v1.6h-6v-8.1zm7.4 0h3.2c1.9 0 3 1.1 3 2.7 0 1.8-1.4 2.8-3.2 2.8H112v2.4h-1.7v-7.9zm3.1 4c.9 0 1.4-.5 1.4-1.2 0-.8-.6-1.2-1.4-1.2H112v2.4h1.4zm4.3.5v-4.5h1.7V40c0 1.3.6 2 1.7 2s1.7-.6 1.7-1.9v-4.5h1.7V40c0 2.4-1.4 3.6-3.5 3.6-2.1-.1-3.3-1.3-3.3-3.6zm4.1-6.9l1.5.6-1.6 1.2h-1.3zm4.4 2.4h3.7c.9 0 1.6.3 2.1.7.4.4.6.8.6 1.4 0 .9-.5 1.4-1.1 1.7.9.3 1.5.9 1.5 2 0 1.4-1.2 2.2-3 2.2h-3.8v-8zm3.3 3.2c.8 0 1.3-.3 1.3-.9 0-.5-.4-.8-1.1-.8H128v1.7h1.5zm.5 3.2c.8 0 1.2-.3 1.2-.9s-.4-.9-1.3-.9h-2v1.7h2.1v.1zm4.3-6.4h1.7v6.3h4v1.6h-5.7v-7.9zm6.9 0h1.7v7.9h-1.7v-7.9zm3.3 3.9c0-2.3 1.7-4.1 4.1-4.1 1.5 0 2.4.5 3.1 1.2l-1.1 1.3c-.6-.6-1.2-.9-2-.9-1.3 0-2.3 1.1-2.3 2.5s.9 2.5 2.3 2.5c.9 0 1.4-.4 2.1-.9l1.1 1.1c-.8.9-1.7 1.4-3.2 1.4-2.3 0-4.1-1.8-4.1-4.1zm11.3-4h1.6l3.4 8H159l-.7-1.8h-3.4l-.7 1.8h-1.8l3.4-8zm1.9 4.7l-1.1-2.6-1.1 2.6h2.2z" fill="#fff"/><path d="M6.1 18.7c0-.6.2-.4 0-.6-1.7 1.1-1.8 3.3-1.9 5.1 0 2.5-.6 4.4-.4 6.8 0 1.3 0 2.6-.6 4-.6-.6-.7-1.2-.8-1.9C2 29 1.8 25.7.6 22.7c-1-2.4-.4-4.8-.3-7.2.1-2.2 1.4-4 1.7-6C2.6 7 4.9 7.1 6.3 5.4 6 5.3 5.5 4.1 5 4.1c2.5-1.4 5.1-1.9 7.6-2.6C17 .4 21.5-.2 26 0c1.9 0 3.7.3 5.6.8 1.4.3 2.9.2 3.8 1.1 1.1.7 1.4 1.1 2.1 1.7.7.7.2 1.1 1.1 1.4.3.1 1.4-.3 2.8.3 2.9 1.4 3.9 4 5 7 .9 2.6.3 5.2.1 7.8-.3 3.1-.3 6.2-.8 9.3-.2 1.4-.6 2.8-1.6 4-.6-1.4-.7-2.7-1.1-4-.1-.4-.1-.8-.3-1.1-1.5-3.8-2.4-7.1-3.1-11.1-.1-.5-.8-1.3-1.1-1.9-.3-.7-.6-1.5-1.1-1.7-.9-.5-1.9.2-2.8 0-2.5-.6-3.4-.3-6-.3-4.5 0-8.9-.1-13.3 1.1-2.6.7-5.5 1.1-7.5 3.1-.8.6-1 .9-1.7 1.5.1-.3 0-.3 0-.3zM41 26.4c-3.9-.6-11.3-.7-16.6.7h-2.3c-5.4-1.5-12.8-1.4-16.6-.8-.5.1-.5 2.2-.2 2.3.7.4 1.1 1.1 1.1 1.1s.3.7.9 3.4 2.2 3.1 2.2 3.1a19.23 19.23 0 0 0 4.1.5c2.1 0 3.5-.1 5-.9 1.4-.7 2-2.7 2-2.7s.7-1.7 1.2-3.3c.1-.5 2.6-.5 2.7 0 .5 1.6 1.2 3.3 1.2 3.3s.6 2 2 2.7 2.8.9 5 .9 4.1-.5 4.1-.5 1.6-.3 2.2-3.1.9-3.4.9-3.4.4-.7 1.1-1.1c.5-.1.5-2.2 0-2.2zM58 6.9v.3a.76.76 0 0 1-.4.2c-.1 0-.3.1-.4.1-.2.1-.4.2-.5.3-.2.1-.3.2-.5.3s-.2.2-.2.2c-.1.2-.2.3-.3.3-.1.1-.2.2-.2.3-.1 0-.1 0-.1.1s0 .1-.1.1l-.3.3.1.1c.1.1 0 .2 0 .3-.1.1-.1.2-.1.4s-.1.3 0 .5v.7c0 .2.1.4 0 .6v.6c.1.1.1.2 0 .3v.8s.1.1 0 .2v.2c-.1 0-.1.1-.1.2v.2c.1 0 .1.1 0 .2s-.1.2 0 .3c-.1.1-.1.2 0 .4v.5h.1c0 .1 0 .1 0 0h-.1v4c-.1 0 0 0 0 .1v1c0 .3.1.7.3 1.1a4.67 4.67 0 0 0 .5 1c.3.3.5.6.9.8.1 0 .2.1.3.1s.2.1.3.1.3 0 .3.1.2.1.3.1v.1s.1 0 .1.1v4c0 .1 0 .2-.2.2s-.3-.1-.5-.1-.4 0-.6-.1c-.2 0-.4 0-.6-.1s-.4-.2-.6-.2c-.9-.3-1.5-.8-2.1-1.3-.6-.6-1.1-1.2-1.7-1.9-.1-.3-.2-.5-.3-.7s-.2-.5-.3-.7c-.3-.7-.5-1.4-.6-2.3v-8.8c.1 0 .1-.1 0-.1v-2.2c.1-.7.3-1.4.5-2.1v-.2l.1-.1v-.1c.1 0 .2-.1.2-.3 0-.1.1-.2.1-.2 0-.1.1-.2.1-.3s.1-.2.2-.3l.1-.1c0-.1 0-.2.1-.2h.1v-.1s0-.1.1-.1V6c.3-.3.5-.6.8-.9s.5-.5.9-.7c.1-.1.2-.2.4-.3a1.38 1.38 0 0 0 .4-.3c.1 0 .2 0 .3-.1a.76.76 0 0 1 .4-.2c.1 0 .2-.1.3-.2s.2-.1.3 0c.1 0 .2-.1.3-.1s.3-.1.3-.1h.1c0-.1.1 0 .1 0 .2-.1.3-.1.4-.1s.3 0 .4-.1h.1v3.9l.5.1zm5.6 20.2c0 .1 0 .1-.1.1s0 0 0 .1v-.1c0 .1-.1.2-.2.2s-.1 0-.1.1c-.1 0-.3.1-.3.2s-.2.2-.3.2h-.2c-.2.1-.3.2-.5.3s-.3.1-.5.2c0 0-.1.1-.2.1s-.2 0-.2.1v-.1c-.1 0-.2.1-.3.1s-.2.1-.3.2l-.1.1h-.2c0 .1-.1.1-.2.1h-.4c-.1 0-.2 0-.2-.1v-.3h.1V28h-.1v-2h-.1c.1-.1.1-.3.1-.4v-.8c0-.1 0-.2.1-.1h.1c0-.1.1-.1.1-.1s.1 0 .1-.1h.1c.1 0 .1 0 .1-.1h.2c0-.1 0-.1.1-.1s.1 0 .1-.1c0 .1.1.1.1 0s0-.1.1 0l.1-.1s.1-.1.2-.1v-.1c.1 0 .1 0 .1-.1.1 0 .1-.1.1-.1v-.1h.1v-.1.1c.1-.1.1-.2.2-.3 0-.1.1-.2.2-.3h.1v-.6h.1v-.1s0-.1.1-.1l-.1-.1c.1 0 .2-.1.2-.2v-.5c-.1 0-.1 0 0-.1s0 0-.1 0v-.9c0-.1 0-.1.1-.1s.1-.1.1-.1h.1v.1-.1h.3l.1-.1s.1 0 .1-.1v.1h.1s.1 0 .1-.1v.1h.1V20s.1.1.1 0h.1s0-.1.1-.1l.1-.1v.1l.1-.1h.2s.1-.1 0-.1v-.1l.1.1s.1-.1 0-.1h.1l.1-.1h.2s0 .1.1 0v-.1l.1.1v-.1s.1-.1 0-.1v.2l.1-.1h.2v-.1l.1.1v.1h.1v.1l.1.1c0 .1-.1.2 0 .3v.9s-.1.1-.1.2v.2l-.1.1s-.1.1 0 .1v.4c0 .1 0 .2-.1.3 0 0 .1.1 0 .1l1.8.7v.3c0 .1 0 .2-.1.3v.1s.1 0 0 .1c0 0 0 .1-.1.1v.5c0 .1 0 .2-.1.2 0 0-.1.1-.1.2v.1l-.1.1s-.1.1-.1.2l-.1.1s-.1.1-.1.2c0 0-.1.1 0 .1v.1l-.6.2s0 .1-.1.1l-.2.2v.1c0 .1 0 .1-.1.1v.2s-.1.1 0 .2h-.1l-.5.1v.2c-.1 0-.1 0-.2.1h-.1v-.1h-.1z"/><path d="M59.4 2.8c0 .1 0 .1 0 0 .1.1.1.1 0 0h.4c.2.2.3.2.4.2h.1c.2 0 .3 0 .6.1.2.1.3.2.5.3v-.1.1h.1c.2 0 .3.1.4.2s.3.1.4.2c.3.2.4.2.5.3s.3.2.3.3c.1 0 .1 0 .2.1 0 .1.1.1.2.1 0 .1.1.2.2.2s.1.1.2.2c0 .1.1.2.2.3s.2.2.2.3h.1v.1c0 .1.1.2.1.2.1 0 .1.1.2.2 0 .1 0 .1.1.1 0 0 .1 0 .1.1s.1.1.1.2c0 0 .1.1.1.2s0 .2.1.3.1.2.2.3l.2.2v.4s0 .1.1.2v.2s0 .1.1.1V8c0 .3.1.5.2.8s.2.5.2.8h.1v.1-.1.1l.1.1h-.1s.1.1.1.2v1s-.1 0-.1.1v.1h-.2l-.1.1h-3.4c-.6-.2-.6-.5-.6-.8s0-.6-.2-.8c-.1-.3-.2-.5-.3-.7s-.3-.4-.5-.6c0-.1-.1-.1-.2-.2-.1 0-.2-.1-.2-.2v-.1h-.1c-.2 0-.3-.1-.5-.3-.2-.1-.3-.2-.5-.2l-.5-.1v-.1.1c0-.1 0-.2-.1-.3v-.4c0-.1.1-.3 0-.4V4.9c0-.1 0-.2.1-.3-.1 0-.1-.1-.1-.1V3.1l.5-.3zm13.7 0c-.1.1-.1.1 0 0-.1 0-.1 0-.2.1h-.3l-.1-.1v.1s0-.1-.1-.1h-.1c.1.1 0 .1 0 .1h-.2v-.1h-.2v.1h-.1s0-.1 0 0h-.1s-.1-.1 0-.1h-.1l-.7.2v-.1h-.1s-.1 0-.1-.1V3h-.9s-.1 0-.2.1v.1c0 .1 0 .1-.1.1v.3c0 .1 0 .1.1 0a.45.45 0 0 0 0 .5v.7h.1c-.1 0-.1 0-.1.1V5a.45.45 0 0 1 0 .5l.1.1c-.1.1-.1.3 0 .4v.5c.1 0 .1.1 0 .1 0 0 0 .1.1.1h-.1.1v.4h.1v.4c0 .1 0 .3-.1.4 0 0 .1.1 0 .2v.2h.1v.2c-.1.1-.1.2 0 .3v.4l.1.1-.1.1s.1.1 0 .1v.1s.1 0 0 .1v.3l.1.1v.6h.1c0 .1 0 .3-.1.3 0 .1 0 .2.1.3H70v.2s0 .1-.1.1v.1c0 .1-.1.2 0 .2v.7h.1l-.1.1h.1v.3h.1v.8l.1.1h-.1v.7c0 .1.1.2 0 .3v.8c.1.1.1.1 0 .1v.4c0 .1 0 .2-.1.2.1 0 .1.1.1.2V18c.1.1.1.2 0 .3v1.9H70v.2c.1 0 .1.1.1.2v.4c.1.1.2.2.2.3s.1.2 0 .3v.5h-.1v.1l.1.1v.3h.1v.1h-.3c0 .1 0 .1.1.1h.2v.1s.1.1.1.2v.2l.1-.1v.2h.1l.1.1v.2s0 .1.1.1c-.1 0-.1 0 0 0v.1h.1s.1 0 .1.1v.3h.1v.1h.1c.1.1.1.1 0 .2l.1.1v.1l.1-.1s.1 0 .1.1v.2h.1v.3h.1s.1 0 .1.1v.2l.1-.1v.1c0 .1 0 .1 0 0h.1c0 .1 0 .1.1.2.1 0 .1.1.1.2.1 0 .3 0 .4.1l.3.3c.1 0 .1 0 .1.1s0 .2.1.2v.3h.1s.1 0 .1.1c0 0 .1 0 .1.1s.1.1.2.1h.1c.1.1.1.1.1.2h.1s.1 0 .1.1 0 .1 0 0v.1h.2s.1 0 .1.1l.1.1v.1c0-.1 0-.1.1 0 0 .1 0 .1.1 0v.1-.1c.3.2.7.3 1.1.4s.8.2 1.1.2v-2c0-.2 0-.5.1-.7 0 0-.1-.1 0-.1v-1.3s-.1 0-.1-.1v-.1h-.1v-.2c0 .1-.1.1-.1 0s-.1-.1-.1 0h-.2c-.1 0-.1 0-.1-.1v-.1.1-.1.1c-.1 0-.2 0-.3-.2-.2-.1-.2-.2-.2-.3l-.1-.1v.2h-.1l.1-.1h-.1s-.1.1-.1 0c0 0-.1 0-.1-.1v-.3l-.2-.2v-.2h-.1v-.1.1-.4H75v-.2h-.1V21c0-.1 0-.1-.1-.1v-.6c-.1 0-.1-.1 0-.2s.1-.2.1-.3v-.2l.1-.1h-.2v-.7s-.1 0 0-.1v-.1c0-.2.1-.4.1-.6h.1c-.1-.1-.1-.3-.2-.4 0 0 0-.1.1-.1v-.8s0-.1.1-.1v-.2h-.1v-.2h-.1v-.4h.1v-.1h-.1v-.2c-.1 0-.1 0 0-.1v-.2s0-.1.1-.2c0-.1 0-.2-.1-.2v-.3h-.1v-.4c0-.1.1-.2.1-.3v-.2c0-.1 0-.2-.1-.2-.1-.1 0-.2 0-.3v-.2l.1-.1v-.1l-.1-.1v-.4l-.1-.1v-.5s-.1 0-.1-.1v-.6c0-.1 0-.2.1-.2l.1.1-.7-.9h-.1v-.2s0-.1.1-.1v-.2s0 .1-.1.1h-.1v-.1l.1-.1s-.1-.1-.1-.2V9h.1v-.2c-.1-.1-.1-.1 0-.2 0 0 .1-.1 0-.2v-.6h-.1V6.7c.1-.3.2-.3.2-.3v-.1h-.1v-.9l.1-.2h-.1v-.4c-.1-.1-.1-.2 0-.3 0-.1.1-.2.1-.3h-.1v-.6c-.1 0-.1-.1 0-.2s.1-.1 0-.2V3h-.1v-.2h-.1v-.1c-.5.2-.5.2-.6.1z"/><path d="M85.3 3.1c0-.2-.1-.2-.2-.1h-.2v-.1l.1-.2v.1c0 .1-.1.1-.2 0v.1l-.1-.1v-.1c-.1 0-.1-.1-.1-.2v.1l.1.1v.1h-.1s-.1 0 0 0l-.1-.1v.1-.1h-.3s0 .1-.1.1c0 0 .1 0 0-.1v-.1.1H84l-.2.1V3c-.1-.1-.1-.2-.1-.3v.2s-.1 0 0-.1l-.1-.1h-.1v.1l-.2.1v-.3h-.1v.1s0 .1-.1.1v-.2h-.2v.2l-.1-.1v.1-.1.1h-.1v-.1.1-.1h-.1c-.1 0-.1 0 0 .1-.1 0-.1-.1 0-.1s.1-.1 0-.1v.1h-.1v.5c-.1 0-.1 0 0 0h.1v.1l-.1.1v.1l.1.1v.8h.1v.1h.1v1c0 .1 0 .1.1.2h-.1v.2c0 .1-.1.1-.1.2V7h-.1s0 .1.1.1c0 0 .1 0 .1.1v.1h.1s0 .1.1.1 0 0 0 .1v.1-.1.5s-.1-.1 0-.1V8v-.1.2h.1s-.1 0-.1.1v.5c-.1.1-.1.2 0 .2.1.1.1.2 0 .3v.2c.1 0 .1.1 0 .1v.1c.1 0 .1 0 .1.1s-2 .3-2 .3v.2c0 .1 0 .1.1.1v.3h.1v.1s.1.1 0 .1v-.2.5c.1.1.1.3.1.4 0 0 .1.1 0 .1v.1h-.1s0 .1.1.1v.1h.1v.7c.1 0 .1 0 .1-.1 0 .2-.1.3-.2.3v.4h.1s.1 0 0 .1h-.1v.1s0 .1-.1.1c.1.1.1.1 0 .1s-.1 0 0 0c.1.1.2.2.1.4v.3l.1.1v.3h-.1c.1 0 .1.1.1.1v.1l-.5.7h.1v.2c0 .1 0 .1.1.2v.1s0 .1 0 0v.5c0 .1 0 .2-.2.3v.1-.1c.1 0 .1.1 0 .1l-.1.1s.1 0 .1.1v.4s0 .1.1.1v.7H81v.1c-.1 0-.1.1-.1.2v.1h.1c0 .1 0 .1-.1.1l.1.1c-.1.1-.1.2 0 .2s.1.1 0 .2v-.1.8h.1l-.1.3s0 .1 0 0h.1v.3l.1.1c-.1 0-.1 0-.1.1v1H81v.2h-.1v.1l.1-.1v.2s-.1.1 0 .2c0 0 0 .1-.1.1 0 0 0 .1-.1.1v.1c-.1 0-.2.1-.2.2s0 .2-.2.2c0 .1 0 .2-.1.2s-.1 0-.2.1c0 .1-.1.2-.2.2s-.2.1-.3.2a.76.76 0 0 0-.4.2c-.1.1-.2.1-.4.2-.1 0-.2 0-.3.1-.1 0-.2 0-.3.1v.1h-.1l.1.1h-.1v.6s0 .1.1.1h-.1v.5c-.1 0-.1 0 0 .1l.1 2.6 1.1-.1c.3-.1.7-.2 1.1-.3.3-.1.7-.3 1-.4.1-.1.3-.3.5-.3.2-.1.3-.2.5-.3h.1c.2-.1.4-.3.6-.6s.4-.5.6-.7c.1-.1.2-.2.2-.3s.1-.2.2-.3c.2-.3.3-.6.6-.9.2-.3.3-.6.4-.9 0-.1.1-.3.1-.4s0-.3.1-.4l-.3.2v-.1c0-.1 0-.2.1-.3 0-.1 0-.2.1-.3.1-.4.1-.7.1-1.1v-2.8c0-.1 0-.2-.1-.2h.1V18h-.1s.1-.1.1-.2v-.4l-.1-.1v-.7s0-.1.1-.1v-.7l-.1-.1v-.3s0-.1 0 0v-.1s.1 0 .1-.1v-.4h.1v-.1h-.1v-.3c0-.1 0-.2-.1-.3l.1-.1v.1-.3s0-.1.1-.1v-.1l.1-.1v.1l-.1-.1v-.4c-.1-.1-.1-.2 0-.2v-1.5h.1l-.1-.1V11c0-.1 0-.2.1-.2h-.1v-.3c0-.1 0-.1.1-.2h-.1v-1h-.1v-.5h-.1s0-.1 0 0v-.2c.1-.1 0-.1 0-.2v-.8c0-.1 0-.2-.1-.2l.1-.1v-.5c-.1 0-.1-.2 0-.4v-.9c0-.1 0-.2-.1-.2l.1.1v-.3c-.1-.1-.1-.2 0-.3 0 0 .1 0 0 .1V5v-.2c.1-.1.1-.1 0-.2V3.2c.2 0 .2-.1.1-.1zm8 2.9v-.5s0-.1.1-.1v-.3c0-.2-.1-.3 0-.6v-1c0-.1 0-.3-.1-.3l-.2-.2c-.1 0-.2-.1-.3 0h-.3c-.1.1-.3.1-.4 0-.1 0-.3-.1-.4 0h-2.2v-.1h-.1l-.1.1v.1c-.1 0-.1.1-.1.1v.5c0 .1 0 .1 0 0v.6c-.1 0-.1.1 0 .2v.3c0 .1 0 .2.1.3 0 .1 0 .2-.1.3v1.4c0 .1 0 .1-.1.1 0 0 0 .1.1.1v.3h.1v.3c0 .1 0 .2-.1.2h.1v.3s0 .1 0 0h.1v.4h.1v.1s0 .1-.1.1v.1-.1L89 9v.2c0 .1 0 .2-.1.2v.4h-.1.1v.1s0 .1.1.1c-.1 0-.1.2-.1.3v.3c.1 0 .1 0 0 .1v.5h.1l-.1.1s0 .1-.1.1l.1-.1s0 .1-.1.1v.1l.1-.1s.1 0 0 .1v.3s.1.1 0 .2v.2c-.1 0-.1.1-.1.2s0 .1.1.1v1c0 .1 0 .2.1.3v.1s-.1 0-.1.1v.1h.1v.4h-.1v.1l.1-.1v.2h-.1v.3h.1v.5c0 .1 0 .2-.1.3v.2c0 .1 0 .1-.1.2h.1v.2c-.1 0-.1 0 0-.1l-.1.1v.1l.1-.1v.2c0 .1 0 .1 0 0v.2c-.1.1-.1.2 0 .2s.1.1 0 .2v.7s.1 0 0 .1v.1c.1 0 .1.1 0 .2s-.1.2 0 .2h.1v.2c.1.1.1.2 0 .3s0 .2 0 .3v.3l.1.1c-.1 0-.1.1 0 .2s.1.1 0 .2V20l.1.1-.1.1.1.1s.1 0 .1.1v.1l-.1.1v.1h.1l.1.1v.1c.1.1.1.3.1.3v.4s0 .1.1.1v.3s.1.2 0 .3c-.1 0-.1 0 0 .1v.3a.45.45 0 0 1 0 .5v1.5h-.1l.1.1v1s.1.1 0 .1l-.1.1s0 .1 0 0v1.2c0 .2-.1.3 0 .5a1.76 1.76 0 0 0 .1.6h4.1c.1 0 .2 0 .2-.2V13.3h.1s-.1-.1-.1-.2v-.2c.1-.1.1-.2.1-.3v-.4c-.1-.1-.1-.2 0-.3v-.6h-.1c0-.1 0-.1.1-.2V11h-.1v-.1l-.1-.1s.1-.1.1 0 .1 0 .1 0v-.1l.1-.5H94v-.3c0-.1 0-.1-.1-.2v-.2c.1 0 .1-.1 0-.2s-.6-.3-.6-.4v-.1h.1s0-.1 0 0h-.1v-.3c0-.1-.1-.1 0-.2v-.2h.1v-.2c-.1-.1-.1-.1 0-.2v-.2c.1 0 .1-.1 0-.2s0-.1 0-.1c-.1 0-.1 0 0-.1V7l-.1-.1v-.2c-.1-.1-.1-.2 0-.2s.1-.4 0-.5z"/><path d="M96.4 21v-.2s-.1 0-.1-.1v-.1h-.1v-.1c0-.1 0-.1-.1-.2v-.1c0-.1 0-.2-.1-.3s-.1-.2-.2-.3v-.1s0-.1-.1-.1c0 0-.1 0 0 0v-.1s-.1 0-.1-.1V19c0-.1 0-.1-.1-.2 0-.1-.1-.1-.1-.1 0-.1 0-.2-.1-.2 0 0-.1-.1-.1-.2-.1 0-.1 0-.1-.1V18c-.1-.2-.3-.4-.3-.6-.1-.2-.1-.4-.2-.6v-.1s-.1 0 0-.1v-3.1c.1-.1.1-.2 0-.2-.1-.1 0-.1 0-.2V13h.1v-.2l.1-.1v-.2h.1l.1.1v-.1.1c0 .1.1.1.1 0 0 .1 0 .1 0 0s.1 0 .1 0l.1-.1v.1-.1h.5s.1 0 .1-.1h.2l.1-.1.1.1v-.1s0 .1.1.1v-.1h.2v-.1c0-.1 0 0 0 0v.1-.1.1l.1-.1v-.1.1-.1c0-.1.1-.1.1 0s0 .1.1.1v-.1h.2s.1 0 .1.1c0 0 .1 0 .1-.1v.1h.1c0-.1.1-.2.1-.1s.1 0 .1 0 .1 0 .1-.1.1-.1.1-.1v-.1h.1c0-.1.1-.1.2-.1s.1-.1.1-.2v-.1c.1 0 .1-.1.2-.2 0-.1.1-.2.2-.3 0-.1.1-.2.2-.3s.1-.2 0-.4c.1-.1.2-.3.1-.5v-.6c0-.2-.1-.4-.2-.6s-.2-.4-.3-.5l.1-.1v-.1l-.1-.1c0 .1 0 .1 0 0v-.1c0-.1-.1-.2-.2-.2 0-.1-.1-.1-.2-.2l-.1-.1s-.1-.1-.2-.1c0-.1-.1-.1-.2-.1s1.5.6 1.5.5h-.5c-.3-.1-.6-.1-.8 0h-1.4v.1-.3h-.9c-.2 0-.4 0-.5-.1V7s-.1 0 0-.1l-.1-.1s0-.1-.1-.1c0 .1 0 .1 0 0v-.4s0-.1-.1-.1v-.7l-.1-.1v-.6h-.1v-1c-.1-.1-.1-.2 0-.3s.1-.2 0-.3v-.1s0-.1.1 0H99V3c0 .1.1.1.2.1s.2 0 .3.1h.8c0 .1.2.1.3 0l.1.1h.1v.1l.1.1v.1h.1c0 .1 0 .1.1.1 0 0 .1 0 .1.1 0 0 0 .1.1.1h.2V4c0-.1 0-.1 0 0l.1.1v.1l.1-.1v.1h.2v.1h.2l.1.1h.1v.1c0 .1.1.1.1.1h.1v.1h.1v.2h.1v-.1.4l.1-.1.2.2v.1s0 .1.1.1h.1s0 .1 0 0h-.1l.2.3h.1l-.1.1h.1V6h.1v.1l.1.1.1-.1c-.1 0-.1.1-.1.1v.1s0 .1.1.1h.1v.2l.1.1V7c0 .1 0 .2.1.2l.1.1v.5l.1-.1s-.1 0-.1.1c0 0 0 .1.1.1h-.1V8c0 .1 0 0 0 0v1l.1.1v.3c0 .1-.1.1-.1.1h.1c-.1.1-.1.2 0 .3 0 .1 0 .2-.1.3v.2c0 .1 0 .1-.1.2.1 0 .1 0 .1.1v.2c0 .1 0 0 0 0v-.2l-.1.1v.1s-.1.1-.1.2v.3l.1.1c-.1 0-.2 0-.2-.1v.2c-.1 0 0 .1 0 .2v.1-.1.3c0 .1 0 .1-.1.1v.1h.1v.1s0-.1 0 0l.1.1-.2.2c-.1 0-.1.1-.1.1s.1 0 .1.1l-.1-.1s0 .1-.1.1v.1s0 .1-.1.1c0 0-.1.1 0 .2v.2s0 .1-.1.1l-.1.1c-.1 0-.1 0 0 0v.1h-.1v.1c.1 0 .1 0 0 .1 0 .1-.1.2-.2.2s-.2.1-.2.2l-.1.1v.1h-.1v.5s-.1 0-.2.1-.1.1-.2.1v.1-.1s0 .1-.1.1c0 0-.1 0-.1.1 0 0-.1 0-.1.1s-.1.1-.2 0v.1h-.1v.1h-.2s-.1.1-.2.1h-.3s-.1.1-.2.1-.1 0-.2.1c-.2.1-.3.1-.4.1s-.3 0-.4.1c-.1.3 0 .6.1.8.2.3.3.5.4.7 0 .1 0 .2.2.2.1 0 .1.1.1.3 0 .1 0 .2.1.3s.1.2.2.3c0 0 0 .1.1.2 0 .1.1.1.1.2h.1l.1.1v.1s0 .1.1.1l.1-.1h-.1v.2l.1.1h.1l.1.1v.1c0 .1 0 .1.1.1s.2.1.1.2c0 .1 0 .2.1.2v.2c0 .1 0 .1.1.1l.1.1v.2l.2.2v.8c0 .1 0 .2.1.3v.2l.2.2v.2l.1.1s0 .1.1.1c0 .1 0 .2.1.3s.1.2.2.3h-.1v.1s0 .1.1.2c0 0 .1.1 0 .2l.1.3s0 .1.1.2c.1 0 .1.1.1.2.3.5.5 1 .8 1.5s.5 1.1.7 1.6c.1 0 .2.1.1.3h-3.4v.5h-.6l-.1.1h-.3c-.1 0-.2 0-.3-.1l-.2-.2c-.1-.1-.1-.2-.2-.2 0-.1 0-.3-.1-.3-.1-.1-.2-.2-.2-.3h-.1v-.1s-.1 0-.1-.1 0-.1-.1-.2v-.3s0-.1-.1-.1v-.1l-.1-.1v-.2s-.1-.1-.1-.3c0-.1-.1-.2-.1-.2v-.2h.2c.1-.1 0-.2 0-.3v-.1c-.1.1-.1.1 0 0 0-.1.1-.1 0-.2h-.1v-.4s-.1-.1-.1-.2 0-.1-.1-.1c0-.2 0-.3-.2-.3-.1 0-.2-.1-.1-.3 0 0 0-.1-.1-.1s-.1-.1 0-.2H98v-.1s0-.1-.1-.1l-.1.1v-.3s-.1 0-.1-.1V23h-.1c0-.1-.1-.2-.2-.2s-.1-.1 0-.2c-.1 0-.1 0-.1-.1v-.1c-.1 0-.1 0-.1-.1s0-.1-.1 0V22l-.1-.1V21h-.6zm12.8-18.1c.1-.1.2-.1.2 0 0 0 0 .1.1 0h.1v-.1h.2c.2.1.3.1.4 0h.1l.1-.1h.1l.1.1v-.1.1c.1 0 .1 0 .2-.1h.3l.1.1v-.1l.1.1c0-.1.1-.1.1 0s0 .1.1 0l.1.1v4.8c.1 0 .1.1 0 .2-.1 0-.1.1 0 .1v.5a.9.9 0 0 0 .1.5v1.1c0 .3.1.7.1 1.1v.6l.3 2.8c0 .3 0 .7.1 1.1.1.3.1.7.1 1v.4c0 .1 0 .2.1.4v.8c0 .1 0 .2.1.3v.8c0 .1.1.3.1.4-.1.1-.1.2 0 .3s.1.2 0 .3c.1 0 .1.1 0 .1v.1s0 .1-.1.1h.1v.2c-.1.2-.1.3-.1.4v.5c0 .2.1.3 0 .5-.1 0-.1.1 0 .1s.1 0 0 .1h.1c-.1 0-.1.1 0 .2v.2h.1v.2c0 .1 0 .1.1.1 0 0-.1 0 0 .1v1.6s-.1.2 0 .3c0 0 0 .1 0 0 .1 0 .1.1.1.3v.8c-.1.1-.1.3 0 .4 0 .1.1.3.1.5v1.4s-.1 0-.1.1l-.2.2c-.1.1-.1.1-.2 0h-.3c0 .1-.1.1-.2 0s-.2-.1-.3 0h-.1c0 .1 0 .1 0 0s0-.1-.1-.1-.1 0 0 0v-.1c0-.1 0 0 0 0h-.4v.1h-.1c-.1 0 0 0 0 0h-.2c-.1 0-.1 0-.2.1l-.1-.1h-.1c0-.1-.1-.1-.1 0s-.1 0-.2 0c0 0-.1.1-.1 0h-.5s-.1.1-.2 0h-.2l-.1-.1s-.1 0-.1-.1v-.2s-.1-.1-.1-.2c.1 0 .1 0 0-.1v-.2h-.1v-.2c0-.1 0 0-.1-.1v-.1h-.1c.1 0 .1 0 .1-.1v-.2h-.1s.1-.1 0-.2l-.1-.1h-.1v-.1c.1-.1.1-.2 0-.3.1 0 .1-.1.1-.2l-.1-.1h.1c-.1 0-.2-.1-.1-.2s0-.2 0-.3v-.1l-.1-.1v-.2c.1 0 0-.1 0-.2v.1-.6c0-.1 0-.1 0 0h-.1v.1-.1c.1 0 .1 0 .1-.1l-.1-.1v-.5c.1-.1.1-.2.1-.3l-.1.1v-.4h.1v-.9h-.1s.1-.1.1-.2h-.1.1v-.3c0-.1-.1-.1-.1-.1s.1-.1 0-.1 0-.1 0-.2v-.1s-.1 0 0-.1v-.1s.1 0 .1-.1l-.1-.1h.1v-.1s0-.1-.1-.1-.1 0-.1-.1v-.2h.1l.1-.1c-.1 0-.1 0-.1-.1V20c.1-.1 0-.1 0-.2v.1-.6c-.1 0-.1-.1 0-.2s0-.1 0-.1v-.1c.1 0 .1-.1 0-.1s-.1-.1 0-.1v-.1h-.2v-.4s.1-.1.1-.2v-.2c0-.1.1-.1 0-.1s0 0 0-.2v-.2h-.1v-.6l-.1-.1h.2v-.1.1s0-.1 0 0c.1 0 .1 0 0-.2h.1v-.2l-.3-.1v-.3h-.1l.1-.1v-.3l-.1-.2-.1-.1h.2v.1-.2l-.1-.1V14h-.1l-.1-.1v-.3c.1 0 .1-.1.1-.1s0-.1-.1-.1v-.1l-.1-.1h.1v-.3s0-.1-.1-.1h-.1v-.3c.1 0 .1-.1 0-.2h-.1v-.1.1-.5c-.1 0-.1 0-.1-.1v-.1l.1-.1v-.1h-.1v-.2h-.1V11c.1 0 .1 0 .1-.1h-.1v.1-.1c.1 0 .1-.2 0-.3h-.1s0-.1.1-.1l.1-.1V7.2h-.1s-.1 0 0 0v-.1s-.1-.1 0-.3c0 0 .1 0 0-.1v-.9l.1-.1v-.1h-.1v-.2s.1-.1 0-.1v-.2s0-.1-.1-.2l.1-.1s0-.1-.1-.1v-.2c-.1 0-.1 0 0 0v-.1h.1v-.1c.1 0 .1 0 .1-.1v-.1.1-.1s0-.1.1-.1c0 0 0-.1.1-.2V3h.4s.1 0 .1.1h.4v-.2h1z"/><path d="M121.3 7.7c.1.2.1.3.1.4s.1.2.1.3v.5c0 .1.1.3.1.6l.6 2.7.6 2.8c0 .1.1.2.1.3v.3l.6 2.2c0 .2.1.4.1.6s.1.4.2.6v.5c0 .1 0 .2.1.3 0 .3 0 .6.1.8 0 .3.1.6.2.8 0 .1.1.2.1.3v.3c0 .1.1.2 0 .2 0 .1 0 .2.1.2v.2l1.2 5c.1.2.1.4.1.6 0 .1 0 .3.1.4 0 .1 0 .3-.1.3h-1.5c-.1 0-.2 0-.3.1 0-.1-.1-.1-.2-.1h-.4c-.1 0-.1 0-.1.1l-.1-.1s0 .1 0 0h-.1v.1-.1l-.1.1h-.2s-.1 0-.1.1h-.1c-.1 0-.1 0-.1.1l-.1-.1h-.6V29c-.1 0-.1 0 0-.1 0-.1 0-.2-.1-.3v-.4s0-.1-.1-.2 0-.2 0-.2v-.2h-.1s0-.1-.1-.1v-.1s0-.1.1-.1v-.2c0-.1 0-.1-.1-.1v-.3l-.1.1v-.1l-.1-.1c.1 0 .1-.1.1-.1v-.1h-.1v-.2c-.1 0-.1-.1-.1-.1v-.4s-.1 0-.1-.1l-.1-.1v-.4h-.1v-.3c-.1 0-.1-.1 0-.2s0-.2 0-.2v.2-.3c.1-.1 0-.2-.1-.2v.1-.6s.1-.1 0-.1v-.2c-.1 0-.1 0-.1-.1V23l.1-.1c-.1 0-.1 0-.1-.1v-.6h-.1c.1 0 .1-.1 0-.1s-.1 0-.1-.1v-.1s0-.1-.1-.1v-.4c0-.1.1-.1 0-.1-.1-.1-.2-.1-.1-.2 0 0 0-.1-.1-.2v-.1c0-.1 0-.2-.1-.3v-.1s.1-.1 0-.2v-.1h-.1c.1-.1.1-.2 0-.3 0-.1-.1-.2 0-.3v-.4c.1 0 .1 0 0-.1 0 0-.1-.1-.1-.2v-.6c.1-.1.1-.2 0-.3s-.1-.2 0-.3c0-.1-.1-.2-.1-.3s0-.1-.1-.2c0-.3 0-.6-.1-.8 0-.3-.1-.6-.1-.8v-.1c-.1.1-.1.2-.1.3v.4c-.1.2-.1.4-.1.6s0 .4-.2.6c0 .2 0 .3-.1.5s-.1.3-.1.5v.3h-.1v.1c0 .1-.1.3-.1.4s-.1.3-.1.4v-.1s-.1.1-.1.2v.2s-.1.1-.1.2v1h-.1v1.3c0 .1-.1.2-.1.3v.2l-.1.1s-.1.1 0 .1l-.1.1v.2l-.1-.1s-.1.1 0 .1 0 .1 0 .1v.4h-.1l-.1.1h.1v.1l-.1.1h.1c-.1.1-.1.2-.1.3s0 .2-.1.2l-.1.1v.1h-.1c0 .2 0 .3-.1.5 0 .2 0 .3-.2.4v.1s-.1 0-.1.1c-.1 0-.1 0-.1-.1s0-.1-.1-.2v-.8s-.1-.1-.1-.2v.1s0 .1.1.1v-.2l-.1-.1v-.4h-.1v-.3l.1-.1c0-.1 0-.1 0 0h-.1c.1 0 .1-.1.1-.1-.1 0-.1 0 0 0v-.4c0 .1 0 0 0-.1v-.3c.1 0 .2-.1.1-.2 0-.1-.1-.2 0-.3h-.1v-.5l-.1-.1c-.1 0-.1-.1 0-.1 0 0 .1-.1 0-.1h-.1V21l-.1.1V21c-.1 0-.1 0 0-.1v-.3h-.1.1c-.1 0-.1 0-.1-.1v-.1s0-.1-.1-.2 0-.1.1-.1v-.2c0-.1 0-.1-.1-.2.1-.1.1-.2 0-.3v-.3c0-.1 0-.2-.1-.3v-.7c.1-.5 0-1 0-1.5-.1-.5-.2-1-.1-1.5 0-.2-.1-.5-.1-.7 0-.3 0-.5-.1-.7v-.8c0-.2 0-.5.1-.6 0-.2.1-.4.1-.6.1-.2.1-.4.1-.6v-.3c0-.1.1-.2.1-.3v-.2c0-.1 0-.1.1-.2 0-.2.1-.3.1-.5v-.5c0-.1.1-.2.1-.3V7.3h.1v-.5c0-.2.1-.3 0-.5v-.2h.1V6c.1 0 .1-.1.1-.2v-.3s.1-.1 0-.2 0-.2.1-.2v-2l.1-.1h.1v-.1h.2c.1 0 .2 0 .2-.1h.1v-.1h1l.1.1s.1-.1 0-.1c-.5 0-.4.1-.4 0v.1c.1.1.2.1.3.1h.6V3c0-.1 0-.1.1-.1h.2v-.2l.1.1h.2v.1h.1v.2c0 .1 0 .2.1.2v.3c0 .1 0 .2.1.2v.3c0 .1 0 .2.1.3-.1 0-.1.1 0 .2v.2s.1.1 0 .2v.3s.1.1.1.2h-.1c.1 0 .1.1.1.2s0 .2.1.2l.1-.1v.8c0 .1.1.2.2.3v.6h.8v.2zm3.8-4.9v-.2.2c.1-.1.1-.1 0 0 .1 0 .1.1.2.1v-.1l.1.1v-.1c.1 0 .1 0 0-.1v-.1c.1.1.2.2.2.1v-.2s.1 0 .1.1c0 0 0 .1.1.1v.2s.1-.1.1 0h.1v-.1.1s0 .1.1.1h.1c.1 0 0 0 0 .1v-.2h.1c0 .1-.1.1-.1.1h.2v-.2h.1v-.1.1c.1-.1.2-.1.2 0v.1l-.1.1v-.1 1s-.1.1 0 .1.1.1 0 .1-.1.1 0 .1v.2c0 .1 0 .1 0 0v.1h-.1v.1h-.1c0 .1.1.1.1.1v.2s0 .1-.1.1c0 0-.1 0-.1.1h.1v.1h-.1v.2h.1c-.1 0-.1.1-.1.1v.3c0 .1 0 .2-.2.2h.1v.1h-.1c-.1 0 0 0 0 .1v-.1.1h-.1v.1h.1v.1h-.1v.1l.1.1v.3h-.1l.1.2V8c-.1 0 0 0 0 0v.2h-.1v.2s0 .1.1.1v-.1c0 .1 0 .2-.1.2s-.1 0 0 0v.5h-.1v.1h.1v.5h.1v.1s0 .1.1.1h-.1c-.1 0 0 0 0 0h.1l-.1.2c-.1.2-.1.3 0 .4v.1h-.1c-.1 0-.1 0 0 .1v.4c0 .1.1.1 0 .2l-.1.1v.8h-.2c0 .1 0 .2.1.2v.4s0 .1.1 0v.2s-.1 0-.1.1 0 .1-.1 0v.5h-.1v.2c0 .1 0 .1.1.2h-.1c0 .1 0 .2-.1.3h.1v.4h.1v.3c0 .1 0 .2-.1.3v.2s-.1 0-.1-.1v.6s-.1.1-.1.2v.2s.1 0 .1-.1h.3v.8s.1 0 .1.1v.1h-.1l.1.1h-.1c0 .1 0 .2.1.2v.4c-.1 0 0 .1 0 .2s0 .2-.1.3v.3s-.1.1-.1.2v.5c-.1.1-.1.1 0 .2v.2h-.1s-.1.1 0 .2v.4h.1V22c0 .2 0 .4-.1.6h.1v.2c-.2 0-.3-.2-.3-.5s0-.4-.2-.6v-.2c-.1 0-.1-.1-.1-.1v-.1s.1-.1 0-.1 0-.1-.1-.1c.1-.1.1-.2 0-.3s-.1-.2-.1-.3v-.2c.1 0 .1-.1 0-.1s-.1-.1 0-.1l-.1-.1c0-.1-.1-.3-.1-.4v-.5c-.1 0-.1-.1-.1-.2v-.1c0-.1 0-.2-.1-.2s-.1 0-.1-.1V18c-.1-.1-.1-.2-.1-.3v-.3c-.1-.1-.1-.1 0-.2h-.1v-.3c0-.1-.1-.2-.1-.3v-.2c0-.1 0-.1-.1-.2v-.3h-.1v-.3c0-.1-.1-.2-.1-.3 0-.2 0-.4-.1-.6v-.3c0-.1-.1-.2 0-.4 0 0-.1-.1 0-.2v-.2s0-.1-.1-.1c0 0 .1-.1 0-.1v-.1c.1 0 .1-.1 0-.1s-.1 0-.1-.1c0-.2 0-.4-.1-.6 0-.2-.1-.4-.1-.6v-.2c.1 0 .1-.1 0-.1s-.1 0 0-.1l-.1-.2c-.1 0-.1-.1 0-.2.1 0 0-.1 0-.2 0 0-.1 0 0 0v-.5c0-.1-.1-.2-.1-.3v-.6s-.1 0 0-.1v-.3h-.1v-.2c0-.1 0-.1.1-.2V8s.1-.1 0-.1h-.1c-.1 0 0 0 0 .1v.2c0-.1 0 0 .1-.1l.2-.2v-.1.1-.1c0-.1 0-.2.1-.2v-.1h-.1v-.3h-.1V7c.1 0 .1-.1 0-.2 0-.1 0-.2.1-.1-.1 0-.1-.1 0-.2s.1-.1 0-.2c0 0 .1-.1.1-.2v-.6h.1v-.3s0-.1.1-.3v-.1s-.1 0 0-.1l.1-.1v-.1h-.1c-.1 0 0 0 0 0v-.3s.1-.1 0-.1h.1v-.8h.1s.1-.1.1-.2 0-.1.1-.1v-.2h.1l.1-.1v.1-.1.1-.2h-.1l.1-.1v.1s0 .1.1.1v-.1l.1-.1.7.3z"/><path d="M136.9 13.7h.4v-.1h.2v.1h.3s.1 0 0-.1v.1h.1s.1 0 .1-.1v-.1l.1.1h.1v.1-.1l.1.1h.1v.1-.1.1h.1v-.2c.1 0 .1.1.2.2 0 .1.1.1.2 0l.1-.1v.1-.1h.2v.1-.1.1h.1s0 .1.1.1l-.1-.1c0 .1.1.1.1 0v.1l.1-.1h.1v.1s0 .1.1 0h.1s0 .1.1.1c0 0 0 .1.1 0v-.1h-.1v-.1.1s0 .1.1.1v.1c0 .1 0 .1 0 0s0-.1.1-.1v.1-.1l.1.1h.1v.1h.1v-.1c.1.1.1.2.2.4v-.1l-.1.2c.1 0 .1 0 .1.1s0 .1.1.1v.4h.2v.2l.2-.2v.3s-.1.1 0 .1c-.1.1-.1.2 0 .3v.1-.1.3s0 .1-.1.1l-.1.1c.1 0 .1.1.1.2v.2h-.2l.1.1c-.1.1-.1.2 0 .2h-.1V17v.1l.1.2h-.1v.4h.1l-.1.1v-.1.2h.1s0 .1 0 0h-.1v.4h.1l-.1.1v.2c0 .1 0 .1 0 0v-.1s0 .1-.1.1v.1h-.1v.1-.1l-.1.1-.1-.1-.1.1v.1l-.1-.2-.1.1v-.1l.1-.1h-.2v.1l-.1.1h-.1l-.1-.1v.1s-.1-.1-.2 0v-.1.1h-.2c-.1 0-.1.1-.2 0 0 0-.1 0-.1.2v-.1h-.1v-.1l-.1.1c-.1.1-.1.1-.1 0s0-.1-.1-.1h-.1v.1-.1l-.1.1-.1-.2c0 .1-.1.1-.1 0h-.1v.1-.1.1s0-.1-.1-.1v.1h-.1v-.1c-.1 0-.2.1-.2 0v-.1l-.1.1v-.1c0 .1 0 .1 0 0v-.1s-.1 0 0 0v-.1h-.2v-.1l-.2.2v-.1h-.1v-.2h-.3s-.1 0-.1.2v-.2h-.1v-.1s0 .1-.1.1l-.1.1h-.2l-.1.1s0-.1-.1-.1v.1h.1l-.1-.1s0 .1 0 0h-.1v.1l-.1-.1v.1-.1c-.1 0-.1.1-.1.2v-.1.3h-.1c0 .1 0 .2.1.2.1.1 0 .2 0 .3v.3c0 .1-.1.2 0 .3v.6s0 .1-.1.1 0 .1 0 .1v.3c0 .1-.1.2 0 .4v.9s-.1.1 0 .2v.2c-.1 0-.1.1 0 .2v.6c-.1 0-.1.1 0 .1s.1.1 0 .1v1.9c-.1.1-.1.2 0 .4s0 .3 0 .4v2.3c0 .1-.1.2-.2.3h-.6s-.1.1 0 .1v-.1c0-.1 0 0 0 0h-.1c0-.1-.1-.1-.2-.1h-.5v.1-.1.1h-.5v.1h-.1v-.1h-.6v-.1h-.3s-.1 0-.1.1v-.1c0 .1-.1.1-.1 0s-.1-.1-.1 0l-.1-.1h.3v-.1l-.1-.1v-.2c0-.1 0-.1-.1-.2h.1V28c-.1 0-.1-.1 0-.2 0-.1.1-.2 0-.2v-.2h-.1l.1-.1h-.1V27s-.1-.1-.2 0c0 0 0-.1 0 0h.1v-.9s0-.1-.1 0v-.3s.1-.1 0-.1-.1 0-.1-.1v-.3c.1 0 .1-.1.1-.1 0-.1-.1-.2 0-.3v-1.2s.1-.1 0-.1v-.2h-.1c.1 0 .1 0 .1-.1V23c0-.1.1-.2.1-.3v-.3s.1-.1.1-.2V22h-.1v-.9s-.1-.1 0-.2c0-.1 0-.1.1-.2-.1-.1-.1-.3-.1-.4v-.8c0-.1 0-.3-.1-.4v-.7c0-.3 0-.5.1-.8V15s0-.1.1-.2V7.4a.45.45 0 0 1 0-.5c.1-.2.1-.4 0-.5V5.2s.1-.1 0-.1v-.9s0-.1.1-.2v-.2c.1-.2.2-.2.4-.2.1 0 .3 0 .4-.1h.7c.1 0 .1-.1.2 0h1.3c.3 0 .7 0 1.1.1.1 0 .1.1.1.1v7.2c-.1 0-.1.1 0 .2s0 .1 0 .2l.1.1v.4h.1v2s.1 0 .1.1v.1h.1v.1-.1l.1.1h.4V14v.1s0-.1 0 0h.1v.1h.1v-.1h.1c-.8-.5-.8-.5-.8-.4.1-.1.1-.2 0-.2v-.1.3zm5.4 10.7h.3s0 .1 0 0h.2v.2h.2c0-.1 0-.1.1 0 .1 0 .1.1.2 0h.5c0-.1 0-.1.1 0h.4v-.1c.1.1.2.1.2 0 .1-.1.2-.1.2 0h.2s.1.1.2.1h.7v.6l.1.1-.1.1s0 .1.1.1v.2h.1v-.1.1s0 .1-.1.1h.1c.1.1.1.1 0 .2v.2c0 .1 0 .1.1.2-.1 0-.1 0 0 .1-.1 0-.1.1 0 .2.1 0 .1.1.1.2 0 0-.1.1 0 .1h.1a.45.45 0 0 0 0 .5c-.1 0-.1 0-.1.1v.3s0 .1-.1.1v.1c0 .1 0 .2-.1.2s-.2 0-.2.1l-.2.2.4.4c0 .1-.1.1-.1 0s-.1 0-.1 0v.1h-.1c0 .1 0 .1 0 0V29v.1c-.1-.1-.1-.2-.2-.1 0 .1-.1.1-.2.1l-.3-.1c0 .1-.1.1-.1.1h-.2l-.1.1v-.1h-.1s-.1 0-.1.1l-.1-.1h-.2v.1-.1h-.1l-.1.1h-.1v-.1.1h-.1c0-.1 0-.2-.1-.1h-.1l-.1.1v-.1h-.1s0-.1 0 0l-.1.1-.1-.1h-.3c0-.1-.1-.1-.1 0s-.1 0-.2 0h-.2s-.1.1-.2 0h-2.9c-.2-.1-.3-.1-.4 0-.1 0-.3.1-.4 0h-.7s-.1-.1-.2-.1-.1-.1 0-.2v-1.9c-.1 0-.1-.1-.1-.1v-.7h.1s-.1-.1 0-.1v-.1s.1 0 0-.1v-.2c.1 0 .1-.1.1-.1s-.1-.1-.1-.2c0 0 .1-.1.1-.2v-.3h.4s.1 0 .1.1h.3s.1 0 .1-.1h.3l.1.1h.5v-.1s.1.1.2.1v-.1l.1.1h.2l.1.1c0 .1.1.1.2 0s.1-.1.2 0c.1-.1.2-.1.2 0h.3v-.1.1-.1c.1.1.2.1.2 0v-.1.1l.1-.1h.2v-.1.1h.3c.5-.4.5-.4.6-.4z"/><path d="M145.1 2.7l.1.1v-.1l.1.1h.3v-.1h.1v.1l.1-.1v.1s0-.1.1 0h.2v.1-.1c.1.1.1.1.2 0 0 0 0-.1.1-.1v.2s0 .1.1.1l-.1.1v1.4h.1l-.1.1h.1v.1c-.1 0-.1.1-.1.2.1.1 0 .2 0 .2.1 0 .1.1.1.1v1.2h-.1s0 .1-.1.1l-.1.1c-.6.1-1.1.1-1.6.1H137c-.1.1-.3.1-.4 0h-.2c-.1 0-.1 0-.2-.1-.2-.1-.2-.3-.2-.5V3.9c.1 0 .1-.1.1-.2V2.5c0-.1.1-.2.3-.3h.7c.2 0 .3 0 .4-.1 0 .1.1.1.1.1h.2s.1.1.2 0h.5c.1 0 .2 0 .3-.1h.2c0-.1.1-.1.2-.1h.3c.1.1.3.1.5.1h1.2s0-.1.1-.1h.1v-.1.1c.1.2.2.2.2.2.1 0 .1 0 .1-.1h.2v.7h.1v-.1c.1.1.1.1.2 0 0-.1.1-.1.1-.1h.1v-.1.1-.1h.2v.3h.2s0 .1.1 0v-.2l.1.1v-.1.1-.1.1-.1.1-.1.1s0 .1.1.1c1.9 0 2-.1 2-.1zm9.2 20.3v.4c.1 0 .1.1.1.3v.3h-.1s-.1.1 0 .2v.2h.1s0 .1-.1.2c-.1 0 0 .1.1.1v1.8s0 .1-.1.1v.2c-.1 0-.1.1 0 .1s.1.1 0 .1v.2c-.1 0-.1.1-.1.2h.2l-.1.1v.1c.1 0 .1.1 0 .2h-.1.1v.1h-.1l.1.1v.2s-.1.1-.2.1h-.2s-.1 0-.1.1h-.2v-.1.1c0 .1 0 .1 0 0v-.1.1h-.2v.1-.1h-.6v-.1.1-.2c0 .1-.1.1-.1.1s-.1 0-.1.1c0 0 0-.1-.1-.1h-.1v.1h-.1l-.1-.1v.1-.1s0 .1 0 0 0 0 0 0c0-.1-.1-.1-.2 0-.1 0-.2 0-.2-.1v.1h-.1v-.1s-.1 0-.1-.1v.2s0-.1-.1-.1V28c0-.1 0-.2.1-.2 0 0 0-.1 0 0v-.5c0-.1.1-.2 0-.3v-.1s-.1 0-.1-.1 0-.1-.1-.1h.2l.1-.1-.1-.1s.1 0 0-.1v-.1H150l-.1.1c.1-.1.1-.2.1-.2v.1-.2s0 .1.1 0c0 0 .1 0 .1-.1-.1 0-.2 0-.2.1v-.3s.1 0 .1.1h.1c0-.1 0-.2-.1-.2s-.1-.1-.1-.1v.1-.2l-.1-.1v.1-.2h.1v-.5l-.1-.1s0 .1.1.1c0 0 .1 0 0 .1v-.2c0-.1 0-.1-.1-.2v-.1s-.1 0 0-.1h.1c0-.1 0-.1-.1 0h-.1.1v-.4h.1v-.1h.1v-.1c0-.1 0-.2.1-.3s.1-.2.1-.3c0 0 0-.1 0 0v-.2c0-.1 0-.2-.1-.2 0 0 .1-.1.1-.2v-.3c0-.1.1-.2 0-.3l-.1.1c0-.1.1-.2.1-.2.1 0 .1 0 0-.2v-.3l-.1.2v-.1c-.1 0-.1 0 0-.1 0-.1 0-.2.1-.3.1 0 .1-.1 0-.3l-.2.2v.1s-.1-.1 0-.1v-.1h.1l.1-.1v-.3l-.1-.1.1-.1s.1 0 .1-.1V20h-.1v-.2h.1l-.1-.1v.1-.1h.1v-.5s.1 0 .1-.1l-.1-.1s.1 0 .1-.1 0-.1 0 0v-.1h-.1l-.1.1s.1 0 .1-.1 0-.2.1-.2v-.2h.1v-.1s0-.1-.1-.1V18h-.2v-.1l.1.1c.1 0 .1-.1.1-.2v-.2l-.1-.1V17h-.4v-.2c0-.1 0-.1-.1-.1l.2-.1-.1-.1-.1.1.1.1v-.1s-.1 0-.1-.1V16s.1-.1.1-.2v-.2l.1-.1-.1-.1s.1 0 .1.1h.1c-.1 0-.1-.1-.1-.1h-.1v-.2c0 .1 0 .2.1.2v-.5h-.2s.1 0 .2-.1c0 0 .1-.1 0-.2-.1 0-.1 0-.1-.1v.1-.1l-.1-.1V14h.1c-.1 0-.1-.1 0-.2v-.2s0-.1 0 0v-.1h-.1v-.1h-.1.1s.1 0 0-.1V13h-.2l.1-.1v-.1s.1-.1.1-.2v-.1l.1-.1v-.2l-.1.1v-1c0-.1 0-.3.1-.3 0 0 .1 0 0-.1v-.1c.1 0 .1-.1 0-.2s0-.2.1-.2h-.1v-.2c-.1 0-.1-.1 0-.2l-.1-.1h-.1v-.1c-.1 0-.1-.1-.1-.1v-.2h-.1l.1-.1v-.1h.1v-.1c.1 0 .1 0 0-.1v-.6h.1v-.3c-.1 0-.1 0 0-.1V8c.1 0 .1 0 0-.1v-.2c-.1 0-.1-.1 0-.2v-.1l-.1-.1v-.1c.1 0 .2.1.2.1 0 .1 0 .1.1.2 0 .1 0 .2.1.3.1 0 .1.1.1.2.1 0 .2.1.1.3.1.1.1.2.1.3s0 .2.2.3c0 .1 0 .2.1.3 0 .1.1.2.1.3s.1.2.2.3c0 .1.1.3.1.3.1.1.1.3.2.4 0 .1.1.3.1.4.1.1.2.2.2.3s.1.2.1.3l1.2 2.8c.1 0 .1.1.1.2s0 .2.1.2c.2.3.3.6.4.9s.2.6.4.9v5.2c0 .1-.1.2-.1.3v2.1l.4-1.1c-.1 0-.1.1 0 0 .1.1.1.2 0 .2V23z"/><path d="M152.9 2.8c.1.1.2.1.2.1s0-.1 0 0h.1V3v-.2s0 .1.1.1v-.1h.1l.1-.1s0 .1.1.1h.1v.1l.1-.1v.1-.1l.2.2v-.1h.3s0 .1.1.1l.2-.1v.2h.1v.1h.1v.3c.1.1.2.2.2.3s0 .2.1.3l.1.1s0 .1.1.2c0 .1 0 .2.1.2 0 0 .1.1.1.3V5h.1s0 .1.1.1v.1c.1.2.1.3.1.3v.1l.1.1h-.1s.1 0 .1.1v.3c0 .1 0 .1.1.1v.3s0 .1.1.1c0 .1 0 .2.1.3s.1.2.1.3v.3h.1l-.1.1v.2c0 .1.1.1.1.2h.1c0 .1.1.2.1.3s.1.2.1.3v.2l.1.1c-.1 0-.1.1 0 .1s.1.1 0 .1h.1c-.1 0-.1.1 0 .1l.1.1h.1v.3s.1 0 .1.1v.2h.1v.1h.7v.1s.1 0 0 .1l.1.1c.1 0 .1.1 0 .2s0 .1 0 .2v.4l-.1.1h.1s0 .1-.1.1h.1v.2c.1 0 .1.1 0 .3v.4s.1.1.1.2 0 .2.1.3l.1.1v.3l.2.2c0 .1.1.2.1.4s.1.3.2.4v.2s.1.1.1.2v.2c0 .1 0 .1.1.2v.2c.1.1.1.3.2.4 0 .2.1.3.2.5s.2.3.2.5.1.3.2.5c.1.3.3.7.4 1s.3.6.4 1c0 .1 0 .2.1.3.3.8.6 1.5 1 2.3s.6 1.5 1 2.3c.1.3.2.5.3.7s.2.4.4.7v.3s0 .1.1.1c0 .2.1.3.1.5 0 .1.1.3.3.4 0 .1 0 .2.1.3s.1.2.1.3V27s0 .1.1.2c0 .1.1.1 0 .2 0 .1.1.2.2.3 0 .1.1.2.1.3v.2c0 .1.1.2.1.3v.1h-.1a.47.47 0 0 1-.6.1s-.1-.1-.1 0c0 0 0 .1 0 0h-.1s0-.1 0 0l-.1.1h-1.2l-.1-.1s0 .1 0 0h-.2c0-.1-.1-.1-.3 0-.1 0-.2.1-.3 0h-.2c0-.1-.1-.1-.1 0s-.1 0-.1 0c0-.1-.1-.1-.1-.1s-.1 0-.1.1c0 0-.1 0-.1-.1s0 0-.1 0c-.1-.1-.1-.2-.2-.2v-.1.2c-.1 0-.1-.1-.1-.2s0-.1-.1-.2v-.2c0-.1 0-.2-.1-.2 0 0 0-.1-.1-.2v.1-.3l-.1.1v-.2c-.1-.1-.2-.2-.1-.3h-.2v-.3s-.1 0-.1-.1h.1c0-.1-.1-.2-.1-.2s0-.1-.1-.2v-.7c0 .1 0 .1 0 0v-.3l-.1-.3v-.3h-.1v-.1s0-.1-.1-.1v-.2c0-.1 0-.2-.1-.2v-.2l-.1-.1v-.1.1-.5s0-.1-.1-.1c0 0-.1 0-.1-.2.1-.1.1-.2 0-.3l-.2-.2-.1-.4-.1.1v-.6c-.1 0-.1 0 0-.1.1 0 .1-.1 0-.2-.2-.2-.3-.4-.3-.6s-.1-.4-.2-.6a.76.76 0 0 1-.2-.4.76.76 0 0 1-.2-.4c0-.2-.1-.3-.1-.5-.1-.2-.2-.4-.2-.6l-.6-1.5-.6-1.4a.76.76 0 0 1-.2-.4.76.76 0 0 0-.2-.4c-.1-.2-.2-.4-.2-.6s-.2-.4-.3-.6l-.6-1.2c0-.2-.1-.4-.2-.6l-.3-.6c0-.1-.1-.2-.2-.3 0-.1-.1-.2-.1-.3h-.1s0-.1-.1-.2v-.3s-.1 0-.1-.2v.3h-.1l.1-.1-.1-.1c0-.1 0-.1-.1 0v-.2c0-.1-.1-.1-.2 0l-.1-.1v-.4s0-.1-.1-.1v.1-.3l-.1-.1v-.6c0-.1 0-.1-.1-.2s-.1-.1-.1-.2h-.2v-.1c-.1 0-.1 0 0 0s0-.1 0-.1h-.1V7c.1 0 .1-.1 0-.1s-.1-.1 0-.1v-.1.1-.1l.1-.1-.1-.1v-.1h-.1c0-.1 0-.1-.1-.2v-.4l-.2-.1v-.1h-.1v-.1h-.1l-.1-.1v-.3h-.1V5l-.1-.1v-.3c0-.1 0-.1-.1-.1v.1-.3c0-.1 0-.2-.1-.2v-.2s0-.1-.1-.1v-.1c-.1 0-.2-.1-.2-.3v-.3l.1-.3v.4h.1v-.1.1h.1s.1 0 .1-.1V3h.2v-.1l.1.1h.1v-.1.1s0-.1.1-.1h-.1.2V3s.1 0 .1-.1c0 0 0-.1.1 0v.2l.1-.2v-.1l.1.1.6-.1zm13.3.3v.2c0 .1 0 .1.1.1-.1 0-.1.1 0 .2 0 .1 0 .1-.1.2 0 0 0-.1 0 0l.1.1v.4c.1.1.1.1.1.2v.3c-.1.1-.1.2 0 .3s.1.2 0 .2c0 0 0 .1.1.2.1 0 .1.1 0 .1l-.1-.1s-.1.1 0 .2v.6h.1s0 .1-.1.1v.3h-.1v.1h.1v.4c-.1 0-.1.1-.1.2v.1s-.1 0-.1.1l-.1.1V8c0 .1 0 .1-.1.1 0 0 0-.1-.1-.1v.3c0 .1 0 .2.1.2h-.1v.6l-.1.1h.1c-.1 0-.1.1-.1.1v.4c0 .1 0 .2.1.3-.1 0-.1.1 0 .2v.5h-.1v1h.1v.2c0 .1-.1.2 0 .3v.5c0 .1-.1.1-.1.1.1 0 .1.1.1.1v1.3c-.1 0-.1 0 0 .1v.9s0 .1-.1.1-.1.1 0 .2v.2s-.1 0-.1.1v2.6l.1.1c-.1 0-.1 0-.1.1v.1h.1s-.1.1-.1.2v.2h.1v.5c0 .1 0 0 .1.1-.1 0-.1 0-.1.1v.2c-.1 0-.2.1-.1.2 0 .1.1.2.1.3-.1 0-.1.1-.1.2v1.5l-.1.1.1.1s-.1.1-.1.2v.2c.1.1.1.2 0 .3V25l-.1-.1c-.1 0-.1-.1-.1-.1 0-.2-.1-.3-.2-.5s-.1-.3-.1-.5c-.1 0-.1-.1-.1-.2s0-.2-.1-.2v-.2c-.1 0-.1-.1-.1-.2-.1-.1-.1-.3-.2-.5 0-.2-.1-.4-.2-.5 0-.2-.1-.4-.2-.6l-.3-.6c-.2-.4-.3-.8-.5-1.2 0-.2 0-.3-.1-.3 0 0-.1-.1-.1-.3-.1-.2-.2-.3-.2-.5s-.1-.3-.2-.5a.76.76 0 0 0-.2-.4c-.1-.2-.1-.3-.2-.4 0 0 0-.1-.1-.3-.1-.1-.1-.3-.2-.4v-.1h-.1v.6c0-.1-.1-.2-.2-.3s-.1-.2-.2-.4v-.1c-.1 0-.2-.1-.2-.3v-1.6h-.1v-.1l.1-.1v-.3s-.1-.1 0-.1v.1-.8c-.1 0-.1-.1 0-.1 0 0 .1-.1 0-.1h-.1v-1.1c0-.1-.1-.2-.1-.2v-.2l.1.1h-.1l.1-.1s0-.1-.1-.1v-.1s.1 0 .1-.1v-.1l-.1.1v-.1c0-.2 0-.3-.1-.4 0 0 .1-.1 0-.2v-.6h.1s-.1-.1 0-.1v-.1.1-.4s0 .1 0 0 .1-.2.1-.2v-.5c0-.1-.1-.1-.2-.1s-.1 0-.1-.2l.1-.1c.1 0 .1-.2.1-.4h-.1v.1s-.1-.1 0-.1l.2-.2v-.1h-.1l.1-.2-.1-.1h.1v-.2c.1-.1 0-.1 0-.2v.1l-.1-.1s0-.1.1-.1.1 0 0-.1V6h.6l.2-.2s-.1 0-.1-.1c0 0 0-.1-.1-.2h.1v-.1h-.1s-.1 0-.1-.1v-.2h-.1l.1.1v-.4l.1-.1v.2-.3h.1-.3v-.3l-.1.2v-.1c-.1 0-.1 0-.1-.1s0 0 .1-.1h.1V4c.1 0 .1-.1 0-.2h-.1l-.1-.3h.1v-.2s-.1 0 0 0h.1s.1-.1 0-.1l-.1-.1v-.2l.1.1h.1v-.1.1-.2h.1V3l.1-.1v-.1.1-.1l.1.1v-.2l-.1.1c0-.1 0-.1.1-.1h.1l.1.1h-.1c0-.1.1-.1.1-.1h.2v-.2.3c0 .1.1.1.1 0 0 0 0-.1.1-.1v-.1h.1v.2s.1-.1 0-.1l.1-.1h.3v-.1.1l.1-.1v.2c0 .1 0 .1 0 0v.1-.1c0-.1 0-.1.1-.1v.2s0 .1.1.1v-.2c.1 0 .1.1 0 .2 0 0 0 .1.2.1 0 0 0 .1.1.1v.1c0-.1.1-.1.2 0l2.2-.1v-.2l.1.2h-.1z"/></svg>