<svg xmlns="http://www.w3.org/2000/svg" xmlns:xlink="http://www.w3.org/1999/xlink" width="93.333" height="46.667" viewBox="0 0 70 35"><defs><linearGradient id="A" gradientUnits="userSpaceOnUse" x1="59.83" y1="32.747" x2="70.004" y2="32.747"><stop offset="0" stop-color="rgb(23.921569%,18.431373%,50.196078%)"/><stop offset=".387" stop-color="rgb(18.039216%,14.509804%,37.254902%)"/><stop offset="1" stop-color="rgb(18.039216%,14.509804%,37.254902%)"/></linearGradient><filter id="B" x="0%" y="0%" width="100%" height="100%"><feColorMatrix in="SourceGraphic" values="0 0 0 0 1 0 0 0 0 1 0 0 0 0 1 0 0 0 1 0"/></filter><mask id="C"><g filter="url(#B)"><path d="M0 0h70v35H0z" fill="rgb(0%,0%,0%)" fill-opacity=".302" stroke="none"/></g></mask><clipPath id="D"><path d="M0 0h70v35H0z"/></clipPath><g id="E" clip-path="url(#D)"><path d="M2.645 9.477h18.02v3.156H2.645zm0 0" stroke="none" fill-rule="nonzero" fill="rgb(49.803922%,50.196078%,50.196078%)" fill-opacity="1"/></g></defs><path d="M19.94 0l9.72 10.094L13.152 25.1 0 11.66zm0 0" fill="rgb(14.509804%,14.117647%,14.117647%)"/><path d="M2.645 9.477H70.16v20.89H2.645zm0 0" fill="rgb(23.529412%,19.215686%,52.54902%)"/><path d="M59.828 30.367h10.176v4.762H59.828zm0 0" fill="url(#A)"/><g fill="rgb(100%,100%,100%)"><path d="M12.25 28.035c-2.137 0-3.906-.648-5.3-1.94s-2.094-3.1-2.094-5.375c0-2.137.648-3.902 1.945-5.3s3.06-2.094 5.293-2.094c1.074 0 2.145.23 3.21.695s1.937 1.117 2.63 1.965l-2.69 2.277c-.902-.887-1.953-1.332-3.148-1.332a3.05 3.05 0 0 0-2.324 1.02c-.63.676-.945 1.602-.945 2.77 0 1.078.305 1.98.918 2.71s1.45 1.102 2.512 1.102c.73 0 1.434-.156 2.113-.465v-1.332h-2.414v-3.082h5.98v6.652c-.664.496-1.512.9-2.543 1.238s-2.074.492-3.14.492m13.34.023c-1.81 0-3.25-.543-4.328-1.625s-1.613-2.61-1.613-4.586v-8.3h3.828v8.082c0 .816.18 1.5.535 2.043s.887.816 1.578.816c.648 0 1.176-.25 1.582-.754s.61-1.207.61-2.105v-8.082h3.81v8.3c0 1.9-.523 3.422-1.566 4.535s-2.52 1.676-4.434 1.676m8.05-14.516h3.848v14.313H33.64zM46.578 28.06c-2.18 0-3.95-.684-5.312-2.047s-2.043-3.133-2.043-5.312.684-3.95 2.055-5.32 3.137-2.055 5.3-2.055 3.934.68 5.3 2.043 2.055 3.145 2.055 5.332c0 2.18-.684 3.95-2.055 5.313s-3.133 2.047-5.3 2.047m0-3.57c.996 0 1.813-.363 2.44-1.086s.95-1.625.95-2.703c0-1.06-.316-1.957-.95-2.69s-1.445-1.098-2.44-1.098A3.12 3.12 0 0 0 44.137 18c-.645.727-.97 1.625-.97 2.7s.324 1.977.97 2.703 1.457 1.086 2.44 1.086M64.16 13.543h3.79v14.313h-3.93l-4.645-7.84h-.04v7.84H55.57V13.543h3.805l4.727 8.066h.06zM33.715 33.1l.21.023a.53.53 0 0 1-.176.332c-.094.082-.21.12-.352.12-.172 0-.31-.055-.414-.164s-.16-.27-.16-.473a.8.8 0 0 1 .07-.348.45.45 0 0 1 .207-.227c.1-.047.19-.074.3-.074.137 0 .25.035.336.102s.145.164.168.29l-.207.03a.34.34 0 0 0-.105-.187c-.05-.043-.113-.062-.184-.062-.102-.004-.195.04-.262.113s-.102.195-.102.355c0 .168.03.285.098.36s.148.113.254.113c.078.004.152-.023.21-.074s.094-.13.105-.23zm0 0"/><path d="M33.89 32.926c0-.23.063-.398.195-.508a.6.6 0 0 1 .398-.137c.172 0 .316.055.426.168s.164.262.164.457a.78.78 0 0 1-.074.375.5.5 0 0 1-.211.211.63.63 0 0 1-.305.074c-.18 0-.32-.055-.43-.164s-.164-.27-.164-.477zm.22 0c0 .156.035.273.105.352s.168.12.27.117a.33.33 0 0 0 .266-.117c.07-.078.105-.2.105-.36 0-.152-.035-.27-.105-.348s-.164-.117-.266-.117-.2.04-.27.117-.105.195-.105.355zm1.22.613v-1.23h.19v.176c.094-.137.227-.203.402-.203.074 0 .145.012.21.04.06.023.105.06.145.105a.38.38 0 0 1 .066.156 1.18 1.18 0 0 1 .012.203v.754h-.215v-.746a.57.57 0 0 0-.023-.191c-.02-.043-.047-.078-.1-.102s-.094-.04-.148-.04a.38.38 0 0 0-.238.086c-.066.055-.098.164-.098.32v.672zm1.883 0v-1.695h.777a1.07 1.07 0 0 1 .355.043c.078.03.148.1.19.164a.44.44 0 0 1 .074.254c0 .12-.04.223-.12.305s-.203.133-.37.156c.06.027.105.06.137.086.07.06.133.137.195.227l.3.46h-.29l-.23-.355-.168-.23a.46.46 0 0 0-.117-.113c-.03-.023-.066-.04-.105-.047s-.086-.008-.13-.008h-.27v.754zm.234-.95h.496c.105 0 .188-.008.246-.03s.105-.055.137-.102a.27.27 0 0 0 .047-.152c0-.082-.03-.145-.1-.2s-.156-.078-.285-.078h-.55zm0 0"/><path d="M38.422 32.926c0-.23.066-.398.2-.508a.59.59 0 0 1 .395-.137c.176 0 .316.055.43.168s.164.262.164.457a.78.78 0 0 1-.074.375.5.5 0 0 1-.211.211c-.094.05-.195.074-.31.074-.176 0-.32-.055-.43-.164s-.164-.27-.164-.477zm.223 0c0 .156.035.273.105.352a.33.33 0 0 0 .266.117.33.33 0 0 0 .266-.117c.07-.078.105-.2.105-.36 0-.152-.035-.27-.105-.348s-.16-.117-.266-.117-.2.04-.266.117-.105.195-.105.355zm1.13.246l.215-.03c.008.074.043.14.098.188s.133.066.23.066.172-.02.22-.06a.17.17 0 0 0 .07-.137c0-.047-.023-.1-.062-.11-.03-.02-.102-.043-.22-.074a1.95 1.95 0 0 1-.328-.098c-.055-.023-.105-.066-.137-.117s-.047-.105-.047-.164.012-.105.04-.152.06-.086.105-.117a.53.53 0 0 1 .133-.062c.06-.016.12-.023.188-.023.098 0 .188.016.262.043s.13.063.164.113.063.11.074.188l-.207.027c-.008-.06-.04-.11-.086-.148s-.11-.05-.19-.05c-.098 0-.168.016-.21.047s-.062.066-.062.11c0 .027.008.05.023.074a.19.19 0 0 0 .082.055l.19.055.316.098c.06.02.105.06.14.11s.05.105.05.176-.02.14-.062.2a.38.38 0 0 1-.18.141c-.078.035-.168.05-.266.05-.164 0-.29-.035-.375-.102s-.14-.164-.168-.293zm2.133.215a.81.81 0 0 1-.23.141c-.07.027-.152.04-.234.04-.14 0-.246-.035-.32-.098s-.113-.156-.113-.254a.33.33 0 0 1 .043-.164c.027-.05.066-.1.11-.12s.098-.055.156-.07l.19-.03c.172-.02.3-.043.383-.07v-.055c0-.086-.02-.145-.062-.18-.055-.047-.137-.07-.242-.07s-.176.016-.223.05-.086.098-.11.184l-.207-.027c.016-.1.05-.156.094-.21s.105-.098.188-.125a.92.92 0 0 1 .289-.043.71.71 0 0 1 .262.039c.06.016.11.047.148.1a.29.29 0 0 1 .066.145c.008.035.012.098.012.19v.277l.016.367c.008.05.027.102.055.148h-.227c-.023-.047-.04-.098-.043-.152zm-.016-.465c-.078.03-.195.06-.352.078-.062.008-.125.02-.187.043-.035.012-.062.035-.086.066s-.027.063-.027.098c0 .06.02.105.063.14s.11.055.19.055a.44.44 0 0 0 .219-.051c.063-.035.113-.082.145-.145a.49.49 0 0 0 .035-.211zm.633.617v-1.695h.348l.414 1.2.082.25.094-.27.418-1.18h.313v1.695h-.223v-1.422l-.508 1.422h-.207l-.508-1.445v1.445zm2.78-.152c-.066.06-.145.105-.227.14a.68.68 0 0 1-.238.039.49.49 0 0 1-.32-.098.33.33 0 0 1-.113-.254.33.33 0 0 1 .043-.164c.027-.05.066-.1.113-.12s.094-.055.152-.07l.19-.03c.172-.02.3-.043.383-.07v-.055c0-.086-.02-.145-.062-.18-.05-.047-.133-.07-.242-.07-.102 0-.176.016-.223.05s-.086.098-.11.184l-.207-.027a.5.5 0 0 1 .094-.211c.043-.055.105-.098.188-.125a.92.92 0 0 1 .289-.043c.11 0 .195.012.262.04s.117.055.148.1.055.086.07.145c.004.035.008.098.008.19v.277l.016.367c.008.05.027.102.055.148h-.227a.49.49 0 0 1-.043-.152zm-.016-.465c-.078.03-.195.06-.352.078-.062.008-.125.02-.187.043-.03.012-.062.035-.082.066s-.03.063-.03.098c0 .06.023.105.066.14a.29.29 0 0 0 .188.055c.086 0 .156-.016.223-.05.06-.03.11-.082.14-.145a.49.49 0 0 0 .035-.211zm.363.617v-1.23h.195v.188a.52.52 0 0 1 .137-.172c.04-.027.1-.043.137-.043a.43.43 0 0 1 .219.066l-.07.195a.38.38 0 0 0-.16-.047.21.21 0 0 0-.125.043.22.22 0 0 0-.082.113c-.023.078-.035.16-.035.242v.645zm.875-1.383l.16-.324h.28l-.262.324zm.012 1.383v-1.23h.215v1.23zm1.43-.152a.87.87 0 0 1-.23.141.67.67 0 0 1-.234.039c-.14 0-.246-.035-.324-.098-.07-.066-.113-.156-.11-.254 0-.06.012-.117.043-.164s.063-.1.11-.12a.54.54 0 0 1 .152-.07l.19-.03c.176-.02.3-.043.383-.07v-.055c0-.086-.02-.145-.06-.18-.055-.047-.137-.07-.246-.07-.098 0-.172.016-.223.05s-.082.098-.105.184l-.21-.027a.5.5 0 0 1 .094-.211.42.42 0 0 1 .191-.125c.082-.027.176-.043.285-.043a.72.72 0 0 1 .266.039c.066.023.117.055.148.1a.33.33 0 0 1 .066.145c.008.035.012.098.012.19v.277l.012.367c.012.05.027.102.055.148h-.223c-.023-.047-.04-.098-.043-.152zm-.02-.465a1.5 1.5 0 0 1-.348.078.73.73 0 0 0-.187.043c-.035.012-.066.035-.086.066s-.03.063-.027.098c0 .06.02.105.063.14s.105.055.19.055a.44.44 0 0 0 .219-.051c.063-.035.11-.082.14-.145a.49.49 0 0 0 .035-.211zm.81.617v-1.695h.66a1.5 1.5 0 0 1 .262.016.52.52 0 0 1 .219.078c.06.04.102.094.14.164a.51.51 0 0 1 .051.23.52.52 0 0 1-.141.367c-.094.102-.266.148-.512.148h-.45v.69zm.23-.89h.453c.148 0 .254-.027.316-.082s.094-.13.094-.227c.004-.066-.016-.13-.055-.184-.035-.047-.1-.086-.148-.098-.04-.012-.11-.016-.215-.016h-.445zm0 0"/><path d="M50.793 33.387a.87.87 0 0 1-.23.141.67.67 0 0 1-.234.039c-.14 0-.246-.035-.32-.098s-.117-.156-.113-.254a.33.33 0 0 1 .043-.164c.027-.05.063-.1.11-.12a.54.54 0 0 1 .152-.07l.19-.03c.176-.02.3-.043.383-.07l.004-.055c0-.086-.023-.145-.062-.18-.055-.047-.137-.07-.242-.07s-.176.016-.227.05-.082.098-.105.184l-.21-.027a.5.5 0 0 1 .094-.211.42.42 0 0 1 .191-.125.91.91 0 0 1 .285-.043.72.72 0 0 1 .266.039c.055.016.11.047.148.1s.055.1.066.145c.008.035.012.098.012.19v.277l.012.367c.012.05.027.102.055.148h-.223c-.023-.047-.04-.098-.043-.152zm-.02-.465a1.5 1.5 0 0 1-.348.078.73.73 0 0 0-.187.043c-.035.012-.066.035-.086.066s-.03.063-.027.098c0 .06.02.105.063.14s.105.055.19.055a.44.44 0 0 0 .219-.051c.063-.03.11-.082.14-.145a.49.49 0 0 0 .035-.211zm.547.617v-1.695h.215v1.695zm1.37-.152a.81.81 0 0 1-.23.141c-.07.027-.152.04-.234.04-.14 0-.246-.035-.32-.098s-.117-.156-.113-.254a.33.33 0 0 1 .043-.164c.027-.05.066-.1.11-.12s.098-.055.156-.07l.19-.03c.172-.02.3-.043.383-.07v-.055c0-.086-.023-.145-.062-.18-.055-.047-.137-.07-.242-.07s-.176.016-.223.05-.086.098-.11.184l-.21-.027a.46.46 0 0 1 .098-.211c.043-.055.105-.098.188-.125a.92.92 0 0 1 .289-.043.71.71 0 0 1 .262.039c.06.016.11.047.148.1a.29.29 0 0 1 .066.145c.008.035.012.098.012.19v.277l.016.367a.42.42 0 0 0 .051.148h-.223c-.023-.047-.04-.098-.043-.152zm-.016-.465c-.078.03-.195.06-.352.078a.77.77 0 0 0-.187.043c-.035.012-.062.035-.086.066s-.027.063-.027.098c0 .06.02.105.063.14s.11.055.19.055a.44.44 0 0 0 .219-.051c.063-.035.113-.082.145-.145a.49.49 0 0 0 .035-.211zm1.375.168l.21.023c-.023.14-.082.254-.18.332a.52.52 0 0 1-.348.121.55.55 0 0 1-.418-.164c-.105-.11-.16-.27-.16-.473a.8.8 0 0 1 .07-.348.45.45 0 0 1 .207-.227c.1-.047.19-.074.3-.074.137 0 .25.035.336.102s.145.164.168.29l-.207.03a.34.34 0 0 0-.105-.187c-.05-.043-.117-.062-.184-.062a.34.34 0 0 0-.262.113c-.07.074-.102.195-.102.355 0 .168.03.285.098.36s.148.113.254.113c.078.004.152-.023.21-.074s.094-.13.11-.23zm.395-1.008v-.238h.215v.238zm0 1.457v-1.23h.215v1.23zm.46-.613c0-.23.066-.398.195-.508a.61.61 0 0 1 .398-.137c.172 0 .316.055.426.168s.164.262.164.457c0 .16-.023.28-.07.375a.53.53 0 0 1-.215.211.64.64 0 0 1-.305.074c-.176 0-.32-.055-.43-.164s-.164-.27-.164-.477zm.22 0c0 .156.035.273.105.352s.168.12.27.117a.33.33 0 0 0 .266-.117c.07-.078.105-.2.105-.36 0-.152-.035-.27-.105-.348s-.164-.117-.266-.117-.2.04-.27.117-.105.195-.105.355zm1.133.246l.21-.03c.008.074.043.14.102.188s.13.066.227.066.172-.02.22-.06c.047-.03.07-.082.074-.137 0-.047-.023-.1-.066-.11-.027-.02-.102-.043-.22-.074a1.77 1.77 0 0 1-.324-.098.3.3 0 0 1-.141-.117c-.03-.05-.047-.105-.047-.164a.34.34 0 0 1 .039-.152.38.38 0 0 1 .105-.117c.035-.023.078-.043.137-.062s.12-.023.184-.023a.75.75 0 0 1 .262.043c.078.027.133.063.168.113a.41.41 0 0 1 .074.188l-.21.027c-.008-.06-.035-.11-.082-.148s-.11-.05-.195-.05c-.098 0-.168.016-.21.047s-.062.066-.062.11c0 .027.008.05.027.074a.19.19 0 0 0 .082.055 2.7 2.7 0 0 0 .188.055l.32.098a.3.3 0 0 1 .141.109c.035.05.055.113.05.176 0 .07-.023.14-.062.2a.42.42 0 0 1-.18.141c-.086.035-.176.05-.27.05-.164 0-.29-.035-.375-.102s-.14-.164-.164-.293zm0 0"/></g><use xlink:href="#E" mask="url(#C)"/><path d="M0 0h19.94v11.66H0zm0 0" fill="rgb(100%,100%,100%)"/><path d="M4.5 9.97c-1.047 0-1.95-.395-2.715-1.187l1.113-1.38c.54.55 1.098.824 1.676.824.21 0 .37-.047.473-.14.102-.086.156-.21.156-.34 0-.152-.062-.277-.184-.375s-.367-.207-.746-.336c-.328-.11-.605-.223-.832-.336s-.453-.266-.687-.45-.414-.422-.527-.695c-.12-.277-.184-.598-.184-.96a2.07 2.07 0 0 1 .695-1.586c.47-.426 1.05-.645 1.754-.656.97-.023 1.832.31 2.6.988l-1.086 1.4c-.57-.445-1.035-.668-1.39-.668-.344 0-.516.148-.516.44 0 .13.06.254.184.363s.36.234.715.375c.762.293 1.266.523 1.504.688.516.355.773.88.773 1.566 0 .445-.082.836-.25 1.164s-.395.586-.676.77-.578.313-.883.395c-.312.086-.633.125-.957.125m3.563-7.516h1.992v7.4H8.063zm7.574 0h1.965v7.4h-2.035l-2.406-4.06h-.02v4.06h-1.953v-7.4h1.973l2.45 4.176h.027zm0 0" fill="rgb(11.372549%,11.764706%,10.980392%)"/></svg>