<svg id="Capa_1" data-name="Capa 1" xmlns="http://www.w3.org/2000/svg" width="50" height="20" viewBox="0 0 50 20"><defs><style>.cls-1{fill:#2851f8;}</style></defs><path class="cls-1" d="M14.75,14.9,16,10.43h2.51l-2.32,6.75H13.29L11,10.43h2.52Z"/><path class="cls-1" d="M23.17,10.84A3.09,3.09,0,0,1,24.41,12a3.55,3.55,0,0,1,.45,1.81,3.56,3.56,0,0,1-.45,1.82,3.06,3.06,0,0,1-1.24,1.18,4,4,0,0,1-3.58,0,3,3,0,0,1-1.25-1.18,3.56,3.56,0,0,1-.45-1.82A3.56,3.56,0,0,1,18.34,12a3.09,3.09,0,0,1,1.25-1.18,4.11,4.11,0,0,1,3.58,0Zm-2.6,2a1.49,1.49,0,0,0-.32,1,1.55,1.55,0,0,0,.32,1.05,1.07,1.07,0,0,0,.81.35,1,1,0,0,0,.8-.36,1.54,1.54,0,0,0,.32-1,1.49,1.49,0,0,0-.32-1,1.08,1.08,0,0,0-1.61,0Z"/><path class="cls-1" d="M30.49,11.15a3.2,3.2,0,0,1,1.1,2H29.12a1,1,0,0,0-.3-.53.88.88,0,0,0-.57-.18.83.83,0,0,0-.69.36,1.73,1.73,0,0,0-.27,1.05,1.74,1.74,0,0,0,.27,1.06.84.84,0,0,0,.69.35.88.88,0,0,0,.57-.18,1,1,0,0,0,.3-.53h2.47a3.26,3.26,0,0,1-1.1,2,3.33,3.33,0,0,1-2.18.72,3.72,3.72,0,0,1-1.76-.41,2.85,2.85,0,0,1-1.19-1.19,3.66,3.66,0,0,1-.43-1.82A3.66,3.66,0,0,1,25.36,12a2.9,2.9,0,0,1,1.2-1.18,3.7,3.7,0,0,1,1.75-.41A3.33,3.33,0,0,1,30.49,11.15Z"/><path class="cls-1" d="M38.28,14.27H33.87c0,.75.37,1.13,1,1.13a.94.94,0,0,0,.57-.17.8.8,0,0,0,.3-.44H38.2a2.7,2.7,0,0,1-.58,1.26,3,3,0,0,1-1.14.89,3.58,3.58,0,0,1-1.51.32,3.72,3.72,0,0,1-1.76-.41A2.85,2.85,0,0,1,32,15.66a3.66,3.66,0,0,1-.43-1.82A3.66,3.66,0,0,1,32,12a2.9,2.9,0,0,1,1.2-1.18A3.7,3.7,0,0,1,35,10.43a3.66,3.66,0,0,1,1.76.41A2.84,2.84,0,0,1,37.91,12a3.47,3.47,0,0,1,.43,1.73A2.8,2.8,0,0,1,38.28,14.27Zm-2.59-1.75a1,1,0,0,0-.72-.26,1.1,1.1,0,0,0-.75.26,1.15,1.15,0,0,0-.34.77H36A1,1,0,0,0,35.69,12.52Z"/><path class="cls-1" d="M43.11,10.94a2.8,2.8,0,0,1,1,1.7H41.91a.87.87,0,0,0-.34-.53,1.05,1.05,0,0,0-.62-.18.64.64,0,0,0-.4.11.4.4,0,0,0-.14.32.41.41,0,0,0,.29.37,6.74,6.74,0,0,0,1,.28,9,9,0,0,1,1.28.36,2.19,2.19,0,0,1,.88.61,1.74,1.74,0,0,1,.37,1.15,1.78,1.78,0,0,1-.32,1,2.17,2.17,0,0,1-.93.7,3.76,3.76,0,0,1-1.45.26,3.68,3.68,0,0,1-2.23-.61,2.54,2.54,0,0,1-1-1.73H40.5a.72.72,0,0,0,.31.55,1.17,1.17,0,0,0,.67.17.72.72,0,0,0,.42-.11.41.41,0,0,0,.14-.31.44.44,0,0,0-.3-.42,5.26,5.26,0,0,0-1-.26,8.34,8.34,0,0,1-1.25-.34,2.22,2.22,0,0,1-.85-.59,1.68,1.68,0,0,1-.36-1.14,1.83,1.83,0,0,1,.7-1.47,3.09,3.09,0,0,1,2-.57A3.25,3.25,0,0,1,43.11,10.94Z"/><path class="cls-1" d="M17.94,6.44H13.31a1.72,1.72,0,0,0,.46,1.24,1.45,1.45,0,0,0,1.05.4,1.5,1.5,0,0,0,.92-.27,1.21,1.21,0,0,0,.48-.74h1.69a2.69,2.69,0,0,1-.53,1.18,2.75,2.75,0,0,1-1.05.82,3.36,3.36,0,0,1-1.43.3A3.41,3.41,0,0,1,13.25,9a2.78,2.78,0,0,1-1.11-1.12,3.51,3.51,0,0,1-.4-1.73,3.5,3.5,0,0,1,.4-1.72,2.66,2.66,0,0,1,1.11-1.12A3.41,3.41,0,0,1,14.9,2.9a3.3,3.3,0,0,1,1.63.39,2.63,2.63,0,0,1,1.08,1.06A3,3,0,0,1,18,5.9,2.77,2.77,0,0,1,17.94,6.44ZM16,4.56a1.56,1.56,0,0,0-1.07-.4,1.62,1.62,0,0,0-1.1.4,1.63,1.63,0,0,0-.49,1.18h3.07A1.45,1.45,0,0,0,16,4.56Z"/><path class="cls-1" d="M24.08,3.61a2.89,2.89,0,0,1,.65,2V9.29h-1.6V5.8a1.65,1.65,0,0,0-.38-1.16,1.39,1.39,0,0,0-1.06-.42,1.45,1.45,0,0,0-1.1.44,1.86,1.86,0,0,0-.41,1.28V9.29h-1.6V3h1.6V4.24a2,2,0,0,1,.83-1,2.43,2.43,0,0,1,1.33-.36A2.22,2.22,0,0,1,24.08,3.61Z"/><path class="cls-1" d="M29,7.91V9.29h-.85a2.35,2.35,0,0,1-1.62-.51,2.2,2.2,0,0,1-.56-1.71V4.33h-.88V3h.88V1.42h1.6V3H29V4.33H27.53V7.09a.89.89,0,0,0,.18.64.88.88,0,0,0,.62.18Z"/><path class="cls-1" d="M32.09,3.23a2.5,2.5,0,0,1,1.3-.34V4.61h-.47c-1.18,0-1.76.54-1.76,1.64v3H29.55V3h1.61V4.19A2.6,2.6,0,0,1,32.09,3.23Z"/><path class="cls-1" d="M39.6,6.44H35a1.77,1.77,0,0,0,.46,1.24,1.45,1.45,0,0,0,1,.4,1.55,1.55,0,0,0,.93-.27,1.24,1.24,0,0,0,.47-.74h1.7A2.83,2.83,0,0,1,39,8.25a2.68,2.68,0,0,1-1,.82A3.6,3.6,0,0,1,34.92,9,2.81,2.81,0,0,1,33.8,7.86a3.51,3.51,0,0,1-.4-1.73,3.5,3.5,0,0,1,.4-1.72,2.69,2.69,0,0,1,1.12-1.12,3.34,3.34,0,0,1,1.64-.39,3.3,3.3,0,0,1,1.63.39,2.63,2.63,0,0,1,1.08,1.06,3.05,3.05,0,0,1,.39,1.55A2.86,2.86,0,0,1,39.6,6.44Zm-2-1.88a1.56,1.56,0,0,0-1.07-.4,1.62,1.62,0,0,0-1.1.4A1.67,1.67,0,0,0,35,5.74H38A1.42,1.42,0,0,0,37.63,4.56Z"/><path class="cls-1" d="M41.5,8.84a.9.9,0,0,1-.7-.33.92.92,0,0,1,.12-1.28,1.47,1.47,0,0,0,.49-1.09,1.7,1.7,0,0,0-.52-1.28.91.91,0,1,1,1.22-1.34,3.52,3.52,0,0,1,1.11,2.66,3.28,3.28,0,0,1-1.14,2.45.92.92,0,0,1-.58.21"/><path class="cls-1" d="M44.06,10.5A.91.91,0,0,1,43.42,9a4.06,4.06,0,0,0,1.37-2.89,4.07,4.07,0,0,0-1.37-2.89.91.91,0,1,1,1.27-1.29A5.83,5.83,0,0,1,46.6,6.06a5.85,5.85,0,0,1-1.91,4.19.9.9,0,0,1-.63.25"/><path class="cls-1" d="M46.58,12.12a.89.89,0,0,1-.69-.31A.9.9,0,0,1,46,10.53a5.93,5.93,0,0,0,2.21-4.47A5.93,5.93,0,0,0,46,1.59.89.89,0,0,1,45.89.32a.9.9,0,0,1,1.28-.1A7.71,7.71,0,0,1,50,6.06a7.71,7.71,0,0,1-2.83,5.84.9.9,0,0,1-.59.22"/><rect x="12.25" y="18.23" width="4.72" height="1.77"/></svg>