<svg id="Capa_1" data-name="Capa 1" xmlns="http://www.w3.org/2000/svg" xmlns:xlink="http://www.w3.org/1999/xlink" width="50" height="20" viewBox="0 0 50 20"><defs><style>.cls-1{fill:#0021d5;}.cls-2{fill:#0040d5;}.cls-3{fill:url(#Degradado_sin_nombre_25);}.cls-4{fill:url(#Degradado_sin_nombre_25-2);}.cls-5{fill:url(#Degradado_sin_nombre_16);}.cls-6{fill:url(#Degradado_sin_nombre_16-2);}.cls-7{fill:url(#Degradado_sin_nombre_16-3);}.cls-8{fill:url(#Degradado_sin_nombre_16-4);}.cls-9{fill:#cbcbcb;}.cls-10{fill:#fff;}.cls-11{fill:url(#Degradado_sin_nombre_16-5);}</style><linearGradient id="Degradado_sin_nombre_25" x1="24.77" y1="-1.07" x2="20.65" y2="26.96" gradientUnits="userSpaceOnUse"><stop offset="0" stop-color="#008cff"/><stop offset="0.43" stop-color="#005cdc"/><stop offset="1" stop-color="#002dce"/></linearGradient><linearGradient id="Degradado_sin_nombre_25-2" x1="44.41" y1="1.88" x2="39.86" y2="32.83" xlink:href="#Degradado_sin_nombre_25"/><linearGradient id="Degradado_sin_nombre_16" x1="3408.22" y1="3181.87" x2="3404.96" y2="3185.13" gradientTransform="matrix(-0.86, -0.08, 0.17, 0.9, 2579.81, -2451.8)" gradientUnits="userSpaceOnUse"><stop offset="0" stop-color="#ff001c"/><stop offset="1" stop-color="#ad0400"/></linearGradient><linearGradient id="Degradado_sin_nombre_16-2" x1="3408.61" y1="3182.26" x2="3405.35" y2="3185.52" xlink:href="#Degradado_sin_nombre_16"/><linearGradient id="Degradado_sin_nombre_16-3" x1="3409.03" y1="3182.68" x2="3405.77" y2="3185.94" xlink:href="#Degradado_sin_nombre_16"/><linearGradient id="Degradado_sin_nombre_16-4" x1="3409.38" y1="3183.04" x2="3406.12" y2="3186.3" xlink:href="#Degradado_sin_nombre_16"/><linearGradient id="Degradado_sin_nombre_16-5" x1="5014.5" y1="851.74" x2="5025.14" y2="851.74" gradientTransform="matrix(-0.67, 0.74, 0.74, 0.67, 2787.26, -4282.46)" xlink:href="#Degradado_sin_nombre_16"/></defs><path class="cls-1" d="M35.56,6.16A4.38,4.38,0,0,0,32,5.4L27.22,6h0l-6.73.83-.11.51a5.56,5.56,0,0,0-2.58-.18l-2.14.26.41-1.84-5.31.66-.6,1.86-1.23.15h0L2.36,9l-1,4.58.55-.07L1.55,15,1,15,0,19.56l9.39-1.15h0l1.41-.18h0l2.44-.3.38,0h0l3.45-.43a7.13,7.13,0,0,0,1.08-.2l0,.07,6.73-.82h0l13.75-1.69s5.47-.83,7.39-2a10.12,10.12,0,0,0,2.86-2.55Z"/><rect class="cls-1" x="2.55" y="7.18" width="4.31" height="2.32" transform="translate(-4.52 5.77) rotate(-45)"/><circle class="cls-2" cx="43.72" cy="6.72" r="6.28"/><path class="cls-3" d="M38.6,3.12A4.3,4.3,0,0,0,35,2.36L30.26,3h0l-6.72.82-.12.52a5.66,5.66,0,0,0-2.58-.19l-2.14.27.42-1.84-5.32.65L13.2,5,12,5.19h0L5.4,6l-1,4.57.54-.06-.32,1.42L4,12,3,16.52l9.4-1.16h0l1.4-.17h0l2.44-.3.39-.05h0l3.45-.42a8.81,8.81,0,0,0,1.07-.21v.08l6.72-.83h0L42,11.72l-.75-1.29L39.19,6.69A2.81,2.81,0,0,0,38.6,3.12Z"/><ellipse class="cls-4" cx="43.7" cy="6.72" rx="6.3" ry="6.28"/><path class="cls-5" d="M40.83,5.25c-.6,3.82-2.45,7.4-5.6,9.16a2.89,2.89,0,0,1-3.15.19,3.68,3.68,0,0,1-1.46-3,3.51,3.51,0,0,0,1.56,2.92,2.69,2.69,0,0,0,2.92-.27c3.16-1.93,4.6-5.93,4.85-9.95C40.26,4.61,40.44,4.81,40.83,5.25Z"/><path class="cls-6" d="M42.43,7.22a13.07,13.07,0,0,1-6.63,8.16,3.73,3.73,0,0,1-3.66.07,3.94,3.94,0,0,1-1.83-3.39,3.68,3.68,0,0,0,1.82,3.2A3.37,3.37,0,0,0,35.56,15c3.17-1.74,5.19-5.22,5.82-9Z"/><path class="cls-7" d="M44.08,9.27a15.41,15.41,0,0,1-7.59,7.29,4.49,4.49,0,0,1-6.4-4.1,4.11,4.11,0,0,0,6.15,3.66A13.51,13.51,0,0,0,43,8Z"/><path class="cls-8" d="M45.51,11c-2.28,2.66-5,5.39-8.42,6.64-2.88,1-7.11-.76-7.16-4.81A5,5,0,0,0,32.23,17a5,5,0,0,0,4.7.32,16.28,16.28,0,0,0,7.72-7.35C45,10.39,45.2,10.6,45.51,11Z"/><path class="cls-9" d="M48.63,8.77a5.32,5.32,0,1,0-2.88,2.86A5.27,5.27,0,0,0,48.63,8.77Z"/><path class="cls-10" d="M47.41,6.74l.19.08s.58.17.52.26-.64-.07-.66,0A6.09,6.09,0,0,1,46,8.5l-.26,1.35-.11,0-.33-.35.23-1.07.4-.05,1-1Zm-3.66,3.71-1-1.39-2.26-.7L40,9.09l.66-.33,1.85.56Zm3.14-.07-1.53-.6-1.65.62-.61.78.09.18.7-.66a5.68,5.68,0,0,0,1.62-.49A4.37,4.37,0,0,0,46.89,10.38ZM39.32,8.52l0,.28.69.39L40.06,9Z"/><path class="cls-10" d="M42.89,2.07c2.21-.38,4.41.61,4.87,2.1s-1.41,3.59-3.77,4-4.31-.42-4.62-2.11C39.42,4.46,41.17,2.17,42.89,2.07Z"/><path class="cls-11" d="M41.68,11.63a5.32,5.32,0,0,0,7-6.93,5.32,5.32,0,1,0-7,6.93ZM41.8,11a4.66,4.66,0,0,1-1-.63A3.35,3.35,0,0,1,40.19,9a2.75,2.75,0,0,1,.49-.45,20.81,20.81,0,0,0,2,.6,7,7,0,0,0,.9,1.18,5.05,5.05,0,0,1-.69.73Zm3.86-2.85c-.3-.1-.92-.32-1.52-.56a7.69,7.69,0,0,1-.47-2.15,7.56,7.56,0,0,1,1.14-1.14,5.34,5.34,0,0,1,2.06.63,12.44,12.44,0,0,1,.38,1.63A5.2,5.2,0,0,1,45.66,8.16ZM48.3,7l.13-.19a3.77,3.77,0,0,1,0,.58C48.36,7.19,48.32,7.05,48.3,7Zm-5.53,1.9a19.32,19.32,0,0,1-2-.59,5.12,5.12,0,0,1-.49-1.62A4.67,4.67,0,0,1,41.91,5c.3.1.9.29,1.46.52a8,8,0,0,0,.48,2.19A12.34,12.34,0,0,1,42.77,8.86Zm-3.28-.11.4.26a3,3,0,0,0,.16.64A4.66,4.66,0,0,1,39.49,8.75Zm-.1-3.84A4.39,4.39,0,0,1,39.87,4c.35-.28,1-.73,1.23-.93l.75.31a2.18,2.18,0,0,0-.17,1.36,4.92,4.92,0,0,0-1.54,1.55l-1-.44A4.9,4.9,0,0,1,39.39,4.91Zm5.12-2.83a3.42,3.42,0,0,0-.75.65,5.11,5.11,0,0,0-1.61.48l-.85-.36.09-.21A4.74,4.74,0,0,1,44.51,2.08Zm1,.3a4.68,4.68,0,0,1,1.91,1.47l-.54.77a5.37,5.37,0,0,0-2-.61l-.85-1.14a2.37,2.37,0,0,1,1-.68C45.18,2.24,45.36,2.31,45.54,2.38Zm2.53,6.15a4.62,4.62,0,0,1-1,1.52H47a3.78,3.78,0,0,1-1.24-.28l.08-1.35a5.9,5.9,0,0,0,1.65-1.6l.55.24a5,5,0,0,1,.17,1.19C48.14,8.35,48.11,8.44,48.07,8.53Zm-4.48,2.89-.37-.22a5.26,5.26,0,0,0,.68-.75A4.15,4.15,0,0,0,45.53,10a4.84,4.84,0,0,0,1.12.31v.09A4.69,4.69,0,0,1,43.59,11.42Z"/><path class="cls-10" d="M44.56,4a6.29,6.29,0,0,0-.74-1,4.36,4.36,0,0,0-1.69.47,5.58,5.58,0,0,1,1.56-.15Z"/><path class="cls-10" d="M47.54,4.15l-.45.69s.29,1,.43,1.69c-.15-1-.2-1.66-.2-1.66Z"/><polygon class="cls-10" points="45.48 8.5 44.14 8.04 43.12 9.13 44.21 8.41 45.48 8.5"/><path class="cls-10" d="M39.9,6.62l-.82-.35A3.81,3.81,0,0,0,39.26,8a4.55,4.55,0,0,1,0-1.36Z"/><path class="cls-10" d="M5.22,13.29l.3,0c.11,0,.28-.21.31-.32l.85-3.79c0-.11-.07-.28-.17-.26l-.31,0,.37-1.62,4.2-.51L10.4,8.4l-.76.09-1,4.25,1-.12.52-1.28,1.73-.21-.66,2.94-6.4.79Z"/><path class="cls-10" d="M11.79,12.48l.34,0a.52.52,0,0,0,.31-.32l.85-3.79c0-.11-.06-.28-.17-.27l-.35,0,.37-1.63L17.2,6l-.37,1.62-.35,0c-.1,0-.27.21-.29.32l-.85,3.79c0,.11.05.28.16.27l.34,0-.34,1.56-4.06.5Zm3.09-8,2.4-.29-.14.65-1.2,1-1.58.19Z"/><path class="cls-10" d="M16,12l.31,0c.1,0,.28-.22.3-.32l.85-3.8c0-.1-.06-.27-.17-.26l-.3,0L17.37,6,21,5.52c1.82-.23,2.81.24,2.81,1.38s-.66,1.65-1.73,2V9c.82.1,1.27.45,1.27,1.23,0,1.56-1.43,2.56-3.42,2.81l-4.28.52Zm3.68-.5a.88.88,0,0,0,.8-1,.44.44,0,0,0-.56-.48l-.2,0-.32,1.47Zm.38-2.92.28,0a.78.78,0,0,0,.72-.87.41.41,0,0,0-.52-.45l-.18,0Z"/><path class="cls-10" d="M23.35,11.07l.3,0a.57.57,0,0,0,.31-.32l.85-3.8c0-.11-.06-.27-.17-.26l-.3,0,.36-1.63,6.41-.78-.59,2.6-1.61.2-.1-.82-1.07.13L27.49,7.5,29,7.31,28.65,9l-1.54.18-.29,1.32,1.12-.14L28.4,9.3l1.74-.21-.62,2.74-6.52.8Z"/><path class="cls-10" d="M30.08,10.24l.3,0c.11,0,.28-.21.31-.32l.85-3.79c0-.11-.07-.28-.17-.27l-.31,0,.37-1.62,3.79-.47c2.05-.25,2.89.4,2.88,1.53a2.46,2.46,0,0,1-1.88,2.25v0c.54.06.89.3,1,1.19l.05.31c0,.21.15.25.25.24l.09,0-.34,1.57-2.79.34-.07-2c0-.46-.15-.59-.43-.55l-.22,0-.25,1.12L34,9.75l-.35,1.57-4,.49Zm4-3.09.23,0A.94.94,0,0,0,35.14,6c0-.37-.17-.53-.59-.48l-.16,0Z"/></svg>