<?xml version="1.0" encoding="utf-8"?>
<!-- Generator: Adobe Illustrator 26.2.1, SVG Export Plug-In . SVG Version: 6.00 Build 0)  -->
<svg version="1.1" id="Capa_1" xmlns="http://www.w3.org/2000/svg" xmlns:xlink="http://www.w3.org/1999/xlink" x="0px" y="0px"
	 width="93px" height="46px" viewBox="0 0 93 46" style="enable-background:new 0 0 93 46;" xml:space="preserve">
<style type="text/css">
	.st0{fill:#6BD7E6;}
	.st1{fill:#E2153E;}
	.st2{clip-path:url(#SVGID_00000047041541400314116530000007144811935504939689_);}
</style>
<g>
	<g>
		<g>
			<path class="st0" d="M44.6,21.8c-5,3.8-10,7.5-15,11.3c0.2,0,0.3-0.2,0.4-0.4c2.3-2,4.6-4.1,6.9-6.1c4.1-3.6,8.2-7.3,12.3-10.9
				c0.7-0.6,1.3-1.2,2-1.8c0.1-0.1,0.2-0.1,0.3-0.2c2.6-0.2,5.1,0.1,7.4,1.3c0.8,0.4,1.5,0.8,2.1,1.3c0.2,0.1,0.2,0.2,0.1,0.4
				c-0.9,1.2-1.8,2.5-2.6,3.7c-0.1,0.2-0.2,0.2-0.4,0.1c-1.5-1-3.2-1.7-5-1.9c-0.6-0.1-1.2-0.1-1.8,0.1c-0.7,0.2-1,0.7-1,1.3
				c0,0.4,0.2,0.7,0.5,0.9c0.6,0.4,1.3,0.6,1.9,0.8c1.4,0.4,2.9,0.6,4.3,1.1c0.9,0.3,1.7,0.7,2.5,1.2c1.3,0.9,2.1,2.1,2.2,3.7
				c0.2,1.8-0.1,3.5-1.3,4.9c-1,1.2-2.3,1.9-3.8,2.4c-1.7,0.5-3.4,0.5-5.1,0.4c-2-0.2-3.9-0.7-5.7-1.7c-0.8-0.4-1.6-1-2.3-1.6
				c-0.1-0.1-0.2-0.2,0-0.3c1-1.2,2-2.3,2.9-3.5c0.1-0.2,0.2-0.1,0.4,0c1.6,1.3,3.5,2.1,5.5,2.3c0.8,0.1,1.6,0.1,2.4-0.1
				c0.8-0.3,1.1-0.9,1-1.6c-0.1-0.4-0.3-0.6-0.6-0.8c-0.6-0.4-1.3-0.6-2.1-0.8c-1.5-0.4-3-0.7-4.4-1.2c-1-0.4-2-0.9-2.8-1.7
				c-0.6-0.6-1.1-1.3-1.3-2.2C44.6,22,44.6,21.9,44.6,21.8z"/>
		</g>
		<polygon class="st1" points="40.2,21.8 61.6,2.7 38.7,20.2 		"/>
		<g>
			<defs>
				<polygon id="SVGID_1_" points="40.2,21.8 61.6,2.7 54.5,0.1 30.4,0.1 30.3,21.7 				"/>
			</defs>
			<clipPath id="SVGID_00000165213126506321556110000002419292007221020291_">
				<use xlink:href="#SVGID_1_"  style="overflow:visible;"/>
			</clipPath>
			<g style="clip-path:url(#SVGID_00000165213126506321556110000002419292007221020291_);">
				<path class="st1" d="M38.1,0.2l4.5,14.2l4.4-14.2h7.3l-8.3,21.6h-7.4L30.5,0.2H38.1z"/>
			</g>
		</g>
	</g>
	<g>
		<path class="st0" d="M29.1,45.8c-1.6,0-2.2-1-2.2-2.4c0-1.5,0.6-2.5,2.2-2.5h1.2L30.1,42h-1c-0.4,0-0.7,0.3-0.8,0.8h1.7l-0.2,1.1
			h-1.4c0.1,0.5,0.4,0.8,0.8,0.8h1l0.2,1.1H29.1z"/>
		<path class="st0" d="M32.9,45.8c-0.9,0-1.5-0.6-1.5-1.4v-3.5h1.3v3.4c0,0.2,0.1,0.4,0.3,0.4h0.9l0.2,1.1H32.9z"/>
		<path class="st0" d="M37.1,45.8c-1.6,0-2.2-1-2.2-2.4c0-1.5,0.6-2.5,2.2-2.5h1.2L38.2,42h-1c-0.4,0-0.7,0.3-0.8,0.8H38l-0.2,1.1
			h-1.4c0.1,0.5,0.4,0.8,0.8,0.8h1l0.2,1.1H37.1z"/>
		<path class="st0" d="M41.3,45.8c-1.5,0-2.2-1-2.2-2.4c0-1.5,0.6-2.5,2.2-2.5h1.2L42.4,42h-1c-0.5,0-0.8,0.4-0.8,1.3
			c0,0.9,0.3,1.3,0.8,1.3h1l0.2,1.1H41.3z"/>
		<path class="st0" d="M44.7,45.8V42h-1l-0.2-1.1h3.7L47,42h-1v3.8H44.7z"/>
		<path class="st0" d="M47.8,43.3c0-1.5,0.3-2.6,2.2-2.6c1.8,0,2.1,1.1,2.1,2.6c0,1.5-0.3,2.6-2.1,2.6
			C48.3,45.9,47.8,44.9,47.8,43.3z M50.8,43.3c0-1.1-0.2-1.5-0.8-1.5c-0.6,0-0.8,0.4-0.8,1.5c0,1.1,0.2,1.5,0.8,1.5
			C50.6,44.8,50.8,44.5,50.8,43.3z"/>
		<path class="st0" d="M55.8,45.8l-0.5-1.3c-0.1-0.2-0.2-0.3-0.4-0.3h-0.1v1.6h-1.3v-4.9h2c1,0,1.5,0.5,1.5,1.4
			c0,0.7-0.4,1.2-0.9,1.3c0.2,0.1,0.3,0.2,0.4,0.4l0.6,1.7H55.8z M55,43c0.4,0,0.6-0.2,0.6-0.5c0-0.4-0.2-0.5-0.6-0.5h-0.2V43H55z"
			/>
		<path class="st0" d="M60.9,45.8L60.7,45h-1.2l-0.2,0.7h-1.4l1.6-4.9h1.3l1.5,4.9H60.9z M60.1,42.9L59.8,44h0.6L60.1,42.9z"/>
		<path class="st0" d="M64.9,45.8c-0.9,0-1.5-0.6-1.5-1.4v-3.5h1.3v3.4c0,0.2,0.1,0.4,0.3,0.4h0.9l0.2,1.1H64.9z"/>
	</g>
</g>
</svg>
