<svg xmlns="http://www.w3.org/2000/svg" width="138.667" height="46.667" viewBox="0 0 104 35"><defs><linearGradient id="A" gradientUnits="userSpaceOnUse" x1="60.501" y1="30.633" x2="81.386" y2="15.597"><stop offset=".2" stop-color="rgb(0%,74.117647%,69.411765%)"/><stop offset=".367" stop-color="rgb(15.294118%,75.686275%,51.372549%)"/><stop offset=".535" stop-color="rgb(28.627451%,76.862745%,35.686275%)"/><stop offset=".668" stop-color="rgb(36.470588%,77.647059%,26.27451%)"/><stop offset=".75" stop-color="rgb(39.607843%,78.039216%,22.745098%)"/></linearGradient></defs><path d="M104 14.805c-3.195-6.484-7.367-6.14-10.258-4.762 2.1-5.156-.7-10.04-.7-10.04-5.988 3.47-5.465 7.855-4.172 10.723-5.06-2.14-9.887 1.086-9.887 1.086 3.207 6.504 7.38 6.145 10.27 4.75-2.1 5.156.7 10.05.7 10.05 5.98-3.47 5.477-7.848 4.184-10.71C99.184 18.02 104 14.805 104 14.805zm0 0" fill="rgb(40%,78.039216%,22.745098%)"/><path d="M86.012 12.172h4.324V7.258h2.277v4.926h4.348v2.28h-4.348v4.906h-2.277v-4.906h-4.324zm0 0" fill="rgb(100%,100%,100%)"/><path d="M2.06 6.676L0 6.05v-.625h4.95c1.434 0 2.594.328 3.504.977a5.99 5.99 0 0 1 2.055 2.547L17.814 25.6 24.53 7.3l-3.096-1.24v-.625h7.633v.625L25.77 7.3 15.676 34.785H14.44zm25.518 27.066l2.473-.613v-18.2l-2.473-.625v-.625h5.363c2.473 0 3.7 1.238 3.7 3.72v15.7l2.473.617v.625H27.578zm3.293-23.348c-.547-.547-.82-1.238-.82-2.062s.273-1.512.82-2.063 1.238-.82 2.06-.82 1.512.273 2.06.82.82 1.242.82 2.063-.273 1.516-.82 2.063-1.238.824-2.06.824-1.5-.273-2.06-.824zm8.344 4.544l-2.06-.625v-.625h5.156c1.434 0 2.563.297 3.402.887s1.566 1.473 2.168 2.625l4.906 9.543 4.574-11.18-3.098-1.238V13.7h7.63v.625L58.6 15.563l-7.84 19.223h-1.234zm0 0" fill="rgb(0%,74.117647%,69.019608%)"/><path d="M62.215 32.074c-1.95-1.94-2.934-4.617-2.934-8.04 0-2.23.426-4.184 1.28-5.828.852-1.656 2.047-2.918 3.566-3.805 1.523-.88 3.285-1.328 5.254-1.328 1.984 0 3.723.37 5.223 1.117s2.648 1.746 3.46 2.996 1.215 2.645 1.215 4.156c0 .69-.066 1.285-.207 1.777l-.21.703-3.828.625c-2.89.418-5.805.625-8.75.625 0 3.195.438 5.477 1.324 6.848.88 1.36 2.094 2.043 3.637 2.043 1.07 0 2.07-.254 2.988-.77.918-.504 1.652-1.184 2.188-2.03s.8-1.7.8-2.578h1.027c0 1.11-.328 2.152-.984 3.14s-1.574 1.785-2.758 2.38-2.54.89-4.082.89c-3.527 0-6.262-.977-8.21-2.922zm8.363-8.25c.47-.02.965-.098 1.488-.207.023-.145.098-.437.207-.9.145-.69.21-1.418.21-2.195 0-2.28-.31-3.96-.9-5.023s-1.336-1.594-2.19-1.594c-2.055 0-3.098 3.38-3.098 10.13 1.766.012 3.2-.055 4.293-.2zm0 0" fill="url(#A)"/></svg>