<?xml version="1.0" encoding="utf-8"?>
<!-- Generator: Adobe Illustrator 25.1.0, SVG Export Plug-In . SVG Version: 6.00 Build 0)  -->
<svg version="1.1" id="Capa_1" xmlns="http://www.w3.org/2000/svg" xmlns:xlink="http://www.w3.org/1999/xlink" x="0px" y="0px"
	 width="93px" height="46px" viewBox="0 0 93 46" style="enable-background:new 0 0 93 46;" xml:space="preserve">
<style type="text/css">
	.st0{clip-path:url(#SVGID_2_);fill:url(#SVGID_3_);}
	.st1{fill:#FFFFFF;}
	.st2{fill:#214CC8;}
</style>
<g id="Capa_2_1_">
	<g id="Capa_1-2">
		<g>
			<g>
				<defs>
					<path id="SVGID_1_" d="M32.7,0.8h26.6c8.8,0,15.9,7.1,15.9,15.9v0.7c0,8.8-7.1,15.9-15.9,15.9H32.7c-8.8,0-15.9-7.1-15.9-15.9
						v-0.7C16.7,8,23.9,0.8,32.7,0.8z"/>
				</defs>
				<clipPath id="SVGID_2_">
					<use xlink:href="#SVGID_1_"  style="overflow:visible;"/>
				</clipPath>
				<linearGradient id="SVGID_3_" gradientUnits="userSpaceOnUse" x1="15.77" y1="17.4" x2="75.77" y2="17.4">
					<stop  offset="3.196674e-08" style="stop-color:#3875F8"/>
					<stop  offset="1" style="stop-color:#272476"/>
				</linearGradient>
				<rect x="15.8" y="0.4" class="st0" width="60" height="34"/>
			</g>
		</g>
		<g>
			<path class="st1" d="M31.2,24l0.6-0.2c0.7-0.2,1-0.3,1-1.7v-9.9c0-1.5-0.2-1.6-1-1.7l-0.6-0.2V9.6h8.1v0.7l-0.7,0.2
				c-0.8,0.2-1,0.3-1,1.7v9.6c0,1.6,0.1,1.9,1.7,1.9c1.6,0,2-0.3,2.7-1.4c0.6-1,1.2-2.1,1.6-3.3h0.8L44,24.7H31.2V24z"/>
		</g>
		<g>
			<path class="st1" d="M44.8,24l0.6-0.2c0.7-0.2,1-0.3,1-1.7v-9.9c0-1.5-0.2-1.6-1-1.7l-0.6-0.2V9.6h7.7c4.8,0,6.7,1.4,6.7,4.1
				c0,2-0.8,3-2.7,3.6v0.1c0.9,2.1,2,4.1,3.3,6c0.2,0.3,0.4,0.3,0.8,0.5l0.3,0.1v0.7h-5.7c-1-1.4-2.4-4.5-3.1-6.4
				c-0.3,0-0.7,0-0.9,0v3.8c0,1.5,0.2,1.6,0.9,1.7l0.6,0.2v0.7h-7.9L44.8,24z M54.3,14c0-2.4-0.4-3.4-1.9-3.4c-0.4,0-0.8,0-1.2,0.2
				v6.5c0.3,0,0.6,0.1,0.9,0.1C53.6,17.4,54.3,16.6,54.3,14"/>
		</g>
		<g>
			<path class="st2" d="M75.6,7.4c0,3.8-3.1,7-7,7c-3.8,0-7-3.1-7-7s3.1-7,7-7l0,0C72.5,0.5,75.6,3.6,75.6,7.4"/>
		</g>
		<g>
			<path class="st1" d="M68.6,14.9c-4.1,0-7.4-3.3-7.4-7.4s3.3-7.4,7.4-7.5c4.1,0,7.4,3.3,7.5,7.4l0,0c0,2-0.8,3.9-2.2,5.3
				C72.5,14.1,70.6,14.9,68.6,14.9L68.6,14.9z M68.6,0.9c-3.6,0-6.5,2.9-6.5,6.5s2.9,6.5,6.5,6.5l0,0c1.7,0,3.4-0.7,4.6-1.9
				s1.9-2.9,1.9-4.6l0,0C75.1,3.9,72.2,0.9,68.6,0.9z"/>
		</g>
		<g>
			<polygon class="st1" points="67.9,4.1 69.4,4.1 69.4,6.7 72,6.7 72,8.2 69.4,8.2 69.4,10.8 67.9,10.8 67.9,8.2 65.2,8.2 
				65.2,6.7 67.9,6.7 			"/>
		</g>
		<g>
			<path d="M16.7,38.5h5.6v1.4h-4v1.5h3.5v1.5h-3.5v1.6h4v1.4h-5.6V38.5z"/>
		</g>
		<g>
			<path d="M23.3,42.2L23.3,42.2c0-2.1,1.6-3.8,3.7-3.8c0.1,0,0.1,0,0.2,0c1.1-0.1,2.2,0.4,2.9,1.1l-1,1.2c-0.5-0.5-1.2-0.8-1.9-0.8
				c-1.2,0-2.1,1-2.1,2.3l0,0c0,1.3,0.9,2.3,2.1,2.3c0.8,0,1.4-0.3,1.9-0.9l1,1c-0.8,0.9-1.9,1.4-3,1.3C25,45.9,23.3,44.3,23.3,42.2
				C23.3,42.3,23.3,42.2,23.3,42.2z"/>
		</g>
		<g>
			<path d="M30.8,42.2L30.8,42.2c0-2.1,1.7-3.8,3.8-3.8h0.1c2.1-0.1,3.8,1.5,3.9,3.6c0,0.1,0,0.1,0,0.2l0,0c0,2.1-1.7,3.8-3.8,3.8
				h-0.1c-2.1,0.1-3.8-1.5-3.9-3.6C30.8,42.3,30.8,42.3,30.8,42.2z M37,42.2L37,42.2c0-1.3-0.9-2.3-2.2-2.3c0,0,0,0-0.1,0
				c-1.2,0-2.2,1-2.2,2.2v0.1l0,0c0,1.2,0.9,2.3,2.2,2.3c0,0,0,0,0.1,0C36,44.5,37,43.5,37,42.2L37,42.2z"/>
		</g>
		<g>
			<path d="M39.9,38.5h1.5l3.5,4.5v-4.5h1.6v7.4h-1.4l-3.6-4.7v4.7h-1.6V38.5z"/>
		</g>
		<g>
			<path d="M47.7,42.2L47.7,42.2c0.1-2.2,1.9-3.9,4-3.8c2.1,0.1,3.8,1.7,3.8,3.8l0,0c-0.1,2.2-1.9,3.9-4,3.8
				C49.5,46,47.8,44.3,47.7,42.2z M53.9,42.2L53.9,42.2c0-1.3-0.9-2.3-2.2-2.3c0,0,0,0-0.1,0c-1.2,0-2.2,1-2.2,2.2v0.1l0,0
				c0,1.2,0.9,2.3,2.2,2.3c0,0,0,0,0.1,0C52.9,44.5,53.9,43.5,53.9,42.2L53.9,42.2z"/>
		</g>
		<g>
			<path d="M56.8,38.5h1.8l1.9,3.1l1.9-3.1h1.8v7.4h-1.6v-4.8l-2.1,3.2l0,0l-2.1-3.1V46h-1.6L56.8,38.5z"/>
		</g>
		<g>
			<path d="M65.8,38.5h1.6v7.4h-1.6V38.5z M67.2,36.3l1.4,0.6L67.2,38H66L67.2,36.3z"/>
		</g>
		<g>
			<path d="M71.6,38.4h1.5l3.2,7.4h-1.7l-0.7-1.7h-3.1l-0.7,1.7h-1.7L71.6,38.4z M73.3,42.8l-1-2.4l-1,2.4H73.3z"/>
		</g>
	</g>
</g>
</svg>
