<?xml version="1.0" encoding="utf-8"?><svg version="1.1" id="Capa_1" xmlns="http://www.w3.org/2000/svg" xmlns:xlink="http://www.w3.org/1999/xlink" x="0px" y="0px" width="240.6px" height="184.9px" viewBox="0 0 240.6 184.9" style="enable-background:new 0 0 240.6 184.9;" xml:space="preserve" ><style type="text/css">.st0{fill:none}.st1{fill:url(#SVGID_1_)}.st2{fill:#FFF}</style><path class="st0" d="M216.1,184.9H24.5C11,184.9,0,173.9,0,160.4V24.5C0,11,11,0,24.5,0h191.6c13.5,0,24.5,11,24.5,24.5v135.9 C240.6,173.9,229.6,184.9,216.1,184.9z"/> <linearGradient id="SVGID_1_" gradientUnits="userSpaceOnUse" x1="108.8144" y1="44.3807" x2="135.8144" y2="157.3807"> <stop offset="0" style="stop-color:#24B7BB"/> <stop offset="1" style="stop-color:#1B6B88"/> </linearGradient> <path class="st1" d="M216.1,184.9H24.5C11,184.9,0,173.9,0,160.4V24.5C0,11,11,0,24.5,0h191.6c13.5,0,24.5,11,24.5,24.5v135.9 C240.6,173.9,229.6,184.9,216.1,184.9z"/> <g> <path class="st2" d="M94.7,61.7c0-12-8.1-24.2-24.6-24.2c-10-0.1-19.9,0-30,0v68.3h17.9V84.4h9.4l11.7,21.4h18.9v-2.5L84.5,81.6 C91.2,77,94.6,69.5,94.7,61.7z M70,69.9H57.6V53H70c5.1,0,7.4,4,7.4,8.3C77.4,65.6,74.9,69.9,70,69.9z"/> </g> <polygon class="st2" points="204.3,37.6 204.3,40.2 174.8,106.6 167.4,106.6 143.4,53.2 130.6,53.2 130.6,105.9 113.3,105.9 113.3,53.2 96.5,53.2 96.5,37.6 156.6,37.6 165.2,57.9 171,75.7 171.3,75.7 176.8,57.9 185.2,37.6 "/> <polygon class="st2" points="67.6,118.2 67.6,147.4 63.4,147.4 63.4,125.8 53.9,139.6 53.2,139.6 43.8,125.8 43.8,147.4 39.6,147.4 39.6,118.2 43.6,118.2 53.6,133.1 63.6,118.2 "/> <path class="st2" d="M100.5,118.2v16.6c0,2.1-0.3,4-0.9,5.6c-0.6,1.6-1.4,3-2.5,4.1c-1.1,1.1-2.4,1.9-3.9,2.5 c-1.5,0.5-3.2,0.8-5,0.8c-1.8,0-3.5-0.3-4.9-0.8c-1.5-0.5-2.8-1.4-3.9-2.5s-1.9-2.4-2.5-4c-0.6-1.6-0.9-3.4-0.9-5.4v-16.9h4.2v16.7 c0,2.9,0.7,5.1,2.1,6.7c1.4,1.5,3.4,2.3,5.9,2.3c2.4,0,4.4-0.7,5.8-2.2c1.4-1.4,2.1-3.6,2.1-6.6v-16.9H100.5z"/> <polygon class="st2" points="133.8,118.2 133.8,147.4 130.5,147.4 130.3,147.2 113.1,125.3 113.1,147.4 109,147.4 109,118.2 112.7,118.2 129.6,139.7 129.6,118.2 "/> <path class="st2" d="M167.3,127c-0.7-1.8-1.8-3.3-3.2-4.6c-1.4-1.3-3-2.3-4.9-3.1c-1.9-0.7-4-1.1-6.2-1.1h-10.3v29.2H153 c2.3,0,4.4-0.4,6.2-1.1c1.9-0.8,3.5-1.8,4.9-3.1c1.4-1.3,2.5-2.9,3.2-4.7c0.7-1.8,1.1-3.7,1.1-5.8C168.4,130.7,168,128.8,167.3,127z M163.3,137c-0.5,1.3-1.3,2.4-2.2,3.3c-1,0.9-2.1,1.7-3.5,2.2c-1.4,0.5-2.9,0.8-4.6,0.8h-6.1v-21.2h6.1c1.7,0,3.3,0.3,4.6,0.8 c1.4,0.6,2.5,1.3,3.5,2.3c0.9,1,1.7,2.1,2.2,3.4c0.5,1.3,0.8,2.7,0.8,4.2C164.1,134.3,163.8,135.7,163.3,137z"/> <path class="st2" d="M203.5,127c-0.7-1.8-1.7-3.4-3-4.8c-1.3-1.4-2.9-2.5-4.7-3.3c-1.8-0.8-3.8-1.2-6-1.2s-4.3,0.4-6.1,1.2 c-1.8,0.8-3.4,1.9-4.7,3.3c-1.3,1.4-2.3,3-3,4.8c-0.7,1.8-1.1,3.7-1.1,5.8c0,2,0.3,4,1,5.8c0.7,1.8,1.7,3.4,3,4.8s2.9,2.5,4.7,3.3 c1.8,0.8,3.8,1.2,6,1.2s4.3-0.4,6.1-1.2c1.8-0.8,3.4-1.9,4.7-3.3c1.3-1.4,2.3-3,3-4.8c0.7-1.8,1.1-3.7,1.1-5.8 C204.6,130.7,204.2,128.8,203.5,127z M189.7,143.9c-1.5,0-3-0.3-4.2-0.9c-1.3-0.6-2.4-1.4-3.3-2.4c-0.9-1-1.7-2.2-2.2-3.5 c-0.5-1.3-0.8-2.8-0.8-4.3c0-1.5,0.3-3,0.8-4.3c0.5-1.3,1.3-2.5,2.2-3.5c0.9-1,2-1.8,3.3-2.3c1.3-0.6,2.7-0.9,4.2-0.9 c1.5,0,2.9,0.3,4.2,0.9c1.3,0.6,2.4,1.4,3.3,2.4c0.9,1,1.7,2.2,2.2,3.5c0.5,1.3,0.8,2.8,0.8,4.3c0,1.5-0.3,3-0.8,4.3 c-0.5,1.3-1.3,2.5-2.2,3.5c-0.9,1-2,1.8-3.3,2.3C192.7,143.6,191.3,143.9,189.7,143.9z"/> </svg>