<?xml version="1.0" encoding="utf-8"?><svg version="1.1" id="Capa_1" xmlns="http://www.w3.org/2000/svg" xmlns:xlink="http://www.w3.org/1999/xlink" x="0px" y="0px" width="93.3px" height="46.7px" viewBox="0 0 93.3 46.7" style="enable-background:new 0 0 93.3 46.7;" xml:space="preserve"><style type="text/css">.st0{fill:#F40000}.st1{fill:#1E120D}.st2{fill:#FFF}</style><path class="st0" d="M89.6,37.4c1.1,0.1,2.3,0.3,3.4,0.5l0.3,0l-0.1-20.1l0.1-9.7l-0.3,0c-1.1,0.1-2.3,0.1-3.4,0.2 c-0.5,0-1.1,0-1.6,0c0,0,0-0.1,0-0.1c1-0.1,2.2,0,3.2-0.1l-5.5-0.1c0,0,0,0-0.1,0.1c-0.7,0-1.5,0-2.3,0c0,0,0-0.1,0-0.1L59.6,7.6 c0.6,0.1,1.2,0.1,1.8,0.2C63,7.9,64.6,7.9,66.2,8c0.7,0,1.3,0.1,2,0.1c2.9,0.1,5.8,0.2,8.7,0.3c0.5,0,0.9,0,1.4,0 c0.8,0,1.6,0,2.7,0.1c-0.3,0.2-0.5,0.3-0.7,0.3c-0.6,0-1.3-0.1-1.9-0.1c0,0,0,0-0.1-0.1c-0.2,0-0.3-0.1-0.5-0.1 c-0.7-0.2-1.1,0-1.3,0.1c-0.5-0.1-1.1-0.2-1.2-0.2c-0.4,0.2-0.9,0.1-1.3,0.1c-0.4,0-0.8-0.1-1.2-0.2c-2.5-0.1-4.9-0.2-7.4-0.2 c-0.3,0-0.6,0-1,0c-0.9,0-1.8-0.2-2.6-0.1c-1,0.1-1.9,0.1-2.8-0.1c-0.4,0-0.9,0.1-1.2,0c-0.3,0-0.6-0.2-0.9-0.2c0,0-0.1,0-0.1,0.1 c-0.1-0.1-0.1-0.1-0.2-0.2l-0.1,0c-0.1,0.1-0.2,0.1-0.3,0.2c-0.1-0.1-0.2-0.1-0.2-0.2L0.1,7.6l0,2.9l-0.1,0l0,7.3l0,3.5l0,0 l0.1,17.6l55.7,0.2c0.1-0.1,0.1-0.3,0.2-0.4c0.1,0.1,0.2,0.3,0.3,0.4l0.1,0c0.1-0.2,0.1-0.4,0.2-0.6c0,0,0.1,0.1,0.1,0.1 c0.3-0.2,0.6-0.5,0.9-0.6c0.4-0.1,0.8,0,1.2,0.1c0.9-0.5,1.8-0.5,2.8-0.3c0.8,0.1,1.7-0.2,2.6-0.3c0.3,0,0.6,0,1,0 c2.5-0.2,4.9-0.3,7.4-0.6c0.4,0,0.8-0.3,1.2-0.4c0.4-0.1,0.9-0.4,1.3,0.1c0.1,0.1,0.6-0.2,1.2-0.4c0.2,0.2,0.7,0.7,1.3,0.2 c0.2-0.1,0.3-0.2,0.5-0.3c0,0,0-0.1,0.1-0.1c0.6-0.1,1.3-0.2,1.9-0.2c0.2,0,0.4,0.5,0.7,0.8C79.8,36.9,79,37,78.2,37 c-0.5,0-0.9,0-1.4,0c-2.9,0.2-5.8,0.4-8.7,0.7c-0.7,0.1-1.3,0.2-2,0.3c-1.6,0.2-3.2,0.3-4.8,0.6c-0.6,0.1-1.2,0.3-1.8,0.4l23.7-0.8 c0-0.1,0-0.2,0-0.3c0.8,0,1.5,0,2.3,0.1c0,0,0,0.1,0.1,0.1l5.5-0.2c-1.1-0.3-2.2-0.2-3.2-0.3c0-0.1,0-0.2,0-0.3 C88.6,37.3,89.1,37.3,89.6,37.4z"/> <g> <path class="st1" d="M31.7,13.2l0.1,0.2l0,0.7H32l0-0.7l0.1-0.1c0.1,0,0.1,0.1,0.1,0.2l0.1,0.1h0.1c0-0.1,0-0.2,0.1-0.2h0.1 l0.1,0.1l0.2-0.1c0.8,0,1.6,0.7,2.6,2c0.4,0.8,0.6,2.3,0.6,4.4l0,0.9l-0.1,0.9h-0.4l-0.3-0.2c0,0.1,0,0.2-0.1,0.2l-0.1-0.1l0-0.7 h0.1c0,0.2,0.1,0.3,0.3,0.4l0.1-0.4l-0.1-0.9h-0.1c0,0.6-0.1,0.9-0.2,0.9l-0.1-0.1H35l0,0.8l0.1,0.1l0,0.1L35,21.5h-0.3L34.6,21 c-0.1,0-0.2,0.2-0.2,0.5h-0.1l-0.1-0.1h-0.1L34,21.6l-0.3-0.1l-0.3,0.1l-0.1-0.1L33,21.6l-0.4-0.2l-0.1,0.1h-0.1l-0.1-0.2l0-0.9 c0-2.7-0.1-4-0.3-4l-0.5-0.1c-0.4,0-0.6,0.5-0.6,1.4l-0.1,1.1l0.1,0.1l0,0.1c-0.1,1-0.1,1.4-0.2,1.4l0.1,0.2l0.1,4.4l0,1.2l0.1,0.8 l-0.1,0.1l0,0.1c0,1.3,0.2,1.9,0.6,1.9l0,0.2h0.1c0-0.2,0.1-0.3,0.4-0.3l0.2-2.5l0.1-0.1l-0.1-1.6l0.2-0.2l0-0.1l0.4,0.1H33 l0.1-0.1l0.2,0.1l0.4-0.1h0.2c0.2,0,0.4,0.1,0.4,0.1l0.1-0.1h0.2l0.1,0.1l0.3-0.1c0.1,0.1,0.1,0.3,0.1,0.5h0.2l-0.1-0.4l0.2-0.1 l0.1,0.2l0,0.5h0.1l0.1-0.7l0.3,0.1l-0.1,0.5l0,0.3l0.1,0.1l-0.1,0.4l0.1,0.4l-0.1,0.3l0.1,0.6c0,0.9-0.2,1.5-0.4,2l0.1,0.1l0,0.1 c-0.2,0.6-0.5,1-0.7,1.2H35l0-0.2h-0.2l0,0.6C34,31.8,33,32.2,32,32.2l-0.2-0.2l0-1l-0.1-0.1l-0.1,0.1l0,1.2h-0.1 c-0.1,0-0.2-0.1-0.2-0.4h-0.1L31,32.2c-0.1,0-0.2-0.1-0.2-0.2L30.7,32h-0.1c-1.5,0-2.6-0.9-3.3-2.6c-0.2-1-0.4-2.4-0.3-4.2l0-2.6 l0.1-0.7L27,21.6l0.1-0.6L27,20.9l0-0.1l0.1-0.3H27l0.1-0.1l0-1.2L27,19.3l0.1-0.1l0-0.1L27,18.8c0.1-1.6,0.2-2.4,0.4-2.4l-0.1-0.1 l0-0.1c0.1-0.4,0.2-0.7,0.3-0.7h0.1l0,0.2h0.1l0-0.5c0-0.2,0.1-0.4,0.4-0.6c0-0.1,0.1-0.3,0.4-0.4c0-0.2,0.2-0.3,0.6-0.5h0.2 l0.1,0.3h0.1c0-0.4,0.2-0.6,0.5-0.6c0-0.1,0.2-0.1,0.5-0.1l0-0.1l0.1,0.1h0.1L31.7,13.2z M27.2,25.1l0,0.1h0.1l0-0.1H27.2z M27.3,26.8l0,0.2h0.1L27.3,26.8L27.3,26.8z M27.4,17.9l0,0.2h0.1l0-0.1L27.4,17.9z M27.4,18.8l0,0.9c0.1,0,0.1-0.1,0.1-0.2 L27.4,18.8L27.4,18.8z M27.5,20.7l0,1l0.1,0.1l0-1.3L27.5,20.7z M27.5,19.8l0,0.3h0.1L27.5,19.8L27.5,19.8z M27.7,24.9l0,0.1 l0.1,0.1l0-0.1L27.7,24.9z M27.7,16.5L27.7,16.5l0.1,0.1l0-0.2L27.7,16.5z M27.8,27.9l0,0.1h0.1L27.8,27.9L27.8,27.9z M27.8,26.6 L27.8,26.6l0.1,0.2l0.1-0.1l0-0.1l-0.1-0.1H27.8z M27.8,18.1l0,0.1h0.1L27.8,18.1L27.8,18.1z M27.9,18.8l0,0.2l0.1,0.1l0.1-0.1 l0-0.1L27.9,18.8L27.9,18.8z M27.9,20.4l0,0.7l0.1,0.1l0-0.7L27.9,20.4z M28,19.3l0,0.5H28l0.1-0.4L28,19.3L28,19.3z M28,21.3 l0,1.1h0.1l0-0.1h-0.1l0.1-0.5l0-0.3L28,21.3z M28.2,24.3l0,0.4h0.1l0-0.1L28.2,24.3L28.2,24.3z M28.2,15.4L28.2,15.4l0.1,0.2 l0-0.4L28.2,15.4z M28.3,18.2l0,0.1h-0.1l0.1,0.4l0,1.2h0.1l0-1.3L28.3,18.2L28.3,18.2z M28.3,17l0,0.3l0.1-0.1L28.3,17z M28.3,16.5l0,0.3l0.1-0.1L28.3,16.5z M28.3,15.7l0,0.2h0.1L28.3,15.7L28.3,15.7z M28.3,26.8l0,0.3l0.1-0.1l0-0.1H28.3z M28.5,20.9 l0,0.9l0.1,0.1l0-0.1h0.1C28.6,21.2,28.6,20.9,28.5,20.9z M28.5,14.7l0,0.1l0.2,0.2l0-0.2L28.5,14.7L28.5,14.7z M28.6,24.6l0,0.3 h0.1l0-0.4L28.6,24.6z M28.6,24l0,0.2l0.1,0.1l0-0.2L28.6,24z M28.7,16.6L28.7,16.6l0.1,0.1l0-0.2L28.7,16.6z M28.7,27.7l0,0.2h0.1 L28.7,27.7L28.7,27.7z M28.9,20.9L28.9,20.9l0.1,0.5l-0.1,0.2c0,0.6,0.1,0.9,0.2,0.9l0-0.1L29,20.9H28.9z M28.9,20.3l0,0.4H29 c0.1,0,0.1-0.1,0.1-0.2L29,20.3H28.9z M28.9,19.7l0,0.1H29l0-0.1H28.9z M29.1,14.6l0,0.2h0.1L29.1,14.6L29.1,14.6z M29.2,26.6 l0,0.7h0.1l0-0.5L29.2,26.6z M29.3,19.8L29.3,19.8c0,0.5,0,0.7,0.1,0.7l0-0.5L29.3,19.8z M29.4,20.6L29.3,21l0.1,0.1l0.1-0.1l0-0.3 L29.4,20.6z M29.4,21.5l0,0.9l0.1,0.1l0.1-1l-0.1-0.1H29.4z M29.5,24L29.5,24l0.1,0.1l0-0.2L29.5,24z M29.5,22.8l0,0.4l0.1,0.5h0.1 l0-0.7L29.5,22.8z M29.6,14.3l0,0.3l0.1,0.1l0-0.4H29.6z M29.7,31l0,0.2h0.1L29.7,31L29.7,31z M29.9,21.4l0,0.4l0.1,0.4H30l0-0.3 L29.9,21.4L29.9,21.4z M30.2,17.8l0,0.1h0.1l0-0.1H30.2z M30.3,19.6l0,1.2l0.1,0.1l0.1-0.2C30.5,19.9,30.4,19.6,30.3,19.6z M30.3,21.3L30.3,21.3l0.1,1.7l0.1,0.1h0.1l0-0.4l-0.1-0.4l0.1-0.7l-0.1-0.4H30.3z M30.5,23.2l0,0.2h0.1L30.5,23.2L30.5,23.2z M30.7,31.3l0,0.4l0.1-0.1l0-0.1L30.7,31.3z M31.5,29.6l0,0.2h0.1l0-0.2H31.5z M32,14.3l0,0.7h0.1l0-0.7H32z M32,30.6l0,0.6 l0.1-0.1l0-0.3L32,30.6z M32.6,30.3l0,0.4l0.2-0.1l0-0.3L32.6,30.3z M32.6,20.7l0,0.1h0.1L32.6,20.7L32.6,20.7z M33,30.6l0.1,0.5 h0.1l0-0.6L33,30.6L33,30.6z M33,29.5l0,0.7l0.1,0.1l0-1L33,29.5z M33.4,25.8l0,0.6h0.1l0-0.6H33.4z M33.4,29.1L33.4,29.1l0.1,0.1 l0-0.1H33.4z M33.5,17.7l0,0.1h0.1L33.5,17.7L33.5,17.7z M34.3,26.9l0,0.3h0.2l0-0.1L34.3,26.9L34.3,26.9z M34.3,25.9l0,0.3h0.1 l0-0.1L34.3,25.9z M34.4,30.1l0,0.1l0.1,0.1l0.1-0.1l0-0.1L34.4,30.1L34.4,30.1z M35.2,27.5l0,0.1h0.1L35.2,27.5L35.2,27.5z M35.7,25.9l0,0.1h0.1L35.7,25.9L35.7,25.9z M35.9,19.4l-0.1,0.8l0.1,0.7l0.1-0.1h0.1L36,20.7l0-0.1l0.1-0.2L35.9,19.4L35.9,19.4z" /> <path class="st1" d="M41.6,14.3c0,0.1,0.1,0.2,0.3,0.3c0-0.2,0-0.3,0.1-0.3h0.1l0.1,0.1l0.1-0.1h0.1c1.2,0,2.2,0.5,3,1.5 c0.7,0.7,1.1,1.8,1.1,3.3l0.1,0.2l-0.1,0.3l0.1,1.4l0,0.8l0.1,2.9l-0.1,0.5h0.1l-0.1,0.1l0,0.3l0.1,0.1l-0.1,0.1l0,0.4 c0,2.8-0.2,4.2-0.4,4.2c0,0.5-0.3,1.1-0.9,1.7H45c-0.1,0-0.2-0.1-0.2-0.4l0.1-0.2l-0.1-0.5h-0.1l0,0.1h-0.1l0.1,0.7l0,0.6l-0.5,0.4 L44,32.8h-0.1l0-0.2h-0.1l-0.1,0.4h-0.1l-0.1-0.5h-0.1l0,0.2L43.2,33H43l0-0.1L43,32.3l0.1-0.1L43,32.2h-0.1c0,0.5-0.1,0.8-0.2,1 l-0.3-0.1l-0.1,0.1h-0.1l-0.3-0.1l-0.1,0.1c-1.2-0.1-2-0.4-2.5-0.7c-1.2-1.1-1.8-2.3-1.8-3.6l0.1-0.4L37.5,28l0.1-0.6 c0-0.2,0-0.4-0.1-0.4l0.1-0.1l0-0.1l-0.1-2.6l0.1-0.6l-0.1-0.8l0-3.3c0.1,0,0.2-0.1,0.3-0.2l0.1-0.1c0-0.1-0.1-0.2-0.2-0.2l0-0.1 l0.1-0.1l-0.1-0.5l0-0.3c0-1.3,0.7-2.4,2.2-3.3C40.5,14.4,41.1,14.3,41.6,14.3z M37.8,22.3L37.8,22.3l-0.1,0.1l0.1,0.1l0.1-0.1 l0-0.1L37.8,22.3z M37.8,22.8l0,0.1h0.1L37.8,22.8L37.8,22.8z M37.9,27l0,0.1H38L37.9,27L37.9,27z M38,29l0,0.4l0.1,0.1l0-0.4 L38,29z M38,28.5l0,0.4l0.1-0.1l0-0.1L38,28.5z M38.1,19.4L38.1,19.4l0.1,0.1l0-0.2L38.1,19.4z M38.3,25l0,0.1h0.1L38.3,25L38.3,25 z M38.3,26.3l0,0.1h0.1l0-0.1H38.3z M38.5,19.1l0,0.2l0.1,0.4h0.1l0-0.6H38.5z M38.6,20.2L38.6,20.2l0.1,0.4l-0.1,0.2l0.1,0.1h0.1 l0-0.5L38.6,20.2z M38.9,29.1l0.1,0.1l0-0.3L38.9,29.1z M38.9,28.6l0,0.1h0.1l0-0.1H38.9z M39,19.8l-0.1,0.4l0.1,0.1h0.1l0-0.4H39z M39,18.6l0,0.4h0.1l0-0.4H39z M39.1,24.4l0,0.2h0.1l0.1-0.1l0-0.1L39.1,24.4z M39.1,21.3L39.1,21.3l0.1,0.1l0-0.1H39.1z M39.5,19.1l0,0.6h0.1l0.1-0.1l0-0.3L39.5,19.1L39.5,19.1z M39.8,17.5c0,0.3,0.1,0.4,0.2,0.4l0-0.3L39.8,17.5L39.8,17.5z M40.2,23.5l0,1.4h0.1l0.1-0.1h0.1l-0.1-0.9l0-0.4H40.2z M40.4,19.4l0,0.1l0.1,0.1l0-0.3H40.4z M40.4,18l0,0.2h0.1l0-0.1L40.4,18z M40.4,16.5l0,0.2l0.1-0.1L40.4,16.5L40.4,16.5z M40.6,23.4l0,0.3h0.1l0-0.1L40.6,23.4z M40.9,20l0,0.5H41l0-0.5H40.9z M41.1,22.9 l0,0.1h0.1L41.1,22.9L41.1,22.9z M41.4,18.2l0,3.3l0.1,0.1l-0.1,0.1l0,1l-0.1,0.2l0,0.1h0.1l0.1,2l-0.1,0.4l0.1,0.7l0,0.1l-0.1,0.4 l0.1,0.4l-0.1,0.4l0.1,0.8l0,0.4l-0.1,0.3c0.1,0.9,0.3,1.3,0.6,1.3c0.4,0,0.6-0.3,0.7-0.9l0.1,0.1h0.1l0-0.3h-0.1l-0.1,0.1h-0.1 l-0.1-0.1l0-0.1l0.1-1.4l-0.1-0.1l0-0.1l0.1-0.1l0-0.1l-0.1-0.2l0.1-0.7l-0.1-0.2l0.1-0.4l-0.1-3.9l0-3.8l0.1,0.1h0.1l0.1-0.2 l-0.1-0.4h-0.1l0,0.3h-0.1c-0.1,0-0.2-0.1-0.2-0.4h-0.2l-0.1,0.1l-0.2-0.1C41.6,17.6,41.4,17.9,41.4,18.2z M41.4,30.6l0,0.3 l0.1,0.1l0-0.4H41.4z M41.8,16.3l0.1,0.1l0-0.3L41.8,16.3z M42.4,31.9l-0.1,0.7l0.1,0.3h0.1l0.1-0.4l-0.1-0.4l0.1-0.2L42.4,31.9 L42.4,31.9z M42.3,31.5L42.3,31.5l0.1,0.2l0-0.4L42.3,31.5z M42.3,30.6l0,0.1l0.1,0.1l0-0.1L42.3,30.6z M42.7,30.4L42.7,30.4 l0.1,0.2l0.1-0.1l0-0.1L42.7,30.4z M42.7,29.9l0,0.2h0.1L42.7,29.9L42.7,29.9z M42.8,31.5l0,0.4H43l0-0.4H42.8z M42.9,21.5l0,0.1 h0.1l0-0.1H42.9z M43.1,26.8l0,0.3h0.1L43.1,26.8L43.1,26.8z M43.2,17.3l0,0.1h0.1L43.2,17.3L43.2,17.3z M43.4,22.5l0,0.1h0.1 l0-0.1H43.4z M43.6,26.3l0,0.2l0.1-0.1L43.6,26.3L43.6,26.3z M43.8,31.3l0,0.1h0.1l0-0.1H43.8z M43.9,23.6l0,0.4H44l0-0.1 L43.9,23.6L43.9,23.6z M43.9,23.1l0,0.3l0.1-0.1L43.9,23.1z M44,26.5l0,0.2l0.1,0.1l0-0.4H44z M44.1,30.7l0,0.1h0.1L44.1,30.7 L44.1,30.7z M45.4,26.6L45.4,26.6l0.1,0.2l0-0.2H45.4z"/> <path class="st1" d="M56.8,15.1c-0.1,0-0.1,0.1-0.1,0.4l0,0.1l0.1,0.1L56.7,16l0.1,0.4l0,0.9l-0.1,0.4l0.1,0.2l0,0.5l-0.1,0.1 l0.1,0.1l0,0.5l-0.1,0.1l0.1,0.1l0,4.3l-0.1,1.1h0.1l0,0.1l-0.1,0.1L57,26L56.7,26l0,0.1c0.2,0,0.3,0,0.3,0.1l0,0.2l-0.1,0.1H57 l-0.1,0.8l0.1,0.1l0,0.2l-0.1,0.1l0.1,0.1l0,0.4l-0.1,0.4l0.1,0.4l0,2.6l-0.1,0.7l0.1,0.2l-0.2,0.2H56l-0.4-0.1l-0.4,0.1l-0.9-0.1 l-0.4,0.1l-0.2-0.1l0.1-0.4l-0.1-0.7l0-3.4l0.1-0.9l-0.1-0.1l0.1-0.1l0-0.3l-0.1-0.1h0.1L53.6,26l0.1-1.1h-0.1l0,0.1L53.5,25 c-0.5,1.9-0.7,2.9-0.8,2.9c-0.1,1.2-0.3,1.8-0.6,1.8l0.1,0.5l-0.3,1.2c-0.1,0-0.1-0.1-0.1-0.3h-0.1l0,0.5h0.2l0,0.1L51.6,32 l0.1,0.3c0,0.3-0.1,0.4-0.4,0.4h-0.1l-0.6-0.1L50,32.7l-0.8-0.1L49,32.7h-0.1l-0.1-0.1l-0.1,0.1l-0.4-0.1l-0.1,0.1l-0.1-0.1l0-0.1 l0.1-2.2l0-0.1L48.1,30l0.1-0.1l0-0.2l-0.1-0.3l0.1-0.3l0-3.6l0.1-0.7l-0.1-0.7l0-2.3l-0.1-0.1l0.1-0.2c-0.1,0-0.1-0.2-0.1-0.5 c0-0.1,0.1-0.2,0.2-0.2l0-0.1l-0.2-0.6l0.1-0.1l-0.1-0.4c0-0.1,0.1-0.2,0.3-0.2l0-0.3l-0.1,0.1L48.2,19l0-0.6l0.1-0.1l-0.1-0.1 l0-0.5c0-0.1,0.1-0.1,0.3-0.1l0-0.6h-0.1c0,0.1,0,0.2-0.1,0.2l0-1.8l-0.1-0.1l0.1-0.1l0-0.1l-0.1-0.4l0.1-0.3l0.2,0.1l0.2-0.1 l0.3,0.1l0.4-0.1l0.7,0.1h0.1l0.1-0.1h0.1l0.1,0.1l0.3-0.1h0.1l0.1,0.1l0.1-0.1h0.2l0.2,0.7l0,0.6l-0.1,0.1c0,0.4,0.1,0.7,0.2,0.7 l-0.1,0.3l0.1,1.4l0,1.1l-0.1,0.1l0.1,0.1l0,1.8l-0.1,0.9l0.1,0.2l-0.1,0.3l0.2,0.1l1.6-6.1c0.1-0.9,0.3-1.3,0.5-1.3l0-0.4l0.1-0.3 l0-0.1l0.4,0.1l0.2-0.1h0.1l0.1,0.1l0.3-0.1h0.1c0,0.2,0,0.3,0.1,0.3c0-0.2,0-0.3,0.1-0.3h0.7l0.1,0.1l0.1-0.1h0.7 C56.7,14.5,56.8,14.7,56.8,15.1z M56.6,19.1L56.6,19.1l-0.1,0.1l0.1,0.1h0.1l0.1-0.1l0-0.1L56.6,19.1L56.6,19.1z M56.5,17.6l0,0.1 l0.1,0.1l0.1-0.1l0-0.1H56.5z M56.5,30.1l0,0.2h0.1l0-0.2H56.5z M56.6,18l0,0.1h0.1L56.6,18L56.6,18z M56.4,21.3l0.1,0.2l-0.1,0.3 h0.1l0-0.5H56.4z M56.2,25.1h0.1l0-0.1L56.2,25.1z M56.3,24.5L56.3,24.5l0.1,0.2L56.3,24.5L56.3,24.5z M56.2,17.8l0,0.1h0.1 L56.2,17.8L56.2,17.8z M56.2,15.7l0,0.3h0.1L56.2,15.7L56.2,15.7z M55.9,22.4L55.9,22.4l0.1,0.1l0.1-0.1l0-0.1l-0.1-0.1L55.9,22.4z M56.1,19.4l0,0.1h0.1L56.1,19.4L56.1,19.4z M55.7,25.9l0,0.3l0.1,0.1l0.1-0.1l0-0.2H55.7z M55.7,15.5l0.1,0.3h0.1l0.1-0.5l0-0.4 C55.8,15,55.7,15.2,55.7,15.5z M55.6,19.6l0,0.4h0.1l0.1-0.1l-0.1-0.4H55.6z M55.7,16.7l0,0.4l0.1-0.1l0-0.3H55.7z M55.7,31.7 l0,0.1h0.1L55.7,31.7L55.7,31.7z M55.6,21.6l0,0.1h0.1L55.6,21.6L55.6,21.6z M55.4,24.5l0,0.3l0.1,0.1l0-0.4H55.4z M55.4,27.2 l-0.1,0.2l0,0.1h0.2L55.4,27.2L55.4,27.2z M55.4,26.9l0,0.2h0.1l0.1-0.1L55.4,26.9z M55.4,26.3l0,0.3h0.1l0-0.3H55.4z M55.3,15.7 l0,0.6h0.1l0.1-0.2l-0.1-0.4H55.3z M55.4,28.1l0,0.1h0.1L55.4,28.1L55.4,28.1z M55.3,19.4L55.3,19.4l-0.1,0.1l0.1,0.1l0.1-0.1 l0-0.1H55.3z M55.3,18.3l-0.1,0.2l0,0.1h0.2L55.3,18.3L55.3,18.3z M55.3,16.4l0,1l0.1-0.1l0-0.7L55.3,16.4z M54.6,23.7l0,0.2 l-0.1,0.8l0.1,0.2L54.5,25h0.1c0.1-0.1,0.3-0.2,0.6-0.2l0-0.1c-0.3,0-0.4-0.1-0.4-0.2l0-0.7H54.6z M55.1,24.2l0,0.1h0.1L55.1,24.2 L55.1,24.2z M54.9,25.9l0,0.2H55l0-0.2H54.9z M54.8,18.5L54.8,18.5l0.1,0.1l0.1-0.1l0-0.1l-0.1-0.1L54.8,18.5z M54.8,16.6l0,0.6 l0.1-0.1l0-0.4H54.8z M54.8,15.6l0,0.3h0.1L54.8,15.6L54.8,15.6z M54.7,31.6l0,0.1h0.1l0-0.1H54.7z M54.5,25.7L54.5,25.7l0.1,0.1 l0-0.2L54.5,25.7z M54.4,27.2l0,0.3h0.2l0-0.3H54.4z M54.5,15.5l-0.1,0.1l0,0.1l0.1,0.1l0.1-0.1L54.5,15.5L54.5,15.5z M54.4,15 l0,0.3h0.1l0-0.4L54.4,15z M54.4,31.4l0,0.1h0.1L54.4,31.4L54.4,31.4z M54,15.1l0,0.1l0.1-0.1l0-0.1L54,15.1z M53.8,18.4l0,0.2 l0.1,0.1l0.1-0.1l0-0.1H53.8z M54,17.4l0,0.1H54L54,17.4L54,17.4z M53.8,20.8l0,0.4h0.1l0.1-0.4H53.8z M53.8,19.5l0,0.6H54l0-0.4 L53.8,19.5z M53.8,22.3l0,0.1h0.1l0-0.1H53.8z M53.5,18.4L53.5,18.4l-0.1,0.1l0.1,0.2h0.1l0.1-0.1L53.5,18.4z M53.3,22.6l0,0.1 l0.1,0.1l0.1-0.1l0-0.1H53.3z M52.9,20.3l0,0.1H53L52.9,20.3L52.9,20.3z M52.8,23.5l0,0.1h0.1L52.8,23.5L52.8,23.5z M52.6,27.2 l0,0.1h0.1l0-0.1H52.6z M52.4,23.1l0,0.3l0.1-0.1L52.4,23.1z M52.3,21.1l0,0.3h0.1l0.1-0.1l0-0.1H52.3z M52.3,28.9L52.1,29l0,0.1 l0.1,0.1l0.1-0.1L52.3,28.9L52.3,28.9z M51.9,25.2l-0.1,0.4l0,0.1H52l0.1-0.4l0-0.1H51.9z M52,23.9L52,23.9l0,0.1l-0.1,0.5l0,0.4 H52L52,23.9L52,23.9z M52,23.4l0,0.1H52L52,23.4L52,23.4z M51.8,29.3l-0.1,0.4l0,0.1h0.1L51.8,29.3L51.8,29.3z M51.8,28.5l0,0.3 h0.1L51.8,28.5L51.8,28.5z M51.5,25.5l-0.2,0.1l0.1,0.1l0.1-0.1L51.5,25.5L51.5,25.5z M51.3,24.3l0,0.2h0.2l0-0.3L51.3,24.3z M51.3,31L51.3,31l-0.2,0.1l0,0.1h0.2L51.3,31L51.3,31z M51.2,28.7L51.2,28.7l0.1,0.1l0-0.2L51.2,28.7z M51,31.5L51,31.5l0.2,0.1 l0-0.1L51,31.5z M50.9,24.2l0,0.2h0.1l0-0.2H50.9z M50.8,28.3l0,0.9h0.1l0.1-0.5l0-0.4H50.8z M50.8,27.3l0,0.7H51l0-0.7H50.8z M50.8,26.3l0,0.4h0.1L50.8,26.3L50.8,26.3z M50.8,25.9l0,0.1l0.1,0.1l0-0.3H50.8z M50.7,18.9l-0.2,0.1h-0.1l0-0.1h-0.1 c0,0.2,0,0.4-0.1,0.4l0.1,0.1l-0.1,0.1l0.1,0.2h0.1l-0.1-0.4l0-0.1l0.1-0.1l0.4,0.1l0.1-0.1L50.7,18.9L50.7,18.9z M50.6,20.2 l-0.1,0.4l0.1,0.6h0.1L50.7,21l0.1-0.4l0-0.4H50.6z M50.6,19.8l0,0.2h0.1l0-0.2H50.6z M50.6,19.5L50.6,19.5l0.1,0.1l0-0.1H50.6z M50.5,25.5l0,0.2h0.1L50.5,25.5L50.5,25.5z M50.3,14.7L50.3,14.7l-0.1,0.1l0.1,0.1h0.1l0.1-0.1L50.3,14.7z M50.3,17.1l0,0.1h0.1 l0-0.1H50.3z M50.3,16.4l0,0.1h0.1l0-0.1H50.3z M50.2,20.1l0,0.4h0.1l0-0.4H50.2z M50.1,23.4l0,0.2h0.1l0-0.2H50.1z M49.9,28.3 L49.9,28.3l0,0.1l-0.1,0.5l0,0.8l0.1,0.4h0.1c0-0.8,0-1.2,0.1-1.3L50,28.3H49.9z M50,26.2c0,0.4-0.1,0.7-0.2,0.9h0.1l0.1,0.1 l0.1-0.1L50,26.2L50,26.2z M49.9,27.5l0,0.2H50l0-0.2H49.9z M49.8,30.2l0,0.7h0.1l0-0.7H49.8z M49.7,31.6l-0.1,0.4l0.1,0.3h0.1 l0-0.7H49.7z M49.7,21.8l0,0.2h0.1l0-0.2H49.7z M49.4,28.5l0,0.2h0.1l0-0.4L49.4,28.5z M49.3,19.7l0,0.2h0.1l0.1-0.1L49.3,19.7z M49.3,19.2l0,0.1h0.1l0-0.1H49.3z M49,27l0,0.1h0.1l0-0.1H49z M49,29.1c-0.1,0-0.1,0.1-0.2,0.3l0.1,0.4H49l0.1-0.2L49,29.3 l0.1-0.1L49,29.1L49,29.1z M48.9,30.6l0,0.1H49L48.9,30.6L48.9,30.6z M48.7,18.9l0,0.4h0.1L49,19l0-0.1H48.7z M48.8,18.1l0,0.5H49 l0-0.5H48.8z M48.8,19.8l0,0.1h0.1l0-0.1H48.8z M48.5,28.5l0,0.9c0.1,0,0.2-0.3,0.2-0.8l-0.1-0.2L48.5,28.5z M48.5,29.7l0,0.2h0.1 L48.5,29.7L48.5,29.7z M48.3,18.6l0,0.4l0.1-0.1l0-0.4L48.3,18.6z M48.4,16.7l0,0.1h0.1L48.4,16.7L48.4,16.7z M48.3,17.4L48.3,17.4 l-0.1-0.1h0.1L48.3,17.4z"/> <path class="st1" d="M58.2,16.8h0.2c0,0.2,0.1,0.4,0.4,0.4l0.1,0.4l0,0.1l-0.5,0.1l-0.1-0.2L58.2,16.8z M58.2,16.1h0.1l0,0.1h0.1 l-0.1,0.4h-0.1L58.2,16.1z M58.2,15.8L58.2,15.8l0.2,0.1l0,0.1h-0.2L58.2,15.8z M58.6,14.2l0.1,0.1l0,0.7h0.1l0.2-0.2l0.3,0.1 c0-0.5,0.1-0.7,0.1-0.7c0.1,0,0.2,0.2,0.2,0.7h0.1c0-0.4,0.1-0.7,0.1-0.7H60l0.1,0.4h0.2l0-0.4h0.2l0,0.3c0.1,0.6,0.2,0.9,0.4,0.9 c-0.1,0.3-0.2,0.5-0.4,0.5l-0.1-0.1l0-0.4h-0.1l0,0.6c0,0.2-0.1,0.3-0.2,0.4c-0.2,0-0.3-0.1-0.3-0.3l0.1-0.2l-0.1-0.1h-0.1 l-0.1,0.7l-0.2-0.2l0.1-0.1L59.4,16h-0.1l0,0.1l0.1,0.2l-0.1,0.4l0.1,0.1l0.3-0.1l0,0.1l-0.1,0.4l0.1,0.3h-0.1l-0.1-0.4l0.1-0.3 h-0.2l0,0.7H59l0-1h-0.2l0,0.2h-0.1l-0.1-0.5l0.1-0.2h0.1c0.1,0,0.1,0.1,0.1,0.4H59l0.1-0.5l-0.3-0.2h-0.2c0,0.1,0,0.2-0.1,0.2 h-0.1l0-0.1l0.2-0.3c-0.1,0-0.2-0.2-0.3-0.6l0.1-0.3h-0.1C58.4,14.4,58.5,14.2,58.6,14.2z M59,14.2L59,14.2l0.1,0.3H59L59,14.2z M60.1,17.2l0.1,0.2l0,0.1l-0.1,0.1H60l-0.1-0.3L60.1,17.2z M62.4,14.1L62.4,14.1l0,0.3l0.1,0.8h0.2l0.1-0.4l-0.1-0.7l0.1-0.1H63 l0.3,0.1l0.5-0.1h2.8l0.1,0.4l0,2.9l-0.1,0.4c-0.7,0-1.3,0-1.7-0.1l-0.3,0.1l-0.1-0.1c-0.1,0.2-0.2,0.6-0.2,1.4h0.1 c0,0.1-0.1,0.2-0.2,0.2l0,0.2h0.1l0,0.1l0.1,0.4l-0.3,0.6h-0.1c0-0.4-0.1-0.6-0.2-0.6h-0.1l0,0.1h-0.1l0.1,0.1l0,0.7l-0.1,0.1 c0-0.1,0-0.2-0.1-0.2c-0.1,0-0.2,0.1-0.2,0.4h-0.1l-0.1-0.5l0-0.4h-0.1c-0.1,0-0.2,0.2-0.2,0.5c-0.1,0-0.2,0.1-0.2,0.2h-0.1 l-0.4-0.5l-0.1,0.5h-0.1l-0.1-0.2l0.1-0.1l0-0.2l-0.1-0.2l0-0.6h-0.2l0,0.5h-0.4l0,0.4l0.4,0.1l0,0.1c-0.1,0-0.3,0.1-0.4,0.3l0,1.1 c0,0.3,0.1,0.4,0.2,0.4c0-0.2,0.1-0.4,0.1-0.4l-0.1-0.4l0-0.3h0.1l0.1,0.1l0,0.4h0.1l0.1-0.6h0.1c0.1,0,0.2,0.1,0.3,0.4H62l0.1-0.7 h0.2l-0.1,0.1l0,0.1l0.1,0.1h0.1l-0.1-0.5h0.3l-0.1,0.1l0,0.1c0.1,0,0.2,0.2,0.2,0.7L62.8,22l0,0.1l0.1,1.2l0,0.4h0.1l0.1-0.1 l0-0.1L63,22.7l0.1-0.4h0.1l0.1,0.5l0,0.2h0.1l0-0.4l0.2-0.2l0.1,0.4h0.1l0.1-0.5h0.1c0.1,0.3,0.2,0.5,0.2,0.5l-0.1,0.6l0.1,1.2 l-0.1,0.1l0.1,0.9l0,2.2l-0.1,0.7l0.1,0.7l0,3.1l-0.2,0.2h-3.6l-0.2-0.1l0.1-0.1l-0.1-0.9l0-6.4l0.1-0.8l-0.1-0.4l0.1-0.1l0-0.1 l-0.1-0.2c0.2-0.3,0.3-0.7,0.3-1.3c-0.1-0.2-0.2-0.6-0.3-1l0.1-0.2l0.1-2.9h0.1l0.1,0.2l-0.1,0.1l0,0.1l0.2,0.5l-0.1,0.2H61l0-0.2 l0.1-0.4h0.1l0.1,0.4h0.1l0.1-0.4l0-0.1c0-0.1-0.1-0.1-0.4-0.1l0-0.1H61l0.1-0.2l-0.3-0.5H61l0-0.1l0.1,0.1h0.1l0.3-0.1l0.4,0.2 l0.5-0.4l0.3,0.1l0-0.2l-0.1-0.1l-0.2,0.1l-0.3-0.1L62,16.9h-0.1l-0.2-0.1l-0.1,0.1h-0.1l-0.1-0.3l0.1-0.1h-0.1l0-0.4 c-0.1-0.4-0.2-0.7-0.3-0.7l0.1-0.3c-0.3,0-0.4-0.3-0.4-1h0.1l0.1,0.1l0,0.4h0.1l0.1-0.4h0.1l0.1,0.4h0.2l0-0.3h0.1 c0.1,0,0.1,0.2,0.1,0.7l0.1-0.1l-0.1-0.5c0.1,0,0.1-0.1,0.1-0.3L62.4,14.1L62.4,14.1z M60.6,16.8l0.1,0.1l0,0.1l-0.1,0.1l0.1,0.1 l0,0.2l-0.1,0.4h-0.1l-0.2-0.2l0.1-0.4l-0.1-0.2L60.6,16.8L60.6,16.8z M60.9,19.7l0,0.2h0.2l0-0.1L60.9,19.7L60.9,19.7z M61,22.8 l0,0.2h0.1L61,22.8L61,22.8z M61.1,24.5l0,0.6h0.1l0-0.6H61.1z M61.2,27.2l0,0.1h0.1l0-0.1H61.2z M61.8,18.1l-0.1,0.2l0.1,0.2h0.1 c0-0.2,0-0.3,0.1-0.3l0.2,0.1l0-0.1C62.3,18.2,62.1,18.1,61.8,18.1z M61.8,17.7l0.1,0.2h0.1l0-0.2H61.8z M62,23.9l0,0.3h0.1l0-0.1 L62,23.9z M62.4,22.9l0,0.7h0.1l0-0.4L62.4,22.9L62.4,22.9z M62.5,17.7l0,0.2h0.1l0,0.1l-0.1,0.2c0.1,0.1,0.1,0.3,0.1,0.7h0.1 l0.1-0.5l-0.1-0.7L62.5,17.7z M62.6,21h0.2l0,0.1L62.6,21L62.6,21z M62.9,24.5l0,0.2h0.1l0-0.2H62.9z M63,18.1l0,0.2l0.2,0.2 l0.1-0.1l0-0.2L63,18.1z M63.1,21.6L63.1,21.6l0.2,0.1l-0.1,0.4h-0.1l0.1-0.1L63.1,22L63.1,21.6z M63.2,19.5l0,0.4l0.1-0.1l0-0.1 L63.2,19.5z M63.2,19.2l0,0.3h0.1L63.2,19.2L63.2,19.2z M63.5,27.2l0,0.4l0.2,0.2l0.1-0.2C63.7,27.4,63.6,27.2,63.5,27.2z M63.5,21.7L63.5,21.7l0.1,0.1h-0.1L63.5,21.7z M63.5,18.3h0.2l0-0.1h-0.1L63.5,18.3z M63.8,22.8L63.7,23l0.1,0.1h0.1l0.1-0.1 L63.8,22.8L63.8,22.8z M63.9,23.9L63.9,23.9L63.8,24l0.1,0.1H64l0-0.1L63.9,23.9z M64.1,21.1L64.1,21.1l0.3,0.2l-0.2,0.9H64 c0-0.2,0-0.3-0.1-0.3C63.9,21.3,64,21.1,64.1,21.1z M64,16.9l0,0.2H64L64,16.9L64,16.9z M64.5,17.1l0,0.1h0.1L64.5,17.1L64.5,17.1z "/> <path class="st1" d="M75.9,15.3l0.3-0.2l0.1,0.4l0,2.3l-0.1,0.4l0.1,0.2l-0.1,2.5h-0.3c0-0.2,0-0.4-0.1-0.5l0-0.1l0.1-0.1l-0.1-0.1 h-0.1l-0.1,0.1c0,0.5-0.2,0.7-0.4,0.7l0,0.2c0.1,0,0.2,0,0.2,0.1l0,0.3l-0.2-0.1l-0.1,0.1l0,0.1l0.1,0.1l0.4-0.1l0.1,0.4 c0.1,0,0.1-0.1,0.1-0.2H76l0,0.1l-0.1,0.1c0.2,0.4,0.4,1.2,0.4,2.4l-0.1,0.7l0,1.1l-0.1,0.1l0.1,0.1l0,0.9l-0.1,0.1l0.1,0.1l0,0.1 l-0.1,0.1h0.1l-0.1,1.4c0.1,0,0.1,0.3,0.1,0.8l-0.1,1.1l0.1,0.9l-0.1,0.3l0.1,0.2c0,0.5-0.1,0.7-0.2,0.7h-0.6L75.1,33L75.1,33 l-0.1-0.1l0-0.4h-0.4l-0.1-0.1l-0.1,0.1l0,0.1l0.1,0.1c0.1,0,0.2,0,0.2,0.1l0,0.1h-0.1l0-0.1h-0.1L74.1,33h-0.4L73.3,33L72.9,33 h-0.3l-0.2-0.2l0-0.4l0.1-0.4l-0.1-0.4c0-0.3,0.1-0.5,0.3-0.7l0-0.1c-0.2,0-0.3,0-0.3-0.1l0-5.9h-0.4l-0.1-0.1l0,0.1 c-0.4,0-0.6,0.5-0.7,1.5l0.1,0.1l0,3c0,0.6,0,1.1-0.1,1.3c-0.3,0-0.5,0-0.5,0.1l0,0.2l0.1,0.1l0.2-0.1h0.2l0.1,0.1l0,0.3l-0.1,0.7 l0.1,0.4c0,0.3-0.1,0.5-0.4,0.5h-0.7L70.1,33l0,0.1L69.6,33L69.3,33l0-0.1l-0.1-0.1l0-0.1l0.1-0.4h-0.1l-0.1-0.1h-0.1l0,0.6 L69.1,33L68.8,33L68.5,33l-0.4-0.1L68,33c-0.1,0-0.1-0.1-0.1-0.2l-0.1,0.1c-0.1,0-0.2-0.1-0.2-0.4l0.1-0.4l0-1l-0.1-0.3l0.1-0.3 l0-2.1c0-0.9,0.1-1.3,0.4-1.3l0.1-0.1L67.7,27l0.1-0.2L67.6,26c0-1,0.6-1.8,1.9-2.4l0-0.1l-0.7-0.3c-0.3,0-0.5-0.3-0.5-1h-0.1 l0,0.4h-0.1c-0.3,0-0.4-1-0.5-2.9l0-0.1l-0.1-0.1l0.1-0.1l0-0.7l0.1-0.4h0.1l0,0.4h0.1l0-0.4l-0.3-0.1l0-0.3 c0.5-1.5,0.8-2.3,1.2-2.3h0.1l-0.1,0.9l0,0.1l0.1,0.1l0,0.1l-0.1,0.1l0.1,0.4H69c0-0.2,0-0.4,0.1-0.4h0.1l0.1,0.1 c0,0.2,0,0.3,0.1,0.3c0-0.4,0.1-0.6,0.2-0.7l0.2,0.1c0.1,0,0.2-0.2,0.2-0.7l0.2,0.1H71c0.1,0,0.1,0.1,0.1,0.4h0.2l0-0.6l0.1-0.6 l0-0.2h0.1l0,0.1h0.1l0.3-0.3l0.1,0.1c0.1,0,0.2-0.1,0.2-0.3H73l0.1,0.4h0.1l0.1-0.5l0.5,0.1h0.4l0.1-0.1l0,0.1h0.1l0,0.1l-0.1,0.1 L74,15l-0.1,0.5h-0.1l-0.1-0.1h-0.1l-0.3,0.2c-0.1,0-0.1-0.1-0.1-0.2L73,15.7l0,0.2h0.1l0,0.2l-0.1,0.1h0.4l-0.1,0.7l0.1,0.5 l0.2-0.3l-0.1-0.8l0-0.1l0.1-0.3h0.1l0.1,0.4h0.1l0.1-1.2h0.1l0.2,0.1h0.1l0-0.4h0.1c0,0.1,0,0.2,0.1,0.2h0.2l0.1-0.3l0.2,0.1h0.1 l0.1-0.1C75.6,14.9,75.8,15,75.9,15.3z M76.2,21.5h-0.3l0-0.1l0.1-0.1h0.1L76.2,21.5z M75.9,26.2l-0.1,0.4l0.2,0.1l0.1-0.4l0-0.1 H75.9z M75.9,27.3l0,0.4H76l0.1-0.1L75.9,27.3L75.9,27.3z M75.8,28.6l0,0.6H76l0-0.2h-0.1l0.1-0.4H75.8z M75.8,27l0,0.1H76l0-0.2 L75.8,27z M75.9,15.4l0,0.3h0.1L75.9,15.4L75.9,15.4z M75.8,18l0,0.2h0.1L75.8,18L75.8,18z M75.8,30.9l0,0.1h0.1L75.8,30.9 L75.8,30.9z M75.4,31.3l0,0.1h0.2l0.1-0.1H75.4z M75.5,26.2l-0.1,0.1l0,0.1h0.3l0-0.1L75.5,26.2z M75.3,24.7H75L75,25.1l0,0.1 l0.3-0.1l0.3,0.1h0.1l0-0.3L75.3,24.7z M75.3,18L75.3,18l0,0.4l-0.1,0.4h0.1l0.1,0.1l0.1-0.1l0-0.1l-0.1-0.3l0.1-0.3l0-0.1H75.3z M75.3,16.2l0,0.8h0.1l0-0.9L75.3,16.2z M75.3,15l0,0.1h0.1L75.3,15z M75.1,32.5l0,0.2h0.1l0.1-0.1l0-0.1H75.1z M75.2,22.1 L75.2,22.1l-0.1,0.2h0.1l0.1-0.1L75.2,22.1z M75.2,19.9l0,0.4h0.1L75.2,19.9L75.2,19.9z M74.9,16L74.9,16l-0.2,0.5l0.1,0.4l0,0.2 l-0.1,0.7l0.1,0.7l0,0.1l-0.1,0.1h0.1l0,0.1h0.1l0.1-0.1l-0.1-0.4l0.1-0.8l0-1.3l0.1-0.2L74.9,16z M75,25.9l0,0.4H75L75,25.9 L75,25.9z M74.9,25.5L74.9,25.5l0.1,0.2l0-0.2H74.9z M74.7,21.1l0,0.2h0.1l0.1-0.1L74.7,21.1z M74.7,22.4L74.7,22.4l0.1,0.1l0-0.1 H74.7z M74.5,23.6L74.5,23.6l0.1,0.2l0-0.2H74.5z M74.5,25.7l0,0.2h0.1L74.5,25.7L74.5,25.7z M74.4,16.5l0,0.2l0.1,0.1l-0.2,0.1 c-0.1-0.1-0.1-0.2-0.1-0.4l-0.4,0.9c-0.2,0.1-0.3,0.3-0.4,0.7c0.1,0,0.1,0.1,0.1,0.3h0.2l0-0.1h0.1l-0.1,0.4h-0.1l0-0.1h-0.1 c0,0.2-0.1,0.3-0.2,0.3h-0.1l0-0.2l0.1-0.1l-0.1-0.2h0.1l-0.1-0.7l0-0.1h-0.1l0,0.4l0.1,0.4l-0.2,0.9l0.1,0.1l0,0.4h0.1 c0.1,0,0.2-0.2,0.2-0.7h0.1l0.2,0.1l0.2-0.2c0.3,0,0.4,0,0.4-0.1l0-0.4h0.1l0.1,0.1l0.2-0.2l-0.1-0.2l0-0.1h0.1l0-0.2l-0.3-0.1 l0-0.2c0.2,0,0.4-0.2,0.4-0.6l0-0.3l-0.1-0.1L74.4,16.5z M74.5,27l-0.1,0.1l0,0.1l0.1,0.1h0.1L74.5,27L74.5,27z M74.3,31.8h-0.1 l0,0.4l0.1,0.1h0.1l0-0.4L74.3,31.8z M74.4,31.4L74.4,31.4l-0.2-0.1l0,0.1l0.1,0.1h0.1L74.4,31.4L74.4,31.4z M74.2,30.9l0,0.1h0.2 l0.1-0.1l-0.1-0.2L74.2,30.9z M74.3,18.6l-0.1,0.2h0.1l0.1,0.1h0.1l0-0.1L74.3,18.6z M73.9,21c-0.1,0-0.2,0.2-0.2,0.7l0.1,0.2 l-0.1,0.3l0.1,0.1h0.1l0.1-0.1c0-0.2,0-0.3,0.1-0.3c0.1,0,0.1,0.1,0.1,0.3l0.1-0.1l0-0.5l-0.1-0.1l-0.2,0.1c-0.1,0-0.1-0.1-0.1-0.4 L73.9,21L73.9,21z M74.2,25.3L74.2,25.3l-0.1,0.2l0.1,0.1l0.1-0.1L74.2,25.3z M74.3,18l-0.1,0.1h-0.1l0-0.3h0.2L74.3,18z M74.2,23.7l0,0.2h0.1L74.2,23.7L74.2,23.7z M73.9,30.8L73.9,30.8l-0.2,0.1l0.1,0.1h0.1l0.1-0.1L73.9,30.8z M73.6,24.7l0,0.5 l-0.1,0.1c0-0.1-0.1-0.2-0.2-0.2l0,0.1l-0.1,0.1l0,0.3h0.3l0.1-0.1l0.1,0.4h0.1l0.1-0.5l-0.2-0.4l0.1-0.2H73.6z M73.7,22.7l0,0.1 h0.1L73.7,22.7L73.7,22.7z M73.6,15l0,0.2h0.1l0.1-0.2H73.6z M73.6,26.5l0,0.1h0.1L73.6,26.5L73.6,26.5z M73.4,22.1l0,0.2l0.1-0.1 l0-0.1H73.4z M73.3,30.7l0,0.2h0.1l0-0.2H73.3z M73.4,21.7l0,0.2h0.1L73.4,21.7L73.4,21.7z M73,16.4l0,0.2h0.1l0-0.1L73,16.4z M72.3,18h-0.1c-0.6,0-0.9,0.3-1,1l0.1,0.1c-0.1,0-0.1,0.1-0.1,0.4l0,0.4l0.1,0.4H71L71,20.2h-0.1l-0.1-0.7h-0.1l-0.1,0.8l0.1,0.2 c0,0.2-0.1,0.4-0.2,0.4c-0.1,0-0.1-0.1-0.1-0.3h-0.1l-0.1,0.5l0,0.2h0.1c0.1,0,0.1-0.1,0.1-0.2h0.6l0.1,0.1c0,0.4-0.1,0.8-0.2,1.3 l0.2,0.2c0.1,0,0.2-0.4,0.2-1.1l-0.1-0.2h0.1c0,0.2,0.1,0.4,0.4,0.5h0.8l0.1-0.2c-0.1,0-0.1-0.2-0.1-0.5l0-0.9l0.1-0.1l-0.1-0.1 l0-0.1l0.1-0.1h-0.1l0.1-0.9l0.1,0.1h0.1l0.1-0.1l0-0.1l-0.1-0.1l0-0.4h-0.1l0-0.4L72.3,18z M72.5,15l0.1,0.2h0.1l0-0.2H72.5z M72.4,22l-0.1,0.4l0,0.3h0.2L72.4,22L72.4,22z M72,16.9l0,0.2h0.1l0.1-0.1l0-0.1H72z M71.8,24.6h0.1l0-0.1L71.8,24.6z M71.7,15.7 l0,0.1l0.1,0.1L71.7,16h0.2l-0.1-0.1l0.1-0.1l-0.1-0.3L71.7,15.7z M71.6,22L71.6,22l-0.2,0.4l0.1,0.3h0.2l0.1-0.4l0-0.1L71.6,22z M71.3,24.1l0,0.7h0.1l0-0.8L71.3,24.1z M70.9,23.3l0,0.4l0.1-0.1l0-0.3H70.9z M70.8,28l0,0.4l-0.1,0.5h0.1l0.1,0.1l0.1-0.5 l-0.1-0.1l0.1-0.4H70.8z M70.8,26.2L70.8,26.2l-0.1,0.4l0.1,0.2h0.1l0.1-0.1l0-0.3L70.8,26.2z M70.5,21.5L70.5,21.5l0,0.4l-0.1,0.4 l0,0.4h0.1c0.1,0,0.2-0.2,0.2-0.5h-0.1l0.1-0.7H70.5z M70.5,24.5l0,0.3l0.1-0.1L70.5,24.5z M70.3,26.4l-0.1,0.2l0.1,0.1h0.1 l0.1-0.1l0-0.2H70.3z M70.5,23l0,0.2h0.1L70.5,23L70.5,23z M70.3,27.4L70.3,27.4l0,1.2h0.1l0-0.3l0.1-0.4l-0.1-0.4l0-0.1H70.3z M70.3,24.9l0,0.1h0.1L70.3,24.9z M70.2,19.6l-0.1,0.1l0,0.4l0.1,0.4l0.1-0.1L70.2,19.6L70.2,19.6z M70.2,18.4l0,0.1h0.1L70.2,18.4 L70.2,18.4z M70.3,15.5l-0.1,0.1H70l-0.1-0.4c0-0.1,0-0.2,0.1-0.2h0.1L70.3,15.5z M70.1,22.9L70.1,22.9L70,23l0.1,0.2h0.2l0-0.1 L70.1,22.9z M69.7,21.6c0,0.4-0.1,0.7-0.2,0.7c-0.2,0-0.4,0.2-0.4,0.5h0.1c0-0.1,0-0.2,0.1-0.2c0.1,0,0.2,0.2,0.2,0.6h0.1 c0-0.3,0.1-0.5,0.2-0.5H70l0.1,0.1l0.1-0.1l-0.1-0.1l0.1-0.4h-0.4C69.8,22.1,69.7,21.9,69.7,21.6L69.7,21.6z M70.1,21.5l0,0.3h0.1 l0-0.3H70.1z M69.8,26.6l0,0.1l0.1-0.1H69.8z M69.6,19.8L69.6,19.8l0.1,0.1l0.1-0.1H69.6z M69.7,15.1L69.7,15.1 c0.1,0.3-0.1,0.5-0.6,0.6h-0.1L69,15.7C69,15.5,69.2,15.4,69.7,15.1L69.7,15.1z M69.6,32.4L69.6,32.4l-0.2,0.1l0,0.1l0.4,0.1l0-0.1 L69.6,32.4z M69.7,20.2l0,0.1h0.1L69.7,20.2L69.7,20.2z M69.1,19.9l0.2,0.2h0.1l0.1-0.4l-0.1-0.4C69.2,19.4,69.1,19.6,69.1,19.9z M69.4,17.5l0,0.1h0.1L69.4,17.5L69.4,17.5z M69.3,19.1l0,0.1h0.1L69.3,19.1L69.3,19.1z M68.9,19.9c-0.1,0-0.2,0.2-0.2,0.4l0,0.4 h0.1c0-0.3,0.1-0.4,0.4-0.4l0,0.1l0.1-0.1C69.1,20.3,68.9,20.2,68.9,19.9L68.9,19.9z M69.3,16.3L69.3,16.3l-0.1,0.1l-0.1-0.1l0-0.1 h0.1L69.3,16.3z M69.2,21.5l0,0.5h0.1L69.2,21.5L69.2,21.5z M69.2,20.9l0,0.5h0.1L69.2,20.9L69.2,20.9z M69,26.6l0,0.2H69l0.1-0.1 l0-0.1H69z M69,25.1l0,0.5l0.1,0.1h0.1l0.1-0.1l-0.1-0.7L69,25.1z M69.1,24.1L69,24.2l0,0.1l0.1,0.1L69,24.5l0,0.1l0.1,0.1 L69.1,24.1L69.1,24.1z M68.7,32l0,0.2h0.1L68.7,32L68.7,32z M68.5,26.7L68.5,26.7l0.1,0.1l0-0.1H68.5z M68.1,20.3l-0.1,0.5l0.1,0.6 l-0.1,0.2l0.1,0.6h0.1l0.2-0.5l-0.1-0.4l0-0.4l0.1-0.1l-0.1-0.1l0-0.4H68.1z M68.3,16.9l0,0.1h0.1l0-0.1H68.3z M68.2,19L68.2,19 l0.1,0.2l0-0.2H68.2z M68.1,28.4L68.1,28.4L68,28.6l0.1,0.1h0.1l0.1-0.1L68.1,28.4z M68,27.8L68,27.8L68,27.8l0.1,0.2h0.1l0-0.1 L68,27.8z M68,26.7l0,0.1h0.1l0-0.1H68z M67.9,27.4l0,0.2h0.2l0-0.2H67.9z M67.9,20.6l0,0.1h0.1L67.9,20.6L67.9,20.6z M67.8,20.2 l0,0.3h0.1L67.8,20.2L67.8,20.2z"/> <path class="st1" d="M79.4,13.5l0.5,0.1l4.1-0.1l0.7,0.1l0-0.1c0.2,0,0.4,0.9,0.5,2.8l0.6,4.7l-0.1,0.5c0.2,0.8,0.6,4.2,1.3,10.1 l-0.2,0.1h-3.6c-0.1,0-0.2-0.1-0.2-0.3l-0.1-2l0.1-0.2c0-0.5-0.1-0.7-0.2-0.7h-1.2l-0.1,0.4c0,1.8-0.1,2.7-0.4,2.9H81l-0.6-0.1 l-0.2,0.1l-0.4-0.1h-0.4l-0.6,0.1h-1.4l-0.2-0.1l0.7-5.3h-0.1l1.5-12.8L79.4,13.5L79.4,13.5z M80.1,19.2l-0.1,0.5l0.1,0.2l-0.1,0.4 l0.1,0.3L80,21.5c0.1,0,0.1,0.1,0.1,0.2L80,22.1h0.1l0,0.2c-0.2,0-0.4,0.2-0.4,0.5l-0.3,0.1l0,0.6l0.2,0.1l0-0.6l0.1,0.1h0.1l0-0.4 h0.4l0-0.4l0.1-0.1L80.3,22l0-0.3l0.1-0.4l-0.1-0.9l0-0.2c0.2,0,0.3-0.2,0.3-0.7C80.5,19.3,80.4,19.2,80.1,19.2z M79.6,29.1l0,0.2 h0.7l0,0.1l-0.1,0.1l0,0.1l0.1,0.1h0.1c0-0.2,0.1-0.4,0.2-0.4l-0.2-0.2l0-0.1l-0.1,0.1H79.6z M79.6,28.6l0,0.2H80l0-0.2H79.6z M79.7,27.3l0,0.1H80l0-0.1H79.7z M79.7,26.8l0,0.2H80l0-0.1L79.7,26.8z M79.7,25.9l0,0.2l0.2-0.1l0-0.1L79.7,25.9z M80.2,22.8 l-0.1,0.4l0,0.1l0.1,0.1h0.1l0-0.1L80.2,22.8L80.2,22.8z M80.2,31l0,0.1l0.1,0.1l0-0.1L80.2,31z M80.2,30.7l0,0.2l0.2-0.1l0-0.1 L80.2,30.7z M80.2,29.8l0,0.4h0.3l0-0.2L80.2,29.8z M80.2,27.5l0,0.2h0.1L80.2,27.5L80.2,27.5z M80.2,27l0,0.4h0.1l0.1-0.4l0-0.1 h-0.1L80.2,27z M80.3,26.5l0.1,0.2h0.1l0-0.2H80.3z M80.5,16.1l0,1c0,0.3-0.1,0.6-0.1,0.8l0.1,0.5h0.1c0-0.2,0.1-0.3,0.2-0.4l0-2 L80.5,16.1z M80.7,26.9l0,0.1h0.1l0-0.1H80.7z M82.1,18.3c-0.4,3.7-0.6,5.8-0.7,6.4l0.1,0.5h1.2l-0.5-6.9H82.1z"/> </g> <g> <path class="st2" d="M6.8,13.7l0.3,0.1l0.5-0.1h0.5l0.1,0.1l0.1-0.1h0.2l0.2,0.2l0.3-0.2l0.3,0.2l0.2-0.2h1.2 c0.2,0,0.2,0.1,0.2,0.3l-0.1,0.4l0.1,0.9l-0.1,8.6L10.7,25l0.1,0.1l-0.2,1.2l0.1,1l-0.1,1.4l0.1,0.8c-0.1,0.4-0.2,0.5-0.3,0.5 l-0.1-0.9h-0.1l-0.1,1l0.1,0.1l0.4-0.1h0.1c0.1,0.5,0.1,1.2,0.1,2.2l0.1,0.1h0.2L11,30.7h0.1L11,30.6l0-0.1l0.2-0.2 c0.1,0.4,0.2,0.7,0.3,0.7l-0.1,0.5l0,0.5l0.1,0.8l-0.2,0.2h-0.6L9.9,33l-0.8,0.1H8.8c-0.3,0-0.4-0.1-0.4-0.2L8,33.1H6.7l-0.2-0.2 l0-0.3l-0.1-2.2l0.1-0.5l-0.1-0.2l0.2-0.9l0-0.2l-0.1-0.6l0-0.7l0.2-0.6l0-0.2l-0.1-0.6l0.1-0.5l-0.1-0.8l0.1-0.5l-0.1-0.6l0-5.2 L6.7,14L6.8,13.7z M7.1,26l0,0.8h0.2l0.1-0.5C7.3,26.1,7.2,26,7.1,26z M7.2,28l0,0.8l0.2-0.2l0-0.5L7.2,28z M7.5,21.2l0,0.3 l0.1-0.1h0.1L7.5,21.2L7.5,21.2z M7.7,26.2L7.7,26.2l-0.1,0.2l0.1,0.3L7.7,27l0,0.1l0.2,0.2l0.1-0.9L7.7,26.2L7.7,26.2z M7.8,30 l0,0.2h0.1L8,30.1L8,30H7.8z M7.8,32.3l0,0.4h0.2l0-0.4H7.8z M8.2,24.2l0,0.3l-0.1,0.5h0.1c0,0.2-0.1,0.2-0.2,0.2l0,0.1 c0.2,0,0.2,0.1,0.2,0.3h0.1l0.2-0.2l0-0.6l-0.2-0.2l0.2-0.3l-0.1-0.2H8.2z M8.1,26.2L8,26.7l0.1,0.2l0.2-0.2l0-0.4L8.1,26.2 L8.1,26.2z M8.2,30l0.2,0.2L8.5,30l-0.2-0.2L8.2,30z M8.3,32.6L8.3,32.6l0.2,0.2l0-0.4L8.3,32.6z M9.1,25.5l0.1,0.4H8.7l0,0.4 l-0.1,0.1l0.1,0.4l0.5-0.5l0.1,0.4h0.1l0.2-0.8c-0.1,0-0.2-0.2-0.1-0.7C9.2,25.2,9.1,25.3,9.1,25.5z M8.6,25.5l0.2,0.2l0-0.2H8.6z M8.6,24.5L8.6,24.5l0.2,0.1l0-0.1H8.6z M9.6,24.8l0,0.2H9.5L9.6,25l0,0.6L9.5,26l0.1,0.1h0.1c0.1,0,0.2-0.1,0.2-0.2 C9.8,25.1,9.8,24.8,9.6,24.8z M9.6,26.5l0,0.2h0.1L9.6,26.5L9.6,26.5z M9.7,32.6l0.2,0.2l0-0.3L9.7,32.6z M9.8,29.6l0,0.4l0.2,0.2 l0-0.5H9.8z M10.3,28.6l0,0.2h0.1L10.3,28.6L10.3,28.6z M11.2,29.2L11.2,29.2l0.1,0.6h-0.1L11,29.7l0-0.3L11.2,29.2z M11.6,30.1 h0.2c0,0.3,0,0.4,0.1,0.4l-0.1,0.2l0.1,0.2H12l0.1-0.2L12,30.3l0.1-0.2h0.2l0.1,0.4l0,2.1l0.1,0.1l0,0.1h-0.1l0.1,0.1l0,0.1 L12.3,33h-0.2l-0.1-0.2l0.1-0.1h-0.1c-0.1,0-0.2,0.1-0.2,0.2L11.8,33h-0.1l-0.2-0.2l0-0.5l0.1-0.1l-0.1-0.8L11.6,30.1z M11.6,29.3 h0.2l0.1,0.3l-0.1,0.1h-0.2L11.6,29.3z M11.9,31l-0.2,0.6l0.1,0.9h0.2l0-1.4L11.9,31z M12.2,29.2h0.2l0.2,0.2 c-0.1,0-0.2,0.1-0.2,0.4L12,29.6l0-0.2L12.2,29.2z M12.6,30.4h0.2c0.3,0,0.4,0.6,0.4,1.9l0,0.2l-0.1,0.1l0.1,0.1l0,0.2L13,33.1 h-0.2l-0.2-0.2l0-0.7L12.5,31L12.6,30.4z M12.6,29.3h0.2l0,0.3h-0.2L12.6,29.3z"/> <path class="st2" d="M16.8,13.5l0.5,0.1l4.4-0.1l0.7,0.1l0-0.1c0.3,0,0.4,1,0.5,2.9l0.6,5L23.5,22c0.2,0.9,0.6,4.5,1.3,10.8 L24.6,33h-3.9c-0.1,0-0.2-0.1-0.2-0.3l-0.1-2.2l0.1-0.2c0-0.5-0.1-0.8-0.2-0.8H19l-0.1,0.4c0,1.9-0.2,2.9-0.4,3.1h-0.1l-0.6-0.2 l-0.2,0.1l-0.5-0.1h-0.5L16,33h-1.5l-0.2-0.2l0.8-5.6H15l1.7-13.6L16.8,13.5L16.8,13.5z M17.6,19.6l-0.1,0.5l0.2,0.2l-0.1,0.4 l0.1,0.3l-0.2,1c0.1,0,0.2,0.1,0.2,0.2l-0.1,0.4h0.2l0,0.2c-0.3,0-0.4,0.2-0.4,0.5l-0.3,0.1l0,0.6l0.2,0.1l0-0.6l0.1,0.1h0.1l0-0.5 h0.4l0-0.5l0.1-0.1l-0.1-0.1l0-0.3l0.2-0.5l-0.1-0.9l0-0.2c0.2,0,0.3-0.3,0.3-0.8C18,19.7,17.9,19.6,17.6,19.6z M16.9,30.2l0,0.2 h0.7l0,0.2l-0.1,0.1l0,0.1l0.1,0.1h0.1c0-0.3,0.1-0.4,0.2-0.4l-0.2-0.2l0-0.1l-0.1,0.1H16.9z M16.9,29.7l0,0.2h0.5l0-0.2H16.9z M17,28.2l0,0.2h0.4l0-0.2H17z M17,27.7l0,0.2h0.4l0-0.2L17,27.7z M17.1,26.7l0,0.2l0.2-0.1l0-0.1L17.1,26.7z M17.6,23.5l-0.1,0.4 l0,0.1l0.2,0.2h0.1l0-0.1L17.6,23.5L17.6,23.5z M17.6,32.2l0,0.2l0.2,0.2l0-0.2L17.6,32.2z M17.6,31.8l0,0.2l0.2-0.1l0-0.1 L17.6,31.8z M17.6,30.9l0,0.4h0.3l0-0.2L17.6,30.9z M17.7,28.5l0,0.2h0.1L17.7,28.5L17.7,28.5z M17.7,27.9l0,0.4h0.1l0.2-0.4l0-0.2 h-0.1L17.7,27.9z M17.7,27.3l0.1,0.2h0.1l0-0.2H17.7z M18,16.3l0,1.1c0,0.4-0.1,0.6-0.2,0.8l0.1,0.5H18c0-0.2,0.1-0.3,0.2-0.5 l0-2.1L18,16.3z M18.1,27.8l0,0.2h0.2l0-0.2H18.1z M19.7,18.7c-0.4,3.9-0.7,6.2-0.9,6.8L19,26h1.3l-0.5-7.3H19.7z"/> </g> </svg>