<svg xmlns="http://www.w3.org/2000/svg" width="182" height="90"><g fill="#4f4f4f"><path d="M13.5 8.6c5.3 0 11.2 2.9 12.2 9.8h-6.5c-.9-2.7-2.9-3.7-5.7-3.7-3.9 0-6.5 2.8-6.5 7.1 0 3.7 2.5 7 6.5 7 2.8 0 5-1.3 5.7-4.1h6.5C24.7 32.1 19 35 13.4 35 6.8 35 .1 30.6.1 21.8.2 13 6.9 8.6 13.5 8.6zm21.4 20.1h9.4v6.1h-16V8.9H35l-.1 19.8z"/><path d="M51.7 31.5l-1.5 3.2h-7.1v-.9L55 8.6h3.1l11.8 25.2v.9h-7l-1.5-3.2h-9.7zm2.2-5.7h5.4l-2.7-6.3-2.7 6.3zm38.8 7.9v1h-7.2l-4.4-8.1h-3.6v8.1h-6.8V8.8h11.4c6.3 0 9.3 4.6 9.3 9.2 0 3-1.3 5.8-3.9 7.6l5.2 8.1zM82.1 21.1c1.9 0 2.8-1.6 2.8-3.3s-.9-3.2-2.8-3.2h-4.7V21l4.7.1zm24.5 14.1c-6.9 0-13.3-4.4-13.3-13.5 0-9 6.6-13.5 13.4-13.5 6.6 0 13.2 4.5 13.2 13.5 0 8-5.5 13.5-13.3 13.5zm0-6.4c3.2 0 6.5-2.4 6.5-7s-3.2-7-6.4-7c-3.4 0-6.6 2.3-6.6 7 .1 4.6 3.3 7 6.5 7zM36 37.9c8.4 0 12.8 6.4 12.8 12.8.1 6.5-4.2 13.1-12.8 13.1h-9.9V37.9H36zm0 19.7c4.1 0 6.1-3.4 6.1-6.9 0-3.4-2.1-6.8-6.1-6.8h-3v13.7h3zm26.8.6v5.5H49.5v-5.5h3.3v-15h-3v-5.4h12.8v5.5h-3v15l3.2-.1zm24.5 4.5v1h-7.2l-4.4-8.1h-3.6v8.1h-6.8V37.8h11.4c6.3 0 9.3 4.6 9.3 9.2 0 3-1.3 5.8-3.9 7.6l5.2 8.1zM76.7 50c1.9 0 2.8-1.6 2.8-3.3s-.9-3.2-2.8-3.2H72v6.4l4.7.1zm28.5-6.2h-9.4v3.7h8.7v5.9h-8.7v4.2h9.7v6.2H89V37.9h16.1c.1 0 .1 5.9.1 5.9zm14.5-6.2c5.3 0 11.2 2.9 12.2 9.8h-6.5c-.9-2.7-2.9-3.7-5.7-3.7-3.9 0-6.5 2.8-6.5 7.1 0 3.7 2.5 7 6.5 7 2.8 0 5-1.3 5.7-4.1h6.5c-1 7.4-6.7 10.3-12.3 10.3-6.6 0-13.3-4.4-13.3-13.2.2-8.9 6.8-13.2 13.4-13.2zm12.1 6.2v-5.9H151v5.9h-6.3v19.9h-6.6V43.8h-6.3z"/></g><circle cx="11.7" cy="48.9" r="11.2" fill="#00c2e9"/><path d="M11.5 48.1l1.6-3h2.5v.3l-3 5.1v3.6h-2.4v-3.6l-3-5.1v-.3h2.5l1.6 3h.2z" fill="#fff"/><g fill="#00c2e9"><path d="M165,63.3c-7.1,0-12.8-5.8-12.8-12.8S158,37.8,165,37.8c7.1,0,12.8,5.8,12.8,12.8S172,63.3,165,63.3z M165,41.9 c-4.8,0-8.7,3.9-8.7,8.7s3.9,8.7,8.7,8.7s8.7-3.9,8.7-8.7S169.7,41.9,165,41.9z"/><path d="M165 45.6c-1.1 0-2.1-.9-2.1-2.1v-8.2c0-1.1.9-2.1 2.1-2.1 1.1 0 2.1.9 2.1 2.1v8.2c-.1 1.3-1.1 2.1-2.1 2.1zm0 21.8c-1.1 0-2.1-.9-2.1-2.1v-8.2c0-1.1.9-2.1 2.1-2.1 1.1 0 2.1.9 2.1 2.1v8.2c-.1 1.2-1.1 2.1-2.1 2.1zm14.7-14.8h-8.2c-1.1 0-2.1-.9-2.1-2.1s.9-2.1 2.1-2.1h8.2c1.1 0 2.1.9 2.1 2.1s-.9 2.1-2.1 2.1zm-21.3 0h-8.2c-1.1 0-2.1-.9-2.1-2.1s.9-2.1 2.1-2.1h8.2c1.1 0 2.1.9 2.1 2.1s-1 2.1-2.1 2.1z"/></g><path d="M73.5 79.4c-.3-.2-.4-.5-.5-.8-.1-.4-.1-.8-.1-1.3v-1.4c0-.6 0-1 .1-1.4s.3-.6.5-.8c.3-.2.6-.3 1.1-.3.4 0 .8.1 1 .2s.4.4.5.6c.1.3.1.6.1 1.1v.4h-1v-.4c0-.4 0-.7-.1-.8-.1-.2-.3-.2-.5-.2s-.3 0-.4.1-.2.2-.2.4-.1.5-.1.8v1.9c0 .4 0 .6.1.8 0 .2.1.3.2.4s.2.1.4.1c.3 0 .4-.1.5-.3s.1-.4.1-.8v-.5h1v.5c0 .7-.1 1.2-.4 1.5-.2.3-.7.5-1.3.5a1.69 1.69 0 0 1-1-.3zm4-.3c-.3-.4-.4-1-.4-1.7v-1.8c0-.7.1-1.3.4-1.7s.7-.6 1.4-.6c.6 0 1.1.2 1.4.6s.4 1 .4 1.7v1.8c0 .7-.1 1.3-.4 1.7s-.7.6-1.4.6c-.6 0-1.1-.2-1.4-.6zm1.9-.4c.1-.1.1-.3.2-.4V75c0-.2-.1-.3-.2-.5-.1-.1-.2-.2-.4-.2s-.4.1-.5.2-.2.3-.2.5v3.3c0 .2.1.3.2.4s.2.2.5.2c.1-.1.3-.1.4-.2zm2.4-5.2h1.1v.6c.5-.5 1-.7 1.5-.7.3 0 .6.1.7.4.1.2.2.5.2.9v5h-1.1V75c0-.2 0-.4-.1-.5s-.2-.2-.4-.2-.5.1-.8.4v5h-1.1v-6.2zm8.6-2.4h1.2l1.8 8.6h-1.1l-.5-2.2H90l-.4 2.2h-1.1l1.9-8.6zm1.3 5.5l-.8-3.9-.7 3.9h1.5zm2.6 2.7c-.1-.2-.2-.5-.2-.9v-5h1.1v4.7c0 .2 0 .4.1.5s.2.2.4.2.5-.1.8-.4v-5h1.1v6.2h-1.1V79c-.5.5-1 .7-1.5.7-.3 0-.5-.1-.7-.4zm4.7 1.9c-.4-.2-.5-.5-.5-.9 0-.3.1-.5.3-.7s.4-.4.6-.5c-.2-.1-.3-.1-.4-.3-.2 0-.2-.2-.2-.3 0-.2.1-.4.2-.6s.3-.3.5-.6c-.2-.2-.4-.4-.5-.7s-.2-.7-.2-1.1c0-.7.1-1.3.4-1.6.3-.4.7-.6 1.3-.6.3 0 .6.1.8.2s.4.3.5.5c0-.1.2-.2.3-.3.2-.1.3-.2.5-.3l.2-.1.3.7c-.1 0-.3.1-.6.2s-.4.2-.5.2c0 .1.1.3.1.5s.1.4.1.6c0 .7-.1 1.2-.4 1.6s-.7.6-1.3.6c-.2 0-.4 0-.6-.1-.1.2-.2.4-.2.5s0 .1.1.2c.1 0 .2.1.4.1l1 .1c.5 0 .8.2 1.1.4.2.2.4.6.4 1.1 0 1-.7 1.5-2.1 1.5-.8 0-1.2-.1-1.6-.3zm2.4-.7a.55.55 0 0 0 .3-.5c0-.2-.1-.3-.2-.4s-.3-.2-.7-.2l-1-.1c-.1.1-.3.3-.3.4-.1.1-.1.2-.1.4s.1.3.2.4c.2.1.4.1.8.1.5 0 .8 0 1-.1zm-.3-3.9c.1-.2.1-.6.1-1 0-.5 0-.8-.1-1.1-.1-.2-.3-.3-.6-.3s-.5.1-.6.3-.2.6-.2 1.1c0 .4.1.8.2 1s.3.4.6.4c.3-.1.5-.2.6-.4zm2.6 2.7c-.1-.2-.2-.5-.2-.9v-5h1.1v4.7c0 .2 0 .4.1.5s.2.2.4.2.5-.1.8-.4v-5h1.1v6.2h-1.1V79c-.5.5-1 .7-1.5.7-.4 0-.6-.1-.7-.4zm4.6-.1c-.3-.3-.5-.7-.5-1.3l1-.3c.1.4.2.7.3.9s.3.3.6.3c.2 0 .4-.1.5-.2s.2-.3.2-.5 0-.3-.1-.5c-.1-.1-.2-.3-.4-.4l-1.1-.9c-.2-.2-.4-.4-.6-.7-.1-.2-.2-.5-.2-.8 0-.5.1-.8.4-1.1s.7-.4 1.2-.4.8.2 1.1.5.4.7.5 1.2l-.8.3c0-.3-.1-.6-.2-.8a.55.55 0 0 0-.5-.3c-.2 0-.3.1-.4.2a.76.76 0 0 0-.2.4c0 .2.1.4.3.6l1.1 1c.3.3.5.5.6.8.2.2.2.6.2.9 0 .5-.2.9-.5 1.2s-.7.4-1.2.4c-.6 0-1-.2-1.3-.5zm4.1-1v-4h-.7v-.8h.7v-1.8h1.1v1.8h1v.8h-1v4c0 .2 0 .4.1.5s.2.1.4.1h.4v.8c-.3 0-.5.1-.8.1-.8 0-1.2-.5-1.2-1.5zm3.3.9c-.3-.4-.4-1-.4-1.7v-1.8c0-.7.1-1.3.4-1.7s.7-.6 1.4-.6c.6 0 1.1.2 1.4.6s.4 1 .4 1.7v1.8c0 .7-.1 1.3-.4 1.7s-.7.6-1.4.6-1.2-.2-1.4-.6zm1.8-.4c.1-.1.1-.3.2-.4V75c0-.2-.1-.3-.2-.5-.1-.1-.2-.2-.4-.2s-.4.1-.5.2-.2.3-.2.5v3.3c0 .2.1.3.2.4s.2.2.5.2c.2-.1.3-.1.4-.2zm6.3-7.6h1.2l1.8 8.6h-1.1l-.4-2.2h-1.8l-.4 2.2H122l1.8-8.6zm1.3 5.5l-.7-3.9-.7 3.9h1.4zm-.4-8.2h1.1l-1.2 2.1h-.6l.7-2.1zm3 2.7h1.1v8.6h-1.1v-8.6zm1.9 2.4h1.2l.8 5 .8-5h1.1l-1.2 6.2h-1.4l-1.3-6.2zm5 6c-.2-.1-.3-.3-.4-.5s-.2-.5-.2-.7c0-.5.1-.9.3-1.2s.5-.5.8-.7.8-.4 1.3-.6v-.4c0-.4 0-.7-.1-.9s-.2-.3-.5-.3c-.4 0-.7.3-.7.9v.3H134c0-.7.2-1.2.5-1.5s.8-.5 1.4-.5 1 .2 1.3.5.4.8.4 1.5v2.8c0 .5 0 1 .1 1.5h-1c-.1-.4-.1-.7-.1-.9-.1.3-.2.5-.4.7s-.5.3-.8.3c-.4-.1-.6-.2-.8-.3zm1.5-1l.3-.3v-1.8c-.3.2-.5.3-.7.4s-.3.3-.4.4c-.1.2-.2.4-.2.6 0 .3 0 .5.1.6s.2.2.4.2c.3.1.4 0 .5-.1zm2.5-5h1.1v.9c.2-.3.4-.6.7-.7.2-.1.5-.2.7-.2h.2v1.3c-.2-.1-.4-.1-.6-.1s-.4 0-.5.1-.3.2-.4.5v4.5h-1.2v-6.3zm4 5.9c-.3-.2-.4-.5-.6-.8-.1-.4-.2-.8-.2-1.4v-1.4c0-.9.1-1.5.4-1.9s.7-.6 1.4-.6c.5 0 .9.1 1.1.3.3.2.4.5.5.9s.1.9.1 1.5v.5h-2.4v1.2c0 .4.1.6.2.8a.55.55 0 0 0 .5.3.55.55 0 0 0 .5-.3c.1-.2.1-.4.1-.8v-.4h1.1v.4c0 .6-.1 1.1-.4 1.5-.3.3-.7.5-1.3.5a1.93 1.93 0 0 1-1-.3zm1.8-3.5v-.6c0-.4 0-.7-.1-.9a.55.55 0 0 0-.5-.3c-.2 0-.3 0-.4.1s-.2.2-.2.4-.1.5-.1.8v.3h1.3v.2zm1.9 2.9l1.9-4.5h-1.7v-.9h2.9v.6l-1.9 4.7h1.9v.9h-3.1v-.8zm6.5-7.7h1.7c.9 0 1.5.2 1.9.5.4.4.6.9.6 1.8 0 1.1-.4 1.8-1.1 2l1.2 4.3h-1.2l-1.1-4.1h-.9v4.1h-1.2l.1-8.6zm1.6 3.7c.5 0 .9-.1 1.1-.3s.3-.6.3-1.1c0-.4 0-.6-.1-.8s-.2-.4-.4-.4c-.2-.1-.5-.1-.8-.1h-.5v2.7h.4zm4.1 4.3c-.3-.4-.4-1-.4-1.7v-1.8c0-.7.1-1.3.4-1.7s.7-.6 1.4-.6c.6 0 1.1.2 1.4.6s.4 1 .4 1.7v1.8c0 .7-.1 1.3-.4 1.7s-.7.6-1.4.6c-.6 0-1.1-.2-1.4-.6zm1.9-.4c.1-.1.1-.3.2-.4V75c0-.2-.1-.3-.2-.5-.1-.1-.2-.2-.4-.2s-.4.1-.5.2-.2.3-.2.5v3.3c0 .2.1.3.2.4s.2.2.5.2c.1-.1.3-.1.4-.2zm2.6.4c-.2-.4-.4-1-.4-1.9V76c0-.8.1-1.5.3-1.9.2-.5.6-.7 1.2-.7.4 0 .7.2 1 .5V71h1.1v8.6h-1.1v-.4c-.3.3-.6.5-1 .5s-.8-.2-1.1-.6zm2.2-.5v-4c-.3-.2-.5-.3-.7-.3-.4 0-.7.4-.7 1.3v1.7c0 .5 0 .9.1 1.1.1.3.3.4.6.4.2 0 .4-.1.7-.2zm2.2-5.1h1.1v.9c.2-.3.4-.6.7-.7.2-.1.5-.2.7-.2h.2v1.3c-.2-.1-.4-.1-.6-.1s-.4 0-.5.1-.3.2-.4.5v4.5h-1.1l-.1-6.3zm3.5-2.1h1.1v1.2h-1.1v-1.2zm0 2.1h1.1v6.2h-1.1v-6.2zm2.9 5.9c-.3-.2-.4-.5-.5-.8-.1-.4-.1-.8-.1-1.3v-1.4c0-.6 0-1 .1-1.4s.3-.6.5-.8c.3-.2.6-.3 1.1-.3.4 0 .8.1 1 .2s.4.4.5.6c.1.3.1.6.1 1.1v.4h-1v-.4c0-.4 0-.7-.1-.8-.1-.2-.3-.2-.5-.2s-.3 0-.4.1-.2.2-.2.4-.1.5-.1.8v1.9c0 .4 0 .6.1.8 0 .2.1.3.2.4s.2.1.4.1c.3 0 .4-.1.5-.3s.1-.4.1-.8v-.5h1v.5c0 .7-.1 1.2-.4 1.5-.2.3-.7.5-1.3.5a1.93 1.93 0 0 1-1-.3zm3.9-8.3h1.1v3.1c.5-.5 1-.7 1.5-.7.3 0 .6.1.7.4.1.2.2.5.2.9v5h-1.1V75c0-.2 0-.4-.1-.5s-.2-.2-.4-.2-.5.1-.8.4v5h-1.1v-8.6z" fill="#4f4f4f"/></svg>