<svg xmlns="http://www.w3.org/2000/svg" width="62.7" height="46.7"><path d="M17 .6c0-.1 0-.1.1-.2 0-.1.1-.1.2-.1h2.2c.1 0 .1.1.2.1l3.1 5V.6c0-.1 0-.1.1-.2 0 0 .1-.1.2-.1h1.8c.1 0 .2 0 .2.1s-.1.1-.1.2v8.7c0 .1 0 .1-.1.2 0 0-.1.1-.2.1h-2c-.1 0-.1 0-.1-.1l-.1-.1L19.3 4v5.3c0 .1 0 .2-.1.2 0 0-.1.1-.2.1h-1.7c-.1 0-.2 0-.2-.1-.1-.1-.1-.1-.1-.2V.6zm9.2 4.3c0-.4.1-.8.2-1.2s.3-.8.5-1.1c.2-.4.4-.7.7-1s.6-.5 1-.7.7-.4 1.1-.5.8-.2 1.3-.2c.4 0 .8.1 1.2.2s.8.3 1.1.5c.4.2.7.5 1 .7.3.3.5.6.7 1s.4.7.5 1.1.2.8.2 1.3c0 .4-.1.9-.2 1.3a4.67 4.67 0 0 1-.5 1c-.2.4-.5.7-.7.9-.3.3-.6.5-1 .7s-.7.4-1.1.5-.8.2-1.2.2-.8-.1-1.3-.2c-.4-.1-.8-.3-1.1-.5l-1-.7c-.3-.3-.5-.6-.7-.9-.2-.4-.4-.7-.5-1.1s-.2-.9-.2-1.3zm2.4 0c0 .3.1.7.2 1s.3.6.5.8.4.4.7.5.6.2.9.2.6-.1.9-.2.5-.3.7-.5.4-.5.5-.8.2-.6.2-1c0-.3-.1-.7-.2-1s-.3-.6-.5-.8a3.04 3.04 0 0 0-.7-.5c-.3-.1-.6-.2-.9-.2s-.6.1-.9.2-.5.3-.7.5-.4.5-.5.8c-.1.4-.2.7-.2 1zM17 12c0-.1 0-.2.1-.2 0-.1.1-.1.2-.1h4c.4 0 .8.1 1.2.2.4.2.7.4 1 .7s.5.6.6 1c.2.4.2.8.2 1.2 0 .3 0 .5-.1.8s-.2.5-.3.7-.3.4-.5.6-.4.3-.6.5l1.6 3c0 .1.1.1.1.2s.1.1.1.2 0 .1-.1.1-.1.1-.2.1h-2.1c-.1 0-.1 0-.2-.1-.1 0-.1-.1-.1-.2l-1.5-2.8h-1v2.8c0 .2-.1.3-.3.3h-1.8c-.1 0-.2 0-.2-.1 0 0-.1-.1-.1-.2V12zm4.8 2.7c0-.1 0-.2-.1-.4 0-.1-.1-.2-.2-.3l-.3-.3c-.1-.1-.2-.1-.4-.1h-1.4v2.3h1.5c.1 0 .3-.1.4-.1.1-.1.2-.1.3-.2s.1-.2.2-.3v-.6zm3.4-2.7c0-.1 0-.2.1-.2 0-.1.1-.1.2-.1h6.1c.1 0 .2 0 .2.1s.1.1.1.2v1.5c0 .1 0 .1-.1.2 0 .1-.1.1-.2.1h-4v1.5h3.1c.1 0 .1 0 .2.1.1 0 .1.1.1.2v1.3c0 .1 0 .1-.1.2 0 .1-.1.1-.2.1h-3.1v1.6h4.1c.2 0 .3.1.3.3v1.7c0 .1-.1.2-.2.2h-6.2c-.1 0-.1 0-.2-.1-.1 0-.1-.1-.1-.2V12zm7.5-.1c0-.1 0-.2.1-.2s.1-.1.2-.1h6.6c.1 0 .1 0 .2.1s.1.1.1.2v1.5c0 .1 0 .2-.1.2s-.1.1-.2.1h-2.1v6.8c0 .1 0 .1-.1.2s-.1.1-.2.1h-1.8c-.1 0-.1 0-.2-.1s-.1-.1-.1-.2v-6.8H33c-.1 0-.2 0-.2-.1-.1-.1-.1-.1-.1-.2v-1.5zm8.3 0c0-.1 0-.1.1-.2 0-.1.1-.1.2-.1h1.8c.1 0 .1 0 .2.1.1 0 .1.1.1.2v8.6c0 .2-.1.3-.3.3h-1.8c-.2 0-.3-.1-.3-.3v-8.6zm4 .1c0-.1 0-.2.1-.2 0-.1.1-.1.2-.1h4c.4 0 .8.1 1.2.2s.7.4 1 .7.5.6.6 1c.2.4.2.8.2 1.2 0 .3 0 .5-.1.8-.1.2-.2.5-.3.7s-.3.4-.5.6-.4.3-.6.5l1.6 3 .1.2c0 .1.1.1.1.2s0 .1-.1.1-.1.1-.2.1h-2.1c-.1 0-.1 0-.2-.1-.1 0-.1-.1-.1-.2l-1.5-2.8h-1v2.8c0 .2-.1.3-.3.3h-1.8c-.1 0-.1 0-.2-.1-.1 0-.1-.1-.1-.2V12zm4.8 2.7c0-.1 0-.3-.1-.4 0-.1-.1-.2-.2-.3l-.3-.3c-.1-.1-.2-.1-.4-.1h-1.4v2.3h1.5c.1 0 .3-.1.4-.1.1-.1.2-.1.3-.2s.1-.2.2-.3v-.6zm3.1 1.6a4.3 4.3 0 0 1 .2-1.2c.1-.4.3-.8.5-1.1.2-.4.5-.7.7-1 .3-.3.6-.5.9-.7s.7-.4 1.1-.5.8-.2 1.3-.2c.4 0 .8.1 1.2.2s.8.3 1.1.5.7.5.9.7c.3.3.5.6.7 1s.4.7.5 1.1.2.8.2 1.3-.1.9-.2 1.3-.3.8-.5 1.1-.5.7-.7.9c-.3.3-.6.5-.9.7-.4.2-.7.4-1.1.5s-.8.1-1.2.1-.8-.1-1.3-.2c-.4-.1-.8-.3-1.1-.5s-.7-.5-.9-.7c-.3-.3-.5-.6-.7-.9-.2-.4-.4-.7-.5-1.1-.2-.5-.2-.9-.2-1.3zm2.3 0c0 .3.1.7.2 1s.3.6.5.8a3.04 3.04 0 0 0 .7.5c.3.1.6.2.9.2s.6-.1.9-.2.5-.3.7-.5.4-.5.5-.8.2-.6.2-1c0-.3-.1-.7-.2-1s-.3-.6-.5-.8a3.04 3.04 0 0 0-.7-.5c-.3-.1-.6-.2-.9-.2s-.6.1-.9.2-.5.3-.7.5-.4.5-.5.8-.2.6-.2 1z" fill="#4f4f4f"/><path d="M2.5 14.9H0v-2.6h2.8l.5-3.7H.9V5.9h2.8L4.5 0h2.8l-.8 5.9h2.9l.8-5.9H13l-.8 5.9h2.5v2.6h-2.8l-.5 3.7h2.5v2.6H11l-.8 5.9H7.4l.8-5.9H5.3l-.8 5.9H1.7l.8-5.8zM9 8.5H6.1l-.5 3.7h2.9L9 8.5zM.2 23.2h62.5v23.5H.2V23.2z" fill="#6059e1"/><path d="M5.3 28.8c0-.1 0-.2.1-.3s.2-.1.3-.1h3.1c.1 0 .2 0 .3.1.1 0 .2.1.2.2l4.8 7.6v-7.5c0-.1.1-.2.1-.3.1-.1.2-.1.3-.1h2.7c.1 0 .2 0 .3.1s.1.2.1.3V42c0 .1 0 .2-.1.3s-.2.1-.3.1h-3c-.1 0-.2 0-.2-.1l-.2-.2-4.9-8.2V42c0 .1 0 .2-.1.3s-.2.1-.3.1H5.8c-.1 0-.2 0-.3-.1s-.1-.2-.1-.3V28.8zm18.8 0s0-.1.1-.1c0-.1.1-.1.1-.1s.1-.1.2-.1H27c.1 0 .2 0 .3.1l.2.2.2.5L32.6 42v.3c-.1.1-.2.1-.4.1h-2.7c-.1 0-.3 0-.3-.1-.1-.1-.2-.2-.2-.3l-.8-2h-5l-.8 2c-.1.2-.2.3-.5.3h-2.8c-.1 0-.2 0-.3-.1s-.1-.2 0-.3l5.3-13.1zm1.7 4l-.4 1-.7 2.2-.4 1h2.9l-1.4-4.2zm20.1 2.6c0 .7-.1 1.3-.2 1.9-.2.6-.4 1.2-.7 1.7a7.55 7.55 0 0 1-2.5 2.5c-.5.3-1.1.5-1.7.7s-1.3.2-1.9.2h-4.6c-.1 0-.2 0-.3-.1-.1 0-.1-.2-.1-.3V28.9c0-.1 0-.2.1-.3s.2-.1.3-.1h4.6c.6 0 1.3.1 1.9.2.6.2 1.2.4 1.7.7s1 .7 1.5 1.1a7.55 7.55 0 0 1 1.1 1.4c.3.5.5 1.1.7 1.7 0 .6.1 1.2.1 1.8zm-8.5-3.6V39H39c.5 0 .9-.1 1.3-.3s.8-.4 1.1-.8c.3-.3.5-.7.7-1.1s.3-.9.3-1.4-.1-1-.3-1.5c-.2-.4-.5-.8-.8-1.2-.3-.3-.7-.6-1.2-.7-.5-.2-1-.3-1.4-.3l-1.3.1zm13.3-3s0-.1.1-.1c0-.1.1-.1.1-.1s.1-.1.2-.1h2.6c.1 0 .2 0 .3.1l.2.2.2.5L59.3 42v.3c0 .1-.2.1-.4.1h-2.7c-.1 0-.3 0-.3-.1-.1-.1-.2-.2-.2-.3l-.8-2h-5l-.8 2c-.1.2-.2.3-.5.3h-2.7c-.1 0-.2 0-.3-.1s-.1-.2 0-.3l5.1-13.1zm1.7 4l-.4 1-.7 2.2-.4 1h2.9l-1.4-4.2z" fill="#fff"/></svg>