<?xml version="1.0" encoding="utf-8"?>
<!-- Generator: Adobe Illustrator 25.1.0, SVG Export Plug-In . SVG Version: 6.00 Build 0)  -->
<svg version="1.1" id="Capa_1" xmlns="http://www.w3.org/2000/svg" xmlns:xlink="http://www.w3.org/1999/xlink" x="0px" y="0px"
	 width="93px" height="46px" viewBox="0 0 93 46" style="enable-background:new 0 0 93 46;" xml:space="preserve">
<style type="text/css">
	.st0{fill:#BE0811;}
	.st1{fill:#FFFFFF;}
</style>
<g id="Capa_2_1_">
	<g id="Capa_1-2">
		<circle class="st0" cx="77.5" cy="23" r="12.7"/>
		<path class="st0" d="M77.5,38.5c-8.6,0-15.5-7-15.5-15.5s7-15.5,15.5-15.5S93,14.4,93,23S86,38.5,77.5,38.5z M77.5,8.7
			c-7.9,0-14.3,6.4-14.3,14.3c0,7.9,6.4,14.3,14.3,14.3c7.9,0,14.3-6.4,14.3-14.3C91.8,15.1,85.4,8.7,77.5,8.7L77.5,8.7z"/>
		<path d="M12.2,29.1H9.7l-0.2-1.2c-0.7,0.8-1.7,1.5-3.6,1.5c-3.1,0-5.9-2-5.9-6.2c0-3.9,2.4-6.5,6.3-6.5c2.9,0,5.2,1.5,5.7,4.5H8.3
			c-0.3-1-1-1.5-2-1.5C4.7,19.6,4,21,4,23.1c0,1.7,0.5,3.3,2.5,3.3c0.8,0,1.8-0.6,2-1.4H6.8v-2.6h5.4V29.1z"/>
		<path d="M18.3,24.8V29h-4V16.9h5.7c4,0,5.4,1.1,5.4,3.4c0,1.4-0.6,2.6-2,3c1.3,0.5,2.1,0.8,2.1,3.2c0,1.6-0.1,2.1,0.4,2.1V29h-4
			c-0.1-0.3-0.2-1-0.2-2.1c0-1.6-0.3-2.1-2.1-2.1L18.3,24.8z M18.3,22.2h1.6c1.2,0,1.9-0.3,1.9-1.1c0-0.8-0.7-1.3-1.6-1.3h-1.8V22.2
			z"/>
		<path d="M26.6,29l4.3-12.1h4L39.3,29h-3.9l-0.5-1.6h-3.9L30.5,29L26.6,29z M32.9,20.6l-1.2,4.3h2.5L32.9,20.6z"/>
		<path d="M40.6,29V16.9h5.3c3.9,0,6.3,1.8,6.3,5.8c0,4.6-2.5,6.3-6.4,6.3L40.6,29z M44.6,26.2h0.8c1.8,0,2.9-1,2.9-3.3
			c0-2.5-0.8-3.2-2.9-3.2h-0.8L44.6,26.2z"/>
		<path d="M65.9,22.9c0,4.1-2.8,6.4-6.4,6.4c-3.8,0-6.3-2.4-6.3-6.5c0-3.8,2.6-6.3,6.3-6.3C63.9,16.6,65.9,19.7,65.9,22.9z
			 M57.2,22.9c0,1.5,0.5,3.5,2.4,3.5c1.7,0,2.4-1.5,2.4-3.5c0-1.6-0.7-3.4-2.4-3.3C57.7,19.6,57.2,21.4,57.2,22.9L57.2,22.9z"/>
		<path class="st1" d="M72.7,15.1h9.9v3.7h-6.7l-0.5,2.3c1-0.7,2-0.8,3.2-0.8c3,0,5.3,1.8,5.3,4.9c0,4.3-3.4,5.7-6.9,5.7
			c-3.4,0-5.6-1.5-6.4-4.4l4.6-0.5c0,0,0,0.1,0,0.2c0.3,0.8,1.1,1.2,2,1.2c1.3,0,2.2-0.9,2.2-2c0-1.3-0.6-2.2-2-2.2
			c-0.7,0-1.5,0.2-1.8,0.9l-4.3-0.2L72.7,15.1z"/>
		<path class="st1" d="M85,17.6c-0.7,0-1.3-0.6-1.3-1.3c0-0.7,0.6-1.3,1.3-1.3c0.7,0,1.3,0.6,1.3,1.3c0,0,0,0,0,0
			C86.4,17,85.8,17.6,85,17.6z M85,15.6c-0.3,0-0.6,0.3-0.6,0.6c0,0.3,0.3,0.6,0.6,0.6c0.3,0,0.6-0.3,0.6-0.6c0,0,0,0,0,0
			C85.6,15.9,85.4,15.7,85,15.6L85,15.6z"/>
	</g>
</g>
</svg>
