<?xml version="1.0" encoding="utf-8"?>
<!-- Generator: Adobe Illustrator 25.1.0, SVG Export Plug-In . SVG Version: 6.00 Build 0)  -->
<svg version="1.1" id="Capa_1" xmlns="http://www.w3.org/2000/svg" xmlns:xlink="http://www.w3.org/1999/xlink" x="0px" y="0px"
	 width="93px" height="46px" viewBox="0 0 93 46" style="enable-background:new 0 0 93 46;" xml:space="preserve">
<style type="text/css">
	.st0{fill:#EA1C5D;}
	.st1{fill:#1C01BB;}
</style>
<g id="Capa_2_2_">
	<g id="Capa_1-2_1_">
		<path class="st0" d="M20.6,37.3c-0.1,0-0.2,0-0.3,0c-8.5-2-14.6-9.6-14.5-18.4C5.8,8.5,14.3,0,24.7,0s18.9,8.5,18.9,18.9
			c0,8.7-5.9,16.2-14.3,18.3c-0.7,0.2-1.3-0.2-1.5-0.9s0.2-1.3,0.9-1.5c8.8-2.2,14.2-11.2,11.9-20c-2.2-8.8-11.2-14.2-20-11.9
			S6.5,14.1,8.7,22.9c1.5,6,6.2,10.6,12.2,12c0.7,0.2,1.1,0.8,0.9,1.5C21.7,36.9,21.2,37.3,20.6,37.3L20.6,37.3z"/>
		<path class="st0" d="M24.8,46c-0.5,0-0.9-0.3-1.1-0.7l-4.2-8.7c-0.3-0.6,0-1.3,0.6-1.6c0.6-0.3,1.3,0,1.6,0.6l0,0l1.9,3.9V31
			c0-0.7,0.6-1.2,1.3-1.2c0.6,0,1.2,0.5,1.2,1.2v13.8c0,0.6-0.4,1.1-1,1.2C25,46,24.9,46,24.8,46z"/>
		<path class="st0" d="M24.8,32.2c-5,0-9.2-3.7-9.8-8.6h-1.4c-0.7,0-1.2-0.5-1.3-1.2c0-0.7,0.5-1.2,1.2-1.3c0,0,0.1,0,0.1,0h2.6
			c0.7,0,1.2,0.5,1.2,1.2l0,0c-0.1,4.1,3.2,7.5,7.3,7.5s7.5-3.2,7.5-7.3c0-0.1,0-0.1,0-0.2c0-0.7,0.5-1.2,1.2-1.2h0H36
			c0.7,0,1.2,0.6,1.2,1.3c0,0.6-0.5,1.2-1.2,1.2h-1.4C34,28.5,29.8,32.2,24.8,32.2z"/>
		<path class="st0" d="M27.6,23.1c-0.4,0-0.7-0.4-0.7-0.8c0-0.4,0.3-0.7,0.7-0.7h3.1v-1.9h-3.1c-0.4,0-0.7-0.3-0.7-0.7
			s0.3-0.7,0.7-0.7h3.1v-1.9h-3.1c-0.4,0-0.7-0.4-0.7-0.8c0-0.4,0.3-0.7,0.7-0.7h3.1V13h-3.1c-0.4,0-0.7-0.3-0.7-0.7
			s0.3-0.7,0.7-0.7h3.1c-0.4-3.2-3.3-5.5-6.5-5.1c-2.7,0.3-4.7,2.4-5.1,5.1h3.1c0.4,0,0.7,0.3,0.7,0.7S22.5,13,22.1,13H19v1.9h3.1
			c0.4,0,0.7,0.4,0.7,0.8c0,0.4-0.3,0.7-0.7,0.7H19v1.9h3.1c0.4,0,0.7,0.3,0.7,0.7s-0.3,0.7-0.7,0.7H19v1.9h3.1
			c0.4,0,0.7,0.4,0.7,0.8c0,0.4-0.3,0.7-0.7,0.7H19c0.4,3.2,3.3,5.5,6.5,5.1c2.7-0.3,4.7-2.4,5.1-5.1L27.6,23.1z"/>
		<path class="st1" d="M49.1,9.5h3.5v2.2h-6V2.2h2.5V9.5z"/>
		<path class="st1" d="M55.6,10.6L55,11.8h-2.6v-0.3l4.4-9.4H58l4.4,9.4v0.3h-2.6l-0.6-1.2H55.6z M56.4,8.5h2l-1-2.3L56.4,8.5z"/>
		<path class="st1" d="M52.6,15.9h-3.5v1.4h3.2v2.2h-3.2V21h3.6v2.3h-6.1v-9.6h6L52.6,15.9z"/>
		<path class="st1" d="M56.6,18.3v4.9h-2.5v-9.6h0.8l5,4.7v-4.7h2.5v9.6h-0.7L56.6,18.3z"/>
		<path class="st1" d="M63.4,15.9v-2.2h7.1v2.2h-2.3v7.4h-2.4v-7.4L63.4,15.9z"/>
		<path class="st1" d="M79.7,22.9v0.4h-2.7l-1.6-3h-1.3v3h-2.5v-9.6c1.4,0,2.8,0,4.2,0c2.3,0,3.5,1.7,3.5,3.4c0,1.1-0.5,2.2-1.4,2.8
			L79.7,22.9z M75.8,18.2c0.7,0,1-0.6,1-1.2s-0.3-1.2-1-1.2h-1.7v2.4H75.8z"/>
		<path class="st1" d="M86.8,15.9h-3.5v1.4h3.2v2.2h-3.2V21H87v2.3h-6.1v-9.6h6L86.8,15.9z"/>
		<path class="st1" d="M50.2,30.6L51,28l1.2-2.9h2.7v0.4l-4.1,9.3h-1l-4.2-9.3v-0.4h2.7l1.2,2.9L50.2,30.6L50.2,30.6z"/>
		<path class="st1" d="M60.2,32.8v2h-4.9v-2h1.2v-5.5h-1.1v-2h4.7v2h-1.1v5.5H60.2z"/>
		<path class="st1" d="M63.5,31.8c0,0.7,0.8,1,1.5,1c0.7,0,1.5-0.3,1.5-0.9c0-0.9-1.1-1-1.8-1c-1.8-0.1-3.5-0.8-3.5-2.8
			c0-2.1,1.8-3.1,3.7-3.1c1.9,0,3.7,1.1,3.7,3.1h-2.3c0-0.7-0.6-0.9-1.3-0.9c-0.6,0-1.3,0.2-1.3,0.9c0,0.6,0.5,0.8,1.5,0.9
			c2,0.2,3.8,0.7,3.8,3c0,2-2,3.1-3.9,3.1c-2,0-4-1-3.9-3.2L63.5,31.8z"/>
		<path class="st1" d="M69.3,27.4v-2.2h7.1v2.2h-2.3v7.4h-2.4v-7.4H69.3z"/>
		<path class="st1" d="M78.7,33.6l-0.5,1.2h-2.6v-0.3l4.4-9.4h1.1l4.4,9.4v0.3h-2.6l-0.6-1.2L78.7,33.6z M79.5,31.5h2l-1-2.3
			L79.5,31.5z"/>
		<path class="st1" d="M48.6,37.7c-0.6,0-1.1,0.5-1.1,1.1c0,0.6,0.5,1.1,1.1,1.1c0.4,0,0.7-0.2,0.9-0.4L50,40
			c-0.4,0.4-0.9,0.6-1.4,0.6c-1.1,0-1.9-0.8-1.9-1.8s0.8-1.8,1.9-1.8c0.5,0,1,0.2,1.4,0.6l-0.5,0.6C49.3,37.8,48.9,37.7,48.6,37.7z"
			/>
		<path class="st1" d="M54,38.8c0,1-0.8,1.8-1.9,1.8c-1.1,0-1.9-0.8-1.9-1.8S51,37,52.1,37C53.1,37,54,37.7,54,38.8z M51,38.8
			c0,0.6,0.5,1.1,1.1,1.1c0.6,0,1.1-0.5,1.1-1.1c0-0.6-0.5-1.1-1.1-1.1C51.5,37.7,51,38.2,51,38.8C51,38.8,51,38.8,51,38.8z"/>
		<path class="st1" d="M55.2,37l1.7,2.3V37h0.8v3.6H57l-1.7-2.3v2.3h-0.8V37H55.2z"/>
		<path class="st1" d="M63,38.2c0,0.8-0.5,1.3-1.4,1.3h-0.7v1h-0.8V37h1.5C62.5,37,63,37.4,63,38.2z M62.3,38.3
			c0-0.4-0.3-0.6-0.7-0.6h-0.7v1.2h0.7C62,38.9,62.3,38.7,62.3,38.3L62.3,38.3z"/>
		<path class="st1" d="M65.7,39.9H64l-0.3,0.7h-0.8l1.6-3.6h0.8l1.5,3.6h-0.9L65.7,39.9z M65.4,39.2l-0.6-1.4l-0.6,1.4H65.4z"/>
		<path class="st1" d="M70.7,38.8c0,1-0.8,1.8-1.9,1.8c-1.1,0-1.9-0.8-1.9-1.8s0.8-1.8,1.9-1.8C69.8,37,70.7,37.7,70.7,38.8z
			 M67.6,38.8c0,0.6,0.5,1.1,1.1,1.1c0.6,0,1.1-0.5,1.1-1.1c0-0.6-0.5-1.1-1.1-1.1S67.7,38.2,67.6,38.8
			C67.6,38.8,67.6,38.8,67.6,38.8z"/>
		<path class="st1" d="M74.3,39.9c0.5,0,0.8-0.3,0.8-0.8V37h0.8v2.1c0,0.9-0.6,1.5-1.6,1.5c-1,0-1.6-0.6-1.6-1.5V37h0.8v2.1
			C73.5,39.6,73.8,39.9,74.3,39.9z"/>
		<path class="st1" d="M79,38.8h0.7v1.4c-0.4,0.3-0.9,0.5-1.5,0.5c-1.1,0-1.9-0.8-1.9-1.8s0.8-1.8,2-1.8c0.5,0,1,0.2,1.4,0.5
			l-0.5,0.6c-0.3-0.2-0.6-0.4-1-0.4c-0.6,0-1.1,0.5-1.1,1.1c0,0.6,0.5,1.1,1.1,1.1c0,0,0,0,0,0c0.2,0,0.5-0.1,0.7-0.2L79,38.8z"/>
		<path class="st1" d="M82.8,39.9h-1.7l-0.3,0.7H80l1.6-3.6h0.8l1.5,3.6h-0.9L82.8,39.9z M82.5,39.2L82,37.8l-0.6,1.4H82.5z"/>
		<path class="st1" d="M87.2,37v0.5l-2,2.4h2v0.7h-3.1V40l2-2.4h-1.9V37H87.2z"/>
	</g>
</g>
</svg>
