<svg id="Capa_1" data-name="Capa 1" xmlns="http://www.w3.org/2000/svg" width="50" height="20" viewBox="0 0 50 20"><defs><style>.cls-1{fill:#121b72;}.cls-2{fill:#fff;}.cls-3{fill:#40e6dd;}</style></defs><rect class="cls-1" x="13.68" y="10.67" width="36.27" height="4.48"/><rect class="cls-1" x="13.68" y="15.52" width="26.07" height="4.48"/><rect class="cls-1" x="13.68" width="36.32" height="10.36"/><path class="cls-2" d="M20,7.88l-.41-1.72A.47.47,0,0,0,19,5.73h-.7V7.88H16.78V2.16a21.33,21.33,0,0,1,2.31-.08c1.6,0,2.28.4,2.28,1.72,0,.74-.28,1.3-1.13,1.39v0a1,1,0,0,1,.88.88l.47,1.76Zm-.9-3.29c.58,0,.74-.14.74-.69s-.16-.68-.74-.68h-.75V4.59Z"/><path class="cls-2" d="M26.05,7.88H24.86l-.13-.59A2.46,2.46,0,0,1,23.06,8a1,1,0,0,1-1.19-1.15V3.76h1.5V6.37c0,.26.1.36.37.36a1.9,1.9,0,0,0,.79-.21V3.76h1.52Z"/><path class="cls-2" d="M28.53,6.45c0,.26.1.35.39.35h.48l.17,1a4.5,4.5,0,0,1-1.3.19A1.11,1.11,0,0,1,27,6.82V4.71h-.7V3.8l.7,0V2.65h1.52V3.76h1.06v1H28.53Z"/><path class="cls-2" d="M33.86,5.25V7.88H32.67l-.15-.6A1.82,1.82,0,0,1,31.06,8c-.77,0-1.39-.41-1.39-1.18V6.4c0-.66.5-1.05,1.32-1.05h1.37v-.1c0-.35-.14-.48-.57-.48s-1.08,0-1.77.06l-.13-1a15.67,15.67,0,0,1,2.25-.2C33.25,3.65,33.86,4,33.86,5.25ZM31.15,6.6c0,.21.12.33.4.33a1.54,1.54,0,0,0,.81-.29V6.13H31.5c-.25,0-.35.14-.35.33Z"/><path class="cls-3" d="M40.08,2.27,40,3.41l-1.69,0c-.68,0-.87.35-.87,1.63s.19,1.64.87,1.64a15.46,15.46,0,0,0,1.81-.07l.12,1.13A5.29,5.29,0,0,1,38.27,8c-1.83,0-2.5-.78-2.5-3s.67-3,2.5-3A6,6,0,0,1,40.08,2.27Z"/><path class="cls-3" d="M43.42,3.36V7.88H41.86V3.36H40.22V2.16h4.85v1.2Z"/><path class="cls-3" d="M46.43,1.91a.38.38,0,0,1,.43.44v.43c0,.3-.14.44-.43.44h-.65a.39.39,0,0,1-.44-.44V2.35a.39.39,0,0,1,.44-.44Zm-1.07,6V3.76h1.5V7.88Z"/><path class="cls-3" d="M17.82,11.85l0,.28a4.36,4.36,0,0,0-.54,0c-.33,0-.43.16-.43.71s.1.72.43.72a4.62,4.62,0,0,0,.58,0l0,.27a1.73,1.73,0,0,1-.61.08c-.6,0-.82-.27-.82-1s.22-1,.82-1A1.84,1.84,0,0,1,17.82,11.85Z"/><path class="cls-3" d="M18.71,11.78c.07,0,.1,0,.1.11V12c0,.07,0,.11-.1.11h-.16c-.07,0-.1,0-.1-.11v-.15c0-.07,0-.11.1-.11Zm-.26,2V12.4h.36v1.42Z"/><path class="cls-3" d="M20.7,13.54l0,.22a1.47,1.47,0,0,1-.59.1c-.52,0-.71-.21-.71-.75s.2-.75.69-.75.64.17.64.49-.11.41-.38.41h-.58c0,.26.14.31.38.31A4.77,4.77,0,0,0,20.7,13.54ZM19.8,13h.49c.12,0,.13-.09.13-.16s-.06-.21-.28-.21S19.82,12.72,19.8,13Z"/><path class="cls-3" d="M22.71,12.76v1.06h-.36v-1c0-.16,0-.2-.15-.2a1,1,0,0,0-.47.17v1h-.36V12.4h.3l0,.21a1.07,1.07,0,0,1,.62-.25A.36.36,0,0,1,22.71,12.76Z"/><path class="cls-3" d="M24.51,12.44l0,.22h-.39c-.29,0-.39.1-.39.45s.1.46.39.46l.42,0,0,.23a1.51,1.51,0,0,1-.53.09c-.5,0-.69-.2-.69-.75s.19-.75.7-.75A1.4,1.4,0,0,1,24.51,12.44Z"/><path class="cls-3" d="M25.38,11.78a.1.1,0,0,1,.11.11V12a.1.1,0,0,1-.11.11h-.16c-.07,0-.1,0-.1-.11v-.15c0-.07,0-.11.1-.11Zm-.25,2V12.4h.35v1.42Z"/><path class="cls-3" d="M27.41,12.86v1h-.28l0-.21a.77.77,0,0,1-.55.25.41.41,0,0,1-.45-.42V13.3c0-.23.16-.36.42-.36h.54v-.09c0-.16-.06-.2-.26-.2l-.6,0,0-.25a4.38,4.38,0,0,1,.71-.07C27.23,12.36,27.41,12.48,27.41,12.86Zm-1,.54c0,.12.06.17.19.17a.72.72,0,0,0,.42-.17v-.22h-.45c-.12,0-.16.07-.16.16Z"/><path class="cls-3" d="M28.28,13.43c.1,0,.12,0,.12.12v.19a1,1,0,0,1-.12.49l-.16,0a2.22,2.22,0,0,0,0-.37c-.06,0-.09,0-.09-.11v-.16c0-.09,0-.12.13-.12Z"/><path class="cls-3" d="M30.77,12.13v1.69h-.36V12.13h-.62v-.31h1.6v.31Z"/><path class="cls-3" d="M32.84,13.54l0,.22a1.44,1.44,0,0,1-.59.1c-.51,0-.71-.21-.71-.75s.21-.75.69-.75.65.17.65.49-.12.41-.38.41H32c0,.26.13.31.38.31A4.92,4.92,0,0,0,32.84,13.54Zm-.9-.53h.49c.11,0,.13-.09.13-.16s-.07-.21-.28-.21S32,12.72,31.94,13Z"/><path class="cls-3" d="M34.65,12.44l0,.22h-.39c-.29,0-.39.1-.39.45s.1.46.39.46l.43,0,0,.23a1.46,1.46,0,0,1-.52.09c-.51,0-.7-.2-.7-.75s.19-.75.7-.75A1.49,1.49,0,0,1,34.65,12.44Z"/><path class="cls-3" d="M36.58,12.76v1.06h-.36v-1c0-.16,0-.2-.15-.2a1,1,0,0,0-.47.17v1h-.35V12.4h.29l0,.21a1,1,0,0,1,.61-.25A.36.36,0,0,1,36.58,12.76Z"/><path class="cls-3" d="M38.59,13.11c0,.55-.19.75-.7.75s-.7-.2-.7-.75.19-.75.7-.75S38.59,12.57,38.59,13.11Zm-1,0c0,.37.07.47.33.47s.34-.1.34-.47-.08-.47-.34-.47S37.56,12.74,37.56,13.11Z"/><path class="cls-3" d="M39.57,13.38a.15.15,0,0,0,.17.17h.12l0,.26a.94.94,0,0,1-.3,0,.35.35,0,0,1-.38-.39V11.79h.35Z"/><path class="cls-3" d="M41.75,13.11c0,.55-.18.75-.69.75s-.71-.2-.71-.75.19-.75.71-.75S41.75,12.57,41.75,13.11Zm-1,0c0,.37.07.47.34.47s.33-.1.33-.47-.08-.47-.33-.47S40.72,12.74,40.72,13.11Z"/><path class="cls-3" d="M43.57,12.59a.56.56,0,0,1,0,.23c0,.32-.16.46-.64.46l-.26,0a.12.12,0,0,0,.08.19l.52.07c.28,0,.39.17.39.42s-.18.45-.71.45-.72-.11-.72-.43c0-.15.07-.23.22-.31a.3.3,0,0,1,0-.44.38.38,0,0,1-.2-.39c0-.33.16-.46.64-.46a1.26,1.26,0,0,1,.37,0h.44l0,.17Zm-.45,1.18-.4,0a.26.26,0,0,0-.11.2c0,.17.07.19.37.19s.38,0,.38-.19S43.32,13.79,43.12,13.77Zm.17-.95c0-.16-.08-.21-.32-.21s-.32.05-.32.21.08.21.32.21S43.29,13,43.29,12.82Z"/><path class="cls-3" d="M44.39,12.24l-.11-.15.55-.43.18.26Zm-.06,1.58V12.4h.35v1.42Z"/><path class="cls-3" d="M46.61,12.86v1h-.28l0-.21a.77.77,0,0,1-.55.25.41.41,0,0,1-.45-.42V13.3c0-.23.16-.36.42-.36h.54v-.09c0-.16-.06-.2-.26-.2l-.6,0,0-.25a4.38,4.38,0,0,1,.71-.07C46.43,12.36,46.61,12.48,46.61,12.86Zm-1,.54c0,.12.06.17.19.17a.72.72,0,0,0,.42-.17v-.22H45.8a.14.14,0,0,0-.15.16Z"/><path class="cls-2" d="M17.68,18.29l0,.23a1.63,1.63,0,0,1-.59.1c-.51,0-.71-.21-.71-.75s.21-.75.69-.75.65.17.65.49-.12.41-.38.41h-.58c0,.26.13.31.38.31S17.51,18.31,17.68,18.29Zm-.9-.52h.49c.11,0,.13-.09.13-.16s-.07-.21-.29-.21S16.79,17.47,16.78,17.77Z"/><path class="cls-2" d="M19.31,18.58v-2h.36v2Z"/><path class="cls-2" d="M21.71,17.51v1.07h-.35v-1c0-.16,0-.2-.15-.2a1,1,0,0,0-.47.17v1h-.36V17.16h.3l0,.21a1.09,1.09,0,0,1,.62-.25A.35.35,0,0,1,21.71,17.51Z"/><path class="cls-2" d="M23.71,17.51v1.07h-.35v-1c0-.16,0-.2-.15-.2a1,1,0,0,0-.47.17v1h-.35V17.16h.29l0,.21a1,1,0,0,1,.61-.25A.35.35,0,0,1,23.71,17.51Z"/><path class="cls-2" d="M25.73,17.87c0,.55-.19.75-.7.75s-.71-.2-.71-.75.2-.75.71-.75S25.73,17.33,25.73,17.87Zm-1,0c0,.37.08.47.34.47s.33-.1.33-.47-.07-.47-.33-.47S24.69,17.5,24.69,17.87Z"/><path class="cls-2" d="M27.19,18.5a.12.12,0,0,1-.11.08h-.31a.12.12,0,0,1-.12-.08l-.49-1.34h.38l.29.94c0,.08.05.16.07.24h0A2.17,2.17,0,0,0,27,18.1l.3-.94h.37Z"/><path class="cls-2" d="M29.42,17.62v1h-.28l0-.21a.74.74,0,0,1-.54.24.4.4,0,0,1-.45-.41v-.14c0-.23.15-.36.42-.36h.53v-.09c0-.16-.06-.2-.26-.2l-.59,0,0-.25a4.49,4.49,0,0,1,.71-.07C29.23,17.12,29.42,17.24,29.42,17.62Zm-1,.54c0,.12.06.17.19.17a.69.69,0,0,0,.41-.17v-.22h-.45c-.12,0-.15.06-.15.16Z"/><path class="cls-2" d="M31.22,17.2l0,.22h-.4c-.29,0-.39.09-.39.45s.1.46.39.46l.43,0,0,.23a1.46,1.46,0,0,1-.52.09c-.51,0-.69-.2-.69-.75s.18-.75.69-.75A1.49,1.49,0,0,1,31.22,17.2Z"/><path class="cls-2" d="M32.09,16.54a.09.09,0,0,1,.1.1v.16c0,.07,0,.1-.1.1h-.16c-.07,0-.1,0-.1-.1v-.16a.09.09,0,0,1,.1-.1Zm-.26,2V17.16h.35v1.42Z"/><path class="cls-2" d="M34.22,17.87c0,.55-.19.75-.7.75s-.7-.2-.7-.75.19-.75.7-.75S34.22,17.33,34.22,17.87Zm-1,0c0,.37.07.47.33.47s.34-.1.34-.47-.08-.47-.34-.47S33.19,17.5,33.19,17.87Zm.22-.87-.11-.15.54-.43.19.26Z"/><path class="cls-2" d="M36.17,17.51v1.07h-.36v-1c0-.16,0-.2-.15-.2a1,1,0,0,0-.47.17v1h-.36V17.16h.3l0,.21a1.09,1.09,0,0,1,.62-.25A.35.35,0,0,1,36.17,17.51Z"/></svg>