<svg xmlns="http://www.w3.org/2000/svg" xmlns:xlink="http://www.w3.org/1999/xlink" width="156" height="46.667" viewBox="0 0 117 35"><defs><linearGradient id="A" x1="1.96" y1="23.437" x2="2.259" y2="23.437" xlink:href="#Z"><stop offset="0" stop-color="rgb(74.901961%,16.078431%,17.647059%)"/><stop offset=".999" stop-color="rgb(89.019608%,15.686275%,16.862745%)"/><stop offset="1" stop-color="rgb(89.019608%,15.686275%,16.862745%)"/></linearGradient><linearGradient id="B" x1="4.584" y1="24.802" x2="4.902" y2="24.802" xlink:href="#Z"><stop offset="0" stop-color="rgb(74.901961%,16.078431%,17.647059%)"/><stop offset=".999" stop-color="rgb(89.019608%,15.686275%,16.862745%)"/><stop offset="1" stop-color="rgb(89.019608%,15.686275%,16.862745%)"/></linearGradient><linearGradient id="C" x1="6.051" y1="28.401" x2="6.53" y2="28.401" xlink:href="#Z"><stop offset="0" stop-color="rgb(74.901961%,16.078431%,17.647059%)"/><stop offset=".999" stop-color="rgb(89.019608%,15.686275%,16.862745%)"/><stop offset="1" stop-color="rgb(89.019608%,15.686275%,16.862745%)"/></linearGradient><linearGradient id="D" x1="7.851" y1="6.352" x2="8.215" y2="6.352" xlink:href="#Z"><stop offset="0" stop-color="rgb(74.901961%,16.078431%,17.647059%)"/><stop offset=".999" stop-color="rgb(89.019608%,15.686275%,16.862745%)"/><stop offset="1" stop-color="rgb(89.019608%,15.686275%,16.862745%)"/></linearGradient><linearGradient id="E" x1="11.958" y1="5.604" x2="12.274" y2="5.604" xlink:href="#Z"><stop offset="0" stop-color="rgb(74.901961%,16.078431%,17.647059%)"/><stop offset=".999" stop-color="rgb(89.019608%,15.686275%,16.862745%)"/><stop offset="1" stop-color="rgb(89.019608%,15.686275%,16.862745%)"/></linearGradient><linearGradient id="F" x1="6.465" y1="28.25" x2="6.584" y2="28.25" xlink:href="#Z"><stop offset="0" stop-color="rgb(74.901961%,16.078431%,17.647059%)"/><stop offset=".999" stop-color="rgb(89.019608%,15.686275%,16.862745%)"/><stop offset="1" stop-color="rgb(89.019608%,15.686275%,16.862745%)"/></linearGradient><linearGradient id="G" x1="3.882" y1="8.65" x2="4.562" y2="8.65" xlink:href="#Z"><stop offset="0" stop-color="rgb(74.901961%,16.078431%,17.647059%)"/><stop offset=".999" stop-color="rgb(89.019608%,15.686275%,16.862745%)"/><stop offset="1" stop-color="rgb(89.019608%,15.686275%,16.862745%)"/></linearGradient><linearGradient id="H" x1="14.714" y1="1.883" x2="15.821" y2="1.883" xlink:href="#Z"><stop offset="0" stop-color="rgb(74.901961%,16.078431%,17.647059%)"/><stop offset=".999" stop-color="rgb(89.019608%,15.686275%,16.862745%)"/><stop offset="1" stop-color="rgb(89.019608%,15.686275%,16.862745%)"/></linearGradient><linearGradient id="I" x1="89.082" y1="1.953" x2="89.136" y2="1.953" xlink:href="#Z"><stop offset="0" stop-color="rgb(74.901961%,16.078431%,17.647059%)"/><stop offset=".999" stop-color="rgb(89.019608%,15.686275%,16.862745%)"/><stop offset="1" stop-color="rgb(89.019608%,15.686275%,16.862745%)"/></linearGradient><linearGradient id="J" x1="6.193" y1="13.717" x2="6.438" y2="13.717" xlink:href="#Z"><stop offset="0" stop-color="rgb(74.901961%,16.078431%,17.647059%)"/><stop offset=".999" stop-color="rgb(89.019608%,15.686275%,16.862745%)"/><stop offset="1" stop-color="rgb(89.019608%,15.686275%,16.862745%)"/></linearGradient><linearGradient id="K" x1="15.75" y1="33.968" x2="16.445" y2="33.968" xlink:href="#Z"><stop offset="0" stop-color="rgb(74.901961%,16.078431%,17.647059%)"/><stop offset=".999" stop-color="rgb(89.019608%,15.686275%,16.862745%)"/><stop offset="1" stop-color="rgb(89.019608%,15.686275%,16.862745%)"/></linearGradient><linearGradient id="L" x1="22.263" y1="33.92" x2="22.563" y2="33.92" xlink:href="#Z"><stop offset="0" stop-color="rgb(74.901961%,16.078431%,17.647059%)"/><stop offset=".999" stop-color="rgb(89.019608%,15.686275%,16.862745%)"/><stop offset="1" stop-color="rgb(89.019608%,15.686275%,16.862745%)"/></linearGradient><linearGradient id="M" x1="99.356" y1="14.697" x2="100.27" y2="14.697" xlink:href="#Z"><stop offset="0" stop-color="rgb(74.901961%,16.078431%,17.647059%)"/><stop offset=".999" stop-color="rgb(89.019608%,15.686275%,16.862745%)"/><stop offset="1" stop-color="rgb(89.019608%,15.686275%,16.862745%)"/></linearGradient><linearGradient id="N" x1="30.642" y1="1.882" x2="31.685" y2="1.882" xlink:href="#Z"><stop offset="0" stop-color="rgb(74.901961%,16.078431%,17.647059%)"/><stop offset=".999" stop-color="rgb(89.019608%,15.686275%,16.862745%)"/><stop offset="1" stop-color="rgb(89.019608%,15.686275%,16.862745%)"/></linearGradient><linearGradient id="O" x1="98.136" y1="14.301" x2="99.347" y2="14.301" xlink:href="#Z"><stop offset="0" stop-color="rgb(74.901961%,16.078431%,17.647059%)"/><stop offset=".999" stop-color="rgb(89.019608%,15.686275%,16.862745%)"/><stop offset="1" stop-color="rgb(89.019608%,15.686275%,16.862745%)"/></linearGradient><linearGradient id="P" x1="103.737" y1="14.726" x2="105.881" y2="14.726" xlink:href="#Z"><stop offset="0" stop-color="rgb(74.901961%,16.078431%,17.647059%)"/><stop offset=".999" stop-color="rgb(89.019608%,15.686275%,16.862745%)"/><stop offset="1" stop-color="rgb(89.019608%,15.686275%,16.862745%)"/></linearGradient><linearGradient id="Q" x1="108.034" y1="17.22" x2="108.76" y2="17.22" xlink:href="#Z"><stop offset="0" stop-color="rgb(74.901961%,16.078431%,17.647059%)"/><stop offset=".999" stop-color="rgb(89.019608%,15.686275%,16.862745%)"/><stop offset="1" stop-color="rgb(89.019608%,15.686275%,16.862745%)"/></linearGradient><linearGradient id="R" x1="109.248" y1="17.21" x2="110.408" y2="17.21" xlink:href="#Z"><stop offset="0" stop-color="rgb(74.901961%,16.078431%,17.647059%)"/><stop offset=".999" stop-color="rgb(89.019608%,15.686275%,16.862745%)"/><stop offset="1" stop-color="rgb(89.019608%,15.686275%,16.862745%)"/></linearGradient><linearGradient id="S" x1="96.442" y1="14.543" x2="97.612" y2="14.543" xlink:href="#Z"><stop offset="0" stop-color="rgb(74.901961%,16.078431%,17.647059%)"/><stop offset=".999" stop-color="rgb(89.019608%,15.686275%,16.862745%)"/><stop offset="1" stop-color="rgb(89.019608%,15.686275%,16.862745%)"/></linearGradient><linearGradient id="T" x1="100.644" y1="14.382" x2="101.712" y2="14.382" xlink:href="#Z"><stop offset="0" stop-color="rgb(74.901961%,16.078431%,17.647059%)"/><stop offset=".999" stop-color="rgb(89.019608%,15.686275%,16.862745%)"/><stop offset="1" stop-color="rgb(89.019608%,15.686275%,16.862745%)"/></linearGradient><linearGradient id="U" x1="101.799" y1="14.596" x2="102.558" y2="14.596" xlink:href="#Z"><stop offset="0" stop-color="rgb(74.901961%,16.078431%,17.647059%)"/><stop offset=".999" stop-color="rgb(89.019608%,15.686275%,16.862745%)"/><stop offset="1" stop-color="rgb(89.019608%,15.686275%,16.862745%)"/></linearGradient><linearGradient id="V" x1="96.771" y1="15.179" x2="97.792" y2="15.179" xlink:href="#Z"><stop offset="0" stop-color="rgb(74.901961%,16.078431%,17.647059%)"/><stop offset=".999" stop-color="rgb(89.019608%,15.686275%,16.862745%)"/><stop offset="1" stop-color="rgb(89.019608%,15.686275%,16.862745%)"/></linearGradient><linearGradient id="W" x1="108.036" y1="22.764" x2="108.844" y2="22.764" xlink:href="#Z"><stop offset="0" stop-color="rgb(74.901961%,16.078431%,17.647059%)"/><stop offset=".999" stop-color="rgb(89.019608%,15.686275%,16.862745%)"/><stop offset="1" stop-color="rgb(89.019608%,15.686275%,16.862745%)"/></linearGradient><linearGradient id="X" x1="111.363" y1="22.596" x2="112.345" y2="22.596" xlink:href="#Z"><stop offset="0" stop-color="rgb(74.901961%,16.078431%,17.647059%)"/><stop offset=".999" stop-color="rgb(89.019608%,15.686275%,16.862745%)"/><stop offset="1" stop-color="rgb(89.019608%,15.686275%,16.862745%)"/></linearGradient><linearGradient id="Y" x1="111.847" y1="23.888" x2="112.576" y2="23.888" xlink:href="#Z"><stop offset="0" stop-color="rgb(74.901961%,16.078431%,17.647059%)"/><stop offset=".999" stop-color="rgb(89.019608%,15.686275%,16.862745%)"/><stop offset="1" stop-color="rgb(89.019608%,15.686275%,16.862745%)"/></linearGradient><linearGradient id="Z" gradientUnits="userSpaceOnUse"/></defs><path d="M1.883 23.305h.3v.27h-.3zm0 0" fill="url(#A)"/><path d="M4.492 24.625h.32v.348h-.32zm0 0" fill="url(#B)"/><path d="M6.027 28.32h.48v.164h-.48zm0 0" fill="url(#C)"/><path d="M7.762 6.266h.363v.176h-.363zm0 0" fill="url(#D)"/><path d="M11.836 5.473h.316v.262h-.316zm0 0" fill="url(#E)"/><path d="M6.508 28.18h.12v.14h-.12zm0 0" fill="url(#F)"/><path d="M3.875 8.445h.68v.406h-.68zm0 0" fill="url(#G)"/><path d="M14.652 1.715h1.105v.336h-1.105zm0 0" fill="url(#H)"/><path d="M89.832 1.945h.05v.02h-.05zm0 0" fill="url(#I)"/><path d="M6.39 13.547h.246v.34H6.39zm0 0" fill="url(#J)"/><path d="M15.742 33.82h.69v.3h-.69zm0 0" fill="url(#K)"/><path d="M22.188 33.82h.297v.195h-.297zm0 0" fill="url(#L)"/><path d="M99.395 14.55h.914v.29h-.914zm0 0" fill="url(#M)"/><path d="M30.684 1.715h1.043v.336h-1.043zm0 0" fill="url(#N)"/><path d="M98.066 14.207h1.21v.184h-1.21zm0 0" fill="url(#O)"/><path d="M103.816 14.508h2.14v.43h-2.14zm0 0" fill="url(#P)"/><path d="M108.04 17.117h.727v.21h-.727zm0 0" fill="url(#Q)"/><path d="M109.254 17.12h1.156v.18h-1.156zm0 0" fill="url(#R)"/><path d="M96.426 14.406h1.168v.27h-1.168zm0 0" fill="url(#S)"/><path d="M100.66 14.29h1.066v.184h-1.066zm0 0" fill="url(#T)"/><path d="M101.797 14.39h.762v.406h-.762zm0 0" fill="url(#U)"/><path d="M96.723 15.098h1.023v.164h-1.023zm0 0" fill="url(#V)"/><path d="M108.063 22.625h.813v.273h-.812zm0 0" fill="url(#W)"/><path d="M111.387 22.496h.98v.195h-.98zm0 0" fill="url(#X)"/><path d="M116.7 20.38c-1.8-.055-3.16-.047-4.074.016l-2.066.14c-.344-.1-.7-.125-1.055-.102-.102.016-.2.05-.29.105s-.187.1-.29.11c-.457.03-.836-.18-1.14-.625-.418-.008-.836-.066-1.238-.18l-6.098-.72c.094-.12.172-.19.23-.19.176.043.785.035 1.813-.035l.473.23.598-.04c.28-.082.504-.12.676-.137a2.27 2.27 0 0 1-.562-.312l3.773-.258c1.234.094 2.13.1 2.69-.008.2.023.39.102.555.223.047-.062.62-.13 1.703-.203a1.6 1.6 0 0 0 .426-.117 1.41 1.41 0 0 1 .328-.109c-.508.098-1.38.066-2.617-.086-.105-.035-.2-.086-.29-.152.074-.055.156-.1.246-.105l-3.36-.383c-.086.18-.22.28-.39.29-.11.008-.266-.035-.453-.145-.402.094-.816.094-1.22 0-.086.18-.22.246-.402.2-.477-.082-.81-.176-.996-.28.066-.074.145-.14.23-.19.422.1.77.12 1.06.102l-.03-.172c.07.055.133.078.188.078s.105-.04.156-.102c-.81 0-1.246-.027-1.312-.086l3.1-.215-3.715-.44-.312.195c-.066-.055-.078-.117-.03-.176l-1.86-.223c-.055.008-.195-.047-.414-.145s-.383-.152-.496-.14c.063.055.125.078.184.074-.047.066-.125.098-.242.105a3.29 3.29 0 0 0-.582-.402l-1.316-.172c.004-.03.016-.148.02-.352-.19.246-.37.38-.547.387-.63.047-1.055-.102-1.285-.437l-1.066.426-1.29-1.05.648-.305.258-.023a.63.63 0 0 1 .297.246c.344-.027.605-.012.79.03-.113-.035-.195-.133-.215-.25.69-.047 1.1-.102 1.188-.168a4.01 4.01 0 0 0-1.656-.062c-.77-.117-1.414-.164-1.93-.13l2.207-.617a9.15 9.15 0 0 1-1.316-.82c-1.156.414-2.375.566-3.625.695-.55.055-1.484-.78-2.414-1.656a.79.79 0 0 0 .145-.176l.965-.848c-.07-.055-.387-.12-.957-.203-.383-.1-.648-.25-.812-.473.95-.586 1.69-.922 2.227-1.02-.352-.27-.562-.465-.645-.574-.03-.176.11-.457.4-.863.305-.395.434-.742.383-1.027-.004-.062-.125-.125-.355-.2s-.344-.137-.355-.195l.297-.457c-.184.012-.31-.012-.38-.062l1.21-1.047-.77-.21-.043-.258c.352-.492.633-.832.844-1.023-.367-.383-.684-.63-.95-.727.086-.074.184-.137.285-.18-.367.102-.594-.06-.668-.5-.773-.242-1.348-.355-1.707-.328-.1-.07-.168-.156-.227-.25C86.4.762 85.844.71 85.543.73L71.648 2.426c-.695.078-15.102.074-26.457.074-.062-.004-.12-.012-.18-.03-1.898-.277-3.297-.53-4.195-.762-.582-.004-1.168-.023-1.75-.06l-.398.207c-2.008-.273-3.383-.383-4.13-.332l-.605.04c-.06.36-.773.582-2.148.676a9.51 9.51 0 0 0-.406.285c-.898.008-1.414-.012-1.527-.055-2.008-.277-3.496-.53-4.45-.762a36.33 36.33 0 0 1-1.848-.059l-.43.207c-2.13-.273-3.6-.383-4.38-.332l-.645.04c-.06.36-.82.582-2.28.676l-.996.68c.102-.012.207.012.29.07-.074.297-.4.465-1.02.504.125-.008.19.047.207.164.03.145.027.293-.02.434.188-.008.31.012.38.066a12.23 12.23 0 0 1-.867.32 9.2 9.2 0 0 1 .758.121c-.043.13-.125.188-.246.195-.566.27-.914.4-1.035.418.523.2.95.348 1.27.445a7.04 7.04 0 0 1-1.066.246c.504.086.832.207.988.37l-.086.094a30.31 30.31 0 0 0-2.57-.535c-.352-.11-.687-.262-1-.46l.316.242c-.957.12-1.648.223-2.062.313-.14-.11-.238-.164-.3-.16-.34.145-.598.3-.75.488 1.56.543 2.82.93 3.78 1.16-.05.06-.11.094-.176.098-1.012-.227-1.75-.44-2.215-.648l-.262.11a1.31 1.31 0 0 1-.301-.16c-.05.066-.102.098-.168.102a1.07 1.07 0 0 0-.844-.121c.172-.012.344.04.484.145-.187.156-.344.344-.465.555-.523.176-.82.293-.902.352-.055-.03-.11-.066-.16-.105.05-.066.02-.234-.082-.523l-.75-.04c-.06.328-.125.656-.207.98l-.23.277a.77.77 0 0 1 .262-.105c.047-.06.148-.035.285.07-.348.492-.547.94-.605 1.355.8.77 1.21 1.234 1.242 1.4-.008-.06-.043.12-.098.53a3.9 3.9 0 0 1 .512.32l-.246.188c.027.133.098.25.19.344.113.105.176.19.184.246s-.023.152-.102.273a.5.5 0 0 0-.078.355c.023.113.2.28.543.488.184 0 .363-.04.53-.117.45.145.93.406 1.418.78-.52.21-.836.316-.957.328-.484.03-.898-.1-1.258-.363-.156.133-.266.223-.316.285-.97.063-1.46-.105-1.47-.516-.207.246-.36.402-.477.47-.008-.06-.137-.11-.395-.152l-.332.2c-.43.027-.895-.035-1.4-.168-.125-.055-.2-.105-.215-.168-.027.18-.102.305-.215.367l.23 1.387c.04.293-.098.566-.422.82l-.418-.324-1.07 1.9c.54.262 1.055.633 1.566 1.125-.316.316-.496.53-.543.652.336.152.543.285.62.402.035.23-.11.438-.445.637.14.11.238.16.297.156-.043-.293.023-.44.207-.453l.102.082a1.19 1.19 0 0 1 .344.418l.055.348a.5.5 0 0 1-.105.441c.168-.066.27-.043.29.07.074.465.066.785-.027.97L5.28 24.5l.89.906a1.69 1.69 0 0 1-.531.121c.543.316.977.555 1.31.707a1.18 1.18 0 0 0 .637-.043c.39.152.69.277.89.38l-.418.293c-.117.004-.152-.02-.098-.082l.148-.187c-.164.008-.316.082-.422.207.066.05.12.195.16.422.047.297-.047.477-.28.547.195.047.305.16.336.332-.262.31-.5.53-.723.66.184-.012.316.04.39.148.06.352-.06.766-.348 1.254a.65.65 0 0 1 .316.242c.273.16.496.23.684.22a.57.57 0 0 1-.055.266c-.03.086-.05.176-.047.266l.7-.223.2.074c-.03.102-.078.195-.14.277l.652.043c.504.086.785.3.844.648.008.055-.016.117-.062.176l-3.28.215-.422-.32c.055.152.098.246.117.28l-.187.426c.23-.137.633-.277 1.22-.434 2.062-.133 3.117-.082 3.156.148.016.117-.148.418-.496.9l-.12-.168a1 1 0 0 0-.336.195c.563.434.94.676 1.137.72a8.06 8.06 0 0 0 1.867-.387 1.51 1.51 0 0 0 .289-.457l.824-.05c.363-.027.95-.035 1.746-.03.8.012 1.38 0 1.746-.023.594.254.8.387.617.398.13-.008.25-.062.34-.152.113-.094.19-.145.254-.152l1.64-.105c1.004.113 1.598.195 1.79.234-.25-.105-.488-.238-.71-.387.504.082.848.117 1.03.105.008.06-.055.21-.203.45l.184-.012c-.1-.168.082-.262.5-.297.184-.008.375.063.6.227.684.016 1.625.188 2.848.52l.723.05a.92.92 0 0 0 .156.066c.1-.008.188-.02.285-.03l9.465.71 13.953-.062.797.063 36.176-.176 1-.242c.95-.238 1.473-.39 1.578-.457.297.04 2.367-.773 6.22-2.445l.582-.742c.754-.402 1.344-.703 1.77-.9.898-.94 1.277-1.84 1.14-2.71-.043-.305-.19-.668-.43-1.098l-.055.168-.273-.066.063-.184.254.066c-.03-.055-.066-.11-.098-.164.44-.5 1.02-.71 1.723-.645-.02-.113.004-.176.06-.18.176-.012.21.047.113.168l.918.023c.793-.11 2.125-.172 4.004-.187-1.695-.113-2.922-.18-3.672-.184l-.016-.1.945-.062a30.2 30.2 0 0 1 2.379-.031c1.074.016 1.87.004 2.383-.035.06-.004.184-.125.375-.375-.113.008-.203-.012-.27-.066l3.082-.3c-.19-.105-.57-.133-1.152-.098-1.727.06-2.77.047-3.13-.05l.086-.004c.047-.06.102-.094.16-.098l.344-.027c-.703-.062-1.133-.04-1.285.1l-.148.188c.023-.234-.145-.37-.496-.402s-.562-.11-.64-.223l1.46-.102-.184-.07 1.234-.437-.344.023a1.33 1.33 0 0 1-.422.117c-.227.016-.445-.1-.652-.305l5.5-.38a24.85 24.85 0 0 0-1.43-.254c.04-.055.098-.1.16-.098-.12.004-.242-.016-.355-.062.098-.125.133-.246.117-.36.336-.082.52-.21.547-.39 2.75-.184 4.043-.242 3.88-.176l1.672-.38M8.605 8.762c.223-.133.398-.176.53-.125l.027.172a1.5 1.5 0 0 0-.559-.047m96.922 14.578l.023.168-.285-.152-.008-.086zm.063-.707l-.027-.176.258-.016.03.172zm.355.06l-.027-.168.602-.04.027.168zm.94-2.34l-.027-.176.516-.03.027.168zm.7.04l-.027-.172.355.063.03.172zm.94 1.598l-.027-.172 1.816-.04.027.176zm0 0" fill="rgb(70.980392%,12.156863%,11.764706%)"/><path d="M111.848 23.78h.727V24h-.727zm0 0" fill="url(#Y)"/><path d="M23.77 22.168c0-.78-.273-1.383-.824-1.805s-1.54-.863-2.965-1.328-2.562-.922-3.395-1.375c-2.273-1.234-3.402-2.898-3.402-4.992 0-1.086.297-2.055.9-2.906s1.484-1.52 2.62-2.004c1.145-.477 2.418-.715 3.844-.715s2.703.258 3.82.78 1.988 1.25 2.602 2.203c.625.953.93 2.027.93 3.234h-4.117c0-.918-.293-1.633-.867-2.148s-1.387-.766-2.434-.766c-1.008 0-1.79.215-2.348.64a2.03 2.03 0 0 0-.836 1.695c0 .656.324 1.203.98 1.64s1.617.86 2.89 1.246c2.348.71 4.055 1.6 5.125 2.64s1.61 2.36 1.61 3.926c0 1.742-.652 3.105-1.96 4.098s-3.074 1.488-5.293 1.488c-1.54 0-2.94-.28-4.207-.852s-2.227-1.34-2.89-2.328-.996-2.13-.996-3.43H16.7c0 2.223 1.32 3.332 3.96 3.332.977 0 1.742-.2 2.293-.598s.816-.96.816-1.68m5.656-13.55c0-.598.2-1.1.598-1.477s.94-.578 1.625-.578 1.22.19 1.62.578.605.88.605 1.477c0 .61-.207 1.105-.61 1.496-.4.387-.95.582-1.617.582s-1.207-.195-1.613-.582a1.99 1.99 0 0 1-.609-1.496m4.215 18.836h-3.984v-14.96h3.984zm1.71-7.594c0-2.293.543-4.14 1.63-5.543s2.543-2.102 4.387-2.102c1.63 0 2.898.566 3.805 1.688l.164-1.4h3.602v14.46c0 1.31-.297 2.45-.89 3.418-.6.96-1.422 1.703-2.492 2.21s-2.328.762-3.766.762c-1.094-.004-2.18-.227-3.187-.66-1.035-.437-1.82-1.004-2.348-1.695l1.754-2.43c.992 1.113 2.19 1.672 3.598 1.672 1.06 0 1.88-.28 2.465-.848s.88-1.37.88-2.418v-.797c-.918 1.035-2.12 1.563-3.613 1.563-1.785 0-3.234-.707-4.336-2.113s-1.656-3.266-1.656-5.6v-.168zm3.97.28c0 1.367.27 2.43.813 3.207a2.57 2.57 0 0 0 2.223 1.16c1.21 0 2.078-.457 2.598-1.38v-6.316c-.53-.914-1.387-1.37-2.566-1.37a2.57 2.57 0 0 0-2.246 1.18c-.547.785-.82 1.957-.82 3.52m20.04-3.902c-.473-.066-.953-.105-1.43-.11-1.5 0-2.484.512-2.953 1.53v9.793h-3.973v-14.96h3.75l.11 1.785c.797-1.375 1.902-2.062 3.313-2.062a4.21 4.21 0 0 1 1.234.18zm.898-7.62c0-.598.2-1.1.598-1.477s.94-.578 1.625-.578 1.22.19 1.62.578.605.88.605 1.477c0 .61-.203 1.105-.613 1.496s-.945.582-1.613.582-1.207-.195-1.613-.582-.625-.93-.61-1.496m4.223 18.836h-3.988v-14.96h3.984v14.96zm1.66-7.594c0-2.324.52-4.184 1.563-5.566 1.035-1.383 2.46-2.078 4.262-2.078 1.45 0 2.645.543 3.6 1.63v-7.63h3.984v21.238h-3.6l-.19-1.594c-.988 1.246-2.262 1.87-3.816 1.87-1.75 0-3.156-.7-4.21-2.086-1.062-1.383-1.6-3.316-1.6-5.785m3.973.28c0 1.4.238 2.488.727 3.238s1.19 1.125 2.12 1.125c1.223 0 2.1-.52 2.594-1.566v-5.934c-.496-1.047-1.352-1.566-2.566-1.566-1.918-.004-2.875 1.57-2.875 4.703m10.738 5.996h1.547V27.5h-1.547zm4.223-1.453V27.5h-1.55v-7.77h2.957c.887 0 1.586.23 2.1.688s.766 1.05.766 1.793-.258 1.344-.766 1.797-1.207.68-2.1.68h-1.406zm0-1.2h1.406c.43 0 .754-.12.98-.36a1.26 1.26 0 0 0 .336-.902 1.34 1.34 0 0 0-.332-.926c-.223-.242-.555-.367-.984-.367h-1.406zm9.348.605h-2.86v2.22h3.4v1.19h-4.96v-7.77h4.94v1.2h-3.39v1.957h2.86zm0 0" fill="rgb(100%,100%,100%)"/></svg>