<?xml version="1.0" encoding="utf-8"?>
<!-- Generator: Adobe Illustrator 26.0.2, SVG Export Plug-In . SVG Version: 6.00 Build 0)  -->
<svg version="1.1" id="Capa_1" xmlns="http://www.w3.org/2000/svg" xmlns:xlink="http://www.w3.org/1999/xlink" x="0px" y="0px"
	 width="628.5px" height="686.4px" viewBox="0 0 628.5 686.4" style="enable-background:new 0 0 628.5 686.4;" xml:space="preserve"
	>
<style type="text/css">
	.st0{fill:#0F80B8;}
	.st1{fill:#0E5284;}
	.st2{fill:#8AD8D8;}
	.st3{fill:#30525F;}
	.st4{fill:#FFFFFF;}
</style>
<g>
	<g>
		<path class="st0" d="M62.4,74.5V302l404.4-31.3c78.7-9,86.2-20.5,88-150l-1.1-80.6L62.4,74.5z"/>
	</g>
	<g>
		<polygon class="st1" points="553.7,294.2 116.2,326.6 62.4,300.3 501.1,265.5 		"/>
	</g>
	<g>
		<g>
			<polygon class="st2" points="116.1,471.8 91.7,625.1 191.1,531.4 			"/>
		</g>
		<g>
			<path class="st2" d="M552.6,509.4L63.2,552V368.1c0-21.6,23.1-41.1,47-41.1l443.2-33.2L552.6,509.4z"/>
		</g>
	</g>
	<g>
		<g>
			<path class="st3" d="M206.5,132l7.6,101.1c0.6,8-1.9,15.2-7.5,21.5c-5.6,6.4-12.3,9.9-20.1,10.5l-55,4.1
				c-4.9,0.4-7.5-1.9-7.9-6.8l-10.9-145.9c-0.4-4.9,1.9-7.5,6.8-7.9l54.9-4.1c7.8-0.6,15,1.9,21.5,7.4
				C202.4,117.5,206,124.2,206.5,132 M184.5,235.5l-7.6-101.4l-32.8,2.5l7.6,101.4L184.5,235.5z"/>
		</g>
		<g>
			<path class="st3" d="M300.7,256.6l-41.8,3.1c-7.8,0.6-14.6-1.7-20.6-6.8c-5.9-5.1-9.2-11.6-9.8-19.3l-9.4-125.1
				c-0.4-4.9,1.9-7.5,6.8-7.9l62.1-4.6c4.9-0.4,7.5,1.9,7.9,6.8l1.1,15c0.4,4.8-1.9,7.4-6.8,7.8l-39.8,3l2.7,35.8l33.2-2.5
				c4.9-0.4,7.5,1.9,7.9,6.8l1.1,15c0.4,4.9-1.9,7.5-6.8,7.9l-33.2,2.5l2.7,35.8l40.4-3c4.9-0.4,7.5,1.9,7.9,6.8l1.1,14.9
				C307.9,253.6,305.6,256.2,300.7,256.6"/>
		</g>
		<g>
			<path class="st4" d="M200.2,124.8l7.6,101.1c0.6,8-1.9,15.2-7.5,21.5c-5.6,6.4-12.3,9.9-20.1,10.5l-55,4.1
				c-4.9,0.4-7.5-1.9-7.9-6.8l-10.9-145.9c-0.4-4.9,1.9-7.5,6.8-7.9l54.9-4.1c7.8-0.6,15,1.9,21.5,7.4
				C196,110.3,199.6,117,200.2,124.8 M178.1,228.3l-7.6-101.4l-32.8,2.5l7.6,101.4L178.1,228.3z"/>
		</g>
		<g>
			<path class="st4" d="M294.3,249.4l-41.8,3.1c-7.8,0.6-14.6-1.7-20.6-6.8c-5.9-5.1-9.2-11.6-9.8-19.3l-9.4-125.1
				c-0.4-4.9,1.9-7.5,6.8-7.9l62.1-4.6c4.9-0.4,7.5,1.9,7.9,6.8l1.1,15c0.4,4.8-1.9,7.4-6.8,7.8l-39.8,3l2.7,35.8l33.2-2.5
				c4.9-0.4,7.5,1.9,7.9,6.8l1.1,15c0.4,4.9-1.9,7.5-6.8,7.9L249,187l2.7,35.8l40.4-3c4.9-0.4,7.5,1.9,7.9,6.8l1.1,14.9
				C301.5,246.4,299.2,249.1,294.3,249.4"/>
		</g>
	</g>
	<g>
		<g>
			<g>
				<path class="st3" d="M253.7,518.3l-41.7,3.8c-8.5,0.8-16.2-1.6-22.8-7.1c-6.7-5.5-10.4-12.5-11.2-21.1l-12.6-137.5
					c-0.5-5.4,2-8.3,7.4-8.8l16.5-1.5c5.4-0.5,8.3,2,8.8,7.4l12.4,135.9l40.1-3.7c5.3-0.5,8.2,2,8.7,7.4l1.5,16.4
					C261.4,514.8,259,517.8,253.7,518.3"/>
			</g>
			<g>
				<path class="st3" d="M354.4,509.1l-46,4.2c-8.5,0.8-16.1-1.6-22.8-7.1c-6.6-5.5-10.3-12.5-11.1-21.1L262,347.6
					c-0.5-5.4,2-8.3,7.4-8.8l68.3-6.2c5.4-0.5,8.3,2,8.8,7.4l1.5,16.5c0.5,5.3-2,8.2-7.4,8.7l-43.7,4l3.6,39.4l36.5-3.3
					c5.4-0.5,8.3,2,8.8,7.4l1.5,16.5c0.5,5.4-2,8.3-7.4,8.8l-36.5,3.3l3.6,39.4l44.4-4.1c5.4-0.5,8.3,2,8.8,7.4l1.5,16.4
					C362.3,505.6,359.8,508.6,354.4,509.1"/>
			</g>
			<g>
				<path class="st3" d="M442.3,435.4l5.2,57c0.5,5.4-2,8.3-7.4,8.8l-16.9,1.5c-5.4,0.5-8.3-2-8.8-7.4l-5.2-57.2l-44.6-97.3
					c-1.2-2.5-1.1-5,0.3-7.5c1.5-2.4,3.6-3.7,6.3-4l16.4-1.5c3.8-0.3,6.5,1.3,8.1,4.8l25.9,58.4l14.5-62.1c0.9-3.8,3.2-5.9,7.1-6.2
					l17.4-1.6c2.7-0.2,5,0.7,6.8,2.9c1.8,2.1,2.3,4.5,1.7,7.2L442.3,435.4z"/>
			</g>
		</g>
		<g>
			<g>
				<path class="st4" d="M247,514.9l-41.7,3.8c-8.5,0.8-16.2-1.6-22.8-7.1c-6.7-5.5-10.4-12.5-11.2-21.1L158.7,353
					c-0.5-5.4,2-8.3,7.4-8.8l16.5-1.5c5.4-0.5,8.3,2,8.8,7.4l12.4,135.9l40.1-3.7c5.3-0.5,8.2,2,8.7,7.4l1.5,16.4
					C254.7,511.4,252.3,514.4,247,514.9"/>
			</g>
			<g>
				<path class="st4" d="M347.7,505.7l-46,4.2c-8.5,0.8-16.1-1.6-22.8-7.1c-6.6-5.5-10.3-12.5-11.1-21.1l-12.6-137.5
					c-0.5-5.4,2-8.3,7.4-8.8l68.3-6.2c5.4-0.5,8.3,2,8.8,7.4l1.5,16.5c0.5,5.3-2,8.2-7.4,8.7l-43.7,4l3.6,39.4l36.5-3.3
					c5.4-0.5,8.3,2,8.8,7.4l1.5,16.5c0.5,5.4-2,8.3-7.4,8.8l-36.5,3.3l3.6,39.4l44.4-4.1c5.4-0.5,8.3,2,8.8,7.4l1.5,16.4
					C355.6,502.2,353.1,505.2,347.7,505.7"/>
			</g>
			<g>
				<path class="st4" d="M435.5,432l5.2,57c0.5,5.4-2,8.3-7.4,8.8l-16.9,1.5c-5.4,0.5-8.3-2-8.8-7.4l-5.2-57.2l-44.6-97.3
					c-1.2-2.5-1.1-5,0.3-7.5c1.5-2.4,3.6-3.7,6.3-4l16.4-1.5c3.8-0.3,6.5,1.3,8.1,4.8l25.9,58.4l14.5-62.1c0.9-3.8,3.2-5.9,7.1-6.2
					l17.4-1.6c2.7-0.2,5,0.7,6.8,2.9c1.8,2.1,2.3,4.5,1.7,7.2L435.5,432z"/>
			</g>
		</g>
	</g>
	<g>
		<g>
			<g>
				<g>
					<g>
						<g>
							<path class="st3" d="M430.9,160.3c1,1.2,2,2.4,3.1,3.5c14.6,15.6,33.2,35.6,47.8,51.2c3.3,3.6,3.2,6.7-0.4,10.1
								c-2.5,2.4-5.1,4.8-7.6,7.1c-2.9,2.7-6.4,2.6-9.1-0.3c-15.6-16.7-35.1-37.6-50.7-54.3c-0.4-0.5-0.9-0.8-0.4-1.7
								C417.6,168.9,423.2,163.6,430.9,160.3z"/>
						</g>
						<g>
							<path class="st3" d="M404.5,187.9c0,1.4-0.7,2.8-1.9,3.9c-2.9,2.8-5.9,5.6-8.9,8.3c-2.6,2.4-6.1,2.1-8.7-0.5
								c-4.1-4.3-8.1-8.7-12.2-13.1c-6.6-7.1-13.2-14.2-19.8-21.2c-3.2-3.4-3-6.6,0.4-9.8c2.6-2.4,5.1-4.8,7.7-7.2
								c3-2.8,6.4-2.7,9.2,0.3c10.7,11.5,21.5,23,32.2,34.5C403.8,184.3,404.6,185.8,404.5,187.9z"/>
						</g>
						<g>
							<path class="st3" d="M457.3,138.7c0,1.4-0.7,2.8-1.9,4c-2.9,2.7-5.8,5.5-8.8,8.2c-2.7,2.5-6.2,2.2-8.9-0.7
								c-9.4-10.1-18.8-20.1-28.2-30.2c-1.4-1.5-2.8-3-4.2-4.5c-2.4-2.6-2.3-6.1,0.3-8.6c2.9-2.8,5.8-5.5,8.8-8.2
								c2.6-2.3,6.1-2.2,8.5,0.3c11,11.7,21.9,23.5,32.9,35.2C456.8,135.3,457.3,136.7,457.3,138.7z"/>
						</g>
						<g>
							<path class="st3" d="M432,153.3c-12.1,4.4-20.7,12.6-26,24.3c-10-10.7-19.9-21.3-30-32.1c12.1-4.4,20.9-12.5,26.1-24.2
								C412.1,131.9,422,142.6,432,153.3z"/>
						</g>
					</g>
				</g>
			</g>
			<g>
				<g>
					<g>
						<g>
							<path class="st4" d="M431,152.6c1,1.2,2,2.4,3.1,3.5c14.6,15.6,33.2,35.6,47.8,51.2c3.3,3.6,3.2,6.7-0.4,10.1
								c-2.5,2.4-5.1,4.8-7.6,7.1c-2.9,2.7-6.4,2.6-9.1-0.3c-15.6-16.7-35.1-37.6-50.7-54.3c-0.4-0.5-0.9-0.8-0.4-1.7
								C417.6,161.2,423.3,155.9,431,152.6z"/>
						</g>
						<g>
							<path class="st4" d="M404.5,180.2c0,1.4-0.7,2.8-1.9,3.9c-2.9,2.8-5.9,5.6-8.9,8.3c-2.6,2.4-6.1,2.1-8.7-0.5
								c-4.1-4.3-8.1-8.7-12.2-13.1c-6.6-7.1-13.2-14.2-19.8-21.2c-3.2-3.4-3-6.6,0.4-9.8c2.6-2.4,5.1-4.8,7.7-7.2
								c3-2.8,6.4-2.7,9.2,0.3c10.7,11.5,21.5,23,32.2,34.5C403.9,176.6,404.6,178.1,404.5,180.2z"/>
						</g>
						<g>
							<path class="st4" d="M457.4,131c0,1.4-0.7,2.8-1.9,4c-2.9,2.7-5.8,5.5-8.8,8.2c-2.7,2.5-6.2,2.2-8.9-0.7
								c-9.4-10.1-18.8-20.1-28.2-30.2c-1.4-1.5-2.8-3-4.2-4.5c-2.4-2.6-2.3-6.1,0.3-8.6c2.9-2.8,5.8-5.5,8.8-8.2
								c2.6-2.3,6.1-2.2,8.5,0.3c11,11.7,21.9,23.5,32.9,35.2C456.9,127.6,457.4,129.1,457.4,131z"/>
						</g>
						<g>
							<path class="st4" d="M432.1,145.6c-12.1,4.4-20.7,12.6-26,24.3c-10-10.7-19.9-21.3-30-32.1c12.1-4.4,20.9-12.5,26.1-24.2
								C412.2,124.3,422.1,134.9,432.1,145.6z"/>
						</g>
					</g>
				</g>
			</g>
		</g>
		<g>
			<g>
				<g>
					<path class="st3" d="M417.1,263.5c-54,0-97.9-43.9-97.9-97.9s43.9-97.9,97.9-97.9s97.9,43.9,97.9,97.9S471.1,263.5,417.1,263.5
						z M417.1,82.4c-45.8,0-83.1,37.3-83.1,83.1c0,45.8,37.3,83.1,83.1,83.1s83.1-37.3,83.1-83.1C500.2,119.7,462.9,82.4,417.1,82.4
						z"/>
				</g>
			</g>
			<g>
				<path class="st4" d="M420.8,255.5c-54,0-97.9-43.9-97.9-97.9s43.9-97.9,97.9-97.9s97.9,43.9,97.9,97.9S474.8,255.5,420.8,255.5z
					 M420.8,74.4c-45.8,0-83.1,37.3-83.1,83.1c0,45.8,37.3,83.1,83.1,83.1s83.1-37.3,83.1-83.1C503.9,111.7,466.6,74.4,420.8,74.4z"
					/>
			</g>
		</g>
	</g>
</g>
</svg>
