<svg width="19" height="13" viewBox="0 0 19 13" fill="none" xmlns="http://www.w3.org/2000/svg">
<path d="M18.9999 0.280571C18.9999 0.0544098 18.94 0 18.7109 0.000655539C12.5698 0.00721093 6.42872 0.00721093 0.287629 0C0.0545166 0 0.000617845 0.0603096 0.000617845 0.281882C0.00802893 4.43472 0.00802893 8.58691 -5.58897e-05 12.7391C-0.000729625 12.9633 0.0646227 13.0007 0.276849 13C3.35178 12.9928 6.4267 12.9954 9.50096 12.9954C12.5752 12.9954 15.6508 12.9928 18.7251 13C18.942 13.0007 19.0006 12.9574 18.9999 12.7371C18.9919 8.58494 18.9925 4.43276 18.9999 0.280571V0.280571ZM10.0932 9.21623C8.92154 10.6125 6.932 11.1573 5.2032 10.543C3.40298 9.90389 2.2226 8.27291 2.27986 6.43936C2.33511 4.67006 3.20086 3.35833 4.84275 2.62019C6.47656 1.88599 8.04569 2.11739 9.47401 3.1892C9.73339 3.38389 9.728 3.38979 9.51106 3.61202C9.27862 3.84867 9.0381 4.07745 8.81779 4.32394C8.70932 4.44521 8.64599 4.43603 8.52337 4.33967C7.02026 3.15249 4.83467 3.64939 4.03696 5.35444C3.36795 6.78549 4.07671 8.51808 5.57241 9.10741C7.11122 9.71378 8.85215 8.96188 9.40529 7.46135C9.47805 7.26403 9.43358 7.23519 9.2355 7.23781C8.45397 7.2483 7.67244 7.23584 6.89158 7.24633C6.71169 7.24895 6.66723 7.20044 6.67329 7.03066C6.68744 6.67142 6.68744 6.31088 6.67329 5.95164C6.66723 5.79234 6.72315 5.76547 6.87137 5.76743C7.54375 5.77465 8.21547 5.77071 8.88786 5.77071C9.56024 5.77071 10.232 5.77006 10.9043 5.77137C10.9886 5.77137 11.0822 5.73728 11.0896 5.89002C11.1496 7.11129 10.9104 8.24209 10.0932 9.21623V9.21623ZM16.7315 9.9996C16.7362 10.1563 16.6816 10.1884 16.5314 10.1864C15.9014 10.1786 15.2722 10.1831 14.6422 10.1831C14.0123 10.1831 13.4167 10.1766 12.8036 10.1871C12.6352 10.1904 12.5887 10.1418 12.5941 9.98255C12.6049 9.62397 12.6035 9.26408 12.5941 8.90485C12.5907 8.76194 12.6197 8.70687 12.7841 8.70753C14.0352 8.71474 15.2863 8.71474 16.5368 8.70818C16.6924 8.70687 16.7362 8.74555 16.7315 8.89698C16.7194 9.26408 16.7194 9.63249 16.7315 9.9996V9.9996ZM16.5321 7.24568C15.9021 7.23781 15.2722 7.2424 14.6422 7.2424C14.0123 7.2424 13.4154 7.23584 12.8029 7.24633C12.6338 7.24895 12.5887 7.2011 12.5941 7.0418C12.6049 6.68257 12.6035 6.32268 12.5941 5.96344C12.59 5.82053 12.6197 5.76547 12.7841 5.76678C14.0352 5.77399 15.287 5.77333 16.5381 5.76678C16.6958 5.76612 16.7355 5.80742 16.7308 5.95689C16.72 6.32464 16.7187 6.6924 16.7315 7.06016C16.7369 7.21814 16.6809 7.24764 16.5321 7.24568V7.24568ZM16.7301 4.13514C16.7328 4.26035 16.6991 4.3023 16.5637 4.30165C15.2951 4.29706 14.0271 4.29706 12.7585 4.30165C12.617 4.30165 12.5934 4.24855 12.5954 4.12924C12.6008 3.75296 12.6035 3.37668 12.5941 3.00106C12.5907 2.86143 12.6345 2.8221 12.7773 2.82341C13.4073 2.83062 14.0372 2.82669 14.6672 2.82669C15.2971 2.82669 15.9102 2.83127 16.5321 2.82341C16.6783 2.8221 16.7375 2.8457 16.7315 3.00696C16.718 3.38258 16.7227 3.75886 16.7301 4.13449V4.13514Z" fill="#333333"/>
</svg>
