<svg width="17" height="13" viewBox="0 0 17 13" fill="none" xmlns="http://www.w3.org/2000/svg">
<path d="M17 1.539C16.3678 1.8 15.6942 1.973 14.9919 2.057C15.7144 1.651 16.2658 1.013 16.5251 0.244C15.8514 0.622 15.1077 0.889 14.3151 1.038C13.6754 0.397 12.7638 0 11.7693 0C9.83981 0 8.28644 1.474 8.28644 3.281C8.28644 3.541 8.30981 3.791 8.36719 4.029C5.46975 3.896 2.90594 2.589 1.18362 0.598C0.882938 1.089 0.706563 1.651 0.706563 2.256C0.706563 3.392 1.32812 4.399 2.25463 4.982C1.69469 4.972 1.14538 4.819 0.68 4.578C0.68 4.588 0.68 4.601 0.68 4.614C0.68 6.208 1.88806 7.532 3.47225 7.837C3.18856 7.91 2.87937 7.945 2.5585 7.945C2.33538 7.945 2.11013 7.933 1.89869 7.889C2.35025 9.188 3.63163 10.143 5.15525 10.174C3.9695 11.047 2.46394 11.573 0.834063 11.573C0.54825 11.573 0.274125 11.561 0 11.528C1.54381 12.465 3.37344 13 5.3465 13C11.7598 13 15.266 8 15.266 3.666C15.266 3.521 15.2607 3.381 15.2533 3.242C15.9449 2.78 16.5261 2.203 17 1.539Z" fill="white"/>
</svg>
