<svg width="18" height="18" viewBox="0 0 18 18" fill="none" xmlns="http://www.w3.org/2000/svg">
<path fill-rule="evenodd" clip-rule="evenodd" d="M15.3855 2.6C13.676 0.95 11.4134 0 9.05028 0C4.07263 0 0.0502793 4 0.0502793 8.9C0.0502793 10.45 0.452514 12 1.25698 13.35L0 18L4.77654 16.75C6.0838 17.45 7.5419 17.85 9.05028 17.85C13.9777 17.85 18 13.85 18 8.95C18 6.55 17.095 4.3 15.3855 2.6ZM9.05028 16.35C7.69274 16.35 6.38547 16 5.22905 15.3L4.97765 15.15L2.16201 15.9L2.9162 13.15L2.71508 12.85C1.96089 11.65 1.55866 10.3 1.55866 8.9C1.60894 4.85 4.92737 1.5 9.05028 1.5C11.0615 1.5 12.9218 2.25 14.3296 3.65C15.7374 5.05 16.4916 6.9 16.4916 8.9C16.4916 13 13.1229 16.35 9.05028 16.35ZM13.1229 10.8C12.9218 10.7 11.8156 10.15 11.6145 10.05C11.4134 10 11.2626 9.95 11.1117 10.15C10.9609 10.35 10.5084 10.9 10.4078 11C10.257 11.15 10.1564 11.15 9.90503 11.05C9.70391 10.95 8.94972 10.7 8.09497 9.95C7.44134 9.35 6.98883 8.65 6.83799 8.4C6.68715 8.2 6.83799 8.05 6.93855 7.95C7.18994 7.65 7.44134 7.35 7.49162 7.2C7.5419 7.05 7.5419 6.9 7.49162 6.8C7.44134 6.7 6.98883 5.6 6.78771 5.15C6.58659 4.7 6.43575 4.75 6.28492 4.75C6.13408 4.75 5.98324 4.75 5.8324 4.75C5.68156 4.75 5.43017 4.8 5.22905 5.05C5.07821 5.3 4.47486 5.85 4.47486 6.95C4.47486 8.05 5.27933 9.1 5.37989 9.25C5.48045 9.4 6.93855 11.65 9.20112 12.6C9.75419 12.85 10.1564 12.95 10.4581 13.05C11.0112 13.2 11.4637 13.2 11.8659 13.15C12.3184 13.1 13.1732 12.6 13.3743 12.1C13.5754 11.6 13.5754 11.15 13.5251 11.05C13.5251 10.95 13.3743 10.9 13.1229 10.8Z" fill="white"/>
</svg>
