<svg xmlns="http://www.w3.org/2000/svg" width="40" height="10" viewBox="0 0 40 10">
  <defs>
    <style>
      .cls-1 {
        fill-rule: evenodd;
      }
    </style>
  </defs>
  <path id="Buenazo" class="cls-1" d="M0.141,8A0.141,0.141,0,0,1,0,7.86V1.886A0.141,0.141,0,0,1,.141,1.744h2.64a2.051,2.051,0,0,1,1.458.542A1.937,1.937,0,0,1,4.81,3.723a1.554,1.554,0,0,1-.4,1.009,1.552,1.552,0,0,1,.651,1.307A1.941,1.941,0,0,1,4.53,7.433,2.053,2.053,0,0,1,3.02,8H0.141ZM2.909,6.359a0.324,0.324,0,0,0,.32-0.331,0.409,0.409,0,0,0-.144-0.336A0.441,0.441,0,0,0,2.9,5.651H1.846V6.359H2.909ZM2.67,4.1a0.316,0.316,0,0,0,.32-0.334,0.414,0.414,0,0,0-.1-0.3A0.292,0.292,0,0,0,2.67,3.386H1.846V4.1H2.67ZM7.633,8.112a2.928,2.928,0,0,1-1.777-.552,1.994,1.994,0,0,1-.8-1.641V1.911A0.141,0.141,0,0,1,5.2,1.77H6.762a0.141,0.141,0,0,1,.141.141V5.885a0.655,0.655,0,0,0,.739.568,0.625,0.625,0,0,0,.721-0.568V1.911A0.141,0.141,0,0,1,8.5,1.77H10.05a0.141,0.141,0,0,1,.141.141V5.92A2,2,0,0,1,9.4,7.56,2.9,2.9,0,0,1,7.633,8.112Zm3.007-.077A0.141,0.141,0,0,1,10.5,7.894V1.911A0.141,0.141,0,0,1,10.64,1.77h3.733a0.141,0.141,0,0,1,.141.141V3.27a0.141,0.141,0,0,1-.141.141H12.344V3.983H14.2a0.141,0.141,0,0,1,.141.141V5.492a0.141,0.141,0,0,1-.141.141H12.344V6.325H14.45a0.141,0.141,0,0,1,.141.141V7.894a0.141,0.141,0,0,1-.141.141H10.64ZM15.709,8.4a0.141,0.141,0,0,1-.14-0.123L14.8,2.4a0.141,0.141,0,0,1,.122-0.158L15.4,2.181h0.018a0.141,0.141,0,0,1,.083.027L18.657,4.5,18.326,1.965a0.141,0.141,0,0,1,.122-0.158l1.528-.2h0.018a0.141,0.141,0,0,1,.14.123L20.9,7.592a0.141,0.141,0,0,1-.122.159l-0.451.059H20.311a0.141,0.141,0,0,1-.085-0.029l-3.2-2.425,0.351,2.68a0.141,0.141,0,0,1-.122.159l-1.528.2H15.709Zm4.95-.649a0.141,0.141,0,0,1-.14-0.123l-0.027-.209A0.141,0.141,0,0,1,20.5,7.354l1.933-6.047a0.141,0.141,0,0,1,.116-0.1l0.7-.092h0.018a0.141,0.141,0,0,1,.119.065l3.4,5.348a0.14,0.14,0,0,1,.021.058L26.835,6.8a0.141,0.141,0,0,1-.122.159l-1.578.207H25.117A0.141,0.141,0,0,1,25,7.1l-0.389-.606L22.6,6.755l-0.212.684a0.141,0.141,0,0,1-.117.1l-1.594.209H20.659Zm2.352-2.631,0.785-.1-0.515-.864ZM37.384,8.97a0.989,0.989,0,0,1,1.1-.941A0.975,0.975,0,0,1,39.51,9.06a0.99,0.99,0,0,1-1.1.941A1,1,0,0,1,37.384,8.97ZM37.639,0L40,0.1,39.2,7.548l-1.346-.1ZM25.846,8.066A0.141,0.141,0,0,1,25.7,7.925V7.7a0.141,0.141,0,0,1,.017-0.068l2.34-4.275h-2a0.141,0.141,0,0,1-.141-0.141V1.829a0.141,0.141,0,0,1,.141-0.141h4.569a0.141,0.141,0,0,1,.141.141V2.064a0.141,0.141,0,0,1-.018.068l-2.33,4.231h2.233a0.141,0.141,0,0,1,.141.141V7.925a0.141,0.141,0,0,1-.141.141H25.846Zm7.833,0.113a3.328,3.328,0,0,1-2.257-.824,3.24,3.24,0,0,1-1-2.479A3.227,3.227,0,0,1,31.446,2.4a3.357,3.357,0,0,1,2.259-.831,3.3,3.3,0,0,1,2.233.831,3.242,3.242,0,0,1,1.016,2.48A3.146,3.146,0,0,1,33.679,8.179Zm0.026-4.815A1.384,1.384,0,0,0,32.3,4.877,1.39,1.39,0,0,0,33.688,6.39a1.406,1.406,0,0,0,1.391-1.513A1.383,1.383,0,0,0,33.705,3.364Z"/>
</svg>
