<?xml version="1.0" encoding="utf-8"?>
<!-- Generator: Adobe Illustrator 25.1.0, SVG Export Plug-In . SVG Version: 6.00 Build 0)  -->
<svg version="1.1" id="Capa_1" xmlns="http://www.w3.org/2000/svg" xmlns:xlink="http://www.w3.org/1999/xlink" x="0px" y="0px"
	 width="49px" height="10px" viewBox="0 0 49 10" style="enable-background:new 0 0 49 10;" xml:space="preserve">
<style type="text/css">
	.st0{fill:#606060;}
	.st1{fill:#FFFFFF;}
</style>
<rect class="st0" width="43" height="10"/>
<g>
	<path class="st1" d="M6.2,5.8c0,0.5-0.2,1-0.6,1.3C5.3,7.4,4.8,7.6,4.2,7.6c-0.6,0-1.1-0.2-1.5-0.6c-0.4-0.4-0.5-1-0.5-1.8V4.8
		c0-0.5,0.1-0.9,0.3-1.3c0.2-0.4,0.4-0.6,0.7-0.8c0.3-0.2,0.7-0.3,1.1-0.3c0.6,0,1,0.2,1.4,0.5C6,3.2,6.2,3.6,6.2,4.2h-1
		c0-0.3-0.1-0.6-0.3-0.7C4.8,3.4,4.5,3.3,4.2,3.3c-0.3,0-0.6,0.1-0.8,0.4S3.2,4.3,3.2,4.8v0.4c0,0.5,0.1,0.9,0.2,1.2
		c0.2,0.2,0.4,0.4,0.8,0.4c0.3,0,0.6-0.1,0.7-0.2s0.2-0.4,0.3-0.7H6.2z"/>
	<path class="st1" d="M11,5.1c0,0.5-0.1,0.9-0.3,1.3c-0.2,0.4-0.4,0.7-0.7,0.9C9.6,7.5,9.3,7.6,8.9,7.6c-0.4,0-0.8-0.1-1.1-0.3
		C7.4,7.1,7.2,6.8,7,6.4C6.8,6,6.7,5.6,6.7,5.1V4.9C6.7,4.4,6.8,4,7,3.6c0.2-0.4,0.4-0.7,0.7-0.9s0.7-0.3,1.1-0.3
		c0.4,0,0.8,0.1,1.1,0.3c0.3,0.2,0.6,0.5,0.7,0.9C10.9,4,11,4.4,11,4.9V5.1z M9.9,4.9c0-0.5-0.1-0.9-0.3-1.2
		C9.5,3.4,9.2,3.3,8.9,3.3c-0.3,0-0.6,0.1-0.8,0.4C7.9,4,7.8,4.4,7.8,4.9v0.2c0,0.5,0.1,0.9,0.3,1.2c0.2,0.3,0.5,0.4,0.8,0.4
		c0.3,0,0.6-0.1,0.8-0.4C9.8,6,9.9,5.6,9.9,5.1V4.9z"/>
	<path class="st1" d="M13.1,2.5l1.3,3.6l1.3-3.6H17v5h-1V6.1L16,3.8l-1.3,3.7H14l-1.3-3.7l0.1,2.3v1.4h-1v-5H13.1z"/>
	<path class="st1" d="M20.8,5.3h-2v1.3h2.3v0.8h-3.3v-5h3.3v0.8h-2.3v1.2h2V5.3z"/>
	<path class="st1" d="M23.6,5.7h-0.8v1.8h-1v-5h1.8c0.6,0,1,0.1,1.4,0.4c0.3,0.3,0.5,0.6,0.5,1.1c0,0.3-0.1,0.6-0.2,0.8
		c-0.1,0.2-0.4,0.4-0.7,0.5l1.1,2v0h-1.1L23.6,5.7z M22.8,4.8h0.8c0.3,0,0.5-0.1,0.6-0.2c0.1-0.1,0.2-0.3,0.2-0.5
		c0-0.2-0.1-0.4-0.2-0.6c-0.1-0.1-0.3-0.2-0.6-0.2h-0.8V4.8z"/>
	<path class="st1" d="M30.2,5.8c0,0.5-0.2,1-0.6,1.3s-0.8,0.5-1.4,0.5c-0.6,0-1.1-0.2-1.5-0.6c-0.4-0.4-0.5-1-0.5-1.8V4.8
		c0-0.5,0.1-0.9,0.3-1.3c0.2-0.4,0.4-0.6,0.7-0.8c0.3-0.2,0.7-0.3,1.1-0.3c0.6,0,1,0.2,1.4,0.5c0.4,0.3,0.6,0.7,0.6,1.3h-1
		c0-0.3-0.1-0.6-0.3-0.7c-0.2-0.1-0.4-0.2-0.7-0.2c-0.3,0-0.6,0.1-0.8,0.4c-0.2,0.2-0.3,0.6-0.3,1.1v0.4c0,0.5,0.1,0.9,0.2,1.2
		c0.2,0.2,0.4,0.4,0.8,0.4c0.3,0,0.6-0.1,0.7-0.2c0.2-0.1,0.2-0.4,0.3-0.7H30.2z"/>
	<path class="st1" d="M31.9,7.5h-1v-5h1V7.5z"/>
	<path class="st1" d="M35.7,6.5h-1.8l-0.3,1h-1.1l1.9-5h1l1.9,5h-1.1L35.7,6.5z M34.2,5.6h1.2l-0.6-1.9L34.2,5.6z"/>
	<path class="st1" d="M38.7,6.7h2.2v0.8h-3.2v-5h1V6.7z"/>
</g>
</svg>
