<?xml version="1.0" encoding="utf-8"?>
<!-- Generator: Adobe Illustrator 25.1.0, SVG Export Plug-In . SVG Version: 6.00 Build 0)  -->
<svg version="1.1" id="Capa_1" xmlns="http://www.w3.org/2000/svg" xmlns:xlink="http://www.w3.org/1999/xlink" x="0px" y="0px"
	 width="49px" height="10px" viewBox="0 0 49 10" style="enable-background:new 0 0 49 10;" xml:space="preserve">
<style type="text/css">
	.st0{fill:#55B697;}
</style>
<g>
	<g>
		<g>
			<path class="st0" d="M2.8,3.8c0.5,0,0.6,0.3,0.6,0.9H2.1C2.2,4.1,2.3,3.8,2.8,3.8z M5.4,5.6V5.1c0-1.8-0.9-2.7-2.6-2.7
				C1.1,2.4,0,3.3,0,4.8v0.6c0,1.7,1.1,2.5,3.1,2.5c1.1,0,1.7-0.2,2.3-0.6L4.8,6.1C4.3,6.3,3.8,6.5,3.2,6.5c-0.6,0-1-0.2-1-0.8H5.4z
				"/>
		</g>
	</g>
	<g>
		<polygon class="st0" points="5.3,7.8 8.7,7.8 8.7,6.5 8,6.5 8,0.3 5.2,0.3 5.2,1.6 5.9,1.6 5.9,6.5 5.3,6.5 		"/>
	</g>
	<path class="st0" d="M13.6,1.8h0.6c0.5,0,0.9,0.3,0.9,0.8v0.3c0,0.5-0.4,0.9-0.9,0.9h-0.6V1.8z M10.5,7.8h3.8V6.5h-0.7V5.2h0.8
		c1.9,0,3.1-0.7,3.1-2.2V2.6c0-1.5-1.1-2.3-3.1-2.3h-3.9v1.3h0.7v5h-0.7V7.8z"/>
	<path class="st0" d="M20,6.5c-0.5,0-0.7-0.4-0.7-1V4.8c0-0.6,0.2-1,0.7-1c0.5,0,0.7,0.4,0.7,1v0.6C20.7,6.1,20.5,6.5,20,6.5z
		 M20,7.9c1.7,0,2.9-0.9,2.9-2.4V4.8c0-1.5-1.1-2.4-2.9-2.4c-1.6,0-2.9,1-2.9,2.4v0.7C17.2,7,18.4,7.9,20,7.9z"/>
	<path class="st0" d="M26.2,3.9c0.4,0,0.7,0.3,0.7,1v0.5c0,0.7-0.3,1-0.7,1c-0.4,0-0.7-0.3-0.7-1V4.8C25.5,4.2,25.8,3.9,26.2,3.9z
		 M22.8,9.7H26V8.5h-0.6V7.1c0.3,0.4,0.8,0.8,1.6,0.8c0.9,0,2-0.6,2-2.5V4.8c0-1.7-1-2.4-2-2.4c-1,0-1.5,0.5-1.8,1
		C25.2,3,25.1,2.5,25,2.5h-2.3v1.3h0.6v4.7h-0.5V9.7z"/>
	<path class="st0" d="M48.4,2.4c-0.9,0-1.3,0.6-1.5,1.3c-0.1-0.5-0.2-1.2-0.4-1.2h-2.3v1.3h0.6v2.7h-0.4h-0.1H44V4.8
		c0-1.6-0.9-2.4-2.8-2.4c-1,0-1.9,0.2-2.5,0.5l0.5,1.4C39.7,4.2,40.2,4,40.9,4c0.7,0,1,0.3,1,0.9c-0.3-0.1-0.6-0.2-1.1-0.2
		c-1.4,0-2.2,0.5-2.2,1.5v0.2c0,0.1,0,0.1,0,0.2h-0.5V0.3h-2.8v1.3H36v5h-0.5h-0.1h-0.5v-4h-2.7v1.3h0.5v1.8c0,0.4-0.2,0.7-0.6,0.7
		c-0.4,0-0.6-0.3-0.6-0.8V2.5h-2.6v1.3h0.5v2c0,1.5,0.8,2.1,1.8,2.1c0.8,0,1.4-0.5,1.6-1.1c0.1,0.4,0.2,0.9,0.3,0.9h2.1h0.1h3.3V7
		c0.3,0.5,0.9,0.8,1.7,0.8c0.9,0,1.3-0.4,1.6-0.9c0.1,0.4,0.2,0.8,0.3,0.8h2h0.1h3.1V6.5H47V5.2c0-0.7,0.6-0.9,1.1-0.9
		c0.3,0,0.5,0,0.7,0.1L49,2.5C48.8,2.4,48.7,2.4,48.4,2.4z M41.2,6.5c-0.4,0-0.6-0.2-0.6-0.4V6c0-0.2,0.2-0.4,0.5-0.4
		c0.3,0,0.5,0.1,0.7,0.2C41.9,6.2,41.6,6.5,41.2,6.5z"/>
</g>
</svg>
