<svg xmlns="http://www.w3.org/2000/svg" width="49" height="8" viewBox="0 0 49 8">
  <defs>
    <style>
      .cls-1 {
        fill: #d5293e;
        fill-rule: evenodd;
      }
    </style>
  </defs>
  <path id="LaRepublica" class="cls-1" d="M37.747,3.893q0,1.3,0,2.592a0.445,0.445,0,1,0,.886-0.011c0-.781-0.011-1.563.007-2.344a0.752,0.752,0,0,0-.362-0.752A0.238,0.238,0,0,1,38.1,3.122c0.038-.164.182-0.093,0.276-0.105,0.535-.064,1.07-0.113,1.6-0.173,0.2-.023.26,0.042,0.257,0.256-0.015,1.12-.007,2.24-0.019,3.361a0.38,0.38,0,0,0,.333.483,0.168,0.168,0,0,1,.161.21c-0.012.148-.111,0.123-0.2,0.123q-2.332,0-4.662,0c-0.082,0-.187.039-0.208-0.109a0.179,0.179,0,0,1,.173-0.232,0.381,0.381,0,0,0,.341-0.478q-0.013-2.143,0-4.287a0.557,0.557,0,0,0-.379-0.62A0.208,0.208,0,0,1,35.6,1.312c0.023-.163.153-0.113,0.238-0.121,0.554-.053,1.112-0.093,1.668-0.142,0.172-.016.268,0.018,0.266,0.224-0.007.874,0,1.748,0,2.621H37.747ZM28.835,6.738c-0.231.14-.436,0.267-0.643,0.389a1.787,1.787,0,0,1-.512.192A1.1,1.1,0,0,1,26.16,6.1c0-.7-0.012-1.4.006-2.1a0.612,0.612,0,0,0-.333-0.63c-0.1-.053-0.245-0.108-0.2-0.27,0.041-.134.173-0.076,0.264-0.088q0.725-.089,1.452-0.163c0.391-.04.4-0.033,0.4,0.356,0,0.863,0,1.727,0,2.59,0,0.6.2,0.753,0.774,0.643a0.268,0.268,0,0,0,.261-0.322c-0.013-.709-0.015-1.419,0-2.128a0.6,0.6,0,0,0-.318-0.609c-0.1-.054-0.251-0.1-0.212-0.261s0.205-.1.31-0.11c0.492-.066.989-0.1,1.481-0.167,0.263-.034.332,0.062,0.329,0.318-0.012,1.017,0,2.035-.009,3.053a0.471,0.471,0,0,0,.341.565,0.17,0.17,0,0,1,.138.2c0,0.148-.118.116-0.2,0.128-0.491.077-.983,0.141-1.473,0.229-0.271.049-.381-0.036-0.342-0.316A2.312,2.312,0,0,0,28.835,6.738ZM4.829,6.549C4.78,7.278,4.78,7.278,4.062,7.278c-1.268,0-2.537,0-3.806,0-0.09,0-.233.08-0.256-0.117A0.19,0.19,0,0,1,.209,6.926C0.578,6.888.59,6.609,0.6,6.338,0.6,5.8.6,5.27,0.6,4.736V2.517A0.5,0.5,0,0,0,.147,1.884C0.012,1.872-.007,1.785,0,1.668c0.011-.153.123-0.109,0.2-0.109q1.309,0,2.618,0c0.091,0,.206-0.042.222,0.128a0.173,0.173,0,0,1-.2.2,0.441,0.441,0,0,0-.43.541c0.007,1.294,0,2.589,0,3.884,0,0.431.089,0.507,0.521,0.536a1.037,1.037,0,0,0,1.121-.6c0.155-.322.346-0.627,0.471-0.964a0.232,0.232,0,0,1,.308-0.164C5,5.155,4.915,5.291,4.909,5.375,4.9,5.6,4.885,5.8,4.877,6.045Zm39.733,0a2.355,2.355,0,0,1-2.6.695,2.014,2.014,0,0,1-1.312-1.982c-0.077-1.762,1.225-2.455,2.66-2.428a1.954,1.954,0,0,1,.887.182,0.708,0.708,0,0,1,.407.809,0.621,0.621,0,0,1-.653.486,0.638,0.638,0,0,1-.625-0.6c-0.04-.181.041-0.451-0.265-0.476a0.582,0.582,0,0,0-.645.365,2.959,2.959,0,0,0,.091,2.471,1.021,1.021,0,0,0,1.06.456,2.731,2.731,0,0,0,.989-0.276A0.473,0.473,0,0,1,44.561,6.548ZM39.427,1a0.779,0.779,0,0,1,.805.813,0.8,0.8,0,0,1-.882.773,0.814,0.814,0,0,1-.814-0.821A0.805,0.805,0,0,1,39.427,1Zm-9.97.733a0.442,0.442,0,0,1-.332.489c-0.473.112-.951,0.2-1.425,0.3a0.116,0.116,0,0,1-.153-0.059,0.146,0.146,0,0,1,.041-0.189c0.325-.324.643-0.654,0.975-0.969a0.523,0.523,0,0,1,.6-0.1A0.533,0.533,0,0,1,29.457,1.735Zm-12.873,5.2a0.625,0.625,0,0,1-.4-0.347,15.173,15.173,0,0,1-.989-1.835c-0.087-.188-0.111-0.295.136-0.376a1.041,1.041,0,0,0,.691-0.725A1.423,1.423,0,0,0,14.978,1.72a3.053,3.053,0,0,0-.536-0.107c-1.174-.119-2.352-0.028-3.529-0.056-0.091,0-.18-0.016-0.186.13a0.165,0.165,0,0,0,.162.206c0.373,0.03.419,0.28,0.415,0.587-0.008.637,0,1.274,0,1.911,0,0.669-.005,1.337,0,2a0.43,0.43,0,0,1-.4.535,0.178,0.178,0,0,0-.173.23c0.011,0.153.115,0.117,0.2,0.117q1.278,0,2.558,0c0.1,0,.2.014,0.212-0.145a0.17,0.17,0,0,0-.179-0.2,0.444,0.444,0,0,1-.4-0.547c0-.4-0.009-0.8,0-1.2,0-.107-0.1-0.276.121-0.316,0.2-.035.233,0.1,0.284,0.239a12.509,12.509,0,0,0,.925,1.97,0.317,0.317,0,0,0,.3.2c0.588-.012,1.176,0,1.766-0.006,0.074,0,.173.029,0.177-0.1C16.706,7.071,16.723,6.956,16.584,6.931ZM14.2,3.844a0.674,0.674,0,0,1-.477.611C13.236,4.588,13.12,4.5,13.12,4V3.228c0-.327.009-0.656,0-0.984a0.213,0.213,0,0,1,.22-0.255,0.672,0.672,0,0,1,.882.663A3.606,3.606,0,0,1,14.2,3.844ZM25.593,4.021a1.52,1.52,0,0,0-1.42-1.188,2.025,2.025,0,0,0-1.443.6c-0.006-.108-0.014-0.159-0.012-0.21,0.013-.4.007-0.41-0.374-0.372-0.473.048-.948,0.1-1.42,0.162-0.09.011-.22-0.047-0.263,0.085a0.245,0.245,0,0,0,.175.287,0.7,0.7,0,0,1,.345.693c-0.013,1.377-.008,2.754,0,4.132a0.357,0.357,0,0,1-.311.44,0.181,0.181,0,0,0-.194.217c0.025,0.187.165,0.12,0.26,0.12q1.051,0.009,2.1,0c0.093,0,.233.071,0.253-0.124s-0.1-.2-0.224-0.216a0.306,0.306,0,0,1-.29-0.384c0.008-.113,0-0.227,0-0.339a1.065,1.065,0,0,1,.009-0.537,0.7,0.7,0,0,1,.545-0.023,2.1,2.1,0,0,0,2.232-1.491A3.3,3.3,0,0,0,25.593,4.021ZM23.944,6.5a0.626,0.626,0,0,1-.913.413,0.389,0.389,0,0,1-.259-0.4c0.015-.419,0-0.839,0-1.259s0.012-.821-0.005-1.23a0.257,0.257,0,0,1,.251-0.3,0.723,0.723,0,0,1,.96.592A4.5,4.5,0,0,1,23.944,6.5Zm11.7-2.088A1.585,1.585,0,0,0,33.8,2.851a2.1,2.1,0,0,0-1.06.548c0-.721-0.012-1.388.006-2.056,0.007-.257-0.075-0.32-0.315-0.294-0.535.058-1.072,0.092-1.606,0.142-0.08.008-.192-0.028-0.218,0.11a0.19,0.19,0,0,0,.15.231,0.582,0.582,0,0,1,.392.673c-0.01,1.449,0,2.9-.01,4.347a0.414,0.414,0,0,0,.256.425,3.885,3.885,0,0,0,2.16.37,2.093,2.093,0,0,0,2.06-1.862A3.416,3.416,0,0,0,35.641,4.411ZM33.929,6.449a0.619,0.619,0,0,1-.884.479,0.418,0.418,0,0,1-.316-0.457c0.02-.4.006-0.8,0.006-1.2,0-.421.011-0.843-0.006-1.263a0.24,0.24,0,0,1,.233-0.283,0.734,0.734,0,0,1,.991.591A4.7,4.7,0,0,1,33.929,6.449Zm-24.612.4c-0.01-.1-0.092-0.1-0.159-0.107a0.413,0.413,0,0,1-.39-0.51c0.01-.709.007-1.418,0-2.126a1.074,1.074,0,0,0-.978-1.2A4.366,4.366,0,0,0,5.8,2.975a1.078,1.078,0,0,0-.593.355,0.623,0.623,0,0,0,.088.9,0.726,0.726,0,0,0,1.108-.484c0.018-.09.032-0.182,0.041-0.274a0.255,0.255,0,0,1,.365-0.24,0.4,0.4,0,0,1,.321.363c0.046,0.254.03,0.513,0.053,0.767a0.366,0.366,0,0,1-.353.47,4.478,4.478,0,0,0-1.27.41,1.076,1.076,0,0,0-.637.807,2.274,2.274,0,0,0,0,.444,0.948,0.948,0,0,0,.793.825A1.441,1.441,0,0,0,7.113,7c0.053-.05.087-0.171,0.206-0.036a1.536,1.536,0,0,0,1.909.134A0.247,0.247,0,0,0,9.317,6.851Zm-2.342-.2a0.335,0.335,0,0,1-.414-0.177,1.209,1.209,0,0,1,0-1.04,0.483,0.483,0,0,1,.535-0.2c0.095,0,.083.1,0.083,0.17,0,0.164,0,.329,0,0.493,0,0.143-.006.288,0,0.431A0.269,0.269,0,0,1,6.975,6.655ZM49,6.854c-0.009-.1-0.088-0.1-0.156-0.109a0.418,0.418,0,0,1-.393-0.512c0.007-.718,0-1.437,0-2.156a1.058,1.058,0,0,0-.911-1.16A4.52,4.52,0,0,0,45.818,2.9a1.732,1.732,0,0,0-.764.281,0.685,0.685,0,0,0-.278.755,0.551,0.551,0,0,0,.589.386A0.6,0.6,0,0,0,46.057,3.9a2.589,2.589,0,0,0,.081-0.453,0.232,0.232,0,0,1,.269-0.226,0.4,0.4,0,0,1,.414.372,7.01,7.01,0,0,1,.047.921,0.238,0.238,0,0,1-.228.286,6.543,6.543,0,0,0-1.3.4,1.094,1.094,0,0,0-.721.912,1.754,1.754,0,0,0,.006.438,0.978,0.978,0,0,0,.755.761,1.5,1.5,0,0,0,1.428-.3c0.046-.044.074-0.19,0.2-0.053A1.537,1.537,0,0,0,48.91,7.1,0.251,0.251,0,0,0,49,6.854Zm-2.351-.195a0.346,0.346,0,0,1-.409-0.193,1.225,1.225,0,0,1,0-1.012,0.469,0.469,0,0,1,.524-0.22c0.117,0,.1.111,0.1,0.189,0,0.164,0,.327,0,0.491,0,0.133-.009.266,0,0.4A0.277,0.277,0,0,1,46.648,6.659ZM18.376,4.912c0.711,0.021,1.423,0,2.133.011,0.191,0,.241-0.054.234-0.244a1.746,1.746,0,0,0-1.857-1.845,2.164,2.164,0,0,0-2.128,1.3,2.612,2.612,0,0,0,.439,2.7,2.538,2.538,0,0,0,3.331-.209,0.438,0.438,0,0,0,.053-0.4,2.336,2.336,0,0,1-.991.287,1.154,1.154,0,0,1-1.434-1.127c-0.008-.061-0.015-0.123-0.028-0.183C18.083,5,18.123,4.9,18.376,4.912Zm-0.22-.878a1.622,1.622,0,0,1,.157-0.559,0.429,0.429,0,0,1,.44-0.266,0.424,0.424,0,0,1,.385.339,3.2,3.2,0,0,1,.085.794c0.01,0.123-.065.154-0.172,0.156-0.152,0-.3.016-0.455,0.024C18.093,4.541,18.1,4.541,18.156,4.033Z" transform="translate(0 -1)"/>
</svg>
