<?xml version="1.0" encoding="utf-8"?>
<!-- Generator: Adobe Illustrator 25.1.0, SVG Export Plug-In . SVG Version: 6.00 Build 0)  -->
<svg version="1.1" id="Capa_1" xmlns="http://www.w3.org/2000/svg" xmlns:xlink="http://www.w3.org/1999/xlink" x="0px" y="0px"
	 width="49px" height="10px" viewBox="0 0 49 10" style="enable-background:new 0 0 49 10;" xml:space="preserve">
<style type="text/css">
	.st0{fill:#FF2841;}
	.st1{fill:#FFFFFF;}
	.st2{fill:#005FDE;}
</style>
<g id="Logotipo_1_">
	<rect y="0.7" class="st0" width="7.2" height="9.3"/>
	<g>
		<g>
			<path class="st1" d="M0.6,7.7h0.3c0.1,0,0.3-0.2,0.3-0.3V3.4c0-0.1-0.2-0.3-0.3-0.3H0.6V1.8h3.8v1.3H3.6v4.5H5l0.2-1.3h1.5V9H0.6
				V7.7z"/>
			<path class="st2" d="M7.9,7.7h0.4c0.1,0,0.3-0.2,0.3-0.3V3.4c0-0.1-0.2-0.3-0.3-0.3H7.9V1.8h3.7v1.3h-0.4c-0.1,0-0.3,0.2-0.3,0.3
				v4.1c0,0.1,0.2,0.3,0.3,0.3h0.4V9H7.9V7.7z M9.3,0h2.1v0.6l-1,0.9H9L9.3,0z"/>
			<path class="st2" d="M12.4,7.7h0.3c0.1,0,0.3-0.2,0.3-0.3V3.4c0-0.1-0.2-0.3-0.3-0.3h-0.3V1.8h3.5c1.9,0,3,0.6,3,1.9
				c0,0.9-0.5,1.3-1.4,1.5v0c1.1,0.2,1.7,0.7,1.7,1.7C19.1,8.3,17.9,9,16,9h-3.5V7.7z M15.4,4.7h0.4c0.6,0,0.8-0.3,0.8-0.8
				s-0.2-0.8-0.8-0.8h-0.4V4.7z M15.8,7.7c0.6,0,0.9-0.3,0.9-0.9c0-0.6-0.2-0.8-0.9-0.8h-0.4v1.7H15.8z"/>
			<path class="st2" d="M19.9,7.7h0.3c0.1,0,0.3-0.2,0.3-0.3V3.4c0-0.1-0.2-0.3-0.3-0.3h-0.3V1.8h6.2v2.3h-1.4l-0.2-0.9h-1.5v1.4
				h1.7V6h-1.7v1.6h1.6l0.2-1.1h1.5V9h-6.3V7.7z"/>
			<path class="st2" d="M27,7.7h0.3c0.1,0,0.3-0.2,0.3-0.3V3.4c0-0.1-0.2-0.3-0.3-0.3H27V1.8h3.6c2.1,0,3.1,0.7,3.1,2.1
				c0,0.9-0.4,1.4-1.4,1.6v0C33,5.7,33.4,6,33.6,7l0.1,0.5c0,0.2,0.2,0.3,0.3,0.3h0.2V9h-2.6l-0.2-2c-0.1-0.6-0.3-0.8-0.8-0.8H30
				v1.5h0.7V9H27V7.7z M29.9,5h0.4c0.7,0,0.9-0.3,0.9-0.9S31,3.2,30.4,3.2h-0.4V5z"/>
			<path class="st2" d="M34.4,5.4c0-2.4,1.7-3.7,3.7-3.7c2.1,0,3.7,1.3,3.7,3.7s-1.6,3.7-3.7,3.7C36,9.1,34.4,7.8,34.4,5.4z
				 M39.4,5.4c0-1.5-0.5-2.1-1.3-2.1c-0.8,0-1.3,0.7-1.3,2.1c0,1.5,0.5,2.2,1.3,2.2C38.9,7.6,39.4,6.9,39.4,5.4z"/>
		</g>
	</g>
</g>
</svg>
