<svg xmlns="http://www.w3.org/2000/svg" xmlns:xlink="http://www.w3.org/1999/xlink" width="49px" height="21px" viewBox="0 0 48 21" version="1.1">
<g id="surface1">
<path style=" stroke:none;fill-rule:nonzero;fill:rgb(0%,0%,0%);fill-opacity:1;" d="M 47.941406 13.140625 C 46.859375 13.140625 46.5 13.574219 45.808594 14.25 C 45.554688 13.664062 44.984375 13.261719 44.308594 13.261719 L 39.539062 13.261719 L 39.539062 3.78125 C 39.539062 2.878906 38.804688 2.160156 37.921875 2.160156 L 32.851562 2.160156 C 31.949219 2.160156 31.230469 2.894531 31.230469 3.78125 L 31.230469 6.285156 C 30.839844 5.683594 30.375 5.128906 29.835938 4.636719 C 28.003906 2.925781 25.453125 1.996094 22.695312 1.996094 C 19.921875 1.996094 17.386719 2.925781 15.554688 4.621094 C 13.679688 6.359375 12.644531 8.773438 12.644531 11.429688 C 12.644531 12.058594 12.703125 12.660156 12.808594 13.261719 L 8.324219 13.261719 L 8.324219 3.78125 C 8.324219 2.878906 7.605469 2.160156 6.703125 2.160156 L 1.621094 2.160156 C 0.71875 2.144531 0 2.878906 0 3.78125 L 0 19.125 C 0 20.023438 0.71875 20.746094 1.621094 20.746094 L 13.078125 20.746094 C 13.980469 20.746094 14.699219 20.011719 14.699219 19.125 L 14.699219 17.398438 C 14.953125 17.714844 15.226562 18.015625 15.523438 18.285156 C 17.371094 20.011719 19.90625 20.953125 22.679688 20.953125 C 25.453125 20.953125 27.988281 19.996094 29.835938 18.269531 C 30.359375 17.773438 30.824219 17.21875 31.214844 16.621094 L 31.214844 19.109375 C 31.214844 20.011719 31.949219 20.730469 32.835938 20.730469 L 44.296875 20.730469 C 44.941406 20.730469 45.496094 20.355469 45.765625 19.800781 C 47.386719 17.324219 45.195312 17.773438 46.289062 17.773438 "/>
<path style=" stroke:none;fill-rule:nonzero;fill:rgb(0%,0%,0%);fill-opacity:1;" d="M 0.390625 2.722656 L 2.554688 0.558594 L 4.050781 2.054688 L 1.886719 4.21875 Z M 0.390625 2.722656 "/>
<path style=" stroke:none;fill-rule:nonzero;fill:rgb(0%,0%,0%);fill-opacity:1;" d="M 12.609375 18.875 L 14.773438 16.710938 L 16.269531 18.207031 L 14.105469 20.371094 Z M 12.609375 18.875 "/>
<path style=" stroke:none;fill-rule:nonzero;fill:rgb(0%,0%,0%);fill-opacity:1;" d="M 43.859375 18.886719 L 46.019531 16.726562 L 47.519531 18.226562 L 45.449219 20.296875 Z M 43.859375 18.886719 "/>
<path style=" stroke:none;fill-rule:nonzero;fill:rgb(0%,0%,0%);fill-opacity:1;" d="M 31.636719 2.710938 L 33.800781 0.546875 L 35.296875 2.042969 L 33.132812 4.207031 Z M 31.636719 2.710938 "/>
<path style=" stroke:none;fill-rule:nonzero;fill:rgb(0%,0%,0%);fill-opacity:1;" d="M 15.101562 5.074219 L 17.265625 2.914062 L 18.761719 4.40625 L 16.597656 6.570312 Z M 15.101562 5.074219 "/>
<path style=" stroke:none;fill-rule:nonzero;fill:rgb(100%,100%,100%);fill-opacity:1;" d="M 3.613281 17.925781 C 3.164062 17.925781 2.804688 17.566406 2.804688 17.113281 L 2.804688 1.785156 C 2.804688 1.335938 3.164062 0.976562 3.613281 0.976562 L 8.699219 0.976562 C 9.148438 0.976562 9.511719 1.335938 9.511719 1.785156 L 9.511719 12.089844 L 15.089844 12.089844 C 15.539062 12.089844 15.898438 12.449219 15.898438 12.898438 L 15.898438 17.128906 C 15.898438 17.578125 15.539062 17.941406 15.089844 17.941406 Z M 3.613281 17.925781 "/>
<path style=" stroke:none;fill-rule:nonzero;fill:rgb(0%,0%,0%);fill-opacity:1;" d="M 8.699219 1.785156 L 8.699219 12.898438 L 15.089844 12.898438 L 15.089844 17.128906 L 3.613281 17.128906 L 3.613281 1.785156 L 8.699219 1.785156 M 8.699219 0.148438 L 3.613281 0.148438 C 2.714844 0.148438 1.996094 0.871094 1.996094 1.769531 L 1.996094 17.113281 C 1.996094 18.015625 2.730469 18.734375 3.613281 18.734375 L 15.074219 18.734375 C 15.976562 18.734375 16.695312 18.015625 16.695312 17.113281 L 16.695312 12.898438 C 16.695312 12 15.976562 11.28125 15.074219 11.28125 L 10.320312 11.28125 L 10.320312 1.785156 C 10.320312 0.886719 9.601562 0.148438 8.699219 0.148438 Z M 8.699219 0.148438 "/>
<path style=" stroke:none;fill-rule:nonzero;fill:rgb(0%,96.470588%,69.803922%);fill-opacity:1;" d="M 24.691406 18.148438 C 19.335938 18.148438 15.449219 14.488281 15.449219 9.433594 C 15.449219 4.441406 19.335938 0.808594 24.691406 0.808594 C 30.046875 0.808594 33.929688 4.441406 33.929688 9.433594 C 33.929688 11.863281 33 14.085938 31.289062 15.691406 C 29.59375 17.28125 27.253906 18.148438 24.691406 18.148438 Z M 24.691406 18.148438 "/>
<path style=" stroke:none;fill-rule:nonzero;fill:rgb(0%,0%,0%);fill-opacity:1;" d="M 24.691406 1.621094 C 29.566406 1.621094 33.121094 4.90625 33.121094 9.433594 C 33.121094 13.980469 29.578125 17.339844 24.691406 17.339844 C 19.816406 17.339844 16.261719 14.011719 16.261719 9.433594 C 16.261719 4.890625 19.816406 1.621094 24.691406 1.621094 M 24.691406 0 C 21.914062 0 19.378906 0.929688 17.550781 2.625 C 15.675781 4.351562 14.640625 6.78125 14.640625 9.433594 C 14.640625 12.105469 15.675781 14.535156 17.535156 16.289062 C 19.378906 18.015625 21.914062 18.960938 24.691406 18.960938 C 27.464844 18.960938 30 18.015625 31.84375 16.273438 C 33.703125 14.519531 34.738281 12.089844 34.738281 9.433594 C 34.738281 6.78125 33.703125 4.378906 31.828125 2.640625 C 30 0.929688 27.464844 0 24.691406 0 Z M 24.691406 0 "/>
<path style=" stroke:none;fill-rule:nonzero;fill:rgb(100%,100%,100%);fill-opacity:1;" d="M 34.859375 17.925781 C 34.410156 17.925781 34.050781 17.566406 34.050781 17.113281 L 34.050781 1.785156 C 34.050781 1.335938 34.410156 0.976562 34.859375 0.976562 L 39.945312 0.976562 C 40.394531 0.976562 40.753906 1.335938 40.753906 1.785156 L 40.753906 12.089844 L 46.335938 12.089844 C 46.785156 12.089844 47.144531 12.449219 47.144531 12.898438 L 47.144531 17.128906 C 47.144531 17.578125 46.785156 17.941406 46.335938 17.941406 Z M 34.859375 17.925781 "/>
<path style=" stroke:none;fill-rule:nonzero;fill:rgb(0%,0%,0%);fill-opacity:1;" d="M 39.929688 1.785156 L 39.929688 12.898438 L 46.320312 12.898438 L 46.320312 17.128906 L 34.859375 17.128906 L 34.859375 1.785156 L 39.929688 1.785156 M 39.929688 0.148438 L 34.84375 0.148438 C 33.945312 0.148438 33.226562 0.871094 33.226562 1.769531 L 33.226562 17.113281 C 33.226562 18.015625 33.960938 18.734375 34.84375 18.734375 L 46.304688 18.734375 C 47.203125 18.734375 47.925781 18.015625 47.925781 17.113281 L 47.925781 12.898438 C 47.925781 12 47.191406 11.28125 46.304688 11.28125 L 41.550781 11.28125 L 41.550781 1.785156 C 41.550781 0.886719 40.828125 0.148438 39.929688 0.148438 Z M 39.929688 0.148438 "/>
<path style=" stroke:none;fill-rule:nonzero;fill:rgb(0%,0%,0%);fill-opacity:1;" d="M 24.796875 15.164062 L 24.675781 15.164062 C 22.050781 15.164062 19.933594 13.035156 19.933594 10.425781 L 19.933594 10.351562 L 29.535156 10.351562 L 29.535156 10.410156 C 29.535156 13.035156 27.421875 15.164062 24.796875 15.164062 Z M 24.796875 15.164062 "/>
<path style="fill:none;stroke-width:7.2569;stroke-linecap:butt;stroke-linejoin:miter;stroke:rgb(0%,0%,0%);stroke-opacity:1;stroke-miterlimit:10;" d="M 133.802083 39.192708 L 145.104167 47.994792 L 133.802083 56.692708 " transform="matrix(0.15,0,0,0.15,0,0)"/>
<path style="fill:none;stroke-width:7.2569;stroke-linecap:butt;stroke-linejoin:miter;stroke:rgb(0%,0%,0%);stroke-opacity:1;stroke-miterlimit:10;" d="M 195 39.192708 L 183.59375 47.994792 L 195 56.692708 " transform="matrix(0.15,0,0,0.15,0,0)"/>
</g>
</svg>
