<?xml version="1.0" encoding="utf-8"?>
<!-- Generator: Adobe Illustrator 25.1.0, SVG Export Plug-In . SVG Version: 6.00 Build 0)  -->
<svg version="1.1" id="Capa_1" xmlns="http://www.w3.org/2000/svg" xmlns:xlink="http://www.w3.org/1999/xlink" x="0px" y="0px"
	 width="49px" height="10px" viewBox="0 0 49 10" style="enable-background:new 0 0 49 10;" xml:space="preserve">
<style type="text/css">
	.st0{fill:url(#SVGID_1_);}
	.st1{fill:url(#SVGID_2_);}
	.st2{fill:url(#SVGID_3_);}
	.st3{fill:url(#SVGID_4_);}
	.st4{fill:url(#SVGID_5_);}
	.st5{fill:url(#SVGID_6_);}
	.st6{fill:url(#SVGID_7_);}
	.st7{fill:url(#SVGID_8_);}
</style>
<g>
	<linearGradient id="SVGID_1_" gradientUnits="userSpaceOnUse" x1="47.4461" y1="3.5939" x2="47.4461" y2="15.5479">
		<stop  offset="0" style="stop-color:#00B53E"/>
		<stop  offset="1" style="stop-color:#006830"/>
	</linearGradient>
	<polygon class="st0" points="45.9,7 46.4,6.5 47.2,7.2 48.5,5.9 49,6.5 47.2,8.3 	"/>
	<linearGradient id="SVGID_2_" gradientUnits="userSpaceOnUse" x1="44.7723" y1="3.5939" x2="44.7723" y2="15.5479">
		<stop  offset="0" style="stop-color:#00B53E"/>
		<stop  offset="1" style="stop-color:#006830"/>
	</linearGradient>
	<circle class="st1" cx="44.8" cy="4.6" r="1.1"/>
	<linearGradient id="SVGID_3_" gradientUnits="userSpaceOnUse" x1="44.7525" y1="3.5939" x2="44.7525" y2="15.5479">
		<stop  offset="0" style="stop-color:#00B53E"/>
		<stop  offset="1" style="stop-color:#006830"/>
	</linearGradient>
	<path class="st2" d="M45.1,7.2c0-0.2,0-0.4,0.1-0.6c-0.1,0-0.3,0-0.5,0c-2.5,0-3.3-2.1-3.3-2.1s1-2.1,3.3-2c2.4,0,3.3,2,3.3,2
		S48,4.8,47.8,5c0.2,0,0.5,0.1,0.7,0.3c0.2-0.4,0.3-0.7,0.3-0.7s-0.9-2.7-4-2.7c-3-0.1-4,2.7-4,2.7s0.7,2.8,4,2.8c0.1,0,0.3,0,0.4,0
		C45.1,7.3,45.1,7.2,45.1,7.2z"/>
	<g>
		<g>
			<path d="M0,2h2.2c1.1,0,1.9,0.7,1.9,1.7S3.3,5.4,2.2,5.4H0.9v1.7H0V2z M2.1,4.5c0.6,0,1.1-0.3,1.1-0.8S2.8,2.9,2.1,2.9H0.9v1.7
				H2.1z"/>
		</g>
		<g>
			<path d="M7.6,6l0.6,0.6C7.9,7,7.2,7.2,6.6,7.2c-1.1,0-2-0.8-2-2c0-1.2,0.9-2,2-2c1.2,0,1.9,0.9,1.9,2.3H5.6
				C5.7,6,6.1,6.4,6.6,6.4C7,6.4,7.4,6.2,7.6,6z M5.6,4.8h2C7.5,4.3,7.2,4,6.6,4C6.1,4,5.7,4.3,5.6,4.8z"/>
		</g>
		<g>
			<path d="M11.6,3.2V4c-0.8,0-1.4,0.5-1.4,1.2v1.9H9.3V3.3h0.9V4C10.5,3.5,11,3.2,11.6,3.2z"/>
		</g>
		<g>
			<path d="M15.8,3.3v3.9h-0.9V6.6c-0.2,0.4-0.7,0.6-1.2,0.6c-0.8,0-1.4-0.6-1.4-1.5V3.3h0.9v2.3c0,0.5,0.3,0.9,0.8,0.9
				c0.5,0,0.9-0.3,0.9-0.7V3.3H15.8z M13.9,2.8h-0.6l0.9-1.1L15,1.9L13.9,2.8z"/>
		</g>
	</g>
	<linearGradient id="SVGID_4_" gradientUnits="userSpaceOnUse" x1="19.7361" y1="-1.7595" x2="19.7361" y2="11.228">
		<stop  offset="0" style="stop-color:#00B53E"/>
		<stop  offset="1" style="stop-color:#006830"/>
	</linearGradient>
	<path class="st3" d="M17.3,4.6c0-1.4,1.3-2.6,2.8-2.6c0.8,0,1.5,0.3,2,0.9l-0.9,0.8c-0.3-0.3-0.7-0.6-1.1-0.6
		c-0.8,0-1.4,0.7-1.4,1.5c0,0.8,0.7,1.5,1.4,1.5c0.4,0,0.8-0.2,1.1-0.6l0.9,0.8c-0.5,0.5-1.2,0.9-2,0.9C18.6,7.2,17.3,6,17.3,4.6z"
		/>
	<linearGradient id="SVGID_5_" gradientUnits="userSpaceOnUse" x1="24.6078" y1="-1.7595" x2="24.6078" y2="11.228">
		<stop  offset="0" style="stop-color:#00B53E"/>
		<stop  offset="1" style="stop-color:#006830"/>
	</linearGradient>
	<path class="st4" d="M26.5,4.7v2.5h-1.2V5c0-0.4-0.3-0.7-0.7-0.7c-0.4,0-0.7,0.3-0.7,0.7v2.2h-1.3V1.9H24v1.8
		c0.2-0.3,0.6-0.5,1.1-0.5C25.9,3.2,26.5,3.8,26.5,4.7z"/>
	<linearGradient id="SVGID_6_" gradientUnits="userSpaceOnUse" x1="29.1216" y1="-1.7595" x2="29.1216" y2="11.228">
		<stop  offset="0" style="stop-color:#00B53E"/>
		<stop  offset="1" style="stop-color:#006830"/>
	</linearGradient>
	<path class="st5" d="M30.1,5.9l0.7,0.8c-0.3,0.4-1,0.6-1.6,0.6c-1.2,0-2.1-0.8-2.1-2c0-1.2,0.8-2,2-2c1.2,0,1.9,0.9,1.9,2.4h-2.8
		c0.1,0.4,0.4,0.6,0.8,0.6C29.5,6.2,29.8,6.1,30.1,5.9z M28.4,4.8h1.6c-0.1-0.4-0.4-0.6-0.7-0.6C28.8,4.2,28.5,4.4,28.4,4.8z"/>
	<linearGradient id="SVGID_7_" gradientUnits="userSpaceOnUse" x1="33.4229" y1="-1.7595" x2="33.4229" y2="11.228">
		<stop  offset="0" style="stop-color:#00B53E"/>
		<stop  offset="1" style="stop-color:#006830"/>
	</linearGradient>
	<path class="st6" d="M31.6,5.2c0-1.1,1-2,2.1-2c0.7,0,1.2,0.3,1.6,0.7l-0.8,0.7c-0.2-0.2-0.5-0.3-0.7-0.3c-0.5,0-0.9,0.4-0.9,1
		c0,0.5,0.4,1,0.9,1c0.3,0,0.6-0.1,0.8-0.3l0.8,0.7c-0.4,0.4-0.9,0.7-1.6,0.7C32.5,7.2,31.6,6.3,31.6,5.2z"/>
	<linearGradient id="SVGID_8_" gradientUnits="userSpaceOnUse" x1="37.7988" y1="-1.7595" x2="37.7988" y2="11.228">
		<stop  offset="0" style="stop-color:#00B53E"/>
		<stop  offset="1" style="stop-color:#006830"/>
	</linearGradient>
	<path class="st7" d="M39.8,7.1h-1.4l-0.8-1.4l-0.4,0.4v0.9h-1.3V1.9h1.3v2.9l1.2-1.5h1.4L38.3,5L39.8,7.1z"/>
</g>
</svg>
