<svg xmlns="http://www.w3.org/2000/svg" width="49" height="10" viewBox="0 0 49 10">
  <defs>
    <style>
      .cls-1 {
        fill: #127787;
        fill-rule: evenodd;
      }
    </style>
  </defs>
  <path id="PeruLegal" class="cls-1" d="M10.78,0.516H0V0H10.78V0.516Zm0,9.484H0V9.484H10.78V10ZM9.747,8.968H1.033V8.452H9.747V8.968Zm0-7.419H1.033V1.032H9.747V1.549Zm-4.1.516V7.935H5.132V2.065H5.648ZM3.583,5.29V7.935H2.065V7.419h1V5.29H3.583ZM2.812,2.581L3.433,4.258H4.1V4.774H3.072l-1-2.709H4.615V7.935H4.1V2.581H2.812Zm5.157,0L7.347,4.258H6.681V4.774H7.708l1-2.709H6.164V7.935H6.681V2.581H7.968ZM7.2,5.29V7.935H8.715V7.419h-1V5.29H7.2Zm8.724,1.632a1.209,1.209,0,0,1-.144-0.009,0.126,0.126,0,0,1-.133-0.121,0.118,0.118,0,0,1,.126-0.11l0.136-.019a0.76,0.76,0,0,0,.134-0.032,0.1,0.1,0,0,0,.06-0.049,0.693,0.693,0,0,0,.039-0.2c0.01-.105.018-0.219,0.024-0.337s0.009-.233.009-0.342V3.409a0.23,0.23,0,0,0-.056-0.176,0.371,0.371,0,0,0-.14-0.082,0.856,0.856,0,0,0-.155-0.032c-0.128-.013-0.147-0.075-0.147-0.11a0.125,0.125,0,0,1,.12-0.118,0.894,0.894,0,0,1,.091-0.006h2.492a0.117,0.117,0,0,1,.119.13,0.456,0.456,0,0,1,0,.054,0.25,0.25,0,0,0,0,.028c0,0.064,0,.133.009,0.2s0.009,0.146.009,0.214a0.763,0.763,0,0,1,0,.078,0.1,0.1,0,0,1-.11.09,0.135,0.135,0,0,1-.14-0.123,0.427,0.427,0,0,0-.018-0.083,0.277,0.277,0,0,0-.073-0.1A0.313,0.313,0,0,0,18.042,3.3a0.792,0.792,0,0,0-.169-0.021l-0.189,0H17.13a0.214,0.214,0,0,0-.1.018,0.055,0.055,0,0,0-.014.044V4.6s0,0.009,0,.012h0.67c0.041,0,.091,0,0.147-0.008a0.181,0.181,0,0,0,.094-0.03l0.006,0a0.085,0.085,0,0,0,.032-0.048c0.011-.036.021-0.073,0.029-0.109s0.017-.075.025-0.105a0.119,0.119,0,0,1,.236.03c0,0.045.007,0.084,0.007,0.118a1.518,1.518,0,0,1-.01.166,1.368,1.368,0,0,0-.009.152c0,0.068,0,.14.006,0.213s0.006,0.151.006,0.22a0.442,0.442,0,0,1-.007.074,0.113,0.113,0,0,1-.119.095,0.119,0.119,0,0,1-.116-0.085,0.648,0.648,0,0,1-.024-0.1,0.656,0.656,0,0,0-.028-0.1,0.183,0.183,0,0,0-.051-0.076A0.18,0.18,0,0,0,17.843,5c-0.056-.005-0.1-0.008-0.141-0.008H17.019V6.271a0.635,0.635,0,0,0,.008.107,0.1,0.1,0,0,0,.039.055,0.2,0.2,0,0,0,.084.043,0.833,0.833,0,0,0,.135.025c0.051,0.005.1,0.009,0.152,0.011l0.137,0c0.079,0,.175,0,0.288-0.008a0.932,0.932,0,0,0,.267-0.047,0.281,0.281,0,0,0,.121-0.073,0.631,0.631,0,0,0,.079-0.106,1.019,1.019,0,0,0,.048-0.092A0.128,0.128,0,0,1,18.5,6.1a0.108,0.108,0,0,1,.112.079,0.261,0.261,0,0,1,.008.062,0.468,0.468,0,0,1-.044.164q-0.04.1-.083,0.191a1.245,1.245,0,0,0-.049.134,0.23,0.23,0,0,1-.053.113,0.252,0.252,0,0,1-.119.057,0.545,0.545,0,0,1-.112.013l-2.236.005h0ZM19.19,6.927C19.018,6.927,19,6.828,19,6.8a0.113,0.113,0,0,1,.107-0.106c0.035-.008.076-0.015,0.124-0.021s0.086-.012.131-0.021a0.244,0.244,0,0,0,.084-0.03,0.587,0.587,0,0,0,.108-0.475v-2.7a0.683,0.683,0,0,0-.018-0.2A0.093,0.093,0,0,0,19.488,3.2a0.605,0.605,0,0,0-.115-0.043l-0.11-.027-0.083-.02a0.1,0.1,0,0,1-.085-0.1,0.1,0.1,0,0,1,.074-0.1,0.315,0.315,0,0,1,.117-0.024h1.5a2.29,2.29,0,0,1,.553.066,1.566,1.566,0,0,1,.469.2,1.049,1.049,0,0,1,.327.327,0.829,0.829,0,0,1,.123.445,1,1,0,0,1-.115.489,1.408,1.408,0,0,1-.255.34,1.427,1.427,0,0,1-.269.208l-0.1.059L21.52,5.025,22.41,6l0.217,0.226c0.071,0.073.144,0.142,0.215,0.2a1.309,1.309,0,0,0,.207.15,0.547,0.547,0,0,0,.185.07,0.108,0.108,0,0,0,.026,0h0.019l0.043,0,0.04,0a0.255,0.255,0,0,1,.081.021,0.108,0.108,0,0,1,.067.1,0.139,0.139,0,0,1-.151.129,1.229,1.229,0,0,1-.151.012H22.788a2.433,2.433,0,0,1-.259-0.017,1.314,1.314,0,0,1-.282-0.067,1.278,1.278,0,0,1-.266-0.132,0.945,0.945,0,0,1-.227-0.208l-0.627-.829a3.774,3.774,0,0,0-.248-0.3,0.284,0.284,0,0,0-.205-0.109H20.4v0.7a3.276,3.276,0,0,0,.02.437,0.493,0.493,0,0,0,.043.165l0,0.006a0.148,0.148,0,0,0,.048.056,0.175,0.175,0,0,0,.065.031h0.005l0,0a0.183,0.183,0,0,0,.049.009c0.031,0,.06.005,0.086,0.009a0.3,0.3,0,0,1,.088.027,0.109,0.109,0,0,1,.067.1c0,0.039-.02.13-0.2,0.13l-1.489.005h0ZM20.4,4.885a0.6,0.6,0,0,0,.081.006h0.371a0.651,0.651,0,0,0,.2-0.032,0.406,0.406,0,0,0,.171-0.112,0.66,0.66,0,0,0,.134-0.235,1.223,1.223,0,0,0,.054-0.4,1.013,1.013,0,0,0-.046-0.3,0.831,0.831,0,0,0-.141-0.27,0.714,0.714,0,0,0-.239-0.194,0.744,0.744,0,0,0-.342-0.074H20.5a0.078,0.078,0,0,0-.068.02,0.317,0.317,0,0,0-.025.152V4.885Zm4.888,2.1a2.728,2.728,0,0,1-.749-0.1,1.757,1.757,0,0,1-.585-0.285,1.259,1.259,0,0,1-.38-0.467A1.476,1.476,0,0,1,23.446,5.5V3.842c0-.162,0-0.307-0.006-0.431a0.333,0.333,0,0,0-.035-0.192,0.2,0.2,0,0,0-.075-0.045,0.9,0.9,0,0,0-.12-0.035L23.1,3.114a0.1,0.1,0,0,1-.047-0.2,0.278,0.278,0,0,1,.127-0.02h1.446c0.179,0,.2.087,0.2,0.124a0.1,0.1,0,0,1-.1.094,1.029,1.029,0,0,1-.106.021c-0.038.006-.077,0.011-0.117,0.014a0.156,0.156,0,0,0-.056.012c-0.036.016-.063,0.029-0.086,0.041h0a0.158,0.158,0,0,0-.029.057,0.925,0.925,0,0,0-.036.219c-0.008.1-.012,0.255-0.012,0.45l0.012,1.429a2.4,2.4,0,0,0,.044.454,1.172,1.172,0,0,0,.155.4,0.849,0.849,0,0,0,.3.285,0.994,0.994,0,0,0,.5.11,1.969,1.969,0,0,0,.524-0.071,1.262,1.262,0,0,0,.443-0.219,1.111,1.111,0,0,0,.308-0.384,1.285,1.285,0,0,0,.118-0.577V4.175a5.991,5.991,0,0,0-.03-0.7,0.371,0.371,0,0,0-.073-0.237,0.367,0.367,0,0,0-.122-0.06c-0.053-.015-0.1-0.026-0.14-0.034L26.2,3.119a0.112,0.112,0,0,1-.1-0.106,0.107,0.107,0,0,1,.1-0.106l0.009,0a0.5,0.5,0,0,1,.1-0.01h1.122c0.058,0,.235,0,0.235.119,0,0.019-.008.111-0.16,0.111h-0.02a0.518,0.518,0,0,0-.187.046,0.191,0.191,0,0,0-.119.179c-0.012.114-.018,0.28-0.018,0.492V5.229a1.717,1.717,0,0,1-.483,1.292,1.93,1.93,0,0,1-1.387.466M24.86,2.716A0.117,0.117,0,0,1,24.729,2.6a0.2,0.2,0,0,1,.1-0.151,1.046,1.046,0,0,1,.227-0.125l0.56-.236c0.071-.03.121-0.05,0.152-0.06a0.327,0.327,0,0,1,.1-0.018,0.219,0.219,0,0,1,.126.045,1.139,1.139,0,0,1,.1.085,0.508,0.508,0,0,1,.2.307,0.1,0.1,0,0,1-.064.108,0.235,0.235,0,0,1-.08.01l-0.089-.006c-0.04,0-.07-0.005-0.087-0.005h-0.1c-0.042,0-.1,0-0.159.005s-0.131.01-.2,0.019-0.147.02-.222,0.035a0.719,0.719,0,0,0-.076.02l-0.122.034L24.968,2.7a0.492,0.492,0,0,1-.108.016m5.518,4.207a1.106,1.106,0,0,1-.115-0.007,0.12,0.12,0,0,1-.12-0.118,0.118,0.118,0,0,1,.115-0.112c0.04-.008.085-0.015,0.135-0.02a0.74,0.74,0,0,0,.131-0.027,0.116,0.116,0,0,0,.068-0.047,0.347,0.347,0,0,0,.048-0.085,0.518,0.518,0,0,0,.024-0.114A1.778,1.778,0,0,0,30.672,6.2V3.54q0-.1,0-0.156a0.543,0.543,0,0,0-.011-0.091,0.13,0.13,0,0,0-.02-0.048,0.574,0.574,0,0,0-.046-0.056,0.079,0.079,0,0,0-.041-0.019l-0.105-.024c-0.038-.008-0.072-0.015-0.1-0.023a0.107,0.107,0,0,1-.1-0.1A0.121,0.121,0,0,1,30.341,2.9a0.474,0.474,0,0,1,.1-0.01h1.337a0.543,0.543,0,0,1,.083.009,0.119,0.119,0,0,1,.115.115,0.113,0.113,0,0,1-.107.106c-0.034.008-.073,0.015-0.117,0.023a0.873,0.873,0,0,0-.119.03,0.143,0.143,0,0,0-.068.042,0.176,0.176,0,0,0-.043.1,2.325,2.325,0,0,0-.009.234v2.21q0,0.131,0,.251c0,0.078,0,.145.009,0.2a0.6,0.6,0,0,0,.044.194,0.1,0.1,0,0,0,.072.077,1.362,1.362,0,0,0,.274.029l0.281,0a2.025,2.025,0,0,0,.306-0.024,1.006,1.006,0,0,0,.209-0.047,0.154,0.154,0,0,0,.08-0.06,0.791,0.791,0,0,0,.07-0.116l0.055-.113a0.137,0.137,0,0,1,.125-0.09,0.122,0.122,0,0,1,.131.1,0.443,0.443,0,0,1,.007.065,0.262,0.262,0,0,1-.018.077l-0.033.1c-0.012.039-.026,0.079-0.04,0.12s-0.025.072-.033,0.1a0.715,0.715,0,0,0-.035.11l-0.008.032c0,0.007,0,.012,0,0.015a0.165,0.165,0,0,1-.2.141H30.378Zm3.355,0a1.167,1.167,0,0,1-.144-0.01,0.126,0.126,0,0,1-.134-0.121,0.118,0.118,0,0,1,.126-0.11l0.136-.019a0.757,0.757,0,0,0,.134-0.032,0.1,0.1,0,0,0,.06-0.049,0.7,0.7,0,0,0,.039-0.2c0.01-.107.018-0.22,0.024-0.337s0.009-.234.009-0.342V3.409a0.23,0.23,0,0,0-.057-0.176,0.371,0.371,0,0,0-.14-0.082,0.861,0.861,0,0,0-.155-0.033c-0.128-.013-0.147-0.075-0.147-0.11a0.127,0.127,0,0,1,.121-0.118A0.907,0.907,0,0,1,33.7,2.884h2.49a0.117,0.117,0,0,1,.119.13,0.438,0.438,0,0,1,0,.054,0.245,0.245,0,0,0,0,.028c0,0.064,0,.133.009,0.2s0.009,0.147.009,0.214a0.721,0.721,0,0,1,0,.078,0.1,0.1,0,0,1-.11.09,0.135,0.135,0,0,1-.14-0.123,0.431,0.431,0,0,0-.018-0.083,0.277,0.277,0,0,0-.073-0.1A0.312,0.312,0,0,0,35.854,3.3a0.79,0.79,0,0,0-.169-0.021l-0.189,0H34.942a0.215,0.215,0,0,0-.1.018,0.055,0.055,0,0,0-.014.044V4.6s0,0.009,0,.012H35.5c0.041,0,.091,0,0.147-0.008a0.18,0.18,0,0,0,.094-0.03l0,0,0,0a0.084,0.084,0,0,0,.032-0.048c0.011-.036.021-0.073,0.029-0.109s0.017-.075.025-0.105a0.119,0.119,0,0,1,.236.03c0,0.045.006,0.084,0.006,0.118a1.52,1.52,0,0,1-.01.166,1.394,1.394,0,0,0-.009.152c0,0.069,0,.14.006,0.213s0.006,0.151.006,0.22a0.452,0.452,0,0,1-.007.073,0.113,0.113,0,0,1-.119.095,0.119,0.119,0,0,1-.116-0.085,0.644,0.644,0,0,1-.024-0.1,0.649,0.649,0,0,0-.028-0.1,0.183,0.183,0,0,0-.051-0.076h0A0.183,0.183,0,0,0,35.654,5c-0.056-.005-0.1-0.008-0.141-0.008H34.831V6.271a0.625,0.625,0,0,0,.008.107,0.1,0.1,0,0,0,.039.055,0.2,0.2,0,0,0,.084.043A0.825,0.825,0,0,0,35.1,6.5c0.051,0.005.1,0.009,0.152,0.011l0.137,0c0.079,0,.175,0,0.288-0.008a0.931,0.931,0,0,0,.267-0.047,0.282,0.282,0,0,0,.121-0.073,0.642,0.642,0,0,0,.08-0.106,1,1,0,0,0,.048-0.092,0.128,0.128,0,0,1,.12-0.085,0.108,0.108,0,0,1,.112.079,0.267,0.267,0,0,1,.008.062,0.466,0.466,0,0,1-.044.164q-0.04.1-.083,0.191a1.228,1.228,0,0,0-.048.134,0.268,0.268,0,0,1-.046.106l0,0-0.009.008a0.227,0.227,0,0,1-.1.058,0.37,0.37,0,0,1-.127.013H33.733Zm5.421,0.065a3.522,3.522,0,0,1-.978-0.127,2.06,2.06,0,0,1-.758-0.394,1.748,1.748,0,0,1-.488-0.673,2.489,2.489,0,0,1-.169-0.959,1.97,1.97,0,0,1,.16-0.8A1.869,1.869,0,0,1,37.376,3.4a2.145,2.145,0,0,1,.694-0.418,2.5,2.5,0,0,1,.883-0.151,5.113,5.113,0,0,1,.584.031c0.173,0.02.328,0.044,0.462,0.07S40.241,2.983,40.335,3a0.94,0.94,0,0,0,.185.028,0.232,0.232,0,0,0,.068-0.007,0.069,0.069,0,0,0,.024-0.011l0.03-.027a0.126,0.126,0,0,1,.085-0.031,0.1,0.1,0,0,1,.11.083,0.378,0.378,0,0,1,0,.053,0.432,0.432,0,0,1-.017.094A1.5,1.5,0,0,0,40.8,3.4c-0.008.086-.012,0.162-0.012,0.225a1.342,1.342,0,0,1-.019.219c-0.008.049-.016,0.088-0.022,0.118a0.123,0.123,0,0,1-.127.1A0.119,0.119,0,0,1,40.5,3.967a0.4,0.4,0,0,1-.015-0.114,0.962,0.962,0,0,0-.028-0.115,0.371,0.371,0,0,0-.087-0.158,0.873,0.873,0,0,0-.149-0.108,1.478,1.478,0,0,0-.279-0.127,3,3,0,0,0-.4-0.106,2.561,2.561,0,0,0-.5-0.045,1.47,1.47,0,0,0-.578.108,1.292,1.292,0,0,0-.433.295,1.318,1.318,0,0,0-.277.445,1.566,1.566,0,0,0-.1.561,3.255,3.255,0,0,0,.116.921,1.754,1.754,0,0,0,.324.633,1.243,1.243,0,0,0,.5.362,1.844,1.844,0,0,0,.677.117A0.8,0.8,0,0,0,39.42,6.62a1.564,1.564,0,0,0,.161-0.039c0.054-.016.1-0.033,0.15-0.05a0.542,0.542,0,0,0,.1-0.047,0.231,0.231,0,0,0,.111-0.17,2.367,2.367,0,0,0,.021-0.344V5.6c0-.147,0-0.259-0.012-0.334a0.178,0.178,0,0,0-.048-0.12,0.258,0.258,0,0,0-.1-0.059A0.629,0.629,0,0,0,39.7,5.068L39.611,5.06a0.1,0.1,0,0,1-.1-0.1c0-.03.014-0.13,0.192-0.13l0.1,0.006c0.047,0,.1.006,0.163,0.008l0.208,0.008c0.073,0,.146.005,0.218,0.005,0.039,0,.1,0,0.166-0.005s0.143-.008.213-0.014l0.192-.014,0.1-.006a0.292,0.292,0,0,1,.09.015,0.119,0.119,0,0,1,.084.12,0.107,0.107,0,0,1-.084.1,0.487,0.487,0,0,1-.1.02,0.862,0.862,0,0,0-.088.015,0.21,0.21,0,0,0-.061.023,0.2,0.2,0,0,0-.053.052,0.225,0.225,0,0,0-.03.083,1.05,1.05,0,0,0-.014.152q0,0.1,0,.242V6.5a0.673,0.673,0,0,1-.007.1,0.152,0.152,0,0,1-.087.114,1.089,1.089,0,0,1-.2.083,3.4,3.4,0,0,1-.343.089c-0.134.029-.289,0.053-0.461,0.072a5.139,5.139,0,0,1-.556.029m4.953-.065a0.577,0.577,0,0,1-.075-0.006,0.116,0.116,0,0,1-.1-0.114,0.126,0.126,0,0,1,.107-0.119c0.037-.01.078-0.019,0.123-0.026a0.254,0.254,0,0,0,.088-0.031,0.071,0.071,0,0,0,.017-0.054,0.746,0.746,0,0,0-.022-0.187,2.023,2.023,0,0,0-.094-0.254l-0.152-.345Q43.956,5.7,43.93,5.647a0.619,0.619,0,0,0-.043-0.076,0.084,0.084,0,0,0-.011-0.013H42.654a0.334,0.334,0,0,0-.047,0,0.328,0.328,0,0,0-.021.042l-0.207.466a2.984,2.984,0,0,0-.11.292,0.729,0.729,0,0,0-.037.209c0,0.03.01,0.034,0.019,0.037a0.681,0.681,0,0,0,.113.032l0.06,0.01,0.087,0.014a0.591,0.591,0,0,1,.085.023,0.106,0.106,0,0,1,.079.1,0.123,0.123,0,0,1-.09.131,0.405,0.405,0,0,1-.1.011H41.317a0.507,0.507,0,0,1-.1-0.01,0.121,0.121,0,0,1,.033-0.24c0.052,0,.077-0.008.089-0.01a0.364,0.364,0,0,0,.215-0.092A0.821,0.821,0,0,0,41.7,6.359L43.276,2.9a0.607,0.607,0,0,1,.047-0.09,0.136,0.136,0,0,1,.244,0,1.017,1.017,0,0,1,.052.1l1.543,3.4a1.527,1.527,0,0,0,.079.156,0.791,0.791,0,0,0,.1.139,0.1,0.1,0,0,0,.052.023c0.04,0.009.081,0.016,0.123,0.021a0.855,0.855,0,0,1,.128.024,0.125,0.125,0,0,1,.1.118,0.124,0.124,0,0,1-.12.12c-0.038,0-.068.006-0.091,0.006H44.106ZM43.7,5.16h0.025l-0.008-.02-0.033-.076-0.435-.985-0.412.951c-0.021.045-.04,0.087-0.058,0.129H43.7Zm2.5,1.763a1.109,1.109,0,0,1-.115-0.007A0.12,0.12,0,0,1,45.96,6.8a0.118,0.118,0,0,1,.115-0.112c0.04-.008.085-0.015,0.135-0.02a0.737,0.737,0,0,0,.131-0.027,0.116,0.116,0,0,0,.068-0.047,0.345,0.345,0,0,0,.048-0.085,0.5,0.5,0,0,0,.024-0.114A1.748,1.748,0,0,0,46.488,6.2V3.54q0-.1,0-0.156a0.568,0.568,0,0,0-.011-0.091,0.133,0.133,0,0,0-.02-0.047,0.589,0.589,0,0,0-.046-0.056,0.08,0.08,0,0,0-.041-0.019l-0.105-.024c-0.038-.008-0.072-0.015-0.1-0.023a0.107,0.107,0,0,1-.1-0.1A0.125,0.125,0,0,1,46.158,2.9a0.464,0.464,0,0,1,.1-0.012H47.6a0.543,0.543,0,0,1,.083.009,0.125,0.125,0,0,1,.115.12,0.113,0.113,0,0,1-.107.106q-0.05.012-.117,0.023a0.865,0.865,0,0,0-.119.03,0.144,0.144,0,0,0-.068.042,0.176,0.176,0,0,0-.043.1,2.294,2.294,0,0,0-.009.234v2.21q0,0.131,0,.251c0,0.078,0,.145.009,0.2a0.594,0.594,0,0,0,.044.194,0.1,0.1,0,0,0,.072.077,1.362,1.362,0,0,0,.274.029l0.281,0a2.022,2.022,0,0,0,.306-0.024,1,1,0,0,0,.209-0.047,0.154,0.154,0,0,0,.08-0.06,0.793,0.793,0,0,0,.07-0.116l0.055-.113a0.137,0.137,0,0,1,.125-0.09,0.12,0.12,0,0,1,.131.1A0.448,0.448,0,0,1,49,6.227a0.266,0.266,0,0,1-.018.077c-0.01.031-.021,0.066-0.033,0.1s-0.026.079-.04,0.12-0.025.072-.033,0.1a0.715,0.715,0,0,0-.035.11c-0.006.028-.01,0.046-0.011,0.055-0.005.063-.043,0.134-0.2,0.134H46.194Zm-33.962,0a0.8,0.8,0,0,1-.126-0.009,0.122,0.122,0,0,1-.115-0.12,0.118,0.118,0,0,1,.115-0.112c0.04-.008.085-0.015,0.135-0.02a1.144,1.144,0,0,0,.141-0.026,0.165,0.165,0,0,0,.088-0.05A0.188,0.188,0,0,0,12.509,6.5a1.421,1.421,0,0,0,.026-0.176c0.006-.065.009-0.136,0.009-0.211V3.464a0.84,0.84,0,0,0-.023-0.2,0.181,0.181,0,0,0-.108-0.114,0.3,0.3,0,0,0-.127-0.033H12.265c-0.14,0-.147-0.083-0.147-0.1a0.147,0.147,0,0,1,.15-0.146h1.513a2.855,2.855,0,0,1,.545.054,1.741,1.741,0,0,1,.51.182,1.127,1.127,0,0,1,.383.344,0.926,0.926,0,0,1,.152.54,1.247,1.247,0,0,1-.215.73,1.36,1.36,0,0,1-.6.471,1.533,1.533,0,0,1-.244.078,1.242,1.242,0,0,1-.287.033H13.971c-0.1,0-.2,0-0.308-0.008-0.087,0-.175-0.007-0.272-0.012V5.641c0,0.287.007,0.517,0.021,0.683a0.532,0.532,0,0,0,.056.269l0,0a0.143,0.143,0,0,0,.064.043,0.689,0.689,0,0,0,.106.029,0.744,0.744,0,0,0,.09.012l0.049,0a0.289,0.289,0,0,1,.09.015,0.11,0.11,0,0,1,.084.1,0.111,0.111,0,0,1-.079.1,0.408,0.408,0,0,1-.162.024H12.232ZM13.4,5.013a3.8,3.8,0,0,0,.438.018c0.048,0,.061,0,0.139,0a0.482,0.482,0,0,0,.373-0.183,1.025,1.025,0,0,0,.15-0.619,0.974,0.974,0,0,0-.248-0.746,1.118,1.118,0,0,0-.769-0.226c-0.057,0-.062.017-0.066,0.029a1.044,1.044,0,0,0-.021.269V5.012h0"/>
</svg>
