<svg xmlns="http://www.w3.org/2000/svg" width="36" height="10" viewBox="0 0 36 10">
  <defs>
    <style>
      .cls-1 {
        fill: #ff5374;
        fill-rule: evenodd;
      }
    </style>
  </defs>
  <path id="Wapa" class="cls-1" d="M17.317,3.748V7.559a0.273,0.273,0,0,1-.247.277l-1.319.1a0.282,0.282,0,0,1-.294-0.276v-0.4a2.951,2.951,0,0,1-2,.986c-1.448.108-2.578-.685-2.578-2a2.75,2.75,0,0,1,2.837-2.465A4.887,4.887,0,0,1,15.457,4V3.868a1.25,1.25,0,0,0-1.566-1.25,3.811,3.811,0,0,0-1.53.481A0.271,0.271,0,0,1,12,2.978l-0.388-.745a0.279,0.279,0,0,1,.106-0.373,6.345,6.345,0,0,1,2.614-.818A2.577,2.577,0,0,1,17.317,3.748Zm-1.86,2.044V5.154A4.112,4.112,0,0,0,14,5.01a1.222,1.222,0,0,0-1.26,1.046,0.918,0.918,0,0,0,1.154.818A1.6,1.6,0,0,0,15.457,5.792ZM25.5,3.832a3.532,3.532,0,0,1-3.143,3.787,2.574,2.574,0,0,1-2.284-.962v2.97a0.273,0.273,0,0,1-.247.277l-1.389.1a0.282,0.282,0,0,1-.294-0.276V1.2A0.273,0.273,0,0,1,18.388.922l1.389-.1a0.282,0.282,0,0,1,.294.277V1.752A3.026,3.026,0,0,1,22.356.49C24.18,0.369,25.5,1.752,25.5,3.832Zm-1.872.12a1.665,1.665,0,0,0-1.825-1.8,1.885,1.885,0,0,0-1.73,1.791V4.469A1.6,1.6,0,0,0,21.8,6.032,1.964,1.964,0,0,0,23.627,3.952ZM32.115,2.7V6.513a0.273,0.273,0,0,1-.247.276l-1.319.1a0.282,0.282,0,0,1-.294-0.277v-0.4a2.951,2.951,0,0,1-2,.986c-1.448.108-2.578-.685-2.578-1.984A2.75,2.75,0,0,1,28.513,2.75a4.887,4.887,0,0,1,1.742.216V2.834a1.25,1.25,0,0,0-1.566-1.25,3.812,3.812,0,0,0-1.53.481,0.271,0.271,0,0,1-.365-0.12L26.405,1.2A0.279,0.279,0,0,1,26.511.826,6.345,6.345,0,0,1,29.125.009,2.563,2.563,0,0,1,32.115,2.7Zm-1.86,2.056V4.12a4.113,4.113,0,0,0-1.46-.144,1.222,1.222,0,0,0-1.26,1.046,0.918,0.918,0,0,0,1.154.818A1.612,1.612,0,0,0,30.255,4.758ZM9.418,1.764L8.182,5.912,6.9,1.968a0.28,0.28,0,0,0-.271-0.192l-1.213.1a0.281,0.281,0,0,0-.235.192L3.885,6.212,2.661,2.269A0.265,0.265,0,0,0,2.39,2.077L0.706,2.2h0l-0.459.036A0.273,0.273,0,0,0,0,2.509V2.545A2.019,2.019,0,0,0,1.519,4.529h0l-0.542.036a0.273,0.273,0,0,0-.247.276V4.878a2.092,2.092,0,0,0,1.6,1.984L2.378,6.994,2.967,8.665a0.256,0.256,0,0,0,.271.18l1.342-.1a0.255,0.255,0,0,0,.235-0.192L6.039,4.373l1.2,3.979a0.27,0.27,0,0,0,.283.192l1.33-.12a0.288,0.288,0,0,0,.235-0.18l2.131-6.408a0.275,0.275,0,0,0-.271-0.361l-1.295.1A0.281,0.281,0,0,0,9.418,1.764ZM34.081,4.782l-0.236.012V5.082l0.236-.012a0.171,0.171,0,0,0,.177-0.156A0.141,0.141,0,0,0,34.081,4.782Zm0.412-1.226A1.658,1.658,0,0,0,32.986,5.2a1.394,1.394,0,0,0,1.507,1.431A1.658,1.658,0,0,0,36,4.986,1.4,1.4,0,0,0,34.493,3.555ZM34.1,5.359l-0.271.024v0.4L33.528,5.8V4.529L34.1,4.493a0.4,0.4,0,0,1,.471.4A0.483,0.483,0,0,1,34.1,5.359Zm1.436-.493V5.142l-0.6.048V5.407l0.671-.048V5.635l-0.977.072V4.457l0.977-.072V4.661l-0.671.048V4.9Z"/>
</svg>
