<?xml version="1.0" encoding="utf-8"?>
<!-- Generator: Adobe Illustrator 25.1.0, SVG Export Plug-In . SVG Version: 6.00 Build 0)  -->
<svg version="1.1" id="Capa_1" xmlns="http://www.w3.org/2000/svg" xmlns:xlink="http://www.w3.org/1999/xlink" x="0px" y="0px"
	 width="13px" height="12px" viewBox="0 0 13 12" style="enable-background:new 0 0 13 12;" xml:space="preserve">
<style type="text/css">
	.st0{fill:#808080;}
</style>
<path class="st0" d="M8.5,2.7H2.2l1.5-1.5C4,0.9,4,0.5,3.7,0.2C3.5-0.1,3-0.1,2.8,0.2L0.2,2.9C0.1,2.9,0.1,3,0,3.1
	C0,3.2,0,3.4,0,3.6c0,0.1,0.1,0.2,0.1,0.2l2.6,2.7c0.3,0.3,0.7,0.3,0.9,0c0,0,0,0,0,0C4,6.2,4,5.8,3.7,5.5c0,0,0,0,0,0L2.2,4h6.2
	c1.8,0,3.3,1.5,3.3,3.3c0,1.8-1.5,3.3-3.3,3.3H0.6C0.3,10.7,0,11,0,11.3C0,11.7,0.3,12,0.6,12h7.8C11,12,13,9.9,13,7.3
	C13,4.8,11,2.7,8.5,2.7z"/>
</svg>
