<svg width="66" height="37" viewBox="0 0 66 37" fill="none" xmlns="http://www.w3.org/2000/svg">
<g clip-path="url(#clip0_123_161)">
<path d="M46.6024 23.9033C45.6928 24.118 43.2989 24.2416 43.2989 24.2416L42.9957 25.2175C42.9957 25.2175 44.1895 25.1134 45.0612 25.2045C45.0612 25.2045 45.3454 25.172 45.377 25.5363C45.3828 25.7708 45.3743 26.0055 45.3517 26.239C45.3517 26.239 45.3328 26.4602 45.0296 26.5122C44.7011 26.5708 42.4525 26.6553 42.4525 26.6553L42.0861 27.924C42.0861 27.924 41.9535 28.2168 42.2567 28.1322C42.5409 28.0541 44.8969 27.5987 45.2064 27.6638C45.5349 27.7484 45.9012 28.1973 45.7939 28.6137C45.6675 29.1211 43.3178 30.6696 41.884 30.559C41.884 30.559 41.1324 30.611 40.4944 29.5636C39.9007 28.5681 40.7218 26.6749 40.7218 26.6749C40.7218 26.6749 40.3491 25.79 40.6207 25.4973C40.6207 25.4973 40.785 25.3476 41.2524 25.3086L41.8272 24.0789C41.8272 24.0789 41.1703 24.1245 40.7786 23.63C40.4123 23.1551 40.387 22.9404 40.6649 22.8103C40.9618 22.6606 43.6968 22.1466 45.5791 22.2117C45.5791 22.2117 46.236 22.1466 46.7982 23.3177C46.7919 23.3177 47.0698 23.7927 46.6024 23.9033ZM39.5217 28.6267C39.2817 29.2122 38.6437 29.8368 37.8542 29.4464C37.0646 29.0561 35.8266 26.4341 35.8266 26.4341C35.8266 26.4341 35.3529 25.4582 35.2644 25.4777C35.2644 25.4777 35.1634 25.2891 35.1002 26.3561C35.037 27.4231 35.1128 29.4985 34.7023 29.8238C34.3107 30.1491 33.8369 30.019 33.5906 29.6351C33.3695 29.2578 33.2748 28.3599 33.3948 26.7855C33.5401 25.211 33.8938 23.5324 34.3486 23.0054C34.8033 22.4784 35.1697 22.8623 35.3086 22.9989C35.3086 22.9989 35.915 23.565 36.9193 25.2305L37.0962 25.5363C37.0962 25.5363 38.0057 27.1108 38.1005 27.1043C38.1005 27.1043 38.1763 27.1758 38.2395 27.1238C38.3342 27.0978 38.2963 26.5903 38.2963 26.5903C38.2963 26.5903 38.1068 24.8792 37.2794 21.9775C37.2794 21.9775 37.153 21.6131 37.2415 21.2748C37.3299 20.9365 37.6583 21.0927 37.6583 21.0927C37.6583 21.0927 38.9469 21.7563 39.5659 23.9163C40.1786 26.0958 39.7617 28.0411 39.5217 28.6267ZM33.1927 23.077C33.0853 23.2982 33.0221 23.617 32.4789 23.7016C32.4789 23.7016 27.2805 24.0659 27.0342 24.4433C27.0342 24.4433 26.851 24.6645 27.1352 24.7295C27.4195 24.7946 28.5943 24.9508 29.1628 24.9833C29.7692 24.9898 31.8157 25.0093 32.5484 25.9527C32.5484 25.9527 32.9842 26.4016 32.9653 27.4165C32.9463 28.4575 32.7695 28.8219 32.3778 29.1992C31.9673 29.5505 28.4427 31.1771 26.1688 28.6787C26.1688 28.6787 25.1203 27.4751 26.5289 26.5643C26.5289 26.5643 27.5458 25.9332 30.1292 26.6749C30.1292 26.6749 30.9124 26.9676 30.8745 27.2604C30.8303 27.5727 30.2303 27.9045 29.3586 27.885C28.5122 27.859 27.8932 27.4426 28.0132 27.5076C28.1269 27.5532 27.1036 27.0002 26.7878 27.3775C26.472 27.7223 26.5478 27.937 26.8573 28.1517C27.6469 28.6137 30.6977 28.451 31.6072 27.41C31.6072 27.41 31.9673 26.9871 31.4177 26.6423C30.8682 26.317 29.2954 26.1218 28.6827 26.0893C28.0953 26.0568 25.9099 26.0958 25.594 25.4973C25.594 25.4973 25.2782 25.0939 25.6256 23.9488C25.992 22.7517 28.5375 22.2898 29.6365 22.1857C29.6365 22.1857 32.6621 22.0751 33.2179 22.7127C33.2555 22.8329 33.2464 22.9635 33.1927 23.077ZM24.6024 30.097C24.236 30.3768 23.4591 30.2532 23.238 29.9409C23.0169 29.6611 22.9411 28.5486 22.9854 26.805C23.0296 25.0418 23.0675 22.8558 23.4338 22.511C23.8254 22.1596 24.0655 22.4654 24.2171 22.7062C24.3813 22.9404 24.5771 23.2006 24.6213 23.7536C24.6655 24.3067 24.7855 27.2084 24.7855 27.2084C24.7855 27.2084 24.9498 29.8238 24.6024 30.097ZM25.3919 20.7413C24.3244 21.1057 23.5917 20.982 22.9727 20.7088C22.7011 21.1967 22.5432 21.3464 22.3348 21.3789C22.0316 21.4115 21.76 20.9105 21.7095 20.7478C21.6589 20.6242 21.5136 20.416 21.6905 19.9216C21.0841 19.362 21.0399 18.6073 21.141 18.0999C21.2926 17.5143 22.3158 15.2892 25.4298 15.029C25.4298 15.029 26.9521 14.9119 27.211 15.7512H27.2552C27.2552 15.7512 28.7333 15.7577 28.7017 17.1109C28.6827 18.4707 27.0594 20.1623 25.3919 20.7413ZM22.4864 17.729C22.1705 18.2495 22.1579 18.5618 22.3032 18.7765C22.6632 18.2105 23.3201 17.3191 24.2865 16.6425C23.5412 16.7076 22.9159 17.0394 22.4864 17.729ZM26.7878 16.8572C25.8088 17.0068 24.2929 18.3601 23.5728 19.4661C24.6782 19.6743 26.6299 19.5963 27.4953 17.7811C27.4889 17.7811 27.9058 16.6555 26.7878 16.8572ZM53.3672 27.3385C52.7798 28.3925 51.1312 30.5915 48.9331 30.0775C48.2067 31.8927 47.6003 33.7209 47.2529 36.4665C47.2529 36.4665 47.1771 37 46.7476 36.8113C46.3244 36.6552 45.617 35.9265 45.478 34.918C45.3264 33.5908 45.9012 31.3462 47.0698 28.7763C46.7287 28.2038 46.495 27.384 46.6971 26.2194C46.6971 26.2194 46.994 24.0594 49.0973 22.1076C49.0973 22.1076 49.35 21.8799 49.4953 21.9515C49.6595 22.023 49.5837 22.7257 49.4511 23.064C49.3184 23.4023 48.3773 25.0809 48.3773 25.0809C48.3773 25.0809 47.7898 26.2129 47.9541 27.1043C49.0594 25.3541 51.5734 21.8213 53.1335 22.9339C53.6578 23.3177 53.8978 24.157 53.8978 25.0614C53.8915 25.8616 53.7083 26.7074 53.3672 27.3385ZM52.9124 24.5669C52.9124 24.5669 52.824 23.8707 52.1671 24.6385C51.5986 25.2826 50.5754 26.4992 49.7479 28.1452C50.6133 28.0476 51.447 27.5597 51.6997 27.3125C52.1103 26.9351 53.064 25.9202 52.9124 24.5669ZM22.2463 25.4517C22.1263 27.0262 21.5389 29.6742 17.3764 30.9819C14.6288 31.8342 12.0327 31.4243 10.6179 31.0534C10.5863 31.6325 10.5231 31.8797 10.4347 31.9773C10.3147 32.1009 9.41775 32.6344 8.92507 31.8797C8.70399 31.5219 8.5903 30.8713 8.52713 30.2922C5.34367 28.7828 3.87827 26.6098 3.82142 26.5122C3.75194 26.4406 3.02556 25.6599 3.75194 24.7035C4.43411 23.8382 6.6638 22.9729 8.67241 22.6216C8.74189 20.8519 8.94402 19.5182 9.18404 18.9066C9.47459 18.1975 9.84095 18.835 10.1568 19.3165C10.4221 19.6743 10.58 21.2163 10.5926 22.4459C11.9064 22.3809 12.6833 22.4784 14.1487 22.7517C16.0563 23.1095 17.3322 24.1115 17.2185 25.25C17.1364 26.3691 16.1384 26.831 15.7594 26.8635C15.3615 26.8961 14.7425 26.6033 14.7425 26.6033C14.3193 26.3951 14.7109 26.2129 15.2225 25.9852C15.7784 25.7055 15.652 25.4192 15.652 25.4192C15.4436 24.7946 12.9676 24.3587 10.5042 24.3587C10.4915 25.7575 10.561 28.0802 10.5926 29.4334C12.317 29.7717 13.6055 29.7067 13.6055 29.7067C13.6055 29.7067 19.8966 29.5245 20.0861 25.3867C20.2756 21.2488 13.814 17.2671 9.03245 16.0049C4.25725 14.7167 1.55384 15.6145 1.32013 15.7382C1.06747 15.8683 1.30118 15.9073 1.30118 15.9073C1.54174 15.9525 1.77833 16.0178 2.00862 16.1025C2.48235 16.2586 2.116 16.5124 2.116 16.5124C1.30118 16.7791 0.385304 16.61 0.208445 16.2261C0.0315857 15.8423 0.328456 15.4974 0.669541 15.003C1.01063 14.4825 1.38329 14.502 1.38329 14.502C7.28912 12.394 14.4835 16.2066 14.4835 16.2066C21.2231 19.7264 22.3727 23.8512 22.2463 25.4517ZM4.42148 25.237C3.75194 25.5753 4.21304 26.0633 4.21304 26.0633C5.47 27.4556 7.01752 28.3274 8.48924 28.8674C8.65978 26.4667 8.63451 25.6209 8.65346 24.4107C6.3543 24.5734 5.02785 24.9508 4.42148 25.237Z" fill="white"/>
<path d="M65.8737 24.7426V25.6014C65.874 25.6459 65.8657 25.69 65.8494 25.7312C65.833 25.7724 65.8088 25.8099 65.7782 25.8414C65.7477 25.8728 65.7113 25.8978 65.6713 25.9146C65.6313 25.9315 65.5884 25.94 65.5452 25.9397H61.5722C61.5722 26.1544 61.5785 26.3431 61.5785 26.5187C61.5842 27.677 61.5272 28.8347 61.408 29.9865C61.4004 30.0694 61.3632 30.1465 61.3038 30.2029C61.2443 30.2594 61.1667 30.2912 61.0858 30.2922H60.2268C60.1839 30.2923 60.1415 30.283 60.1024 30.2651C60.0632 30.2472 60.0281 30.2209 59.9994 30.1881C59.9702 30.155 59.9482 30.1158 59.9351 30.0731C59.9221 30.0304 59.9181 29.9853 59.9236 29.9409C60.0446 28.8045 60.1036 27.662 60.1005 26.5187C60.1005 26.3366 60.1005 26.1479 60.0942 25.9397H56.1654C56.1222 25.94 56.0793 25.9315 56.0393 25.9146C55.9993 25.8978 55.9629 25.8728 55.9324 25.8414C55.9018 25.8099 55.8776 25.7724 55.8612 25.7312C55.8449 25.69 55.8366 25.6459 55.8369 25.6014V24.7426C55.8366 24.698 55.8449 24.6539 55.8612 24.6127C55.8776 24.5715 55.9018 24.5341 55.9324 24.5026C55.9629 24.4711 55.9993 24.4462 56.0393 24.4293C56.0793 24.4124 56.1222 24.4039 56.1654 24.4043H60.0373C59.9591 23.0231 59.7881 21.6492 59.5257 20.2924C59.5189 20.2514 59.5204 20.2095 59.5302 20.1691C59.54 20.1288 59.5578 20.091 59.5825 20.0582C59.6074 20.0258 59.6391 19.9996 59.6752 19.9816C59.7113 19.9636 59.7509 19.9542 59.791 19.9541H60.7195C60.7898 19.9545 60.8579 19.9799 60.912 20.0262C60.9662 20.0725 61.0031 20.1367 61.0164 20.2078C61.2717 21.5941 61.4405 22.9958 61.5217 24.4043H65.5452C65.6319 24.4058 65.7146 24.4419 65.7759 24.505C65.8371 24.5681 65.8722 24.6533 65.8737 24.7426Z" fill="white"/>
<path d="M60.4668 17.9307C58.5688 13.1224 55.4343 8.93784 51.4004 5.82697C47.3665 2.7161 42.5856 0.796552 37.5719 0.274705C32.5582 -0.247142 27.5012 0.648445 22.9446 2.86518C18.388 5.08192 14.5041 8.53596 11.7106 12.856C11.6828 12.8985 11.665 12.947 11.6584 12.9978C11.6518 13.0486 11.6567 13.1002 11.6727 13.1487C11.6876 13.1977 11.7137 13.2422 11.7489 13.2784C11.7841 13.3147 11.8273 13.3416 11.8748 13.3569L12.5949 13.6107C12.6359 13.6231 12.6784 13.6296 12.7212 13.6302C12.787 13.6293 12.8517 13.6123 12.9099 13.5806C12.9681 13.5489 13.0181 13.5035 13.056 13.448C15.4621 9.79577 18.6998 6.80589 22.4864 4.73954C26.2729 2.67319 30.493 1.59322 34.7781 1.59397C39.9408 1.59488 44.9889 3.16201 49.2923 6.09975C53.5958 9.03749 56.9638 13.2157 58.9762 18.1129C59.0047 18.1837 59.0529 18.2443 59.1147 18.2871C59.1764 18.33 59.2491 18.3531 59.3236 18.3536H60.1826C60.2315 18.3541 60.2798 18.3419 60.3229 18.318C60.3659 18.2941 60.4024 18.2593 60.4289 18.217C60.4594 18.1771 60.4791 18.1295 60.4857 18.0792C60.4924 18.0288 60.4859 17.9776 60.4668 17.9307ZM59.1467 18.2365C59.1642 18.2498 59.1833 18.2607 59.2036 18.269C59.1846 18.256 59.1657 18.2495 59.1467 18.2365Z" fill="url(#paint0_radial_123_161)"/>
</g>
<defs>
<radialGradient id="paint0_radial_123_161" cx="0" cy="0" r="1" gradientUnits="userSpaceOnUse" gradientTransform="translate(59.6596 18.3211) scale(48.0122 49.4539)">
<stop offset="0.01" stop-color="white"/>
<stop offset="0.03" stop-color="#CBFFFF"/>
<stop offset="0.06" stop-color="#96FFFF"/>
<stop offset="0.08" stop-color="#68FFFF"/>
<stop offset="0.11" stop-color="#43FFFF"/>
<stop offset="0.14" stop-color="#25FFFF"/>
<stop offset="0.16" stop-color="#11FFFF"/>
<stop offset="0.19" stop-color="#04FFFF"/>
<stop offset="0.22" stop-color="#00FFFF"/>
<stop offset="1" stop-color="#0000FF" stop-opacity="0"/>
</radialGradient>
<clipPath id="clip0_123_161">
<rect width="66" height="37" fill="white"/>
</clipPath>
</defs>
</svg>
