<svg width="25" height="14" viewBox="0 0 25 14" fill="none" xmlns="http://www.w3.org/2000/svg">
<path d="M0 4.04278V14H4.25532V9.58289H9.34651V6.13904H4.17933V4.41711C4.154 4.06774 4.33131 3.36898 5.24316 3.36898H11.0942L12.462 0H4.25532C2.96353 0 0 1.04813 0 4.04278Z" fill="#F8C700"/>
<path d="M17.3252 0C15.7295 0 14.5137 0.673797 14.0578 1.87166L12.614 5.9893L16.6413 5.61497L17.3252 3.81818L17.8571 5.46524L21.7325 5.09091C21.5299 4.39216 21.0182 2.77005 20.5927 1.87166C20.0608 0.748663 18.921 0 17.3252 0Z" fill="white"/>
<path d="M23.6322 10.4813L19.1489 10.1818L20.3647 14H25L23.6322 10.4813Z" fill="white"/>
<path d="M15.3495 9.88235L11.3222 9.50802L9.65046 14H14.0578L15.3495 9.88235Z" fill="white"/>
</svg>
