<svg width="133" height="23" viewBox="0 0 133 23" fill="none" xmlns="http://www.w3.org/2000/svg">
<g clip-path="url(#clip0_7_1520)">
<path d="M16.3826 22.9035H10.2528V14.1789H6.28704V22.9035H0V0.398233H6.27496V8.79697H10.2406V0.398233H16.3705V22.9035H16.3826ZM44.4809 23C50.7559 23 55.8823 17.787 55.8823 11.4397C55.8823 4.99582 50.7559 0.012085 44.4809 0.012085C38.1213 0.012085 34.9052 4.62174 34.1315 6.50422C34.1315 3.7167 31.3385 0.386167 28.0983 0.386167H17.628V22.9035H27.3729C31.3386 22.9035 34.1315 19.5247 34.1315 16.5562C35.0141 18.3904 38.1334 23 44.4809 23ZM26.5991 13.8531C27.5059 13.8531 28.2313 14.734 28.2313 15.7356C28.2313 16.7854 27.5059 17.6663 26.5991 17.6663H23.4797V13.8531H26.5991ZM26.5991 5.4061C27.5059 5.4061 28.2313 6.28701 28.2313 7.28858C28.2313 8.29015 27.5059 9.17106 26.5991 9.17106H23.4797V5.4061H26.5991ZM30.722 11.4397C31.4474 11.3914 32.6322 10.5588 33.0796 10.064C32.9103 10.6674 32.9103 12.574 33.0796 13.1774C32.5839 12.4413 31.4474 11.5724 30.722 11.4397ZM38.7621 11.4397C38.7621 8.26602 41.3495 5.70778 44.5293 5.71985C47.7212 5.74398 50.2602 8.33842 50.2239 11.5242C50.1755 14.6616 47.6365 17.1836 44.493 17.1836C41.3253 17.1836 38.7621 14.6254 38.7621 11.4397ZM44.4809 15.9528C46.9232 15.9528 48.9786 13.9497 48.9786 11.4397C48.9786 8.92971 46.9232 6.9507 44.4809 6.9507C41.9661 6.9507 39.9591 8.92971 39.9591 11.4397C39.9591 13.9497 41.9661 15.9528 44.4809 15.9528Z" fill="white"/>
<path d="M88.6475 8.36254C88.5266 2.90819 84.6576 0.0241339 79.9182 0.0241339C77.3187 0.0241339 74.9731 0.892969 73.3772 2.58237C71.7813 0.892969 69.4357 0.0241339 66.8363 0.0241339C62.0968 0.0241339 58.2278 2.92025 58.1069 8.37461C58.1069 8.38667 58.1069 8.39874 58.1069 8.41081V20.852C58.1069 21.9984 59.0379 22.9155 60.1744 22.9155H62.133C62.3265 22.9155 62.4837 22.7587 62.4837 22.5656V8.39874C62.5683 5.70777 64.4786 4.28384 66.8363 4.28384C69.1939 4.28384 71.1042 5.70777 71.1888 8.39874V20.84C71.1888 21.9864 72.1198 22.9035 73.2563 22.9035H75.215C75.4084 22.9035 75.5656 22.7466 75.5656 22.5535V8.38667C75.6502 5.6957 77.5605 4.27177 79.9182 4.27177C82.2758 4.27177 84.1861 5.6957 84.2708 8.38667V20.8279C84.2708 21.9743 85.2017 22.8914 86.3382 22.8914H88.2969C88.4903 22.8914 88.6475 22.7345 88.6475 22.5415V8.37461C88.6596 8.38667 88.6475 8.37461 88.6475 8.36254ZM132.742 0.374083H129.417C128.498 0.374083 127.639 0.832633 127.119 1.59286L123.444 7.02309C122.96 7.73505 121.921 7.73505 121.437 7.02309L117.761 1.59286C117.254 0.832633 116.383 0.374083 115.464 0.374083H112.139C111.934 0.374083 111.813 0.603357 111.922 0.772297L118.475 10.4743C118.946 11.1742 118.946 12.0913 118.475 12.7912L111.922 22.4932C111.801 22.6621 111.934 22.8914 112.139 22.8914H115.464C116.383 22.8914 117.242 22.4328 117.761 21.6726L121.437 16.2424C121.921 15.5304 122.96 15.5304 123.444 16.2424L127.119 21.6726C127.627 22.4328 128.498 22.8914 129.417 22.8914H132.742C132.947 22.8914 133.068 22.6621 132.959 22.4932L126.394 12.8033C125.922 12.1034 125.922 11.1863 126.394 10.4864L132.947 0.784365C133.068 0.615425 132.947 0.374083 132.742 0.374083ZM110.422 0.374083H108.464C107.472 0.374083 106.638 1.07398 106.433 2.00315C104.692 0.675762 102.503 0 100.146 0C94.4147 0 89.7598 3.98216 89.7598 11.5C89.7598 19.0178 94.4026 23 100.146 23C102.491 23 104.655 22.3363 106.396 21.0331C106.493 22.0829 107.376 22.9155 108.464 22.9155H110.422C110.616 22.9155 110.773 22.7587 110.773 22.5656V0.724029C110.761 0.530955 110.616 0.374083 110.422 0.374083ZM100.146 18.7282C96.724 18.7282 93.9431 16.2303 93.9431 11.5121C93.9431 6.79381 96.724 4.29591 100.146 4.29591C103.567 4.29591 106.348 6.79381 106.348 11.5121C106.348 16.2303 103.567 18.7282 100.146 18.7282Z" fill="url(#paint0_linear_7_1520)"/>
<mask id="mask0_7_1520" style="mask-type:luminance" maskUnits="userSpaceOnUse" x="58" y="0" width="75" height="23">
<path d="M88.6475 8.36254C88.5266 2.90819 84.6576 0.0241358 79.9182 0.0241358C77.3187 0.0241358 74.9731 0.892971 73.3772 2.58237C71.7813 0.892971 69.4357 0.0241358 66.8363 0.0241358C62.0968 0.0241358 58.2278 2.92025 58.1069 8.37461C58.1069 8.38667 58.1069 8.39874 58.1069 8.41081V20.852C58.1069 21.9984 59.0379 22.9155 60.1744 22.9155H62.133C62.3265 22.9155 62.4837 22.7587 62.4837 22.5656V8.39874C62.5683 5.70777 64.4786 4.28384 66.8363 4.28384C69.1939 4.28384 71.1042 5.70777 71.1888 8.39874V20.84C71.1888 21.9864 72.1198 22.9035 73.2563 22.9035H75.215C75.4084 22.9035 75.5656 22.7466 75.5656 22.5535V8.38667C75.6502 5.6957 77.5605 4.27177 79.9182 4.27177C82.2758 4.27177 84.1861 5.6957 84.2708 8.38667V20.8279C84.2708 21.9743 85.2017 22.8914 86.3382 22.8914H88.2969C88.4903 22.8914 88.6475 22.7345 88.6475 22.5415V8.37461C88.6596 8.38667 88.6475 8.37461 88.6475 8.36254ZM132.742 0.374083H129.417C128.498 0.374083 127.639 0.832635 127.119 1.59287L123.444 7.02309C122.96 7.73505 121.921 7.73505 121.437 7.02309L117.761 1.59287C117.254 0.832635 116.383 0.374083 115.464 0.374083H112.139C111.934 0.374083 111.813 0.603359 111.922 0.772299L118.475 10.4743C118.946 11.1742 118.946 12.0913 118.475 12.7912L111.922 22.4932C111.801 22.6621 111.934 22.8914 112.139 22.8914H115.464C116.383 22.8914 117.242 22.4328 117.761 21.6726L121.437 16.2424C121.921 15.5304 122.96 15.5304 123.444 16.2424L127.119 21.6726C127.627 22.4328 128.498 22.8914 129.417 22.8914H132.742C132.947 22.8914 133.068 22.6621 132.959 22.4932L126.394 12.8033C125.922 12.1034 125.922 11.1863 126.394 10.4864L132.947 0.784365C133.068 0.615425 132.947 0.374083 132.742 0.374083ZM110.422 0.374083H108.464C107.472 0.374083 106.638 1.07398 106.433 2.00315C104.692 0.675762 102.503 0 100.146 0C94.4147 0 89.7598 3.98216 89.7598 11.5C89.7598 19.0178 94.4026 23 100.146 23C102.491 23 104.655 22.3363 106.396 21.0331C106.493 22.0829 107.376 22.9155 108.464 22.9155H110.422C110.616 22.9155 110.773 22.7587 110.773 22.5656V0.724029C110.761 0.530955 110.616 0.374083 110.422 0.374083ZM100.146 18.7282C96.724 18.7282 93.9431 16.2303 93.9431 11.5121C93.9431 6.79381 96.724 4.29591 100.146 4.29591C103.567 4.29591 106.348 6.79381 106.348 11.5121C106.348 16.2303 103.567 18.7282 100.146 18.7282Z" fill="white"/>
</mask>
<g mask="url(#mask0_7_1520)">
<path d="M76.1338 24.6532C83.519 24.6532 89.5059 16.8734 89.5059 7.27648C89.5059 -2.32041 83.519 -10.1002 76.1338 -10.1002C68.7486 -10.1002 62.7618 -2.32041 62.7618 7.27648C62.7618 16.8734 68.7486 24.6532 76.1338 24.6532Z" fill="url(#paint1_radial_7_1520)"/>
</g>
<mask id="mask1_7_1520" style="mask-type:luminance" maskUnits="userSpaceOnUse" x="58" y="0" width="75" height="23">
<path d="M88.6475 8.36254C88.5266 2.90819 84.6576 0.0241358 79.9182 0.0241358C77.3187 0.0241358 74.9731 0.892971 73.3772 2.58237C71.7813 0.892971 69.4357 0.0241358 66.8363 0.0241358C62.0968 0.0241358 58.2278 2.92025 58.1069 8.37461C58.1069 8.38667 58.1069 8.39874 58.1069 8.41081V20.852C58.1069 21.9984 59.0379 22.9155 60.1744 22.9155H62.133C62.3265 22.9155 62.4837 22.7587 62.4837 22.5656V8.39874C62.5683 5.70777 64.4786 4.28384 66.8363 4.28384C69.1939 4.28384 71.1042 5.70777 71.1888 8.39874V20.84C71.1888 21.9864 72.1198 22.9035 73.2563 22.9035H75.215C75.4084 22.9035 75.5656 22.7466 75.5656 22.5535V8.38667C75.6502 5.6957 77.5605 4.27177 79.9182 4.27177C82.2758 4.27177 84.1861 5.6957 84.2708 8.38667V20.8279C84.2708 21.9743 85.2017 22.8914 86.3382 22.8914H88.2969C88.4903 22.8914 88.6475 22.7345 88.6475 22.5415V8.37461C88.6596 8.38667 88.6475 8.37461 88.6475 8.36254ZM132.742 0.374083H129.417C128.498 0.374083 127.639 0.832635 127.119 1.59287L123.444 7.02309C122.96 7.73505 121.921 7.73505 121.437 7.02309L117.761 1.59287C117.254 0.832635 116.383 0.374083 115.464 0.374083H112.139C111.934 0.374083 111.813 0.603359 111.922 0.772299L118.475 10.4743C118.946 11.1742 118.946 12.0913 118.475 12.7912L111.922 22.4932C111.801 22.6621 111.934 22.8914 112.139 22.8914H115.464C116.383 22.8914 117.242 22.4328 117.761 21.6726L121.437 16.2424C121.921 15.5304 122.96 15.5304 123.444 16.2424L127.119 21.6726C127.627 22.4328 128.498 22.8914 129.417 22.8914H132.742C132.947 22.8914 133.068 22.6621 132.959 22.4932L126.394 12.8033C125.922 12.1034 125.922 11.1863 126.394 10.4864L132.947 0.784365C133.068 0.615425 132.947 0.374083 132.742 0.374083ZM110.422 0.374083H108.464C107.472 0.374083 106.638 1.07398 106.433 2.00315C104.692 0.675762 102.503 0 100.146 0C94.4147 0 89.7598 3.98216 89.7598 11.5C89.7598 19.0178 94.4026 23 100.146 23C102.491 23 104.655 22.3363 106.396 21.0331C106.493 22.0829 107.376 22.9155 108.464 22.9155H110.422C110.616 22.9155 110.773 22.7587 110.773 22.5656V0.724029C110.761 0.530955 110.616 0.374083 110.422 0.374083ZM100.146 18.7282C96.724 18.7282 93.9431 16.2303 93.9431 11.5121C93.9431 6.79381 96.724 4.29591 100.146 4.29591C103.567 4.29591 106.348 6.79381 106.348 11.5121C106.348 16.2303 103.567 18.7282 100.146 18.7282Z" fill="white"/>
</mask>
<g mask="url(#mask1_7_1520)">
<path d="M89.4576 41.1973C104.655 41.1973 116.976 32.4936 116.976 21.7571C116.976 11.0206 104.655 2.31689 89.4576 2.31689C74.2599 2.31689 61.9396 11.0206 61.9396 21.7571C61.9396 32.4936 74.2599 41.1973 89.4576 41.1973Z" fill="url(#paint2_radial_7_1520)"/>
</g>
<mask id="mask2_7_1520" style="mask-type:luminance" maskUnits="userSpaceOnUse" x="58" y="0" width="75" height="23">
<path d="M88.6475 8.36254C88.5266 2.90819 84.6576 0.0241358 79.9182 0.0241358C77.3187 0.0241358 74.9731 0.892971 73.3772 2.58237C71.7813 0.892971 69.4357 0.0241358 66.8363 0.0241358C62.0968 0.0241358 58.2278 2.92025 58.1069 8.37461C58.1069 8.38667 58.1069 8.39874 58.1069 8.41081V20.852C58.1069 21.9984 59.0379 22.9155 60.1744 22.9155H62.133C62.3265 22.9155 62.4837 22.7587 62.4837 22.5656V8.39874C62.5683 5.70777 64.4786 4.28384 66.8363 4.28384C69.1939 4.28384 71.1042 5.70777 71.1888 8.39874V20.84C71.1888 21.9864 72.1198 22.9035 73.2563 22.9035H75.215C75.4084 22.9035 75.5656 22.7466 75.5656 22.5535V8.38667C75.6502 5.6957 77.5605 4.27177 79.9182 4.27177C82.2758 4.27177 84.1861 5.6957 84.2708 8.38667V20.8279C84.2708 21.9743 85.2017 22.8914 86.3382 22.8914H88.2969C88.4903 22.8914 88.6475 22.7345 88.6475 22.5415V8.37461C88.6596 8.38667 88.6475 8.37461 88.6475 8.36254ZM132.742 0.374083H129.417C128.498 0.374083 127.639 0.832635 127.119 1.59287L123.444 7.02309C122.96 7.73505 121.921 7.73505 121.437 7.02309L117.761 1.59287C117.254 0.832635 116.383 0.374083 115.464 0.374083H112.139C111.934 0.374083 111.813 0.603359 111.922 0.772299L118.475 10.4743C118.946 11.1742 118.946 12.0913 118.475 12.7912L111.922 22.4932C111.801 22.6621 111.934 22.8914 112.139 22.8914H115.464C116.383 22.8914 117.242 22.4328 117.761 21.6726L121.437 16.2424C121.921 15.5304 122.96 15.5304 123.444 16.2424L127.119 21.6726C127.627 22.4328 128.498 22.8914 129.417 22.8914H132.742C132.947 22.8914 133.068 22.6621 132.959 22.4932L126.394 12.8033C125.922 12.1034 125.922 11.1863 126.394 10.4864L132.947 0.784365C133.068 0.615425 132.947 0.374083 132.742 0.374083ZM110.422 0.374083H108.464C107.472 0.374083 106.638 1.07398 106.433 2.00315C104.692 0.675762 102.503 0 100.146 0C94.4147 0 89.7598 3.98216 89.7598 11.5C89.7598 19.0178 94.4026 23 100.146 23C102.491 23 104.655 22.3363 106.396 21.0331C106.493 22.0829 107.376 22.9155 108.464 22.9155H110.422C110.616 22.9155 110.773 22.7587 110.773 22.5656V0.724029C110.761 0.530955 110.616 0.374083 110.422 0.374083ZM100.146 18.7282C96.724 18.7282 93.9431 16.2303 93.9431 11.5121C93.9431 6.79381 96.724 4.29591 100.146 4.29591C103.567 4.29591 106.348 6.79381 106.348 11.5121C106.348 16.2303 103.567 18.7282 100.146 18.7282Z" fill="white"/>
</mask>
<g mask="url(#mask2_7_1520)">
<path d="M106.348 16.2545C114.615 16.2545 121.316 9.56602 121.316 1.31536C121.316 -6.9353 114.615 -13.6238 106.348 -13.6238C98.0814 -13.6238 91.38 -6.9353 91.38 1.31536C91.38 9.56602 98.0814 16.2545 106.348 16.2545Z" fill="url(#paint3_radial_7_1520)"/>
</g>
</g>
<defs>
<linearGradient id="paint0_linear_7_1520" x1="58.1115" y1="11.5066" x2="132.995" y2="11.5066" gradientUnits="userSpaceOnUse">
<stop stop-color="#991EEB"/>
<stop offset="0.399" stop-color="#5822B4"/>
<stop offset="0.727" stop-color="#5822B4"/>
<stop offset="1" stop-color="#991EEB"/>
</linearGradient>
<radialGradient id="paint1_radial_7_1520" cx="0" cy="0" r="1" gradientUnits="userSpaceOnUse" gradientTransform="translate(76.1391 7.27196) scale(13.3714 17.3731)">
<stop stop-color="#7BA7F2" stop-opacity="0.5"/>
<stop offset="1" stop-color="#7BA7F2" stop-opacity="0"/>
</radialGradient>
<radialGradient id="paint2_radial_7_1520" cx="0" cy="0" r="1" gradientUnits="userSpaceOnUse" gradientTransform="translate(89.4526 21.7536) scale(27.5129 19.4443)">
<stop offset="0.2" stop-color="#7BA7F2"/>
<stop offset="1" stop-color="#7BA7F2" stop-opacity="0"/>
</radialGradient>
<radialGradient id="paint3_radial_7_1520" cx="0" cy="0" r="1" gradientUnits="userSpaceOnUse" gradientTransform="translate(106.346 1.32001) scale(14.9648 14.9359)">
<stop stop-color="#7BA7F2"/>
<stop offset="1" stop-color="#7BA7F2" stop-opacity="0"/>
</radialGradient>
<clipPath id="clip0_7_1520">
<rect width="133" height="23" fill="white"/>
</clipPath>
</defs>
</svg>
