<svg width="25" height="13" viewBox="0 0 25 13" fill="none" xmlns="http://www.w3.org/2000/svg">
<path d="M15.0743 4.19967C15.0526 4.0992 15.0022 4.02564 14.9239 3.97854C14.8457 3.93189 14.6983 3.90812 14.4822 3.90812V9.07977C14.767 9.07977 14.9426 9.02101 15.0087 8.9026C15.0743 8.78418 15.1074 8.46303 15.1074 7.93869V4.88414C15.1074 4.528 15.0961 4.30014 15.0743 4.19967ZM15.0743 4.19967C15.0526 4.0992 15.0022 4.02564 14.9239 3.97854C14.8457 3.93189 14.6983 3.90812 14.4822 3.90812V9.07977C14.767 9.07977 14.9426 9.02101 15.0087 8.9026C15.0743 8.78418 15.1074 8.46303 15.1074 7.93869V4.88414C15.1074 4.528 15.0961 4.30014 15.0743 4.19967ZM23.9961 0H1.01391C0.439565 0.0973329 0 0.635131 0 1.28327V11.7006C0 12.4182 0.537826 13 1.20174 13H23.8083C24.4196 13 24.9243 12.5062 25 11.867V1.11731C24.9322 0.544975 24.5204 0.0888107 23.9961 0ZM4.99913 10.4909H3.01522V2.61229H4.99913V10.4909ZM11.7991 10.4393H10.067L10.0604 5.12142L9.36696 10.4393H8.12913L7.39783 5.23714L7.39174 10.4393H5.65391V2.56071H8.22609C8.30174 3.03795 8.38087 3.59728 8.46391 4.24004C8.48261 4.37325 8.57739 5.04068 8.74783 6.24142L9.20739 2.56071H11.7991V10.4393ZM17.0061 8.10196C17.0061 8.8084 16.9678 9.28072 16.903 9.51844C16.8387 9.75662 16.7261 9.94276 16.5657 10.0773C16.4048 10.2114 16.2065 10.3056 15.9704 10.359C15.813 10.3949 15.4574 10.4214 14.9035 10.4393H12.5V2.56071H13.98C14.9404 2.56071 15.4926 2.60646 15.8313 2.69706C16.1696 2.78767 16.427 2.93658 16.6035 3.14381C16.7796 3.35103 16.8896 3.58203 16.9339 3.83635C16.9778 4.09023 17.0061 4.5899 17.0061 5.33537V8.10196ZM22.1761 8.56171C22.1761 9.03447 22.1452 9.38612 22.0835 9.61757C22.0217 9.84857 21.8765 10.0495 21.6487 10.2191C21.4204 10.3891 21.15 10.4738 20.8365 10.4738C20.6113 10.4738 20.3204 10.4236 20.1261 10.3227C19.9309 10.2222 19.753 10.0706 19.5913 9.86875C19.583 9.90239 19.5422 10.0697 19.4678 10.3707H17.6817V2.49208H19.593V5.05503C19.7513 4.8662 19.9278 4.72536 20.1222 4.63251C20.317 4.53966 20.6091 4.49256 20.8374 4.49256C21.1 4.49256 21.3278 4.53473 21.5209 4.61905C21.7139 4.70338 21.8613 4.82134 21.9626 4.9734C22.0639 5.12545 22.1248 5.27392 22.1452 5.41969C22.1657 5.56547 22.1761 5.87586 22.1761 6.35131V8.56171ZM19.8752 5.63499C19.757 5.63499 19.6804 5.67985 19.6457 5.76821C19.6104 5.85747 19.593 6.08129 19.593 6.44012V8.52224C19.593 8.86851 19.6126 9.08964 19.6526 9.18652C19.6926 9.28386 19.7713 9.3323 19.8896 9.3323C20.0078 9.3323 20.1704 9.28161 20.207 9.18159C20.2313 9.11476 20.2496 8.87389 20.2622 8.45899V6.44012C20.2622 6.10686 20.2413 5.88931 20.2 5.7875C20.1583 5.68568 19.9961 5.63499 19.8752 5.63499ZM14.9239 3.97854C14.8457 3.93189 14.6983 3.90812 14.4822 3.90812V9.07977C14.767 9.07977 14.9426 9.02101 15.0087 8.9026C15.0743 8.78418 15.1074 8.46303 15.1074 7.93869V4.88414C15.1074 4.528 15.0961 4.30014 15.0743 4.19967C15.0526 4.0992 15.0022 4.02564 14.9239 3.97854Z" fill="#F6C700"/>
<path d="M15.0743 4.19967C15.0526 4.0992 15.0022 4.02564 14.9239 3.97854C14.8457 3.93189 14.6983 3.90812 14.4822 3.90812V9.07977C14.767 9.07977 14.9426 9.02101 15.0087 8.9026C15.0743 8.78418 15.1074 8.46303 15.1074 7.93869V4.88414C15.1074 4.528 15.0961 4.30014 15.0743 4.19967ZM15.0743 4.19967C15.0526 4.0992 15.0022 4.02564 14.9239 3.97854C14.8457 3.93189 14.6983 3.90812 14.4822 3.90812V9.07977C14.767 9.07977 14.9426 9.02101 15.0087 8.9026C15.0743 8.78418 15.1074 8.46303 15.1074 7.93869V4.88414C15.1074 4.528 15.0961 4.30014 15.0743 4.19967ZM23.9961 0H1.01391C0.439565 0.0973329 0 0.635131 0 1.28327V11.7006C0 12.4182 0.537826 13 1.20174 13H23.8083C24.4196 13 24.9243 12.5062 25 11.867V1.11731C24.9322 0.544975 24.5204 0.0888107 23.9961 0ZM4.99913 10.4909H3.01522V2.61229H4.99913V10.4909ZM11.7991 10.4393H10.067L10.0604 5.12142L9.36696 10.4393H8.12913L7.39783 5.23714L7.39174 10.4393H5.65391V2.56071H8.22609C8.30174 3.03795 8.38087 3.59728 8.46391 4.24004C8.48261 4.37325 8.57739 5.04068 8.74783 6.24142L9.20739 2.56071H11.7991V10.4393ZM17.0061 8.10196C17.0061 8.8084 16.9678 9.28072 16.903 9.51844C16.8387 9.75662 16.7261 9.94276 16.5657 10.0773C16.4048 10.2114 16.2065 10.3056 15.9704 10.359C15.813 10.3949 15.4574 10.4214 14.9035 10.4393H12.5V2.56071H13.98C14.9404 2.56071 15.4926 2.60646 15.8313 2.69706C16.1696 2.78767 16.427 2.93658 16.6035 3.14381C16.7796 3.35103 16.8896 3.58203 16.9339 3.83635C16.9778 4.09023 17.0061 4.5899 17.0061 5.33537V8.10196ZM22.1761 8.56171C22.1761 9.03447 22.1452 9.38612 22.0835 9.61757C22.0217 9.84857 21.8765 10.0495 21.6487 10.2191C21.4204 10.3891 21.15 10.4738 20.8365 10.4738C20.6113 10.4738 20.3204 10.4236 20.1261 10.3227C19.9309 10.2222 19.753 10.0706 19.5913 9.86875C19.583 9.90239 19.5422 10.0697 19.4678 10.3707H17.6817V2.49208H19.593V5.05503C19.7513 4.8662 19.9278 4.72536 20.1222 4.63251C20.317 4.53966 20.6091 4.49256 20.8374 4.49256C21.1 4.49256 21.3278 4.53473 21.5209 4.61905C21.7139 4.70338 21.8613 4.82134 21.9626 4.9734C22.0639 5.12545 22.1248 5.27392 22.1452 5.41969C22.1657 5.56547 22.1761 5.87586 22.1761 6.35131V8.56171ZM19.8752 5.63499C19.757 5.63499 19.6804 5.67985 19.6457 5.76821C19.6104 5.85747 19.593 6.08129 19.593 6.44012V8.52224C19.593 8.86851 19.6126 9.08964 19.6526 9.18652C19.6926 9.28386 19.7713 9.3323 19.8896 9.3323C20.0078 9.3323 20.1704 9.28161 20.207 9.18159C20.2313 9.11476 20.2496 8.87389 20.2622 8.45899V6.44012C20.2622 6.10686 20.2413 5.88931 20.2 5.7875C20.1583 5.68568 19.9961 5.63499 19.8752 5.63499ZM14.9239 3.97854C14.8457 3.93189 14.6983 3.90812 14.4822 3.90812V9.07977C14.767 9.07977 14.9426 9.02101 15.0087 8.9026C15.0743 8.78418 15.1074 8.46303 15.1074 7.93869V4.88414C15.1074 4.528 15.0961 4.30014 15.0743 4.19967C15.0526 4.0992 15.0022 4.02564 14.9239 3.97854Z" fill="#F6C700"/>
</svg>
