<svg width="84" height="23" viewBox="0 0 84 23" fill="none" xmlns="http://www.w3.org/2000/svg">
<g clip-path="url(#clip0_4_324)">
<path d="M71.7054 21.5379C72.8757 21.652 74.0441 21.7752 75.2108 21.9028L77.7864 15.4841L80.2346 22.4943C81.4912 22.6534 82.7461 22.8197 83.9982 22.994L79.7065 10.7003L84 0.000244141H80.3637L80.3263 0.0523852L78.0072 5.83297L75.9714 0.000244141H72.3814L76.088 10.6158L71.7054 21.5379Z" fill="#B81D24"/>
<path d="M68.9897 21.2864V0.000488281H65.4006V20.988C66.5985 21.0806 67.7954 21.1813 68.9897 21.2864Z" fill="#B81D24"/>
<path d="M42.0318 20.0958C43.0008 20.0958 43.968 20.103 44.9342 20.1111V12.291H49.2456V8.96075H44.9342V3.33387H49.8993V0H41.3309V20.0986C41.5643 20.0986 41.7976 20.0958 42.0318 20.0958Z" fill="#B81D24"/>
<path d="M30.8892 20.2993C32.0843 20.2561 33.2813 20.2202 34.48 20.1905V3.33415H37.834V0.000244141H27.5343V3.33415H30.8892V20.2993Z" fill="#B81D24"/>
<path d="M3.44303 22.5442V9.86215L7.69202 22.0318C8.99851 21.8835 10.3077 21.7442 11.6195 21.613V0.000732422H8.17649V13.1367L3.59086 0.000732422H3.44303H0V22.9999H0.0213732C1.15954 22.8408 2.3004 22.6898 3.44303 22.5442Z" fill="#B81D24"/>
<path d="M24.0745 3.33391V0H15.5052V17.9144V21.2491V21.252C18.3489 21.0039 21.2023 20.7963 24.0674 20.6273V20.6244V19.6635V17.2905C22.4109 17.3876 20.7579 17.5 19.1086 17.624V12.2919H23.4199V8.95988H19.1086V3.33391H24.0745Z" fill="#B81D24"/>
<path d="M57.0122 17.1314V0H53.408V16.9741V20.308V20.3116C56.2748 20.4177 59.1309 20.566 61.9772 20.752V20.7477V19.6709V17.4138C60.3252 17.306 58.6704 17.2123 57.0122 17.1314Z" fill="#B81D24"/>
</g>
<defs>
<clipPath id="clip0_4_324">
<rect width="84" height="23" fill="white"/>
</clipPath>
</defs>
</svg>
