<svg width="125" height="38" viewBox="0 0 125 38" fill="none" xmlns="http://www.w3.org/2000/svg">
<path d="M61.9299 38.0002V37.9393C61.9924 37.8632 62.1017 37.8175 62.1955 37.8327C62.6484 37.8175 63.0857 37.8175 63.5387 37.8327C63.6324 37.8327 63.7418 37.8632 63.8042 37.9393V38.0002H61.9299Z" fill="#D1EFFA"/>
<path d="M63.8042 37.9393C63.1794 37.9241 62.5546 37.9241 61.9299 37.9393C61.0708 37.8936 60.2118 37.8632 59.3527 37.8023C57.0723 37.6348 54.8076 37.2999 52.5896 36.7974C44.9206 35.0617 38.1888 31.5751 32.316 26.5051C31.7693 26.0331 31.2539 25.5459 30.7228 25.0587C30.5979 24.9521 30.4886 24.7999 30.4261 24.6476C30.3324 24.4345 30.3792 24.2061 30.5354 24.0386C30.6916 23.8711 30.9415 23.8102 31.1602 23.9016C31.3007 23.9625 31.4413 24.0234 31.5663 24.0995C37.1735 27.4795 43.2962 29.946 49.7157 31.4077C51.8712 31.8949 54.0422 32.2755 56.2289 32.5496C59.3683 32.9302 62.539 33.0672 65.6941 32.9606C67.3966 32.915 69.0835 32.7627 70.7703 32.5496C74.7063 32.0623 78.5955 31.1945 82.3597 29.9765C84.3433 29.337 86.2801 28.6062 88.17 27.7536C88.4512 27.6013 88.7948 27.5556 89.1072 27.6318C89.6226 27.7536 89.935 28.2712 89.8101 28.7737C89.7944 28.8346 89.7632 28.9107 89.732 28.9716C89.607 29.2 89.4352 29.3979 89.2165 29.5502C87.4203 30.9204 85.4836 32.1232 83.4374 33.1281C79.5795 35.0313 75.4561 36.3863 71.2077 37.1628C68.7554 37.5891 66.2876 37.848 63.8042 37.9393Z" fill="#00A8E1"/>
<path d="M40.6722 7.07732C41.0627 6.84894 41.4688 6.60533 41.8905 6.39218C42.9839 5.84406 44.2022 5.57001 45.4361 5.63091C46.3264 5.67659 47.1386 5.92019 47.7633 6.55965C48.3569 7.15344 48.5755 7.88426 48.638 8.67598C48.6536 8.84346 48.6536 9.01093 48.6536 9.19364V17.0804C48.6536 17.7655 48.5599 17.8569 47.857 17.8569H45.9515C45.8266 17.8569 45.7016 17.8569 45.5766 17.8416C45.3892 17.8264 45.233 17.6742 45.2018 17.4914C45.1705 17.324 45.1706 17.1565 45.1706 16.989V9.93968C45.1862 9.6504 45.1549 9.37634 45.0768 9.10229C44.9519 8.6303 44.5145 8.29534 44.0147 8.26489C43.0932 8.20399 42.1717 8.3867 41.3282 8.76733C41.2033 8.79778 41.1252 8.91958 41.1408 9.04138V17.0499C41.1408 17.2022 41.1408 17.3392 41.1096 17.4914C41.1096 17.7046 40.9378 17.8569 40.7191 17.8569C40.4848 17.8721 40.2505 17.8721 40.0006 17.8721H38.345C37.7671 17.8721 37.6421 17.7351 37.6421 17.1717V9.97013C37.6421 9.7113 37.6265 9.43724 37.564 9.17841C37.4547 8.66075 37.0017 8.29534 36.4707 8.26489C35.5335 8.20399 34.5808 8.3867 33.7373 8.78255C33.6124 8.813 33.5343 8.95003 33.5655 9.07184V17.1869C33.5655 17.7503 33.4406 17.8721 32.8627 17.8721H30.7697C30.223 17.8721 30.0825 17.7198 30.0825 17.2022V6.63578C30.0825 6.51398 30.0981 6.39218 30.1293 6.27037C30.1918 6.08767 30.3792 5.98109 30.5667 5.98109H32.519C32.8002 5.98109 32.972 6.14857 33.0657 6.4074C33.1438 6.62056 33.1907 6.81849 33.2688 7.04687C33.425 7.04687 33.5187 6.94029 33.628 6.87939C34.4871 6.36173 35.393 5.92019 36.4082 5.73749C37.1892 5.58523 37.9701 5.58523 38.7511 5.73749C39.4852 5.88974 40.1412 6.31605 40.5629 6.92506C40.5941 6.97074 40.6254 7.00119 40.6566 7.03164C40.641 7.04687 40.6566 7.04687 40.6722 7.07732Z" fill="#00A8E1"/>
<path d="M73.0508 14.6592C73.1445 14.3547 73.2382 14.0654 73.3319 13.7609C74.0504 11.401 74.7689 9.05625 75.4873 6.69632L75.5811 6.42227C75.6591 6.14821 75.9247 5.98073 76.2058 5.98073H78.5799C79.1735 5.98073 79.2984 6.14821 79.0954 6.69632L78.1582 9.11715C77.1117 11.7664 76.0652 14.4308 75.0188 17.08C74.9875 17.1714 74.9407 17.2627 74.9094 17.3541C74.8001 17.6738 74.4721 17.8869 74.1285 17.8565C73.4412 17.8413 72.754 17.8413 72.0667 17.8565C71.5826 17.8717 71.3014 17.6586 71.1296 17.2323C70.7391 16.2274 70.333 15.2073 69.9425 14.2024C69.0054 11.812 68.0526 9.42166 67.1155 7.01605C67.0218 6.83335 66.9593 6.6202 66.9124 6.42227C66.8656 6.11776 66.9749 5.96551 67.2873 5.96551C68.1776 5.95028 69.0679 5.96551 69.9425 5.96551C70.3174 5.96551 70.4892 6.20911 70.5829 6.52884C70.7547 7.10741 70.9265 7.70119 71.114 8.27976C71.7544 10.3961 72.3791 12.5276 73.0195 14.6439C73.0039 14.6592 73.0195 14.6592 73.0508 14.6592Z" fill="#232F3E"/>
<path d="M17.5871 7.65599C17.6965 7.62554 17.7902 7.56463 17.8527 7.47328C18.1338 7.19923 18.4306 6.9404 18.743 6.69679C19.5552 6.08778 20.5704 5.78327 21.5856 5.8594C21.9917 5.87462 22.1323 5.99642 22.1636 6.37706C22.1948 6.89472 22.1792 7.42761 22.1792 7.94527C22.1948 8.15842 22.1792 8.35635 22.1479 8.56951C22.0855 8.84356 21.9761 8.95014 21.695 8.98059C21.4763 8.99582 21.2733 8.98059 21.0546 8.96536C20.0081 8.87401 18.9929 9.07194 18.0089 9.39167C17.7902 9.4678 17.7902 9.62005 17.7902 9.78753V17.0957C17.7902 17.2327 17.7902 17.3545 17.7746 17.4916C17.759 17.6895 17.6028 17.8417 17.3997 17.8417C17.2904 17.857 17.1654 17.857 17.0561 17.857H15.0256C14.9163 17.857 14.7913 17.857 14.682 17.8417C14.4789 17.8265 14.3227 17.659 14.3071 17.4611C14.2915 17.3393 14.2915 17.2175 14.2915 17.0957V6.74247C14.2915 6.0421 14.3696 5.96597 15.0881 5.96597H16.5875C16.9936 5.96597 17.181 6.103 17.2904 6.48364C17.3997 6.86427 17.4934 7.2449 17.5871 7.65599Z" fill="#00A8E1"/>
<path d="M90.6535 23.0945C91.6844 23.1249 92.6996 23.1858 93.6992 23.4447C93.9804 23.5208 94.2459 23.6121 94.5114 23.7339C94.8707 23.871 95.105 24.2059 95.1518 24.5713C95.2143 24.9977 95.2299 25.4392 95.1987 25.8807C94.9956 28.4843 94.1678 30.9964 92.7933 33.2346C92.2935 34.0415 91.6844 34.7723 90.9815 35.4118C90.8409 35.5488 90.6691 35.6554 90.4817 35.7163C90.1849 35.7924 89.9975 35.6402 89.9819 35.3509C89.9975 35.1986 90.0287 35.0464 90.0912 34.8941C90.6379 33.4629 91.1689 32.047 91.5907 30.5701C91.8406 29.7632 92.0124 28.941 92.1217 28.1036C92.1529 27.7991 92.1686 27.4946 92.1373 27.1901C92.1217 26.6724 91.7781 26.2309 91.2626 26.0786C90.7785 25.9264 90.2786 25.835 89.7632 25.8046C88.3263 25.7437 86.8893 25.8046 85.4679 25.9873L83.578 26.2157C83.375 26.2309 83.1876 26.2157 83.0782 26.033C82.9689 25.8503 83.0157 25.6676 83.1251 25.4849C83.25 25.3174 83.4062 25.1651 83.5937 25.0586C84.7495 24.2516 86.0459 23.7644 87.4203 23.4447C88.4824 23.2315 89.5602 23.1249 90.6535 23.0945Z" fill="#00A8E1"/>
<path d="M84.1091 11.9191V17.4002C84.0779 17.7047 83.9373 17.8417 83.6249 17.857C82.7815 17.8722 81.9537 17.8722 81.1102 17.857C80.7978 17.857 80.6573 17.7047 80.626 17.4154C80.6104 17.3241 80.6104 17.2175 80.6104 17.1261V6.59021C80.626 6.11823 80.751 5.9812 81.2352 5.9812H83.4843C83.9685 5.9812 84.1091 6.11823 84.1091 6.59021V11.9191Z" fill="#232F3E"/>
<path d="M23.6786 11.8882V6.48318C23.6943 6.11777 23.8348 5.98075 24.2097 5.96552C25.0219 5.9503 25.8341 5.9503 26.6463 5.96552C27.0055 5.96552 27.1149 6.0721 27.1461 6.42228C27.1617 6.55931 27.1617 6.68111 27.1617 6.81814V16.9582C27.1617 17.1257 27.1461 17.2932 27.1305 17.4606C27.1149 17.6586 26.9587 17.7956 26.7556 17.8108C26.6619 17.8261 26.5838 17.8261 26.4901 17.8261H24.319C24.2409 17.8261 24.1785 17.8261 24.1004 17.8108C23.8817 17.7956 23.6943 17.6281 23.6786 17.415C23.663 17.2932 23.663 17.1714 23.663 17.0496C23.6786 15.3596 23.6786 13.6239 23.6786 11.8882Z" fill="#00A8E1"/>
<path d="M25.4904 0.515368C25.7403 0.500143 25.9902 0.545819 26.2245 0.621946C27.0679 0.896002 27.5053 1.61159 27.4272 2.54034C27.3647 3.33206 26.7555 3.97152 25.9434 4.09332C25.5997 4.15422 25.2405 4.15422 24.8969 4.09332C24.0066 3.92584 23.3506 3.28638 23.4131 2.19016C23.5068 1.10916 24.2409 0.515368 25.4904 0.515368Z" fill="#00A8E1"/>
<path d="M82.3753 0.515328C82.6877 0.484878 83.0001 0.545779 83.2969 0.667582C83.906 0.895962 84.3277 1.44407 84.359 2.08354C84.4839 3.46904 83.5312 4.16941 82.266 4.13896C82.0942 4.13896 81.9224 4.10851 81.7506 4.07806C80.7822 3.84968 80.2824 3.11886 80.3761 2.06831C80.4542 1.23092 81.1258 0.60668 82.0473 0.530554C82.1567 0.515328 82.266 0.500103 82.3753 0.515328Z" fill="#232F3E"/>
<path d="M11.9799 10.6403C11.9174 9.8486 11.6987 9.07211 11.3707 8.35652C10.7304 7.04714 9.74634 6.08794 8.24691 5.75299C6.5288 5.38758 4.98251 5.75299 3.57678 6.77308C3.48307 6.86444 3.37373 6.94056 3.24878 7.00147C3.21754 6.98624 3.18631 6.97101 3.18631 6.95579C3.13945 6.80354 3.10821 6.65128 3.06135 6.49903C2.9364 6.1184 2.78021 5.98137 2.35849 5.98137C1.88992 5.98137 1.40572 5.99659 0.937149 5.98137C0.577908 5.96614 0.249906 6.01182 0 6.28587C0 11.6147 0 16.9588 0.0156191 22.2725C0.218668 22.5922 0.531051 22.6531 0.890291 22.6379C1.45258 22.6227 2.01487 22.6379 2.57716 22.6379C3.56116 22.6379 3.56116 22.6379 3.56116 21.6939V17.3547C3.56116 17.2481 3.51431 17.1263 3.62364 17.035C4.4046 17.6287 5.35737 17.9942 6.34137 18.0855C7.71586 18.2225 8.96539 17.8876 10.0119 16.9741C10.7772 16.2889 11.3395 15.4058 11.6363 14.4314C12.058 13.183 12.0892 11.9192 11.9799 10.6403ZM8.24691 13.792C8.13757 14.264 7.88767 14.6903 7.52843 15.01C7.12233 15.3449 6.62252 15.5429 6.09147 15.5429C5.29489 15.5886 4.51393 15.4211 3.81107 15.0557C3.63926 14.9795 3.52993 14.8121 3.54555 14.6294V11.8736C3.54555 10.9601 3.56116 10.0465 3.54555 9.13301C3.52993 8.91986 3.65488 8.73715 3.85793 8.66103C4.71698 8.26517 5.60727 8.08246 6.54442 8.26517C7.20042 8.35652 7.76271 8.7676 8.02824 9.36139C8.26253 9.8486 8.4031 10.3815 8.43434 10.9144C8.52805 11.8888 8.52805 12.8632 8.24691 13.792Z" fill="#00A8E1"/>
<path d="M124.984 10.975V11.0359C124.922 10.975 124.891 10.8837 124.922 10.8075V10.6857C124.922 10.6857 124.922 10.6705 124.938 10.6705H124.922V10.5183H124.953C124.953 10.503 124.938 10.503 124.938 10.4878C124.906 10.1985 124.844 9.90925 124.766 9.63519C124.188 7.62545 122.891 6.30084 120.783 5.78318C119.799 5.5548 118.799 5.52435 117.8 5.6766C115.691 5.98111 114.176 7.07734 113.442 9.02618C112.723 10.8837 112.739 12.9239 113.457 14.7814C114.082 16.4714 115.332 17.5371 117.128 17.9787C118.081 18.2071 119.08 18.268 120.064 18.1309C123.344 17.7503 124.703 15.3295 124.922 13.2284H124.906V13.0152C124.891 12.9239 124.875 12.8477 124.969 12.7868V12.8173C124.969 12.8021 124.984 12.7716 125 12.7564V11.0055C125 10.9902 124.984 10.9902 124.984 10.975ZM121.236 13.8678C121.142 14.1876 121.001 14.4768 120.798 14.7509C120.455 15.2229 119.908 15.5274 119.315 15.5731C119.018 15.6035 118.721 15.6035 118.424 15.5426C117.768 15.4208 117.222 14.9945 116.956 14.4007C116.722 13.9287 116.581 13.4111 116.534 12.8934C116.456 11.9951 116.441 11.0968 116.659 10.2138C116.737 9.86357 116.894 9.51339 117.081 9.20888C117.425 8.66077 118.018 8.31059 118.674 8.26491C118.971 8.23446 119.268 8.23446 119.565 8.29536C120.189 8.41716 120.705 8.81302 120.986 9.37636C121.251 9.90925 121.408 10.503 121.439 11.0968C121.454 11.3709 121.47 11.6449 121.454 11.919C121.501 12.5889 121.423 13.2436 121.236 13.8678Z" fill="#232F3E"/>
<path d="M97.604 0.622314H95.4329C94.8394 0.622314 94.7301 0.728892 94.7301 1.30745V6.24046C94.7301 6.34704 94.7769 6.45362 94.6988 6.56019C94.5583 6.54497 94.4802 6.45362 94.3708 6.39272C92.7464 5.46397 91.044 5.29649 89.3258 6.07298C88.1232 6.6211 87.3734 7.61074 86.8893 8.78309C86.4207 9.90977 86.3113 11.0973 86.3426 12.3001C86.3426 13.4268 86.6081 14.5383 87.1235 15.5431C87.7171 16.6546 88.5761 17.5072 89.8257 17.8726C91.5281 18.3903 93.1213 18.1314 94.5739 17.0809C94.6832 17.02 94.7457 16.9134 94.8863 16.883C94.9644 17.0504 95.0268 17.2332 95.0581 17.4159C95.1205 17.6595 95.3392 17.8269 95.6047 17.8269H95.9796C96.5419 17.8269 97.0886 17.8422 97.6352 17.8269C98.0726 17.8269 98.1975 17.6899 98.2131 17.2484V1.20088C98.1975 0.728892 98.0726 0.622314 97.604 0.622314ZM94.7457 11.8282V14.5992C94.7769 14.7819 94.6676 14.9494 94.4958 15.0255C93.7461 15.4366 92.887 15.604 92.0436 15.4822C91.3251 15.4061 90.7003 14.9798 90.3723 14.3556C90.1224 13.8684 89.9818 13.3507 89.935 12.8178C89.81 11.8586 89.8881 10.8842 90.1224 9.95544C90.2005 9.69661 90.2942 9.45301 90.4348 9.2094C90.7628 8.61562 91.3876 8.23498 92.0748 8.18931C92.9026 8.11318 93.7304 8.26543 94.4802 8.60039C94.6676 8.66129 94.7769 8.844 94.7613 9.04192C94.7301 9.9859 94.7457 10.8994 94.7457 11.8282Z" fill="#232F3E"/>
<path d="M54.3546 12.8783C55.526 13.0915 56.7287 13.1067 57.9002 12.924C58.5874 12.8326 59.2434 12.6347 59.8526 12.315C60.5554 11.9191 61.0708 11.371 61.2895 10.6097C61.8362 8.69133 60.9927 6.75771 58.9466 6.04212C57.947 5.72239 56.8849 5.61581 55.8384 5.75284C53.3706 6.0269 51.7618 7.3515 51.0277 9.65053C50.5123 11.2187 50.5748 12.8174 50.9965 14.4008C51.5432 16.4258 52.9176 17.6286 54.995 18.0549C56.182 18.3137 57.3847 18.2681 58.5718 18.0854C59.1965 17.9788 59.8213 17.8265 60.4148 17.5982C60.7741 17.4611 60.9615 17.248 60.9459 16.8521C60.9303 16.4867 60.9459 16.1061 60.9459 15.7254C60.9459 15.2687 60.7585 15.1316 60.3055 15.2382C59.8525 15.3448 59.4152 15.4362 58.9623 15.5275C57.9939 15.7254 56.9942 15.7254 56.0259 15.558C54.6982 15.2991 53.8392 14.1877 53.9173 12.8174C54.0578 12.8326 54.214 12.8478 54.3546 12.8783ZM53.9641 10.5488C54.011 10.1834 54.1203 9.83323 54.2609 9.49827C54.7295 8.38682 55.7135 8.00619 56.7131 8.06709C56.9942 8.08232 57.2754 8.14322 57.5409 8.2498C57.947 8.41727 58.2125 8.78268 58.2594 9.20899C58.3063 9.46782 58.2906 9.74188 58.2125 10.0007C58.0251 10.5488 57.5722 10.7772 57.0255 10.8838C56.6975 10.9599 56.3539 10.9904 56.0102 10.9599C55.4011 10.9599 54.7763 10.9142 54.1672 10.8229C53.9329 10.7924 53.9329 10.7924 53.9641 10.5488Z" fill="#00A8E1"/>
<path d="M107.038 13.0309C107.944 12.97 108.85 12.8025 109.662 12.3762C110.49 11.9803 111.068 11.2343 111.24 10.3512C111.349 9.80311 111.349 9.22455 111.224 8.67644C110.896 7.30616 110.006 6.45354 108.662 6.012C107.913 5.78362 107.116 5.69227 106.335 5.72272C103.711 5.78362 101.712 7.07778 100.9 9.63563C100.353 11.3256 100.431 13.0461 100.962 14.7361C101.509 16.4718 102.758 17.5224 104.539 17.9943C105.304 18.177 106.101 18.2532 106.882 18.2227C108.022 18.2075 109.162 17.9943 110.24 17.5985C110.693 17.431 110.802 17.2788 110.802 16.8068V15.7105C110.787 15.269 110.599 15.1168 110.146 15.2233C109.803 15.3147 109.475 15.3908 109.131 15.4669C108.085 15.7105 106.991 15.7562 105.929 15.5735C104.867 15.3756 104.148 14.7818 103.867 13.7465C103.789 13.442 103.727 13.1375 103.696 12.8177C103.774 12.8177 103.852 12.8177 103.914 12.8482C104.945 13.0309 105.992 13.107 107.038 13.0309ZM103.774 10.5948C103.883 10.001 104.024 9.42248 104.398 8.93527C104.976 8.18923 105.773 7.97607 106.679 8.06742C106.757 8.06742 106.819 8.09787 106.897 8.09787C107.991 8.26535 108.256 9.11797 108.053 9.94014C107.897 10.5492 107.382 10.7775 106.804 10.8841C106.491 10.945 106.163 10.9755 105.835 10.9602C105.195 10.945 104.57 10.8993 103.945 10.808C103.805 10.7928 103.742 10.7319 103.774 10.5948Z" fill="#232F3E"/>
</svg>
