<svg width="25" height="24" viewBox="0 0 25 24" fill="none" xmlns="http://www.w3.org/2000/svg">
<path fill-rule="evenodd" clip-rule="evenodd" d="M16.2993 0.399144C13.3241 -0.194821 11.3251 -0.0975045 8.58486 0.503171C3.66031 1.82869 0 5.72133 0 11.9966C0 19.8691 5.72213 23.9933 12.6622 23.9933V24C19.6055 24 25 19.8725 25 11.9999C25 5.54012 21.429 1.60385 16.2993 0.399144ZM19.2315 18.5234C16.1007 18.6912 15.462 15.0603 14.2342 15.0838C13.7113 15.0939 13.2976 15.6509 13.4796 16.2986C13.5822 16.651 13.8569 17.1744 14.029 17.4966C14.6446 18.6409 13.7344 19.9295 12.6721 20.0402C10.9081 20.2214 10.1701 19.1812 10.2164 18.1208C10.2628 16.9261 11.2656 15.708 10.2462 15.1879C9.17395 14.6442 8.30355 16.7718 7.2776 17.2449C6.34763 17.6744 5.05692 17.3355 4.60021 16.2952C4.27588 15.5603 4.33545 14.1442 5.76847 13.6073C6.66534 13.2684 8.66097 14.0469 8.76357 13.0603C8.88271 11.9261 6.66534 11.8288 6.00013 11.557C4.82195 11.0737 4.12364 10.0402 4.66971 8.93612C5.08009 8.1039 6.28475 7.76833 7.20479 8.13075C8.30686 8.56699 8.47895 9.72472 9.04488 10.2079C9.53137 10.6207 10.1966 10.6744 10.6301 10.3892C10.9545 10.1777 11.0604 9.71801 10.9379 9.29519C10.7791 8.73143 10.3521 8.38243 9.93513 8.04014C9.19711 7.4294 8.15131 6.90591 8.78343 5.24146C9.29971 3.87568 10.8188 3.8287 10.8188 3.8287C11.4244 3.75152 11.9639 3.94951 12.404 4.34213C12.9931 4.87569 13.1056 5.59046 13.0064 6.34886C12.9203 7.04349 12.6754 7.65088 12.5496 8.3388C12.4007 9.13747 12.8243 9.94284 13.6252 9.97305C14.6777 10.02 14.9921 9.19452 15.1211 8.67438C15.3098 7.91263 15.558 7.20457 16.253 6.76161C17.2524 6.12402 18.6424 6.26161 19.2878 7.4898C19.7941 8.46297 19.632 9.79855 18.8509 10.5267C18.5001 10.8556 18.0765 10.9697 17.6231 10.9764C16.9678 10.9764 16.3125 10.963 15.7069 11.2717C15.2932 11.4831 15.1145 11.8288 15.1145 12.2885C15.1145 12.7482 15.3462 13.0335 15.7168 13.2247C16.4218 13.5838 17.1995 13.6576 17.9607 13.7919C19.0661 13.9865 20.0357 14.3825 20.6579 15.4194L20.6745 15.4496C21.3893 16.6778 20.6447 18.4496 19.2348 18.5234H19.2315Z" fill="#FA320A"/>
</svg>
