<svg width="132" height="19" viewBox="0 0 132 19" fill="none" xmlns="http://www.w3.org/2000/svg">
<path d="M10 15.27L16.18 19L14.54 11.97L20 7.24L12.81 6.63L10 0L7.19 6.63L0 7.24L5.46 11.97L3.82 19L10 15.27Z" fill="#F7F7F7"/>
<path d="M38 15.27L44.18 19L42.54 11.97L48 7.24L40.81 6.63L38 0L35.19 6.63L28 7.24L33.46 11.97L31.82 19L38 15.27Z" fill="#F7F7F7"/>
<path d="M66 15.27L72.18 19L70.54 11.97L76 7.24L68.81 6.63L66 0L63.19 6.63L56 7.24L61.46 11.97L59.82 19L66 15.27Z" fill="#F7F7F7"/>
<path d="M94 15.27L100.18 19L98.54 11.97L104 7.24L96.81 6.63L94 0L91.19 6.63L84 7.24L89.46 11.97L87.82 19L94 15.27Z" fill="#F7F7F7"/>
<path d="M132 7.24L124.81 6.62L122 0L119.19 6.63L112 7.24L117.46 11.97L115.82 19L122 15.27L128.18 19L126.55 11.97L132 7.24ZM122 13.4V4.1L123.71 8.14L128.09 8.52L124.77 11.4L125.77 15.68L122 13.4Z" fill="#F7F7F7"/>
</svg>
