<svg id="Capa_1" data-name="Capa 1" xmlns="http://www.w3.org/2000/svg" viewBox="0 0 64.04 17.32"><defs><style>.cls-1{fill:#515151;}.cls-2{fill:#1d1d1b;}.cls-3{fill:#ff3785;}.cls-4{fill:#33fe88;}.cls-5{fill:#feea48;}.cls-6{fill:#3d81e4;}</style></defs><path class="cls-1" d="M15.68,15.05,3.48,13.6l7.35-9.84,4.85,11.29m3,2.27L11.28,0,0,15.1l18.71,2.22Z"/><path class="cls-1" d="M14.75,2.8h3.11L20,8l2.19-5.26h.27l2.18,5.25L26.75,2.8h3.12L24.93,14.62h-.59L22.28,9.48l-2,5.14h-.59Z"/><path class="cls-1" d="M30.89,2.77H39V5.65H33.92V7.27h3.94v2.88H33.92v1.61H39v2.87H30.89Z"/><path class="cls-1" d="M40.07,14.62V2.8H43V14.62Z"/><path class="cls-1" d="M44,2.8H53.2V5.67h-3l.11,9H47l0-8.95H44Z"/><path class="cls-1" d="M52,14.62l5.7-11.8h.68L64,14.62H60.9L60,12.82H56l-.88,1.8Zm5.28-4.15h1.52L58,8.87Z"/><polygon class="cls-2" points="10.47 6.68 6.16 12.45 13.32 13.29 10.47 6.68"/><polygon class="cls-3" points="6.16 12.45 9.99 10.71 10.47 6.68 6.16 12.45"/><polygon class="cls-4" points="13.32 13.29 9.99 10.71 10.47 6.68 13.32 13.29"/><polygon class="cls-5" points="6.16 12.45 9.99 10.71 13.32 13.29 6.16 12.45"/><polygon class="cls-6" points="10.2 8.94 8.32 11.47 11.45 11.84 10.2 8.94"/></svg>