<?xml version="1.0" encoding="utf-8"?>
<!-- Generator: Adobe Illustrator 25.1.0, SVG Export Plug-In . SVG Version: 6.00 Build 0)  -->
<svg version="1.1" id="Capa_1" xmlns="http://www.w3.org/2000/svg" xmlns:xlink="http://www.w3.org/1999/xlink" x="0px" y="0px"
	 width="92px" height="39px" viewBox="0 0 92 39" style="enable-background:new 0 0 92 39;" xml:space="preserve">
<style type="text/css">
	.st0{fill:url(#SVGID_1_);}
	.st1{fill:#FFFFFF;}
	.st2{fill:url(#SVGID_2_);}
</style>
<g id="Capa_2_1_">
	<g id="Capa_1-2">
		
			<linearGradient id="SVGID_1_" gradientUnits="userSpaceOnUse" x1="26.0135" y1="42.3445" x2="63.9982" y2="4.8168" gradientTransform="matrix(1 0 0 -1 0 43)">
			<stop  offset="0" style="stop-color:#E40000"/>
			<stop  offset="1" style="stop-color:#3450FF"/>
		</linearGradient>
		<path class="st0" d="M30,1h31c10.3,0,18.6,8.3,18.6,18.6v0.8c0,10.3-8.3,18.6-18.6,18.6H30c-10.3,0-18.6-8.3-18.6-18.6v-0.8
			C11.5,9.3,19.8,1,30,1z"/>
		<path class="st1" d="M28.3,27.9l0.7-0.2c0.9-0.2,1.1-0.3,1.1-2V14.2c0-1.7-0.3-1.8-1.1-2L28.3,12v-0.8h9.5V12l-0.9,0.2
			c-0.9,0.2-1.1,0.3-1.1,2v11.2c0,1.9,0.1,2.2,1.9,2.2c1.9,0,2.3-0.3,3.1-1.6c0.7-1.2,1.4-2.5,1.9-3.8h0.9l-0.5,6.6H28.3V27.9z"/>
		<path class="st1" d="M44.1,27.9l0.7-0.2c0.9-0.2,1.1-0.3,1.1-2V14.2c0-1.7-0.3-1.8-1.1-2L44.1,12v-0.8H53c5.6,0,7.8,1.6,7.8,4.8
			c0,2.3-0.9,3.5-3.1,4.2v0.1c1,2.5,2.3,4.8,3.8,7c0.3,0.4,0.4,0.4,0.9,0.6l0.4,0.1v0.8h-6.6c-1.2-1.7-2.8-5.2-3.5-7.4
			c-0.3,0-0.9,0-1.1-0.1v4.4c0,1.7,0.2,1.8,1,2l0.7,0.2v0.8h-9.2V27.9z M55.2,16.3c0-2.8-0.4-3.9-2.3-3.9c-0.5,0-0.9,0-1.3,0.2v7.6
			c0.4,0.1,0.7,0.1,1.1,0.1C54.4,20.2,55.2,19.4,55.2,16.3"/>
		
			<linearGradient id="SVGID_2_" gradientUnits="userSpaceOnUse" x1="44.6921" y1="61.2494" x2="82.6768" y2="23.7218" gradientTransform="matrix(1 0 0 -1 0 43)">
			<stop  offset="0" style="stop-color:#E40000"/>
			<stop  offset="1" style="stop-color:#3450FF"/>
		</linearGradient>
		<path class="st2" d="M80,8.7c0,4.5-3.6,8.1-8.1,8.1c-4.5,0-8.1-3.6-8.1-8.1c0-4.5,3.6-8.1,8.1-8.1c0,0,0,0,0,0
			C76.4,0.5,80,4.2,80,8.7"/>
		<g>
			<path class="st1" d="M71.9,17.3c-4.8,0-8.6-3.9-8.6-8.6c0-4.8,3.9-8.6,8.6-8.6c4.8,0,8.6,3.9,8.6,8.6l0,0c0,2.3-0.9,4.5-2.5,6.1
				S74.2,17.3,71.9,17.3C71.9,17.3,71.9,17.3,71.9,17.3z M71.9,1c-4.2,0-7.6,3.4-7.6,7.6c0,4.2,3.4,7.6,7.6,7.6c0,0,0,0,0,0
				c2,0,3.9-0.8,5.4-2.2c1.4-1.4,2.2-3.4,2.2-5.4l0,0C79.5,4.5,76.1,1,71.9,1z"/>
		</g>
		<polygon class="st1" points="71,4.7 72.8,4.7 72.8,7.8 75.9,7.8 75.9,9.5 72.8,9.5 72.8,12.6 71,12.6 71,9.5 68,9.5 68,7.8 
			71,7.8 		"/>
	</g>
</g>
</svg>
