<svg version="1.1" id="Capa_1" xmlns="http://www.w3.org/2000/svg" x="0" y="0" width="192" height="52" style="enable-background:new 0 0 192 52" xml:space="preserve"><g id="logo"><path d="M23.5 34.7h-3.9l-6-16h4.8l3.1 8.3 3.1-8.3h4.8l-5.9 16zM30.7 34.7v-16h12.8v3.8h-8.6v2.3H43v3.8h-8.1v2.3h8.6v3.8H30.7zM55.6 34.7l-2.8-5h-2.7v5h-4.4v-16h8c.4 0 .8.1 1.2.2.4.1.8.3 1.2.6.4.2.7.5 1 .8.3.3.6.6.8.9.3.4.5.9.6 1.4.1.5.2 1 .2 1.5 0 .8-.2 1.5-.6 2.2-.4.7-.9 1.3-1.6 1.7l3.7 6.6h-4.6zm-3.1-12.4H50v3.5h2.5c.2 0 .5-.1.7-.1.2-.1.4-.2.6-.4.2-.2.3-.3.4-.6s.1-.4.1-.7c0-.2-.1-.5-.1-.7-.1-.2-.2-.4-.4-.6-.2-.2-.4-.3-.6-.4h-.7zM61.7 34.7v-16H66v16h-4.3zM73.2 22.7v2.2h7.3v3.9h-7.3v6h-4.3V19l.3-.3h12.3v3.9l-8.3.1zM83.7 34.7v-16H88v16h-4.3zM98.1 35.2c-1.2 0-2.3-.2-3.3-.7-1-.4-1.9-1.1-2.7-1.8-.8-.8-1.4-1.7-1.8-2.7-.4-1-.7-2.1-.7-3.3 0-1.2.2-2.2.7-3.3.4-1 1-1.9 1.8-2.7.8-.8 1.7-1.4 2.7-1.8 1-.4 2.1-.7 3.3-.7 1.1 0 2.1.2 3.1.6 1 .4 1.9.9 2.7 1.7l-3.3 2.9c-.8-.6-1.6-.8-2.5-.8-.6 0-1.1.1-1.6.3-.5.2-.9.5-1.3.9s-.6.8-.8 1.3c-.2.5-.3 1-.3 1.6 0 .6.1 1.1.3 1.6.2.5.5.9.8 1.3.4.4.8.7 1.3.9.5.2 1 .3 1.6.3.7 0 1.3-.2 1.8-.4.6-.3 1.1-.7 1.5-1.3l3.4 2.8c-.8 1.1-1.8 1.8-3 2.4-1.2.6-2.4.9-3.7.9zM116.5 34.7l-.8-2.2h-4.9l-.8 2.2h-4.5l5.9-16h3.8l5.9 16h-4.6zm-3.3-10.2-1.3 4.2h2.5l-1.2-4.2zM129.5 34.7h-7.1v-16h7.1c1.1 0 2.2.2 3.1.6 1 .4 1.8 1 2.6 1.7s1.3 1.6 1.7 2.6c.4 1 .6 2 .6 3.1s-.2 2.1-.6 3.1c-.4 1-1 1.8-1.7 2.6-.7.7-1.6 1.3-2.6 1.7-1 .4-2 .6-3.1.6zm-.5-12.1h-2.5v8.2h2.5c.6 0 1.1-.1 1.6-.3.5-.2.9-.5 1.3-.9s.7-.8.9-1.3c.2-.5.3-1 .3-1.6 0-.6-.1-1.1-.3-1.6-.2-.5-.5-.9-.9-1.3s-.8-.7-1.3-.9c-.5-.2-1-.3-1.6-.3zM172.3 34.7l-2.8-5h-2.7v5h-4.4v-16h8c.4 0 .8.1 1.2.2.4.1.8.3 1.2.6.4.2.7.5 1 .8.3.3.6.6.8.9.3.4.5.9.6 1.4.1.5.2 1 .2 1.5 0 .8-.2 1.5-.6 2.2-.4.7-.9 1.3-1.6 1.7l3.7 6.6h-4.6zm-3.1-12.4h-2.5v3.5h2.5c.2 0 .5-.1.7-.1.2-.1.4-.2.6-.4.2-.2.3-.3.4-.6.1-.2.1-.4.1-.7 0-.2-.1-.5-.1-.7-.1-.2-.2-.4-.4-.6-.2-.2-.4-.3-.6-.4h-.7z"/><path class="st0" fill="#008639" d="m157.4 32.5 1.6 1.6 3 3c.6.6.7 1.5.3 2.2-.4.7-1.2 1-2 .7-.3-.1-.5-.3-.7-.5l-4.4-4.4c-.1-.1-.1-.1-.2-.1-2.4 1.6-5.1 2.1-7.9 1.3-2.3-.6-4.1-1.9-5.4-3.9-2.7-4.1-2-9.3 1.4-12.4 3.4-3.2 8.5-3.5 12.3-.6 2 1.5 3.2 3.6 3.6 6.1.3 1.7.2 4.4-1.6 7zm-1.8-5.4c.1-3.3-2.7-6.1-6-6.1s-6.1 2.7-6.1 6.1c0 3.3 2.7 6.1 6.1 6.1 3.2-.1 6.1-2.8 6-6.1zM179.7 40.1l-2-1.8L188.5 26l-10.8-12.3 2-1.8L192 26zM12.3 40.1 0 26l12.3-14.1 2 1.8L3.5 26l10.8 12.3z"/></g></svg>