<svg id="Capa_1" data-name="Capa 1" xmlns="http://www.w3.org/2000/svg" xmlns:xlink="http://www.w3.org/1999/xlink" viewBox="0 0 40.61 40.87"><defs><style>.cls-1{fill:none;}.cls-2{fill:#0062db;}.cls-3{fill:#fff;}.cls-4{fill:url(#linear-gradient);}.cls-5{fill:#00cedc;}.cls-6{clip-path:url(#clip-path);}.cls-7{opacity:0.4;fill:url(#linear-gradient-2);}</style><linearGradient id="linear-gradient" x1="20.3" y1="21.76" x2="20.3" y2="13.64" gradientUnits="userSpaceOnUse"><stop offset="0.01" stop-color="#3019dc"/><stop offset="0.83" stop-color="#0062db"/></linearGradient><clipPath id="clip-path"><path class="cls-1" d="M35.6,19.72A5.06,5.06,0,0,0,32.14,21a4.73,4.73,0,0,0-3.55-1.12H17.18v.25a7.22,7.22,0,0,0-2-.25h-2.8V18.15H7.69l-.16,1.13-.08.56H0V24H.51v1.4H0v4.06H15.21a6.85,6.85,0,0,0,2-.25v.25H33.32v-.33a5.72,5.72,0,0,0,2.28.45,4.69,4.69,0,0,0,5-4.91A4.74,4.74,0,0,0,35.6,19.72Z"/></clipPath><linearGradient id="linear-gradient-2" x1="-12.16" y1="5.75" x2="53.39" y2="5.75" gradientUnits="userSpaceOnUse"><stop offset="0.01" stop-color="#fff" stop-opacity="0"/><stop offset="1" stop-color="#fff"/></linearGradient></defs><path class="cls-2" d="M33.19,9.09C33,9,28.4,6.33,20.3,6.33S7.6,9,7.41,9.09l-.84.49V27c0,4.06,1.82,6.47,4.86,8.65a95.67,95.67,0,0,0,8.87,5.19,96.73,96.73,0,0,0,8.88-5.19C32.22,33.5,34,31.09,34,27V9.58Z"/><path class="cls-3" d="M20.3,39.56a88.9,88.9,0,0,1-8.19-4.82C9,32.48,7.74,30.32,7.74,27V10.25L8,10.09c.18-.1,4.52-2.6,12.3-2.6s12.12,2.5,12.3,2.6l.27.16V27c0,3.29-1.23,5.45-4.37,7.71A88.9,88.9,0,0,1,20.3,39.56Z"/><path class="cls-4" d="M31.64,23.1V11A25.75,25.75,0,0,0,20.3,8.72,25.73,25.73,0,0,0,9,11V23.1Z"/><path class="cls-2" d="M9,24.13V27c0,2.87,1,4.69,3.86,6.71a80.78,80.78,0,0,0,7.47,4.42,82.19,82.19,0,0,0,7.48-4.42c2.81-2,3.86-3.84,3.86-6.71v-2.9Z"/><polygon class="cls-5" points="20.75 34.11 21.76 33.51 21.72 34.19 24.22 33.95 21.2 35.12 21.32 34.44 20.59 34.8 20.75 34.11"/><polygon class="cls-5" points="19.85 34.11 18.84 33.51 18.89 34.19 16.38 33.95 19.41 35.12 19.29 34.44 20.02 34.8 19.85 34.11"/><path d="M28,3.73,12,5,9.69,14.15A3.3,3.3,0,0,0,13.53,16l2.66-1.48,1.19-2.09,7.24-.79,1,.73.06,2.21,4,.57,2.43-1.64-.22-2.61L30.06,5.94Z"/><path d="M26,.88a.77.77,0,0,0-.19-.62A.81.81,0,0,0,25.26,0h-.07l-1.6.13a.87.87,0,0,0-.78.77L22.45,4l-.21,0h-.06l-1.6.13-.11,0a.71.71,0,0,0-.19-.41.75.75,0,0,0-.58-.26h-.07L18,3.58a.89.89,0,0,0-.54.26.91.91,0,0,0-.4-.1H17l-1.6.13a.88.88,0,0,0-.79.77L14.13,9.1,11.94,7.8a.54.54,0,0,0-.21-.08,3.49,3.49,0,0,0-.51,0A2.89,2.89,0,0,0,8.44,9.35a.63.63,0,0,0,.23.78l4.82,3.17a7.5,7.5,0,0,0,2.83,3.46l-.6,4.9a.61.61,0,0,0,.19.51.63.63,0,0,0,.43.17h.09l9-1.3a.64.64,0,0,0,.54-.68L25.06,11a.64.64,0,0,0-.14-.34s0-.06,0-.09Z"/><path class="cls-5" d="M24.31,10.54a.23.23,0,0,1-.21.2l-1.6.13a.15.15,0,0,1-.17-.17L23.43,1a.24.24,0,0,1,.21-.21L25.25.63a.14.14,0,0,1,.16.17Z"/><path class="cls-5" d="M21.72,8.5c0,.07-.11.13-.21.14l-1.6.08c-.11,0-.18,0-.17-.11l.67-3.91a.26.26,0,0,1,.22-.13l1.6-.08c.1,0,.18,0,.17.11Z"/><path class="cls-5" d="M19.21,8.64A.22.22,0,0,1,19,8.8l-1.6.11c-.11,0-.18-.06-.17-.14l.64-4.42a.22.22,0,0,1,.21-.17l1.6-.1c.11,0,.18.06.17.14Z"/><path class="cls-5" d="M16.68,8.38a.23.23,0,0,1-.21.16l-1.6.1c-.11,0-.18-.05-.17-.13l.57-3.94a.22.22,0,0,1,.21-.16l1.6-.1c.11,0,.18.05.17.13Z"/><path class="cls-5" d="M25.35,20.41l-.9-9.2-3.82.33A1.89,1.89,0,0,1,21,13.13h-.62c-.42-1.89-3.32-2.42-4.26-2.38-.34,0-.54,0-.64,0l-4-2.37A2.25,2.25,0,0,0,9,9.61l5.12,3.08s.77,2.74,2.84,3.71l-.64,5.31Z"/><path class="cls-3" d="M18.91,7.87a4,4,0,0,1-.6,0h-.6l.06,0c0,.12-.05.25-.08.37a1.21,1.21,0,0,1-.05.18l-.06.18a1.09,1.09,0,0,1,0-.18,1.15,1.15,0,0,1,0-.19c0-.13,0-.25,0-.37s0,0,.06,0h.6Z"/><path class="cls-3" d="M16.34,7.66a4,4,0,0,1-.6,0h-.6l.06,0c0,.12,0,.25-.08.37a1.21,1.21,0,0,1,0,.18A1.21,1.21,0,0,1,15,8.4a1.08,1.08,0,0,1,0-.18c0-.07,0-.13,0-.19s0-.25.05-.37,0,0,.06,0h.6Z"/><path class="cls-3" d="M21.39,7.85l-.6,0H20.2l.06,0c0,.1-.05.21-.08.31l-.05.15-.06.15V8.31c0-.05,0-.1,0-.15a1.67,1.67,0,0,1,.05-.31,0,0,0,0,1,.05,0h.6Z"/><path class="cls-3" d="M9.29,9.73l.12-.14.12-.13a.8.8,0,0,1,.13-.13l.12-.13a.08.08,0,0,1,.09,0h0c.27.15.53.31.79.48l.19.13.19.14.18.14.18.16-.22-.1L11,10l-.2-.1-.2-.12c-.27-.15-.53-.32-.79-.49h.1l-.15.11-.14.1-.15.11Z"/><polygon class="cls-2" points="14.6 5.58 12.52 5.65 11.82 8.2 12.63 8.7 12.95 6.37 14.56 6.31 14.6 5.58"/><path class="cls-2" d="M10.87,11.19l-.38,2.19s-.43,1.56,2.21,1.92l1.65-1s-.61-.93-.54-1.33l-.66-.36.52,1.56-1.06.45-1.44-.75.54-1.2.59.3.36-.66Z"/><polygon class="cls-2" points="14.42 7.41 14.29 8.66 13.34 8.66 13.24 9.04 13.9 9.45 14.31 9.45 14.31 9.74 15.28 10.22 15.28 9.52 16.3 9.52 16.3 8.77 14.51 8.77 14.74 7.39 14.42 7.41"/><polygon class="cls-2" points="17.61 9.94 19.03 9.81 19.19 10.44 17.65 10.55 17.61 9.94"/><polygon class="cls-2" points="19.73 9.88 21.22 9.74 21.25 10.35 19.78 10.42 19.73 9.88"/><polygon class="cls-2" points="22.7 5.36 28.06 5.11 29.59 6.2 31.23 11.3 30.94 13.32 29.56 14.51 26.67 14 26.06 11.32 25.28 10.92 21.82 10.98 22.7 5.36"/><polygon points="23 7.76 23.26 7.35 23.64 7.14 24.1 7.16 24.55 7.5 24.77 7.91 24.68 8.43 24.4 8.8 23.99 8.99 23.41 8.95 22.98 8.61 22.91 8.09 23 7.76"/><polygon points="26.32 7.57 26.58 7.16 26.96 6.95 27.42 6.97 27.87 7.31 28.09 7.72 28 8.24 27.72 8.61 27.31 8.8 26.73 8.76 26.3 8.43 26.23 7.91 26.32 7.57"/><polygon points="24.64 6.26 24.9 5.85 25.28 5.65 25.74 5.67 26.19 6 26.41 6.41 26.32 6.94 26.04 7.31 25.63 7.5 25.05 7.46 24.62 7.12 24.55 6.6 24.64 6.26"/><polygon points="24.64 9.16 24.9 8.74 25.28 8.54 25.74 8.56 26.19 8.89 26.41 9.3 26.32 9.83 26.04 10.2 25.63 10.39 25.05 10.35 24.62 10.01 24.55 9.49 24.64 9.16"/><polygon class="cls-2" points="25.12 5.34 27.94 5.26 27.9 4.44 25.04 4.48 25.12 5.34"/><polygon points="25.36 5.17 25.32 4.78 27.43 4.76 27.54 5.14 25.36 5.17"/><polygon class="cls-2" points="22.33 10.7 19.65 10.88 20.5 11.26 22.5 11.05 22.33 10.7"/><polygon points="29.55 7.02 30.91 11.05 30.54 11.05 29.14 7.15 29.55 7.02"/><polygon points="30.37 12.81 29.32 13.87 29.59 14.14 30.67 13.19 30.37 12.81"/><polygon points="26.81 13.43 26.54 11.53 26.94 11.36 27.11 13.39 26.81 13.43"/><path class="cls-3" d="M20.23,13.15a2.18,2.18,0,0,0-2.58-1.48c-.24.05-.18.25.06.21a1.9,1.9,0,0,1,2.12,1.37C19.87,13.4,20.27,13.29,20.23,13.15Z"/><path class="cls-3" d="M24,12.43c0-.15-.41-.07-.39.1L24,16.69c0,.15.4.06.39-.11Z"/><path class="cls-3" d="M24.3,17.1c-.16,0-.42.23-.15.23S24.56,17.1,24.3,17.1Z"/><path class="cls-3" d="M17.21,17.5a15.81,15.81,0,0,1-.45,3.06c0,.07.36,0,.39-.07a16.22,16.22,0,0,0,.45-3.09C17.6,17.34,17.21,17.39,17.21,17.5Z"/><path class="cls-3" d="M17.13,21.16c-.06-.07-.2-.05-.26,0l-.18.09c-.06,0-.16.11-.1.18s.19.05.26,0l.18-.09C17.09,21.3,17.19,21.23,17.13,21.16Z"/><polygon class="cls-2" points="12.79 5.12 14.45 4.98 14.43 5.45 12.81 5.52 12.79 5.12"/><path class="cls-2" d="M35.6,19.72A5.06,5.06,0,0,0,32.14,21a4.73,4.73,0,0,0-3.55-1.12H17.18v.25a7.22,7.22,0,0,0-2-.25h-2.8V18.15H7.69l-.16,1.13-.08.56H0V24H.51v1.4H0v4.06H15.21a6.85,6.85,0,0,0,2-.25v.25H33.32v-.33a5.72,5.72,0,0,0,2.28.45,4.69,4.69,0,0,0,5-4.91A4.74,4.74,0,0,0,35.6,19.72Z"/><path class="cls-3" d="M1.31,26.66h.24a.37.37,0,0,0,.27-.27V22.91a.37.37,0,0,0-.27-.27H1.31V21.15h4v1.49H4.56v3.9h1l.21-1.14H7.41v2.7H1.31Z"/><path class="cls-3" d="M7.57,26.66h.28a.37.37,0,0,0,.27-.27V22.91a.37.37,0,0,0-.27-.27H7.57V21.15H11.4v1.49h-.27a.37.37,0,0,0-.27.27v3.48a.37.37,0,0,0,.27.27h.27V28.1H7.57Zm1.25-7.2H11.1v.6l-1,.85H8.62Z"/><path class="cls-3" d="M11.56,26.66h.24a.37.37,0,0,0,.27-.27V22.91a.37.37,0,0,0-.27-.27h-.24V21.15h3.65c1.92,0,2.94.6,2.94,1.81,0,.87-.51,1.26-1.35,1.49v0a1.55,1.55,0,0,1,1.54,1.62c0,1.33-1.19,2-3.13,2H11.56Zm3.2-2.79H15c.38,0,.55-.21.55-.6s-.16-.59-.54-.59h-.24ZM15,26.62c.4,0,.61-.19.61-.68s-.21-.65-.61-.65h-.24v1.33Z"/><path class="cls-3" d="M18.49,26.66h.24a.37.37,0,0,0,.27-.27V22.91a.37.37,0,0,0-.27-.27h-.24V21.15h6.13v2.39H23.06l-.23-.78H21.74v1h1.5v1.6h-1.5v1.19h1.11l.21-1H24.7V28.1H18.49Z"/><path class="cls-3" d="M24.89,26.66h.24a.37.37,0,0,0,.27-.27V22.91a.37.37,0,0,0-.27-.27h-.24V21.15h3.7c2.19,0,3,.67,3,2a1.47,1.47,0,0,1-1.22,1.57v0c.68.15,1,.45,1.2,1.34l.06.3c0,.18.16.25.25.25H32V28.1H29.16L29,26.21c0-.41-.2-.57-.53-.57h-.31v1h.5V28.1H24.89Zm3.17-2.46h.2c.48,0,.66-.22.66-.72s-.19-.72-.66-.72h-.2Z"/><path class="cls-3" d="M31.91,24.62A3.44,3.44,0,0,1,35.6,21a3.44,3.44,0,0,1,3.7,3.59,3.41,3.41,0,0,1-3.7,3.6A3.4,3.4,0,0,1,31.91,24.62Zm4.58.05c0-1.24-.34-1.78-.89-1.78s-.88.54-.88,1.78.34,1.85.88,1.85S36.49,25.91,36.49,24.67Z"/><g class="cls-6"><path class="cls-7" d="M53.39,5.75c0,10.67-14.67,19.32-32.77,19.32S-12.16,16.42-12.16,5.75,2.51-13.57,20.62-13.57,53.39-4.92,53.39,5.75Z"/></g><path class="cls-3" d="M14.76,31a.67.67,0,0,1,0,.21H13.2a.62.62,0,0,0,.2.31.55.55,0,0,0,.36.11.61.61,0,0,0,.53-.24l.38.35a1.24,1.24,0,0,1-1.76.1,1.1,1.1,0,0,1-.31-.82,1.13,1.13,0,0,1,.3-.81,1.06,1.06,0,0,1,.78-.32,1,1,0,0,1,.78.31A1.12,1.12,0,0,1,14.76,31Zm-1.06-.59a.49.49,0,0,0-.49.38h1A.44.44,0,0,0,13.7,30.45Z"/><path class="cls-3" d="M15.94,32.2a1.35,1.35,0,0,1-.89-.32l.29-.41a.85.85,0,0,0,.61.25.27.27,0,0,0,.19,0,.14.14,0,0,0,.08-.13s0-.08-.09-.12l-.31-.12a1.31,1.31,0,0,1-.5-.27.54.54,0,0,1-.18-.44.59.59,0,0,1,.23-.48.86.86,0,0,1,.56-.18,1.27,1.27,0,0,1,.8.27l-.28.44a.76.76,0,0,0-.53-.24.42.42,0,0,0-.15,0,.15.15,0,0,0-.06.13.12.12,0,0,0,.08.11.83.83,0,0,0,.25.12l.27.1.2.1a.58.58,0,0,1,.16.13.76.76,0,0,1,.09.16.72.72,0,0,1,0,.22.65.65,0,0,1-.22.5A1,1,0,0,1,15.94,32.2Z"/><path class="cls-3" d="M18.51,29.93a1,1,0,0,1,.74.32,1.16,1.16,0,0,1,.29.82,1.1,1.1,0,0,1-.29.81,1,1,0,0,1-.76.32.83.83,0,0,1-.65-.29h0v1.14h-.58V30h.58v.25h0A.86.86,0,0,1,18.51,29.93Zm-.13,1.74a.5.5,0,0,0,.41-.17.61.61,0,0,0,.16-.43.69.69,0,0,0-.16-.45.54.54,0,0,0-.41-.16.53.53,0,0,0-.41.17.68.68,0,0,0-.16.44.58.58,0,0,0,.17.43A.51.51,0,0,0,18.38,31.67Z"/><path class="cls-3" d="M21.07,32.2a1.14,1.14,0,0,1-.84-.32,1.11,1.11,0,0,1-.33-.82,1.07,1.07,0,0,1,.33-.81,1.14,1.14,0,0,1,.84-.32,1.16,1.16,0,0,1,.84.31,1.09,1.09,0,0,1,.33.82,1.08,1.08,0,0,1-.33.82A1.17,1.17,0,0,1,21.07,32.2Zm0-.53a.57.57,0,0,0,.41-.17.64.64,0,0,0,.16-.44.61.61,0,0,0-.16-.44.56.56,0,0,0-.41-.16.5.5,0,0,0-.41.17.59.59,0,0,0-.16.43.63.63,0,0,0,.16.44A.55.55,0,0,0,21.07,31.67Z"/><path class="cls-3" d="M24,29.93h0v.64h-.15a.51.51,0,0,0-.41.16.56.56,0,0,0-.15.41v1h-.59V30h.59v.32h0A.79.79,0,0,1,24,29.93Z"/><path class="cls-3" d="M25.08,32.2a.58.58,0,0,1-.46-.19.77.77,0,0,1-.16-.54v-1h-.27V30h.27v-.72l.58-.07V30h.6v.48H25v.94c0,.18.06.28.19.28a.63.63,0,0,0,.28-.08l.15.47A1.18,1.18,0,0,1,25.08,32.2Z"/><path class="cls-3" d="M26.78,32.2a1.35,1.35,0,0,1-.89-.32l.29-.41a.85.85,0,0,0,.61.25.31.31,0,0,0,.2,0,.16.16,0,0,0,.07-.13s0-.08-.09-.12a2,2,0,0,0-.31-.12,1.39,1.39,0,0,1-.5-.27.54.54,0,0,1-.18-.44.59.59,0,0,1,.23-.48.88.88,0,0,1,.57-.18,1.29,1.29,0,0,1,.8.27l-.29.44a.74.74,0,0,0-.52-.24.33.33,0,0,0-.15,0,.14.14,0,0,0-.07.13.14.14,0,0,0,.08.11,1,1,0,0,0,.25.12l.27.1.2.1a.92.92,0,0,1,.17.13.48.48,0,0,1,.08.16.51.51,0,0,1,0,.22.62.62,0,0,1-.22.5A1,1,0,0,1,26.78,32.2Z"/></svg>