<svg id="Capa_1" data-name="Capa 1" xmlns="http://www.w3.org/2000/svg" viewBox="0 0 60.8 13.57"><defs><style>.cls-1{fill:#005fde;}</style></defs><g id="Logotipo"><path class="cls-1" d="M0,11.51H.45a.57.57,0,0,0,.43-.45V5A.54.54,0,0,0,.45,4.6H0v-2H5.69v2H4.48v6.74H6.6l.29-1.91h2.2v4H0Z"/><path class="cls-1" d="M10.19,11.51h.52a.55.55,0,0,0,.43-.45V5a.53.53,0,0,0-.43-.43h-.52v-2H15.7v2h-.54a.55.55,0,0,0-.42.43v6a.57.57,0,0,0,.42.45h.54V13.4H10.19ZM12.19,0h3.06V.86L13.71,2.2H11.82Z"/><path class="cls-1" d="M16.88,11.49h.45a.56.56,0,0,0,.43-.44V5a.54.54,0,0,0-.43-.43h-.45v-2H22.1c2.88,0,4.42.91,4.42,2.79,0,1.35-.79,2-2.14,2.3v.07C26,8,26.84,8.85,26.84,10.31c0,2.08-1.8,3.09-4.69,3.09H16.88ZM21.3,7h.55c.87,0,1.2-.4,1.2-1.16s-.32-1.14-1.18-1.14H21.3Zm.62,4.46c.95,0,1.3-.43,1.3-1.33s-.35-1.26-1.3-1.26H21.3v2.59Z"/><path class="cls-1" d="M28,11.51h.45a.57.57,0,0,0,.43-.45V5a.54.54,0,0,0-.43-.43H28v-2h9.17V6.12H35.13l-.3-1.37H32.52V6.82H35V9H32.52v2.34h2.37l.29-1.63h2.17V13.4H28Z"/><path class="cls-1" d="M38.6,11.51H39a.55.55,0,0,0,.43-.45V5A.53.53,0,0,0,39,4.6H38.6v-2H44c3.14,0,4.56,1,4.56,3.08,0,1.28-.62,2.06-2.1,2.45v.06c1.11.23,1.65.7,2,2.21l.17.7c.06.27.24.38.38.38h.26V13.4H45.28l-.36-2.92c-.11-.88-.41-1.19-1.2-1.19h-.65v2.22h1V13.4H38.6ZM43,7.43h.62c1,0,1.32-.47,1.32-1.34s-.31-1.35-1.32-1.35H43Z"/><path class="cls-1" d="M49.66,8a5.27,5.27,0,0,1,5.57-5.56A5.27,5.27,0,0,1,60.8,8a5.22,5.22,0,0,1-5.57,5.55A5.23,5.23,0,0,1,49.66,8Zm7.45.06c0-2.17-.77-3.19-1.88-3.19s-1.88,1-1.88,3.19.76,3.23,1.88,3.23S57.11,10.25,57.11,8.08Z"/></g></svg>