<svg id="Capa_1" data-name="Capa 1" xmlns="http://www.w3.org/2000/svg" viewBox="0 0 77.09 16.5"><defs><style>.cls-1{fill:#00cd91;}.cls-2{fill:#008053;}</style></defs><path class="cls-1" d="M49.66,3.66A1.66,1.66,0,0,0,48,5.38,1.33,1.33,0,0,0,49.4,6.75,1.64,1.64,0,0,0,51.08,5,1.33,1.33,0,0,0,49.66,3.66Z"/><path class="cls-2" d="M60.73,12.46c0,2.36-2.07,3.89-4.62,3.89H50.19L52.26,4.67h5.87a2.57,2.57,0,0,1,2.79,2.71,3.13,3.13,0,0,1-1.61,2.77A2.52,2.52,0,0,1,60.73,12.46Zm-3.28,0c0-.5-.35-.77-1-.77H54.26l-.35,2H56C57.05,13.66,57.45,13.17,57.45,12.46ZM55,7.35,54.73,9h1.52c.85,0,1.28-.35,1.28-1,0-.41-.22-.63-.73-.63Z"/><path class="cls-2" d="M69.8,13.11H64.12c0,.59.31.93,1,.93a2.6,2.6,0,0,0,1.7-.68l2.3,1.35a5.24,5.24,0,0,1-4,1.79c-2.57,0-4.17-1.45-4.17-3.7a5.13,5.13,0,0,1,5.19-5.29c2.51,0,4,1.45,4,3.68A6.23,6.23,0,0,1,69.8,13.11ZM64.55,11H67c0-.74-.36-1-.89-1A1.7,1.7,0,0,0,64.55,11Z"/><path class="cls-2" d="M76.63,9.15H75.08l-1.24,7.2H70.68l1.25-7.2h-1.5l.46-2.57h1.5L72.83,4H76l-.44,2.54h1.55Z"/><path class="cls-1" d="M6.2,11.38A4.37,4.37,0,0,1,10.38,6.8a3.73,3.73,0,0,1,2.45.74l.42-2.34A19.32,19.32,0,0,1,14.89,0a5.15,5.15,0,0,0-1.8,2.35A3.13,3.13,0,0,0,12.81.88a1.55,1.55,0,0,0-.87-.79A1.62,1.62,0,0,0,11.35,0h-.11l.06.2,0,.07a11.9,11.9,0,0,1,.53,3.66,2.43,2.43,0,0,0-1.74-.47c-5,.22-8.08.4-10-1.84C-.51,3.8,2.79,7.24,5.51,6.44a6.9,6.9,0,0,0-2.16,5.13c0,3,2.08,4.93,5.49,4.93a5.68,5.68,0,0,0,2.65-.56l.45-2.64a4.75,4.75,0,0,1-2.9.92A2.63,2.63,0,0,1,6.2,11.38Z"/><path class="cls-1" d="M21.61,10.35a2.68,2.68,0,0,0-3-2.76,4,4,0,0,0-2.57.91L16.86,4H14.18L12,16.35h2.68l.9-5a1.82,1.82,0,0,1,1.86-1.45c.88,0,1.4.41,1.4,1.15a1.32,1.32,0,0,1-.05.35l-.86,5h2.68L21.55,11A3.28,3.28,0,0,0,21.61,10.35Z"/><path class="cls-1" d="M23,7.75l-.38,2.1h4.78l-.22,1.27a8.35,8.35,0,0,0-1.7-.19c-2.23,0-4.1,1.14-4.1,3.21,0,1.42,1.05,2.36,2.74,2.36a3.28,3.28,0,0,0,2.37-1l-.13.89H29l1.53-8.6Zm2,6.85c-.56,0-.82-.29-.82-.71,0-.67.7-1.13,1.66-1.13a8.32,8.32,0,0,1,1.07.1A2.11,2.11,0,0,1,25,14.6Z"/><path class="cls-1" d="M34.92,11.08l-.58-.18c-.57-.16-.93-.27-.93-.6s.68-.61,1.37-.61a3.55,3.55,0,0,1,1.88.49l1.28-1.64a5.43,5.43,0,0,0-3.35-.95c-2.19,0-4,1.37-4,3.25,0,1.2.95,1.81,2.23,2.07l.6.12c.68.14,1.07.3,1.07.67s-.62.71-1.28.71a4.33,4.33,0,0,1-2.3-.54l-1.12,1.5a4.79,4.79,0,0,0,3.36,1.13c2.24,0,4.07-1.16,4.07-3.15C37.26,12.05,36.23,11.45,34.92,11.08Z"/><path class="cls-1" d="M47.76,7.75h-3.4l-3.24,3H41L42.2,4H39.51L37.34,16.35H40l.6-3.43H41l2.22,3.43h5.74l1.53-8.6H47.76Zm-1.49,8.38-3-4.26,4.5-4.06Z"/></svg>