<?xml version="1.0" encoding="utf-8"?>
<!-- Generator: Adobe Illustrator 25.1.0, SVG Export Plug-In . SVG Version: 6.00 Build 0)  -->
<svg version="1.1" id="Capa_1" xmlns="http://www.w3.org/2000/svg" xmlns:xlink="http://www.w3.org/1999/xlink" x="0px" y="0px"
	 width="66px" height="14.7px" viewBox="0 0 66 14.7" style="enable-background:new 0 0 66 14.7;" xml:space="preserve">
<style type="text/css">
	.st0{fill:#6E6F70;}
	.st1{fill:#DD1F2E;}
	.st2{fill:url(#SVGID_1_);}
	.st3{clip-path:url(#SVGID_3_);}
	.st4{fill:url(#SVGID_4_);}
	.st5{fill:url(#SVGID_5_);}
	.st6{fill:url(#SVGID_6_);}
	.st7{fill:url(#SVGID_7_);}
	.st8{fill:url(#SVGID_8_);}
	.st9{fill:url(#SVGID_9_);}
	.st10{fill:url(#SVGID_10_);}
	.st11{fill:url(#SVGID_11_);}
	.st12{fill:url(#SVGID_12_);}
	.st13{fill:url(#SVGID_13_);}
	.st14{fill:url(#SVGID_14_);}
	.st15{fill:url(#SVGID_15_);}
	.st16{fill:url(#SVGID_16_);}
	.st17{opacity:0.1;clip-path:url(#SVGID_3_);}
	.st18{fill:none;stroke:#FFFFFF;stroke-width:0.1321;stroke-miterlimit:10;}
	.st19{fill:#FFFFFF;}
	.st20{fill:#FFFFFF;stroke:#878787;stroke-width:0.5;stroke-miterlimit:10;}
	.st21{fill:url(#SVGID_17_);}
	.st22{clip-path:url(#SVGID_19_);}
	.st23{fill:url(#SVGID_20_);}
	.st24{fill:url(#SVGID_21_);}
	.st25{fill:url(#SVGID_22_);}
	.st26{fill:url(#SVGID_23_);}
	.st27{fill:url(#SVGID_24_);}
	.st28{fill:url(#SVGID_25_);}
	.st29{fill:url(#SVGID_26_);}
	.st30{fill:url(#SVGID_27_);}
	.st31{fill:url(#SVGID_28_);}
	.st32{fill:url(#SVGID_29_);}
	.st33{fill:url(#SVGID_30_);}
	.st34{fill:url(#SVGID_31_);}
	.st35{fill:url(#SVGID_32_);}
	.st36{opacity:0.1;clip-path:url(#SVGID_19_);}
	.st37{fill:#1D1D1B;}
	.st38{fill-rule:evenodd;clip-rule:evenodd;fill:#1D1D1B;}
	.st39{fill:#55B697;}
	.st40{fill-rule:evenodd;clip-rule:evenodd;fill:#D82238;}
	.st41{fill:#005FDE;}
	.st42{fill:#515151;}
	.st43{fill:#00AAFF;}
	.st44{fill:#FF3785;}
	.st45{fill:#33FE88;}
	.st46{fill:#FEEA48;}
	.st47{fill:#3D81E4;}
	.st48{fill:#0062DB;}
	.st49{fill:url(#XMLID_3_);}
	.st50{fill:#00CEDC;}
	.st51{opacity:0.4;clip-path:url(#SVGID_34_);fill:url(#SVGID_35_);}
	.st52{fill:#AD00FF;}
	.st53{fill:#FFAC00;}
	.st54{fill:#D8D9DD;}
	.st55{fill:#EB661C;}
	.st56{fill:#DD0B14;}
	.st57{fill:#00CD91;}
	.st58{fill:#008053;}
	.st59{fill:#FF17E5;}
	.st60{fill:#3666FF;}
	.st61{fill:url(#SVGID_36_);}
	.st62{fill:#FF0000;}
	.st63{fill:none;stroke:#FFFFFF;stroke-width:0.5745;stroke-miterlimit:10;}
	.st64{fill:#EA5472;}
	.st65{fill:#127787;}
	.st66{fill:#068739;}
</style>
<g>
	<g>
		<g>
			<rect class="st65" width="15.9" height="0.8"/>
		</g>
		<g>
			<rect y="14" class="st65" width="15.9" height="0.8"/>
		</g>
		<g>
			<rect x="1.5" y="12.5" class="st65" width="12.8" height="0.8"/>
		</g>
		<g>
			<rect x="1.5" y="1.5" class="st65" width="12.8" height="0.8"/>
		</g>
		<g>
			<rect x="7.6" y="3" class="st65" width="0.8" height="8.7"/>
		</g>
		<g>
			<polygon class="st65" points="5.3,7.8 5.3,11.7 4.5,11.7 3,11.7 3,10.9 4.5,10.9 4.5,7.8 			"/>
		</g>
		<g>
			<polygon class="st65" points="4.1,3.8 5.1,6.3 6,6.3 6,7 4.5,7 3.1,3 6.8,3 6.8,11.7 6,11.7 6,3.8 			"/>
		</g>
		<g>
			<polygon class="st65" points="11.7,3.8 10.8,6.3 9.8,6.3 9.8,7 11.4,7 12.8,3 9.1,3 9.1,11.7 9.8,11.7 9.8,3.8 			"/>
		</g>
		<g>
			<polygon class="st65" points="10.6,7.8 10.6,11.7 11.4,11.7 12.8,11.7 12.8,10.9 11.4,10.9 11.4,7.8 			"/>
		</g>
	</g>
	<g>
		<g>
			<path class="st65" d="M22.1,10.6c-0.1,0-0.1,0-0.2,0c-0.2,0-0.2-0.1-0.2-0.2c0,0,0-0.1,0.2-0.2c0.1,0,0.1,0,0.2,0
				c0.1,0,0.1,0,0.2,0c0,0,0.1,0,0.1-0.1c0,0,0-0.1,0.1-0.3c0-0.2,0-0.3,0-0.5c0-0.2,0-0.3,0-0.5V5.4c0-0.1,0-0.2-0.1-0.3
				c-0.1-0.1-0.1-0.1-0.2-0.1c-0.1,0-0.1,0-0.2,0c-0.2,0-0.2-0.1-0.2-0.2c0-0.1,0.1-0.2,0.2-0.2c0.1,0,0.1,0,0.1,0h3.3
				c0.1,0,0.2,0,0.2,0.2c0,0,0,0.1,0,0.1c0,0,0,0,0,0c0,0.1,0,0.2,0,0.3c0,0.1,0,0.2,0,0.3c0,0,0,0.1,0,0.1c0,0.1-0.1,0.1-0.1,0.1
				c-0.1,0-0.2,0-0.2-0.2c0-0.1,0-0.1,0-0.1c0-0.1-0.1-0.1-0.1-0.2c0,0-0.1-0.1-0.2-0.1c-0.1,0-0.1,0-0.2,0c-0.1,0-0.2,0-0.3,0h-0.7
				c-0.1,0-0.1,0-0.1,0c0,0,0,0,0,0.1v1.8c0,0,0,0,0,0c0,0,0,0,0,0h0.9c0.1,0,0.1,0,0.2,0c0.1,0,0.1,0,0.1,0l0,0c0,0,0,0,0-0.1
				c0-0.1,0-0.1,0-0.2c0-0.1,0-0.1,0-0.2c0-0.1,0.1-0.1,0.2-0.1c0,0,0.1,0,0.2,0.2c0,0.1,0,0.1,0,0.2c0,0.1,0,0.2,0,0.2
				c0,0.1,0,0.2,0,0.2c0,0.1,0,0.2,0,0.3c0,0.1,0,0.2,0,0.3c0,0,0,0.1,0,0.1c0,0.1-0.1,0.1-0.2,0.1c-0.1,0-0.1,0-0.2-0.1
				c0,0,0-0.1,0-0.1c0,0,0-0.1,0-0.2c0,0,0-0.1-0.1-0.1c0,0,0,0-0.1,0c-0.1,0-0.1,0-0.2,0h-0.9v1.9c0,0.1,0,0.1,0,0.2
				c0,0,0,0.1,0.1,0.1c0,0,0.1,0,0.1,0.1c0.1,0,0.1,0,0.2,0c0.1,0,0.1,0,0.2,0c0.1,0,0.1,0,0.2,0c0.1,0,0.2,0,0.4,0
				c0.1,0,0.3,0,0.4-0.1c0.1,0,0.1-0.1,0.2-0.1c0-0.1,0.1-0.1,0.1-0.2c0-0.1,0-0.1,0.1-0.1c0-0.1,0.1-0.1,0.2-0.1
				c0.1,0,0.1,0,0.1,0.1c0,0,0,0.1,0,0.1c0,0.1,0,0.1-0.1,0.2c0,0.1-0.1,0.2-0.1,0.3c0,0.1,0,0.1-0.1,0.2c0,0.1,0,0.1-0.1,0.2
				c0,0-0.1,0.1-0.2,0.1c-0.1,0-0.1,0-0.1,0L22.1,10.6L22.1,10.6z"/>
		</g>
		<g>
			<path class="st65" d="M26.5,10.6c-0.2,0-0.2-0.1-0.2-0.2c0,0,0-0.1,0.1-0.2c0,0,0.1,0,0.2,0c0.1,0,0.1,0,0.2,0c0,0,0.1,0,0.1,0
				c0,0,0.1-0.2,0.1-0.7v-4c0-0.2,0-0.3,0-0.3c0,0,0-0.1-0.1-0.1c-0.1,0-0.1-0.1-0.2-0.1c-0.1,0-0.1,0-0.1,0c0,0-0.1,0-0.1,0
				c-0.1,0-0.1-0.1-0.1-0.1c0-0.1,0-0.1,0.1-0.1c0,0,0.1,0,0.2,0h2c0.3,0,0.5,0,0.7,0.1c0.2,0.1,0.4,0.2,0.6,0.3
				c0.2,0.1,0.3,0.3,0.4,0.5c0.1,0.2,0.2,0.4,0.2,0.7c0,0.3-0.1,0.5-0.2,0.7c-0.1,0.2-0.2,0.4-0.3,0.5c-0.1,0.1-0.2,0.2-0.4,0.3
				c-0.1,0-0.1,0.1-0.1,0.1c0,0,0,0,0,0l1.2,1.4c0.1,0.1,0.2,0.2,0.3,0.3c0.1,0.1,0.2,0.2,0.3,0.3c0.1,0.1,0.2,0.2,0.3,0.2
				c0.1,0.1,0.2,0.1,0.2,0.1c0,0,0,0,0,0c0,0,0,0,0,0c0,0,0,0,0.1,0c0,0,0,0,0.1,0c0,0,0.1,0,0.1,0c0.1,0,0.1,0.1,0.1,0.1
				c0,0,0,0.2-0.2,0.2c-0.1,0-0.1,0-0.2,0h-0.6c-0.1,0-0.2,0-0.3,0c-0.1,0-0.3-0.1-0.4-0.1c-0.1,0-0.2-0.1-0.4-0.2
				c-0.1-0.1-0.2-0.2-0.3-0.3L29,8.7c-0.1-0.2-0.2-0.3-0.3-0.4c-0.1-0.1-0.2-0.2-0.3-0.2h-0.4v1c0,0.3,0,0.5,0,0.6
				c0,0.2,0,0.2,0.1,0.2l0,0c0,0,0,0.1,0.1,0.1c0,0,0.1,0,0.1,0l0,0l0,0c0,0,0,0,0.1,0c0,0,0.1,0,0.1,0c0,0,0.1,0,0.1,0
				c0.1,0,0.1,0.1,0.1,0.1c0,0.1,0,0.2-0.3,0.2L26.5,10.6L26.5,10.6z M28.1,7.6c0,0,0.1,0,0.1,0h0.5c0.1,0,0.2,0,0.3,0
				c0.1,0,0.2-0.1,0.2-0.2c0.1-0.1,0.1-0.2,0.2-0.3c0-0.1,0.1-0.3,0.1-0.6c0-0.1,0-0.3-0.1-0.4c0-0.1-0.1-0.3-0.2-0.4
				c-0.1-0.1-0.2-0.2-0.3-0.3c-0.1-0.1-0.3-0.1-0.5-0.1h-0.2c0,0-0.1,0-0.1,0c0,0,0,0.1,0,0.2V7.6z"/>
		</g>
		<path class="st65" d="M34.6,10.7c-0.4,0-0.7,0-1-0.1c-0.3-0.1-0.6-0.2-0.8-0.4c-0.2-0.2-0.4-0.4-0.5-0.7c-0.1-0.3-0.2-0.6-0.2-0.9
			V6.1c0-0.2,0-0.5,0-0.6c0-0.2,0-0.3,0-0.3c0,0-0.1,0-0.1-0.1c-0.1,0-0.1,0-0.2-0.1c-0.1,0-0.1,0-0.2,0c-0.1,0-0.1-0.1-0.1-0.1
			c0-0.1,0-0.1,0.1-0.1c0,0,0.1,0,0.2,0h1.9c0.2,0,0.3,0.1,0.3,0.2c0,0,0,0.1-0.1,0.1c0,0-0.1,0-0.1,0c-0.1,0-0.1,0-0.2,0
			c-0.1,0-0.1,0-0.1,0c0,0-0.1,0-0.1,0.1h0c0,0,0,0,0,0.1c0,0.1,0,0.2,0,0.3c0,0.2,0,0.4,0,0.7l0,2.1c0,0.2,0,0.4,0.1,0.7
			c0,0.2,0.1,0.4,0.2,0.6c0.1,0.2,0.2,0.3,0.4,0.4c0.2,0.1,0.4,0.2,0.7,0.2c0.2,0,0.5,0,0.7-0.1c0.2-0.1,0.4-0.2,0.6-0.3
			c0.2-0.1,0.3-0.3,0.4-0.6c0.1-0.2,0.2-0.5,0.2-0.8V6.6c0-0.5,0-0.8,0-1c0-0.3-0.1-0.3-0.1-0.3c-0.1,0-0.1-0.1-0.2-0.1
			C36,5.1,36,5,35.9,5c-0.1,0-0.1,0-0.2,0c-0.1,0-0.1-0.1-0.1-0.2c0-0.1,0.1-0.1,0.1-0.2l0,0c0,0,0.1,0,0.1,0l1.5,0
			c0.1,0,0.3,0,0.3,0.2c0,0,0,0.2-0.2,0.2l0,0c-0.1,0-0.1,0-0.2,0.1c-0.1,0-0.1,0.1-0.2,0.3c0,0.2,0,0.4,0,0.7v2
			c0,0.8-0.2,1.4-0.6,1.9C36,10.5,35.4,10.7,34.6,10.7 M34,4.4c-0.1,0-0.2-0.1-0.2-0.2c0-0.1,0-0.1,0.1-0.2C34,4,34.1,3.9,34.2,3.8
			L35,3.5c0.1,0,0.2-0.1,0.2-0.1c0,0,0.1,0,0.1,0c0.1,0,0.1,0,0.2,0.1c0,0,0.1,0.1,0.1,0.1c0.2,0.2,0.3,0.3,0.3,0.5
			c0,0.1,0,0.1-0.1,0.2c0,0-0.1,0-0.1,0c0,0-0.1,0-0.1,0c-0.1,0-0.1,0-0.1,0h-0.1c-0.1,0-0.1,0-0.2,0c-0.1,0-0.2,0-0.3,0
			c-0.1,0-0.2,0-0.3,0.1c0,0,0,0-0.1,0c0,0-0.1,0-0.2,0c-0.1,0-0.1,0-0.2,0C34.1,4.4,34,4.4,34,4.4"/>
		<g>
			<path class="st65" d="M41.3,10.6c-0.1,0-0.1,0-0.2,0c-0.1,0-0.2-0.1-0.2-0.2c0,0,0-0.1,0.2-0.2c0.1,0,0.1,0,0.2,0
				c0.1,0,0.1,0,0.2,0c0,0,0.1,0,0.1-0.1c0,0,0.1-0.1,0.1-0.1c0,0,0-0.1,0-0.2c0-0.1,0-0.2,0-0.3V5.6c0-0.1,0-0.2,0-0.2
				c0-0.1,0-0.1,0-0.1c0,0,0-0.1,0-0.1c0,0,0-0.1-0.1-0.1c0,0,0,0-0.1,0c0,0-0.1,0-0.1,0c-0.1,0-0.1,0-0.1,0c-0.1,0-0.1-0.1-0.1-0.1
				c0-0.1,0-0.2,0.1-0.2c0,0,0.1,0,0.1,0h1.8c0,0,0,0,0.1,0c0.1,0,0.2,0.1,0.2,0.2c0,0,0,0.1-0.1,0.2c0,0-0.1,0-0.2,0
				c-0.1,0-0.1,0-0.2,0c0,0-0.1,0-0.1,0.1c0,0-0.1,0.1-0.1,0.2c0,0.1,0,0.2,0,0.3v3.2c0,0.1,0,0.3,0,0.4c0,0.1,0,0.2,0,0.3
				c0,0.1,0,0.2,0.1,0.3c0,0.1,0.1,0.1,0.1,0.1c0.1,0,0.2,0,0.4,0c0.1,0,0.3,0,0.4,0c0.1,0,0.3,0,0.4,0c0.2,0,0.2-0.1,0.3-0.1
				c0,0,0.1,0,0.1-0.1c0-0.1,0.1-0.1,0.1-0.2c0-0.1,0.1-0.1,0.1-0.2c0-0.1,0.1-0.1,0.2-0.1c0.1,0,0.2,0.1,0.2,0.1c0,0,0,0.1,0,0.1
				c0,0,0,0,0,0.1c0,0,0,0.1,0,0.2c0,0.1,0,0.1-0.1,0.2c0,0.1,0,0.1,0,0.1c0,0.1,0,0.1,0,0.2l0,0c0,0,0,0,0,0c0,0,0,0.2-0.3,0.2
				H41.3z"/>
		</g>
		<g>
			<path class="st65" d="M45.8,10.6c-0.1,0-0.1,0-0.2,0c-0.2,0-0.2-0.1-0.2-0.2c0,0,0-0.1,0.2-0.2c0.1,0,0.1,0,0.2,0
				c0.1,0,0.1,0,0.2,0c0,0,0.1,0,0.1-0.1c0,0,0-0.1,0.1-0.3c0-0.2,0-0.3,0-0.5c0-0.2,0-0.3,0-0.5V5.4c0-0.1,0-0.2-0.1-0.3
				C46,5.1,45.9,5.1,45.8,5c-0.1,0-0.1,0-0.2,0c-0.2,0-0.2-0.1-0.2-0.2c0-0.1,0.1-0.2,0.2-0.2c0.1,0,0.1,0,0.1,0H49
				c0.1,0,0.2,0,0.2,0.2c0,0,0,0.1,0,0.1c0,0,0,0,0,0c0,0.1,0,0.2,0,0.3c0,0.1,0,0.2,0,0.3c0,0,0,0.1,0,0.1c0,0.1-0.1,0.1-0.1,0.1
				c-0.1,0-0.2,0-0.2-0.2c0-0.1,0-0.1,0-0.1c0-0.1-0.1-0.1-0.1-0.2c0,0-0.1-0.1-0.2-0.1c-0.1,0-0.1,0-0.2,0c-0.1,0-0.2,0-0.3,0h-0.7
				c-0.1,0-0.1,0-0.1,0c0,0,0,0,0,0.1v1.8c0,0,0,0,0,0c0,0,0,0,0,0h0.9c0.1,0,0.1,0,0.2,0c0.1,0,0.1,0,0.1,0l0,0l0,0c0,0,0,0,0-0.1
				c0-0.1,0-0.1,0-0.2c0-0.1,0-0.1,0-0.2c0-0.1,0.1-0.1,0.2-0.1c0,0,0.1,0,0.2,0.2c0,0.1,0,0.1,0,0.2c0,0.1,0,0.2,0,0.2
				c0,0.1,0,0.2,0,0.2c0,0.1,0,0.2,0,0.3c0,0.1,0,0.2,0,0.3c0,0,0,0.1,0,0.1c0,0.1-0.1,0.1-0.2,0.1c-0.1,0-0.1,0-0.2-0.1
				c0,0,0-0.1,0-0.1c0,0,0-0.1,0-0.2c0,0,0-0.1-0.1-0.1h0c0,0,0,0-0.1,0c-0.1,0-0.1,0-0.2,0h-0.9v1.9c0,0.1,0,0.1,0,0.2
				c0,0,0,0.1,0.1,0.1c0,0,0.1,0,0.1,0.1c0.1,0,0.1,0,0.2,0c0.1,0,0.1,0,0.2,0c0.1,0,0.1,0,0.2,0c0.1,0,0.2,0,0.4,0
				c0.1,0,0.3,0,0.4-0.1c0.1,0,0.1-0.1,0.2-0.1c0-0.1,0.1-0.1,0.1-0.2c0-0.1,0-0.1,0.1-0.1c0-0.1,0.1-0.1,0.2-0.1
				c0.1,0,0.1,0,0.1,0.1c0,0,0,0.1,0,0.1c0,0.1,0,0.1-0.1,0.2c0,0.1-0.1,0.2-0.1,0.3c0,0.1,0,0.1-0.1,0.2c0,0.1,0,0.1-0.1,0.2l0,0
				l0,0c0,0-0.1,0.1-0.1,0.1c-0.1,0-0.1,0-0.2,0H45.8z"/>
		</g>
		<path class="st65" d="M52.9,10.7c-0.5,0-0.9-0.1-1.3-0.2c-0.4-0.1-0.7-0.3-1-0.6c-0.3-0.3-0.5-0.6-0.6-1c-0.1-0.4-0.2-0.9-0.2-1.4
			c0-0.4,0.1-0.8,0.2-1.2c0.1-0.4,0.3-0.7,0.6-0.9c0.3-0.3,0.6-0.5,0.9-0.6c0.4-0.1,0.7-0.2,1.2-0.2c0.3,0,0.5,0,0.8,0
			c0.2,0,0.4,0.1,0.6,0.1c0.2,0,0.3,0.1,0.4,0.1c0.1,0,0.2,0,0.2,0c0.1,0,0.1,0,0.1,0c0,0,0,0,0,0l0,0c0,0,0.1,0,0.1,0
			c0.1,0,0.1,0,0.1,0.1c0,0,0,0.1,0,0.1c0,0,0,0,0,0.1c0,0,0,0.1,0,0.3c0,0.1,0,0.2,0,0.3c0,0.1,0,0.2,0,0.3c0,0.1,0,0.1,0,0.2
			c0,0.1-0.1,0.1-0.2,0.1c0,0-0.1,0-0.2-0.1c0,0,0-0.1,0-0.2c0,0,0,0,0-0.2c0-0.1-0.1-0.2-0.1-0.2c0,0-0.1-0.1-0.2-0.2
			c-0.1-0.1-0.2-0.1-0.4-0.2c-0.2-0.1-0.3-0.1-0.5-0.2c-0.2,0-0.4-0.1-0.7-0.1c-0.3,0-0.5,0.1-0.8,0.2c-0.2,0.1-0.4,0.3-0.6,0.4
			c-0.2,0.2-0.3,0.4-0.4,0.7C51,6.6,51,6.9,51,7.2c0,0.5,0.1,1,0.2,1.4c0.1,0.4,0.2,0.7,0.4,0.9c0.2,0.2,0.4,0.4,0.7,0.5
			c0.3,0.1,0.6,0.2,0.9,0.2c0.1,0,0.1,0,0.2,0c0.1,0,0.1,0,0.2-0.1c0.1,0,0.1,0,0.2-0.1c0.1,0,0.1,0,0.1-0.1C53.9,9.9,54,9.8,54,9.7
			c0-0.1,0-0.3,0-0.5V8.6c0-0.2,0-0.4,0-0.5C54,8.1,54,8,53.9,8c0,0-0.1-0.1-0.1-0.1c-0.1,0-0.1,0-0.1,0c0,0-0.1,0-0.1,0
			c-0.1,0-0.1-0.1-0.1-0.1c0,0,0-0.2,0.3-0.2c0,0,0.1,0,0.1,0c0.1,0,0.1,0,0.2,0c0.1,0,0.2,0,0.3,0c0.1,0,0.2,0,0.3,0
			c0.1,0,0.1,0,0.2,0c0.1,0,0.2,0,0.3,0c0.1,0,0.2,0,0.3,0c0.1,0,0.1,0,0.1,0c0,0,0.1,0,0.1,0c0,0,0.1,0.1,0.1,0.2
			c0,0.1,0,0.1-0.1,0.1c0,0-0.1,0-0.1,0c0,0-0.1,0-0.1,0c0,0-0.1,0-0.1,0c0,0-0.1,0-0.1,0.1c0,0,0,0.1,0,0.1c0,0.1,0,0.1,0,0.2
			c0,0.1,0,0.2,0,0.4V10c0,0.1,0,0.1,0,0.1c0,0.1,0,0.1-0.1,0.2c-0.1,0-0.1,0.1-0.3,0.1c-0.1,0-0.3,0.1-0.5,0.1
			c-0.2,0-0.4,0.1-0.6,0.1C53.5,10.7,53.2,10.7,52.9,10.7"/>
		<g>
			<path class="st65" d="M59.5,10.6c0,0-0.1,0-0.1,0c-0.1,0-0.1-0.1-0.1-0.2c0-0.1,0.1-0.1,0.1-0.2c0,0,0.1,0,0.2,0c0,0,0.1,0,0.1,0
				c0,0,0-0.1,0-0.1c0-0.1,0-0.2,0-0.3c0-0.1-0.1-0.2-0.1-0.4l-0.2-0.5c0-0.1-0.1-0.2-0.1-0.2c0,0,0-0.1-0.1-0.1c0,0,0,0,0,0h0
				c0,0,0,0,0,0h-1.6c0,0-0.1,0-0.1,0c0,0,0,0,0,0.1l-0.3,0.7c-0.1,0.2-0.1,0.3-0.1,0.4c0,0.1,0,0.2,0,0.3c0,0,0,0,0,0.1
				c0.1,0,0.1,0,0.2,0c0,0,0,0,0.1,0c0,0,0.1,0,0.1,0c0,0,0.1,0,0.1,0c0.1,0,0.1,0.1,0.1,0.1c0,0.1,0,0.2-0.1,0.2c0,0-0.1,0-0.1,0
				h-1.6c0,0-0.1,0-0.1,0c-0.1,0-0.1-0.1-0.1-0.2c0-0.1,0-0.2,0.2-0.2c0.1,0,0.1,0,0.1,0c0.1,0,0.2-0.1,0.3-0.1
				c0.1-0.1,0.1-0.2,0.2-0.3l2.1-5.1c0,0,0-0.1,0.1-0.1c0.1-0.1,0.1-0.1,0.2-0.1c0,0,0.1,0,0.2,0.1c0,0,0,0.1,0.1,0.2l2,5
				c0,0.1,0.1,0.1,0.1,0.2c0,0.1,0.1,0.2,0.1,0.2c0,0,0,0,0.1,0c0.1,0,0.1,0,0.2,0c0.1,0,0.1,0,0.2,0c0.1,0,0.1,0.1,0.1,0.2
				c0,0.1-0.1,0.2-0.2,0.2c-0.1,0-0.1,0-0.1,0H59.5z M59,8C59,8,59,8,59,8C59,8,59,8,59,8l0-0.1l-0.6-1.4l-0.5,1.4
				c0,0.1-0.1,0.1-0.1,0.2c0,0,0,0,0,0H59z"/>
		</g>
		<g>
			<path class="st65" d="M62.3,10.6c-0.1,0-0.1,0-0.2,0c-0.1,0-0.2-0.1-0.2-0.2c0,0,0-0.1,0.2-0.2c0.1,0,0.1,0,0.2,0
				c0.1,0,0.1,0,0.2,0c0,0,0.1,0,0.1-0.1c0,0,0.1-0.1,0.1-0.1c0,0,0-0.1,0-0.2c0-0.1,0-0.2,0-0.3V5.6c0-0.1,0-0.2,0-0.2
				c0-0.1,0-0.1,0-0.1c0,0,0-0.1,0-0.1c0,0,0-0.1-0.1-0.1c0,0,0,0-0.1,0c0,0-0.1,0-0.1,0c-0.1,0-0.1,0-0.1,0c-0.1,0-0.1-0.1-0.1-0.1
				c0-0.1,0-0.2,0.1-0.2c0,0,0.1,0,0.1,0h1.8c0,0,0,0,0.1,0c0.1,0,0.2,0.1,0.2,0.2c0,0,0,0.1-0.1,0.2c0,0-0.1,0-0.2,0
				c-0.1,0-0.1,0-0.2,0c0,0-0.1,0-0.1,0.1c0,0-0.1,0.1-0.1,0.2c0,0.1,0,0.2,0,0.3v3.2c0,0.1,0,0.3,0,0.4c0,0.1,0,0.2,0,0.3
				c0,0.1,0,0.2,0.1,0.3c0,0.1,0.1,0.1,0.1,0.1c0.1,0,0.2,0,0.4,0c0.1,0,0.3,0,0.4,0c0.1,0,0.3,0,0.4,0c0.2,0,0.2-0.1,0.3-0.1
				c0,0,0.1,0,0.1-0.1c0-0.1,0.1-0.1,0.1-0.2c0-0.1,0.1-0.1,0.1-0.2c0-0.1,0.1-0.1,0.2-0.1c0.1,0,0.2,0.1,0.2,0.1c0,0,0,0.1,0,0.1
				c0,0,0,0,0,0.1c0,0,0,0.1,0,0.2c0,0.1,0,0.1-0.1,0.2c0,0.1,0,0.1,0,0.1c0,0.1,0,0.1,0,0.2c0,0,0,0.1,0,0.1c0,0.1-0.1,0.2-0.3,0.2
				H62.3z"/>
		</g>
		<g>
			<path class="st65" d="M17.2,10.6c-0.1,0-0.1,0-0.2,0c-0.1,0-0.2-0.1-0.2-0.2c0,0,0-0.1,0.2-0.2c0.1,0,0.1,0,0.2,0
				c0.1,0,0.1,0,0.2,0c0,0,0.1,0,0.1-0.1c0,0,0-0.1,0.1-0.1c0-0.1,0-0.2,0-0.3c0-0.1,0-0.2,0-0.3V5.5c0-0.1,0-0.2,0-0.3
				c0-0.1-0.1-0.1-0.1-0.2c-0.1,0-0.1,0-0.2,0l0,0c-0.2,0-0.2-0.1-0.2-0.1c0-0.1,0.1-0.2,0.2-0.2h2c0.2,0,0.5,0,0.7,0.1
				c0.2,0.1,0.5,0.1,0.7,0.3c0.2,0.1,0.4,0.3,0.5,0.5c0.1,0.2,0.2,0.5,0.2,0.8c0,0.4-0.1,0.8-0.3,1.1c-0.2,0.3-0.5,0.5-0.8,0.7
				c-0.1,0-0.2,0.1-0.3,0.1c-0.1,0-0.2,0-0.4,0h0c0,0,0,0,0,0c-0.1,0-0.3,0-0.4,0c-0.1,0-0.2,0-0.4,0v0.5c0,0.4,0,0.8,0,1
				c0,0.3,0.1,0.4,0.1,0.4l0,0c0,0,0,0,0.1,0.1c0,0,0.1,0,0.1,0c0,0,0.1,0,0.1,0c0,0,0.1,0,0.1,0c0,0,0.1,0,0.1,0
				c0.1,0,0.1,0.1,0.1,0.2c0,0,0,0.1-0.1,0.1c0,0-0.1,0-0.2,0H17.2z M18.8,7.8c0.1,0,0.3,0,0.6,0c0.1,0,0.1,0,0.2,0
				c0.2,0,0.4-0.1,0.5-0.3c0.1-0.2,0.2-0.5,0.2-0.9c0-0.5-0.1-0.9-0.3-1.1c-0.2-0.2-0.6-0.3-1-0.3c-0.1,0-0.1,0-0.1,0
				c0,0,0,0.2,0,0.4L18.8,7.8C18.8,7.8,18.8,7.8,18.8,7.8"/>
		</g>
	</g>
</g>
</svg>
