<svg width="115" height="28" viewBox="0 0 115 28" fill="none" xmlns="http://www.w3.org/2000/svg">
<g clip-path="url(#clip0_3925_1249)">
<path d="M30.235 0H0V1.44516H30.235V0Z" fill="#127787"/>
<path d="M30.235 26.5548H0V28H30.235V26.5548Z" fill="#127787"/>
<path d="M27.3394 23.6646H2.896V25.1097H27.3394V23.6646Z" fill="#127787"/>
<path d="M27.3394 2.89038H2.896V4.33554H27.3394V2.89038Z" fill="#127787"/>
<path d="M14.3936 5.78065L14.3936 22.2194H15.8415L15.8415 5.78065H14.3936Z" fill="#127787"/>
<path d="M10.0477 14.8129V22.2193H8.59977H5.79346V20.7742H8.59977V14.8129H10.0477Z" fill="#127787"/>
<path d="M7.886 7.2258L9.62673 11.9226H11.4976V13.3677H8.61605L5.80566 5.78064H12.9455V22.2194H11.4976V7.2258H7.886Z" fill="#127787"/>
<path d="M22.3511 7.2258L20.6083 11.9226H18.7374V13.3677H21.621L24.4294 5.78064H17.2896V22.2194H18.7374V7.2258H22.3511Z" fill="#127787"/>
<path d="M20.187 14.8129V22.2193H21.6349H24.4433V20.7742H21.6349V14.8129H20.187Z" fill="#127787"/>
<path d="M43.4534 18.8885C43.3517 18.8885 43.246 18.8804 43.1423 18.8682C42.8739 18.8317 42.8535 18.6369 42.8535 18.578C42.8535 18.5252 42.8739 18.3527 43.126 18.3162C43.2135 18.304 43.3111 18.2877 43.4209 18.2715C43.5185 18.2553 43.6161 18.2309 43.7117 18.1944C43.7747 18.17 43.8174 18.1335 43.8418 18.0787C43.8642 18.0218 43.9008 17.8879 43.9252 17.5956C43.9476 17.3439 43.9638 17.0719 43.9781 16.7898C43.9903 16.5077 43.9984 16.2316 43.9984 15.9718V10.4875C43.9984 10.2886 43.9577 10.1486 43.8764 10.0674C43.7808 9.97197 43.6791 9.90702 43.5734 9.87049C43.4534 9.82989 43.3416 9.80554 43.2399 9.79336C42.9633 9.76088 42.9227 9.61474 42.9227 9.52949C42.9227 9.38335 43.0304 9.2636 43.1809 9.24736C43.2643 9.23721 43.3273 9.23315 43.3782 9.23315H48.7671C48.8871 9.23315 49.0254 9.31434 49.0254 9.5437C49.0254 9.5843 49.0233 9.62692 49.0172 9.6736C49.0132 9.70405 49.0111 9.72638 49.0111 9.74058C49.0111 9.89484 49.0172 10.0572 49.0294 10.2257C49.0437 10.4043 49.0498 10.5748 49.0498 10.7372C49.0498 10.8143 49.0477 10.8752 49.0416 10.9239C49.0274 11.0538 48.9318 11.1391 48.8037 11.1391C48.6756 11.1391 48.5292 11.0619 48.5007 10.8427C48.4865 10.7311 48.4722 10.6743 48.4621 10.6438C48.4275 10.5484 48.3746 10.4652 48.3055 10.3942C48.2364 10.3251 48.1489 10.2744 48.0411 10.2379C47.9395 10.2094 47.8134 10.1912 47.6751 10.1871C47.5246 10.1831 47.3863 10.181 47.2663 10.181H46.0706C45.9791 10.181 45.9079 10.1952 45.8591 10.2237C45.8327 10.2379 45.8286 10.2967 45.8286 10.3292V13.3332C45.8286 13.3433 45.8286 13.3535 45.8286 13.3616C45.8429 13.3616 45.8612 13.3616 45.8856 13.3616H47.2785C47.368 13.3616 47.4758 13.3555 47.5958 13.3433C47.6873 13.3332 47.7564 13.3088 47.7991 13.2723L47.8113 13.2621C47.8418 13.2398 47.8642 13.2033 47.8784 13.1485C47.9029 13.0632 47.9232 12.9739 47.9415 12.8867C47.9598 12.7913 47.9781 12.708 47.9964 12.635C48.0493 12.4218 48.2038 12.4036 48.2506 12.4036C48.3055 12.4036 48.4844 12.4259 48.5089 12.706C48.519 12.8156 48.5231 12.9069 48.5231 12.9902C48.5231 13.118 48.517 13.25 48.5028 13.388C48.4906 13.5138 48.4845 13.6356 48.4845 13.7513C48.4845 13.9157 48.4885 14.0862 48.4967 14.2608C48.5048 14.4434 48.5109 14.62 48.5109 14.7865C48.5109 14.8392 48.5068 14.8961 48.4967 14.9631C48.4743 15.1011 48.3746 15.1884 48.2404 15.1884C48.1225 15.1884 48.0289 15.1133 47.9883 14.9854C47.9679 14.9225 47.9517 14.8453 47.9374 14.754C47.9252 14.6809 47.9049 14.5977 47.8784 14.5084C47.8561 14.4374 47.8195 14.3785 47.7686 14.3257C47.7686 14.3257 47.7361 14.3014 47.6121 14.2892C47.4921 14.277 47.3884 14.2709 47.307 14.2709H45.8307V17.3317C45.8307 17.4271 45.8368 17.5144 45.849 17.5875C45.8551 17.6321 45.8835 17.6748 45.9323 17.7194C45.9811 17.7681 46.0401 17.8006 46.1133 17.8229C46.2028 17.8513 46.3024 17.8696 46.4061 17.8818C46.516 17.894 46.6258 17.9021 46.7356 17.9062C46.8474 17.9102 46.945 17.9122 47.0325 17.9122C47.2033 17.9122 47.4107 17.9062 47.6548 17.8919C47.8805 17.8798 48.0757 17.8412 48.2323 17.7783C48.3482 17.7357 48.4336 17.6768 48.4946 17.6037C48.5658 17.5164 48.6227 17.4312 48.6675 17.35C48.7122 17.2627 48.7488 17.1876 48.7712 17.1288C48.8424 16.9522 48.9644 16.9258 49.0315 16.9258C49.1515 16.9258 49.247 17.0009 49.2735 17.1146C49.2857 17.1673 49.2897 17.216 49.2897 17.2627C49.2897 17.3541 49.2592 17.4799 49.1942 17.6545C49.1372 17.8087 49.0762 17.963 49.0152 18.1132C48.9745 18.2167 48.94 18.3243 48.9095 18.4339C48.8607 18.6145 48.8302 18.6673 48.7936 18.7059C48.7264 18.7708 48.641 18.8175 48.5373 18.8419C48.4499 18.8622 48.3685 18.8723 48.2953 18.8723L43.4595 18.8845L43.4534 18.8885Z" fill="#127787"/>
<path d="M50.5262 18.9028C50.152 18.9028 50.1235 18.6653 50.1235 18.5922C50.1235 18.5455 50.1398 18.3933 50.3554 18.3385C50.4326 18.3202 50.5201 18.304 50.6238 18.2898C50.7153 18.2776 50.8109 18.2614 50.9065 18.2391C50.9837 18.2228 51.0447 18.1985 51.0874 18.168C51.1566 18.1173 51.3193 17.9021 51.3193 17.0314V10.5769C51.3193 10.2947 51.2989 10.1648 51.2806 10.108C51.2623 10.0491 51.2278 10.0065 51.1688 9.97606C51.0834 9.92938 51 9.89487 50.9207 9.87255C50.8312 9.84616 50.7519 9.82586 50.6828 9.8076C50.6096 9.78933 50.5506 9.77309 50.5038 9.75888C50.3676 9.71829 50.3208 9.61274 50.3208 9.52749C50.3208 9.41383 50.3818 9.32452 50.4814 9.28596C50.5364 9.26363 50.6197 9.22913 50.7336 9.22913H53.9751C54.392 9.22913 54.7946 9.2819 55.1729 9.38541C55.5552 9.49096 55.8948 9.64928 56.1876 9.85631C56.4825 10.0674 56.7204 10.3292 56.8953 10.6378C57.0722 10.9503 57.1597 11.3096 57.1597 11.7034C57.1597 12.1479 57.0763 12.5396 56.9095 12.8725C56.7489 13.1952 56.5638 13.4692 56.3584 13.6864C56.1551 13.9015 55.9599 14.068 55.7768 14.1857C55.6691 14.2527 55.5979 14.2973 55.5491 14.3278C55.5531 14.3339 55.5592 14.342 55.5653 14.3501L57.4891 16.6762C57.6437 16.8568 57.8023 17.0375 57.9589 17.2161C58.1134 17.3927 58.27 17.5571 58.4225 17.7052C58.571 17.8494 58.7214 17.9711 58.8699 18.0645C59.0082 18.1538 59.1424 18.2086 59.2685 18.2309C59.2847 18.235 59.299 18.237 59.3234 18.237C59.3356 18.237 59.3498 18.237 59.364 18.237C59.3966 18.235 59.4291 18.233 59.4576 18.233C59.4881 18.233 59.5186 18.233 59.545 18.237C59.6081 18.2431 59.667 18.2594 59.7219 18.2857C59.8135 18.3324 59.8663 18.4197 59.8663 18.5273C59.8663 18.5882 59.8419 18.7932 59.5389 18.8358C59.4067 18.8541 59.301 18.8642 59.2136 18.8642H58.3066C58.0768 18.8561 57.9507 18.852 57.7453 18.8236C57.5399 18.7952 57.3345 18.7424 57.1353 18.6633C56.936 18.5841 56.7428 18.4786 56.5598 18.3487C56.3747 18.2167 56.21 18.0483 56.0676 17.8514L54.7113 15.8683C54.5323 15.6045 54.3513 15.3629 54.1764 15.1539C54.028 14.9773 53.8836 14.892 53.7331 14.892H53.1495V16.5767C53.1495 17.0578 53.1637 17.4109 53.1942 17.6241C53.2329 17.8981 53.2715 17.9914 53.2857 18.0178L53.2918 18.032C53.3162 18.0868 53.3488 18.1295 53.3955 18.166C53.4423 18.2046 53.4891 18.2269 53.5359 18.2391H53.5481L53.5582 18.2472C53.5847 18.2573 53.6213 18.2654 53.666 18.2675C53.7331 18.2715 53.7941 18.2797 53.8531 18.2898C53.9243 18.302 53.9893 18.3243 54.0442 18.3548C54.1358 18.4055 54.1886 18.4907 54.1886 18.5861C54.1886 18.6815 54.1459 18.8967 53.7453 18.8967L50.5262 18.9089V18.9028ZM53.1515 14.0172C53.2125 14.0274 53.2715 14.0314 53.3264 14.0314H54.1276C54.2659 14.0314 54.4083 14.0051 54.5526 13.9563C54.6869 13.9097 54.8109 13.8204 54.9207 13.6884C55.0366 13.5524 55.1342 13.3637 55.2115 13.1262C55.2888 12.8847 55.3295 12.564 55.3295 12.1702C55.3295 11.9408 55.2969 11.7034 55.2298 11.4638C55.1647 11.2284 55.0631 11.0112 54.9248 10.8184C54.7906 10.6296 54.6157 10.4733 54.4062 10.3536C54.2008 10.2359 53.9507 10.177 53.666 10.177H53.3508C53.2695 10.177 53.2186 10.1932 53.2023 10.2257C53.182 10.2643 53.1495 10.3617 53.1495 10.589V14.0152L53.1515 14.0172Z" fill="#127787"/>
<path d="M63.7218 19.0468C63.13 19.0468 62.583 18.9697 62.1011 18.8155C61.613 18.6612 61.188 18.4318 60.8342 18.1355C60.4783 17.8351 60.2017 17.4596 60.0126 17.0171C59.8255 16.5787 59.7299 16.0672 59.7299 15.4948V11.5186C59.7299 11.1309 59.7259 10.7839 59.7177 10.4875C59.7055 10.112 59.6486 10.0369 59.6405 10.0288C59.6038 9.98617 59.5489 9.94964 59.4778 9.92122C59.3903 9.88469 59.3029 9.85627 59.2195 9.838C59.128 9.81568 59.0446 9.79741 58.9734 9.77914C58.766 9.7284 58.7437 9.59444 58.7437 9.53963C58.7437 9.43612 58.7904 9.35087 58.8738 9.30419C58.9328 9.26968 59.0141 9.25547 59.1483 9.25547H62.2759C62.6644 9.25547 62.705 9.4625 62.705 9.55181C62.705 9.6127 62.6766 9.72434 62.4915 9.77711C62.4264 9.79538 62.3512 9.81162 62.2637 9.82785C62.1804 9.84206 62.097 9.85221 62.0096 9.86236C61.9282 9.87048 61.8957 9.88672 61.8875 9.8928C61.8082 9.93137 61.7513 9.96384 61.7005 9.99226C61.7005 9.99226 61.672 10.0186 61.6374 10.1303C61.6028 10.2399 61.5764 10.4165 61.5601 10.654C61.5439 10.9016 61.5337 11.2629 61.5337 11.7297L61.5601 15.1478C61.5601 15.505 61.5927 15.8703 61.6557 16.2337C61.7188 16.5889 61.8306 16.9116 61.9913 17.1957C62.1478 17.4718 62.3675 17.7011 62.6461 17.8777C62.9206 18.0523 63.2805 18.1396 63.7198 18.1396C64.1041 18.1396 64.4864 18.0827 64.8545 17.9711C65.2165 17.8595 65.5398 17.6849 65.8123 17.4474C66.0868 17.212 66.3105 16.9014 66.4793 16.528C66.6481 16.1545 66.7335 15.6897 66.7335 15.1478V12.3183C66.7335 11.5775 66.7111 11.0152 66.6684 10.6479C66.6115 10.1688 66.52 10.0877 66.5098 10.0795C66.4244 10.0105 66.339 9.96385 66.2455 9.93543C66.1316 9.90092 66.0319 9.87454 65.9425 9.85221C65.8428 9.82988 65.7594 9.80959 65.6923 9.79132C65.4869 9.73652 65.4707 9.58429 65.4707 9.53963C65.4707 9.4077 65.552 9.30825 65.6801 9.28389L65.6984 9.27983C65.7411 9.26968 65.7818 9.26156 65.9201 9.25547H68.3461C68.4722 9.25547 68.8545 9.25547 68.8545 9.53963C68.8545 9.58429 68.8383 9.80553 68.5088 9.80553H68.4661C68.3583 9.80553 68.2221 9.84206 68.0614 9.91513C67.9638 9.95978 67.8316 10.0532 67.8032 10.3434C67.7767 10.6174 67.7645 11.0132 67.7645 11.5206V14.8392C67.7645 16.1545 67.4127 17.1937 66.7213 17.9305C66.0258 18.6713 65.0172 19.0448 63.7218 19.0448M62.7884 8.82517C62.6176 8.82517 62.5037 8.71557 62.5037 8.55319C62.5037 8.43141 62.5729 8.31368 62.7132 8.1919C62.827 8.09447 62.9857 7.99502 63.2033 7.8915L64.4132 7.32724C64.5678 7.25417 64.6756 7.20748 64.7427 7.18313C64.824 7.15471 64.8931 7.1405 64.9562 7.1405C65.0457 7.1405 65.1392 7.17704 65.2287 7.24808C65.2958 7.30085 65.371 7.36986 65.4544 7.45105C65.7493 7.76566 65.8835 7.99705 65.8835 8.18581C65.8835 8.3218 65.8367 8.40908 65.7452 8.44561C65.7025 8.46388 65.6476 8.46997 65.5724 8.46997C65.5439 8.46997 65.4788 8.46591 65.3792 8.45576C65.2917 8.44764 65.2287 8.44358 65.1921 8.44358H64.9826C64.8911 8.44358 64.7752 8.44764 64.6389 8.45576C64.5047 8.46388 64.3563 8.48012 64.1977 8.50042C64.0411 8.52071 63.8804 8.54913 63.7157 8.58363C63.6893 8.58972 63.6405 8.6019 63.551 8.63032C63.4697 8.6567 63.3822 8.68512 63.2887 8.71151C63.1951 8.73789 63.1056 8.76225 63.0223 8.78458C62.9247 8.81096 62.8474 8.82314 62.7884 8.82314" fill="#127787"/>
<path d="M74.7232 18.8926C74.6358 18.8926 74.5504 18.8845 74.4731 18.8744C74.3165 18.8561 74.2148 18.7445 74.2148 18.5922C74.2148 18.5435 74.2331 18.3771 74.4629 18.3243C74.5483 18.306 74.646 18.2898 74.7558 18.2756C74.8493 18.2634 74.9449 18.2411 75.0384 18.2106C75.1055 18.1883 75.1523 18.1518 75.1849 18.099C75.2337 18.0259 75.2662 17.961 75.2886 17.896C75.3109 17.8291 75.3272 17.7377 75.3394 17.6241C75.3516 17.5043 75.3577 17.348 75.3577 17.1633V10.8001C75.3577 10.6459 75.3557 10.5221 75.3516 10.4267C75.3475 10.3374 75.3394 10.2643 75.3292 10.2095C75.3211 10.1648 75.3048 10.1263 75.2865 10.0958C75.2601 10.0532 75.2255 10.0085 75.1869 9.96185C75.1808 9.95373 75.1604 9.93344 75.0994 9.9172C75.0242 9.8969 74.9469 9.87661 74.8717 9.86037C74.7903 9.8421 74.7151 9.82383 74.6521 9.80556C74.4609 9.75076 74.4385 9.62086 74.4385 9.56809C74.4385 9.41586 74.5178 9.30016 74.6439 9.26972C74.709 9.25348 74.7842 9.24536 74.8676 9.24536H77.7593C77.7858 9.24536 77.8285 9.24739 77.9403 9.26769C78.1233 9.30016 78.1884 9.43007 78.1884 9.5417C78.1884 9.58838 78.1722 9.74061 77.9566 9.79542C77.8834 9.81368 77.8 9.83195 77.7044 9.85022C77.6211 9.86646 77.5357 9.89081 77.4482 9.92126C77.3831 9.94562 77.3343 9.97809 77.3018 10.0227C77.2489 10.0897 77.2204 10.1669 77.2103 10.2683C77.1981 10.3942 77.192 10.5829 77.192 10.8285V16.116C77.192 16.325 77.194 16.5239 77.1981 16.7147C77.2021 16.9015 77.2082 17.0618 77.2184 17.1937C77.2265 17.3541 77.2591 17.5104 77.314 17.6586C77.375 17.823 77.4462 17.8372 77.4685 17.8433C77.6353 17.8859 77.8346 17.9082 78.0603 17.9123C78.3003 17.9163 78.5036 17.9184 78.6683 17.9184C78.8859 17.9184 79.1096 17.9001 79.3313 17.8615C79.6017 17.8148 79.7258 17.7763 79.7827 17.7499C79.858 17.7215 79.9088 17.6768 79.9556 17.6078C80.0146 17.5165 80.0674 17.4231 80.1061 17.3297C80.1508 17.2283 80.1894 17.1389 80.224 17.0598C80.3033 16.8812 80.4152 16.8426 80.4945 16.8426C80.645 16.8426 80.7568 16.9339 80.7771 17.076C80.7873 17.1491 80.7914 17.1958 80.7914 17.2303C80.7914 17.2628 80.7853 17.3013 80.7527 17.415C80.7304 17.4901 80.706 17.5713 80.6816 17.6626C80.6551 17.756 80.6267 17.8514 80.5941 17.9488C80.5636 18.0442 80.5413 18.1193 80.523 18.1802C80.4863 18.2796 80.464 18.3649 80.4477 18.442L80.4314 18.5192C80.4274 18.5354 80.4253 18.5476 80.4233 18.5557C80.4172 18.6349 80.3704 18.8947 79.9942 18.8947H74.7232V18.8926Z" fill="#127787"/>
<path d="M81.9793 18.8926C81.8878 18.8926 81.7922 18.8844 81.6682 18.8682C81.3997 18.8317 81.3794 18.6368 81.3794 18.5779C81.3794 18.5252 81.3997 18.3526 81.6519 18.3161C81.7393 18.3039 81.8369 18.2877 81.9468 18.2715C82.0444 18.2552 82.142 18.2309 82.2355 18.1943C82.2986 18.17 82.3413 18.1334 82.3657 18.0786C82.388 18.0218 82.4246 17.8878 82.4491 17.5956C82.4714 17.3398 82.4877 17.0699 82.5019 16.7898C82.5141 16.5056 82.5223 16.2296 82.5223 15.9698V10.4854C82.5223 10.2865 82.4816 10.1465 82.4002 10.0653C82.3047 9.9699 82.203 9.90495 82.0972 9.86841C81.9773 9.82782 81.8654 9.80346 81.7617 9.79128C81.4851 9.76084 81.4445 9.61267 81.4445 9.52742C81.4445 9.38331 81.5584 9.26152 81.7068 9.24529C81.7902 9.23514 81.8532 9.23108 81.9041 9.23108H87.2889C87.4089 9.23108 87.5472 9.31227 87.5472 9.54163C87.5472 9.58222 87.5452 9.62688 87.5391 9.67153C87.535 9.70197 87.533 9.7243 87.533 9.73851C87.533 9.89277 87.5391 10.0551 87.5513 10.2236C87.5655 10.4043 87.5716 10.5748 87.5716 10.7351C87.5716 10.8122 87.5696 10.8731 87.5635 10.9218C87.5513 11.0497 87.4557 11.137 87.3255 11.137C87.1954 11.137 87.051 11.0599 87.0225 10.8406C87.0083 10.729 86.9941 10.6722 86.9839 10.6417C86.9493 10.5443 86.8965 10.4631 86.8273 10.3921C86.7582 10.3231 86.6707 10.2723 86.563 10.2358C86.4613 10.2074 86.3352 10.1891 86.1969 10.185C86.0464 10.181 85.9102 10.179 85.7882 10.179H84.5924C84.5009 10.179 84.4297 10.1932 84.3809 10.2216C84.3545 10.2358 84.3504 10.2947 84.3504 10.3271V13.3311C84.3504 13.3413 84.3504 13.3514 84.3504 13.3595C84.3647 13.3595 84.385 13.3595 84.4074 13.3595H85.8004C85.8898 13.3595 85.9976 13.3534 86.1196 13.3413C86.2111 13.3311 86.2803 13.3068 86.323 13.2702L86.3291 13.2641L86.3352 13.2601C86.3657 13.2398 86.3881 13.2012 86.4023 13.1464C86.4267 13.0612 86.447 12.9719 86.4653 12.8846C86.4836 12.7892 86.5019 12.706 86.5202 12.6329C86.5731 12.4198 86.7277 12.4015 86.7744 12.4015C86.8293 12.4015 87.0083 12.4238 87.0327 12.7039C87.0429 12.8135 87.0469 12.9049 87.0469 12.9881C87.0469 13.116 87.0408 13.2479 87.0266 13.3859C87.0144 13.5118 87.0083 13.6335 87.0083 13.7492C87.0083 13.9136 87.0124 14.0862 87.0205 14.2587C87.0286 14.4434 87.0347 14.62 87.0347 14.7844C87.0347 14.8351 87.0307 14.894 87.0205 14.959C86.9981 15.097 86.8985 15.1863 86.7643 15.1863C86.6463 15.1863 86.5528 15.1112 86.5141 14.9833C86.4938 14.9204 86.4775 14.8433 86.4633 14.7499C86.4511 14.6768 86.4308 14.5936 86.4043 14.5043C86.382 14.4333 86.3454 14.3744 86.2945 14.3216C86.2945 14.3216 86.2599 14.2973 86.1379 14.2851C86.0179 14.2729 85.9142 14.2668 85.8329 14.2668H84.3565V17.3276C84.3565 17.423 84.3626 17.5103 84.3748 17.5834C84.3809 17.628 84.4094 17.6707 84.4582 17.7153C84.507 17.764 84.566 17.7965 84.6392 17.8188C84.7287 17.8472 84.8283 17.8655 84.932 17.8777C85.0418 17.8899 85.1517 17.898 85.2615 17.902C85.3733 17.9061 85.473 17.9081 85.5584 17.9081C85.7292 17.9081 85.9366 17.902 86.1806 17.8878C86.4064 17.8757 86.6016 17.8371 86.7582 17.7742C86.8741 17.7316 86.9595 17.6727 87.0205 17.5996C87.0917 17.5123 87.1506 17.4271 87.1933 17.3459C87.2381 17.2586 87.2747 17.1835 87.2971 17.1247C87.3682 16.9481 87.4903 16.9217 87.5574 16.9217C87.6773 16.9217 87.7729 16.9948 87.7994 17.1105C87.8116 17.1632 87.8156 17.2119 87.8156 17.2586C87.8156 17.35 87.7851 17.4758 87.72 17.6504C87.6631 17.8046 87.6021 17.9568 87.5411 18.1091C87.5004 18.2126 87.4658 18.3222 87.4353 18.4298C87.4008 18.5597 87.3845 18.6165 87.3357 18.6835L87.3276 18.6936L87.3072 18.7139C87.2625 18.7586 87.2015 18.8215 87.0957 18.854C86.9941 18.8844 86.9575 18.8844 86.8212 18.8844H81.9834L81.9793 18.8926Z" fill="#127787"/>
<path d="M93.7028 19.0468C92.9259 19.0468 92.2142 18.9453 91.5879 18.7444C90.9534 18.5414 90.4023 18.2248 89.9488 17.8026C89.4933 17.3804 89.1394 16.8385 88.8934 16.191C88.6514 15.5496 88.5273 14.7783 88.5273 13.8954C88.5273 13.2134 88.6433 12.572 88.8751 11.9915C89.1049 11.409 89.4363 10.8995 89.8573 10.4733C90.2782 10.0491 90.7846 9.71213 91.3581 9.47262C91.9315 9.23311 92.5762 9.11133 93.2696 9.11133C93.7292 9.11133 94.1542 9.13568 94.5325 9.1844C94.9066 9.23311 95.2422 9.28791 95.5309 9.35084C95.8095 9.4097 96.0536 9.46653 96.259 9.51524C96.4867 9.57005 96.6026 9.58222 96.6596 9.58222C96.749 9.58222 96.7897 9.57208 96.806 9.56599C96.8406 9.55381 96.8528 9.54163 96.8568 9.5396L96.9219 9.47465C96.9707 9.42594 97.0358 9.39955 97.1049 9.39955C97.231 9.39955 97.3266 9.47871 97.3428 9.59643C97.3489 9.63906 97.351 9.68168 97.351 9.72227C97.351 9.75272 97.3469 9.7994 97.3144 9.94757C97.3001 10.0125 97.2798 10.1526 97.2595 10.455C97.2432 10.66 97.233 10.8407 97.233 10.9949C97.233 11.1613 97.2188 11.3359 97.1924 11.5186C97.1741 11.6363 97.1578 11.7297 97.1456 11.8007C97.1191 11.9489 97.0134 12.0402 96.8711 12.0402C96.8263 12.0402 96.6738 12.024 96.6189 11.819C96.5965 11.7398 96.5864 11.6505 96.5864 11.547C96.5864 11.5429 96.5803 11.4922 96.5253 11.273C96.4887 11.1248 96.4237 10.9969 96.3362 10.8955C96.2773 10.8305 96.1674 10.7412 96.0129 10.6356C95.8583 10.5301 95.655 10.4286 95.4089 10.3312C95.1608 10.2338 94.868 10.1485 94.5406 10.0754C94.2152 10.0044 93.8532 9.96787 93.4648 9.96787C93.0012 9.96787 92.5802 10.0551 92.2142 10.2277C91.8461 10.4002 91.5309 10.6377 91.2767 10.932C91.0205 11.2283 90.8192 11.5876 90.6768 11.9976C90.5345 12.4096 90.4633 12.8623 90.4633 13.3392C90.4633 14.1856 90.5467 14.9265 90.7134 15.5435C90.8781 16.1524 91.114 16.6619 91.415 17.0577C91.7119 17.4474 92.0759 17.7397 92.4989 17.9223C92.9259 18.1091 93.4201 18.2024 93.9631 18.2024C94.0566 18.2024 94.1623 18.1903 94.2783 18.1659C94.3982 18.1416 94.5162 18.1091 94.628 18.0725C94.7439 18.034 94.8538 17.9934 94.9514 17.9528C95.0449 17.9142 95.1181 17.8757 95.169 17.8391C95.3072 17.7417 95.3845 17.6098 95.4089 17.4332C95.4394 17.218 95.4537 16.942 95.4537 16.6091V15.7302C95.4537 15.3791 95.4455 15.1112 95.4272 14.9326C95.413 14.7945 95.3784 14.6951 95.3235 14.6464C95.2483 14.5733 95.1791 14.5266 95.108 14.5043C95.0225 14.4779 94.9453 14.4596 94.8761 14.4515C94.7989 14.4434 94.7358 14.4373 94.689 14.4333C94.5548 14.4211 94.4653 14.3257 94.4653 14.1958C94.4653 14.1227 94.4959 13.8852 94.8822 13.8852C94.9188 13.8852 94.9941 13.8893 95.1059 13.8994C95.2076 13.9076 95.3255 13.9136 95.4598 13.9177C95.596 13.9218 95.7465 13.9279 95.9112 13.938C96.0698 13.9461 96.2264 13.9502 96.383 13.9502C96.4684 13.9502 96.5884 13.9461 96.7409 13.938C96.8975 13.9299 97.05 13.9177 97.2025 13.9055C97.3571 13.8934 97.4954 13.8812 97.6194 13.8731C97.7496 13.8649 97.8228 13.8588 97.8411 13.8588C97.9041 13.8588 97.9692 13.871 98.0363 13.8954C98.0912 13.9157 98.2173 13.9847 98.2173 14.1836C98.2173 14.2891 98.1502 14.3764 98.0363 14.419C97.9753 14.4414 97.9061 14.4576 97.8228 14.4678C97.7597 14.4759 97.6946 14.4881 97.6316 14.5043C97.5808 14.5165 97.536 14.5368 97.4994 14.5591C97.4547 14.5936 97.414 14.6362 97.3855 14.6829C97.3571 14.7296 97.3347 14.7966 97.3205 14.8798C97.3042 14.9752 97.294 15.099 97.29 15.2451C97.2859 15.3974 97.2839 15.5902 97.2839 15.8236V17.8838C97.2839 17.969 97.2798 18.0482 97.2696 18.1213C97.2534 18.239 97.1883 18.3344 97.0825 18.3953C97.0012 18.4501 96.8527 18.5171 96.6433 18.5942C96.442 18.6673 96.1918 18.7403 95.9031 18.8073C95.6123 18.8763 95.2767 18.9331 94.9066 18.9798C94.5325 19.0245 94.1278 19.0488 93.7028 19.0488" fill="#127787"/>
<path d="M104.416 18.8926C104.373 18.8926 104.318 18.8885 104.253 18.8784C104.119 18.8581 104.025 18.7464 104.025 18.6064C104.025 18.4663 104.111 18.3648 104.257 18.3222C104.336 18.2999 104.426 18.2776 104.521 18.2593C104.593 18.2451 104.656 18.2207 104.713 18.1842C104.745 18.1639 104.749 18.0868 104.749 18.0543C104.749 17.8939 104.733 17.7437 104.7 17.6057C104.668 17.4657 104.599 17.2607 104.497 16.9988L104.17 16.1727C104.117 16.0347 104.072 15.9231 104.035 15.8378C103.999 15.7587 103.968 15.6958 103.942 15.6552C103.93 15.6369 103.922 15.6268 103.917 15.6247C103.917 15.6247 103.897 15.6207 103.865 15.6207H101.276C101.223 15.6207 101.19 15.6247 101.174 15.6268C101.166 15.643 101.15 15.6734 101.127 15.7262L100.68 16.8405C100.578 17.1044 100.497 17.3398 100.442 17.5387C100.389 17.7295 100.363 17.896 100.363 18.0401C100.363 18.1132 100.385 18.1213 100.403 18.1294C100.489 18.1639 100.572 18.1903 100.65 18.2045C100.688 18.2146 100.729 18.2228 100.78 18.2289C100.841 18.239 100.902 18.2492 100.967 18.2634C101.038 18.2796 101.099 18.2958 101.152 18.3182C101.26 18.3608 101.323 18.4481 101.323 18.5516C101.323 18.716 101.249 18.8317 101.127 18.8662C101.064 18.8824 100.995 18.8926 100.92 18.8926H98.3842C98.3211 18.8926 98.252 18.8845 98.1788 18.8702C98.0425 18.8418 97.9551 18.7221 97.9551 18.5678C97.9551 18.4501 98.0324 18.3182 98.2499 18.2979C98.3618 18.2877 98.4167 18.2796 98.4431 18.2735C98.6607 18.237 98.8153 18.1619 98.9068 18.0543C99.0146 17.9285 99.1122 17.758 99.2037 17.5448L102.62 9.26764C102.649 9.19457 102.683 9.11947 102.722 9.05249C102.805 8.90837 102.911 8.87793 102.984 8.87793C103.057 8.87793 103.167 8.9104 103.248 9.06466C103.285 9.1357 103.324 9.21689 103.36 9.31026L106.699 17.4434C106.742 17.555 106.799 17.6788 106.87 17.8168C106.939 17.9508 107.011 18.0624 107.082 18.1477C107.1 18.17 107.141 18.1903 107.196 18.2025C107.281 18.2228 107.37 18.239 107.462 18.2532C107.566 18.2674 107.659 18.2877 107.739 18.3121C107.877 18.3547 107.96 18.4623 107.96 18.5962C107.96 18.7464 107.854 18.8642 107.702 18.8824C107.619 18.8926 107.556 18.8966 107.505 18.8966H104.416V18.8926ZM103.535 14.6748C103.556 14.6748 103.574 14.6748 103.588 14.6748C103.584 14.6606 103.578 14.6444 103.57 14.6261L103.499 14.4434L102.557 12.0869L101.666 14.3643C101.622 14.4718 101.581 14.5733 101.542 14.6728H103.535V14.6748Z" fill="#127787"/>
<path d="M108.932 18.8926C108.845 18.8926 108.759 18.8845 108.682 18.8744C108.526 18.8561 108.424 18.7445 108.424 18.5922C108.424 18.5435 108.442 18.3771 108.672 18.3243C108.757 18.306 108.855 18.2898 108.965 18.2756C109.058 18.2634 109.154 18.2411 109.247 18.2106C109.315 18.1883 109.361 18.1518 109.394 18.099C109.443 18.0259 109.475 17.961 109.498 17.896C109.52 17.8291 109.538 17.7377 109.548 17.6241C109.561 17.5043 109.567 17.348 109.567 17.1613V10.7981C109.567 10.6438 109.565 10.52 109.561 10.4246C109.557 10.3374 109.548 10.2643 109.538 10.2075C109.53 10.1628 109.514 10.1242 109.496 10.0938C109.469 10.0512 109.435 10.0065 109.396 9.95983C109.39 9.95171 109.369 9.93141 109.308 9.91517C109.233 9.89487 109.156 9.87458 109.081 9.85834C108.997 9.84007 108.924 9.8218 108.861 9.80354C108.67 9.74873 108.65 9.61883 108.65 9.56606C108.65 9.40977 108.731 9.28799 108.855 9.25754C108.93 9.23927 109.003 9.22913 109.079 9.22913H111.97C111.995 9.22913 112.04 9.23116 112.151 9.25145C112.3 9.27784 112.401 9.39353 112.401 9.53967C112.401 9.58636 112.385 9.73859 112.17 9.79339C112.096 9.81166 112.013 9.82992 111.917 9.84819C111.834 9.86443 111.749 9.88878 111.661 9.91923C111.596 9.94359 111.547 9.97606 111.515 10.0207C111.462 10.0877 111.431 10.1669 111.423 10.2663C111.411 10.3922 111.405 10.5809 111.405 10.8265V16.1139C111.405 16.323 111.407 16.5219 111.411 16.7127C111.415 16.8994 111.421 17.0598 111.431 17.1917C111.44 17.3521 111.472 17.5084 111.527 17.6565C111.588 17.8209 111.659 17.8351 111.682 17.8412C111.848 17.8839 112.048 17.9062 112.273 17.9102C112.513 17.9143 112.717 17.9163 112.881 17.9163C113.099 17.9163 113.323 17.8981 113.544 17.8595C113.815 17.8128 113.939 17.7743 113.996 17.7479C114.071 17.7194 114.122 17.6748 114.169 17.6058C114.228 17.5144 114.278 17.4211 114.319 17.3277C114.364 17.2262 114.403 17.1369 114.437 17.0578C114.516 16.8791 114.628 16.8406 114.708 16.8406C114.862 16.8406 114.97 16.9299 114.99 17.074C115 17.1491 115.004 17.1958 115.004 17.2283C115.004 17.2607 114.998 17.2993 114.966 17.413C114.943 17.4881 114.919 17.5692 114.893 17.6606C114.866 17.754 114.838 17.8493 114.805 17.9468C114.775 18.0422 114.75 18.1193 114.734 18.1782C114.697 18.2776 114.675 18.3629 114.659 18.44C114.645 18.507 114.636 18.5516 114.636 18.5699C114.626 18.7201 114.543 18.8906 114.207 18.8906H108.936L108.932 18.8926Z" fill="#127787"/>
<path d="M35.4757 18.9028C35.3781 18.9028 35.2865 18.8947 35.2032 18.8805C35.0507 18.8541 34.9551 18.7424 34.9551 18.5922C34.9551 18.5435 34.9734 18.3771 35.2032 18.3243C35.2886 18.3061 35.3862 18.2898 35.494 18.2756C35.5916 18.2634 35.6953 18.2431 35.799 18.2147C35.8783 18.1924 35.9414 18.1538 35.9881 18.0929C36.0105 18.0666 36.0471 18.0097 36.0735 17.8758C36.0979 17.7519 36.1162 17.6099 36.1305 17.4556C36.1427 17.2993 36.1488 17.1288 36.1488 16.9502V10.6175C36.1488 10.447 36.1325 10.2866 36.1 10.1405C36.0756 10.0309 35.9983 9.94158 35.8661 9.86851C35.7685 9.81776 35.677 9.78935 35.5936 9.78935H35.5468C35.2459 9.78935 35.2296 9.59044 35.2296 9.55187C35.2296 9.37934 35.3516 9.20276 35.5529 9.20276H38.8249C39.2113 9.20276 39.6079 9.24538 40.0044 9.33063C40.4071 9.41791 40.7772 9.56405 41.1086 9.76499C41.4442 9.96999 41.7228 10.2481 41.9383 10.587C42.1559 10.9321 42.2657 11.3664 42.2657 11.8779C42.2657 12.5477 42.1092 13.1343 41.8001 13.6235C41.4909 14.1127 41.0537 14.4922 40.5006 14.75C40.344 14.8231 40.1671 14.886 39.9719 14.9367C39.7767 14.9875 39.5672 15.0139 39.3516 15.0139H39.311C39.2866 15.0139 39.2601 15.0139 39.2357 15.0139C39.0222 15.0118 38.8005 15.0037 38.5687 14.9956C38.3796 14.9895 38.1905 14.9793 37.981 14.9672V15.8217C37.981 16.5077 37.9973 17.0578 38.0258 17.4556C38.0664 17.9935 38.1396 18.0889 38.1478 18.099L38.1579 18.1112C38.1925 18.1559 38.2372 18.1904 38.2962 18.2147C38.3735 18.2452 38.4508 18.2695 38.526 18.2858C38.6013 18.302 38.6663 18.3121 38.7212 18.3162C38.7761 18.3203 38.8127 18.3223 38.829 18.3223C38.8921 18.3223 38.9571 18.3345 39.0242 18.3588C39.1381 18.4015 39.2073 18.4928 39.2073 18.6065C39.2073 18.6653 39.1849 18.7729 39.0364 18.848C38.9592 18.8866 38.8473 18.9048 38.6867 18.9048H35.4797L35.4757 18.9028ZM37.9912 14.3217C38.162 14.3481 38.5077 14.3643 38.9368 14.3643C39.0405 14.3643 39.0669 14.3643 39.2378 14.3582C39.5916 14.3319 39.856 14.1878 40.0431 13.9198C40.2586 13.6093 40.3684 13.11 40.3684 12.4402C40.3684 11.6161 40.1874 11.0153 39.8316 10.654C39.4757 10.2947 38.9165 10.1121 38.1681 10.1121C38.0461 10.1121 38.0339 10.1527 38.0258 10.1811C38.0034 10.2582 37.979 10.4307 37.979 10.8265V14.3217H37.9892" fill="#127787"/>
</g>
<defs>
<clipPath id="clip0_3925_1249">
<rect width="115" height="28" fill="white"/>
</clipPath>
</defs>
</svg>
