<svg width="100" height="28" viewBox="0 0 100 28" fill="none" xmlns="http://www.w3.org/2000/svg">
<g clip-path="url(#clip0_3925_1223)">
<path d="M12.8802 5.92123C12.8117 6.33347 12.701 6.83939 12.5244 7.3828C13.6498 8.574 14.343 10.1908 14.343 11.9709C14.343 14.6077 12.8275 16.8857 10.632 17.9511C10.603 17.6727 10.4686 17.3916 10.1972 17.156C9.61732 16.6555 8.71068 16.3262 7.78558 15.4723L7.56946 15.2742C7.49303 15.2046 7.47721 15.0922 7.52729 15.0012C8.06495 14.0295 9.02695 13.6306 9.02695 13.6306C7.74078 14.3908 7.68016 15.143 7.68016 15.143C10.0258 14.7709 9.99421 12.0218 9.99421 12.0218C9.99421 12.0218 9.93096 12.3778 8.64742 13.2371C7.81457 13.7966 7.49303 14.5006 7.36915 14.9851C7.21629 14.7602 7.09505 14.514 7.00017 14.2623C6.51258 12.9534 6.79196 11.4757 7.68806 10.4157C8.92943 8.94876 10.4423 8.33041 10.4423 8.33041C7.62217 10.1373 7.07133 11.7969 7.07133 11.7969C12.5481 10.9591 12.7142 4.58815 12.7142 4.58815C12.7142 4.58815 12.6509 5.55985 9.55934 7.40689C5.77462 9.67152 6.21476 13.0818 6.24375 13.6627C6.05663 13.0631 5.62439 12.26 4.64131 11.623C3.01251 10.5683 2.92817 10.1239 2.92817 10.1239C2.92817 10.1239 3.05204 13.553 6.00655 13.9732C6.00655 13.9732 5.70082 13.0818 4.17217 12.1262C4.17217 12.1262 5.36346 12.5973 6.05926 13.7805C6.20422 14.0268 6.31228 14.2971 6.39925 14.5702C6.78932 15.8256 7.82511 16.4922 8.87408 17.0757C9.15609 17.2337 9.38276 17.3969 9.56198 17.5629L9.56988 17.5709C9.85453 17.8386 9.72802 18.3231 9.35113 18.4142C8.82664 18.5426 8.27844 18.6069 7.71442 18.5962C4.13264 18.5373 1.28355 15.5874 1.29673 11.9495C1.30991 8.30096 4.22488 5.3457 7.81984 5.3457C8.92152 5.3457 9.95995 5.6241 10.8719 6.11396C11.3436 5.75794 11.6757 5.45278 11.9103 5.20383C10.6874 4.44092 9.24307 4.00995 7.69861 4.03404C3.4342 4.09828 -0.00789321 7.65584 1.35947e-05 11.9843C0.0079204 16.3637 3.50536 19.9105 7.81721 19.9105C12.1291 19.9105 15.6344 16.3556 15.6344 11.9709C15.6344 9.5457 14.5643 7.37744 12.8776 5.92123H12.8802Z" fill="#32C36C"/>
<path d="M51.8027 27.9758C50.9724 27.9758 50.0553 27.6733 49.3252 27.0898L49.9235 26.1689C50.5534 26.6508 51.2386 26.8997 51.8369 26.8997C52.4352 26.8997 52.7436 26.6535 52.7436 26.26V26.2385C52.7436 25.7781 52.1242 25.6202 51.4389 25.4087C50.5771 25.1624 49.6151 24.8037 49.6151 23.6688V23.6473C49.6151 22.5231 50.5323 21.8405 51.6946 21.8405C52.4247 21.8405 53.2206 22.0974 53.84 22.515L53.3102 23.4814C52.7462 23.1334 52.1506 22.9192 51.663 22.9192C51.1438 22.9192 50.8459 23.1655 50.8459 23.5135V23.5349C50.8459 23.9605 51.4758 24.1426 52.1611 24.3647C53.0124 24.6351 53.9744 25.0259 53.9744 26.094V26.1154C53.9744 27.3628 53.0229 27.9785 51.8079 27.9785L51.8027 27.9758Z" fill="#32C36C"/>
<path d="M57.5534 28C55.7743 28 54.4565 26.6187 54.4565 24.9242C54.4565 23.2298 55.7823 21.8137 57.5745 21.8137C59.3667 21.8137 60.6818 23.195 60.6818 24.9028C60.6818 26.6107 59.3561 28.0026 57.5534 28.0026V28ZM57.5534 23.0022C56.4807 23.0022 55.7954 23.8562 55.7954 24.9001C55.7954 25.9441 56.536 26.8195 57.5745 26.8195C58.6129 26.8195 59.343 25.9655 59.343 24.9216C59.343 23.8776 58.6023 23.0022 57.5534 23.0022Z" fill="#32C36C"/>
<path d="M63.4916 27.9758C62.6614 27.9758 61.7442 27.6733 61.0142 27.0898L61.6124 26.1689C62.2424 26.6508 62.9276 26.8997 63.5259 26.8997C64.1242 26.8997 64.4325 26.6535 64.4325 26.26V26.2385C64.4325 25.7781 63.8132 25.6202 63.1279 25.4087C62.2661 25.1624 61.3041 24.8037 61.3041 23.6688V23.6473C61.3041 22.5231 62.2213 21.8405 63.3836 21.8405C64.1136 21.8405 64.9096 22.0974 65.5289 22.515L64.9992 23.4814C64.4352 23.1334 63.8395 22.9192 63.3519 22.9192C62.8327 22.9192 62.5349 23.1655 62.5349 23.5135V23.5349C62.5349 23.9605 63.1648 24.1426 63.8501 24.3647C64.7014 24.6351 65.6634 25.0259 65.6634 26.094V26.1154C65.6634 27.3628 64.7119 27.9785 63.4969 27.9785L63.4916 27.9758Z" fill="#32C36C"/>
<path d="M67.9694 26.011C67.9694 26.5384 68.2356 26.7525 68.689 26.7525C68.9868 26.7525 69.253 26.6856 69.5192 26.5491V27.66C69.1871 27.85 68.8128 27.9625 68.3147 27.9625C67.3316 27.9625 66.6332 27.5235 66.6332 26.2225V23.1013H65.8926V21.9342H66.6332V20.3066H67.9721V21.9342H69.5429V23.1013H67.9721V26.0084L67.9694 26.011Z" fill="#32C36C"/>
<path d="M72.8664 26.8864C73.5174 26.8864 73.9839 26.6401 74.4478 26.1797L75.2332 26.8864C74.6797 27.5609 73.918 27.9973 72.8453 27.9973C71.1533 27.9973 69.8486 26.7498 69.8486 24.9082C69.8486 23.2003 71.032 21.8083 72.7004 21.8083C74.5585 21.8083 75.4967 23.2913 75.4967 25.0099C75.4967 25.133 75.4862 25.2454 75.4756 25.3793H71.1849C71.3404 26.3456 72.0019 26.8837 72.8664 26.8837V26.8864ZM74.171 24.4825C74.0841 23.6072 73.5754 22.9219 72.6898 22.9219C71.8728 22.9219 71.2956 23.5617 71.1743 24.4825H74.171Z" fill="#32C36C"/>
<path d="M77.6314 27.8634H76.2925V21.9342H77.6314V22.855C78.0083 22.2929 78.5486 21.811 79.4552 21.811C80.7704 21.811 81.5347 22.7105 81.5347 24.0917V27.8634H80.1958V24.4959C80.1958 23.5751 79.7425 23.0477 78.9465 23.0477C78.1506 23.0477 77.6314 23.5992 77.6314 24.52V27.8661V27.8634Z" fill="#32C36C"/>
<path d="M82.6182 21.0267V19.7365H84.0546V21.0267H82.6182ZM82.6735 27.8634V21.9342H84.0124V27.8634H82.6735Z" fill="#32C36C"/>
<path d="M88.5218 27.9892C87.5598 27.9892 86.951 27.4967 86.5425 26.9453V27.8661H85.2036V19.6696H86.5425V22.9273C86.9747 22.3089 87.5809 21.8164 88.5218 21.8164C89.9029 21.8164 91.2418 22.9273 91.2418 24.9055C91.2418 26.8837 89.9161 27.9946 88.5218 27.9946V27.9892ZM88.2135 22.9915C87.3068 22.9915 86.5109 23.7437 86.5109 24.9001C86.5109 26.0566 87.3068 26.8088 88.2135 26.8088C89.1201 26.8088 89.8818 26.078 89.8818 24.9001C89.8818 23.7223 89.1201 22.9915 88.2135 22.9915Z" fill="#32C36C"/>
<path d="M92.1377 27.8634V19.6669H93.4766V27.8634H92.1377Z" fill="#32C36C"/>
<path d="M97.3669 26.8864C98.0179 26.8864 98.4844 26.6401 98.9482 26.1797L99.7337 26.8864C99.1802 27.5609 98.4185 27.9973 97.3458 27.9973C95.6537 27.9973 94.3491 26.7498 94.3491 24.9082C94.3491 23.2003 95.5325 21.8083 97.2008 21.8083C99.0589 21.8083 99.9972 23.2913 99.9972 25.0099C99.9972 25.133 99.9867 25.2454 99.9761 25.3793H95.6854C95.8409 26.3456 96.5024 26.8837 97.3669 26.8837V26.8864ZM98.6715 24.4825C98.5845 23.6072 98.0759 22.9219 97.1903 22.9219C96.3733 22.9219 95.7961 23.5617 95.6748 24.4825H98.6715Z" fill="#32C36C"/>
<path d="M16.3013 17.7637L16.9285 17.6325C17.482 17.5013 17.6481 17.4077 17.6481 16.2646V7.33194C17.6481 6.18892 17.482 6.09523 16.9285 5.96406L16.3013 5.83289V5.30823H22.35C26.0029 5.30823 27.5131 6.46999 27.5131 8.73729C27.5131 10.3488 26.7198 11.3419 25.004 11.8665V11.9228C25.7604 13.5904 27.015 15.8203 28.0297 17.2042C28.2326 17.4853 28.3618 17.5602 28.7308 17.6727L29.026 17.7664V18.291H24.9329C23.8997 16.8482 22.6452 14.3748 21.9625 12.6161C21.7965 12.6161 21.077 12.6161 20.9847 12.5973V16.27C20.9847 17.413 21.1139 17.5067 21.6858 17.6379L22.3131 17.769V18.2937H16.3013V17.769V17.7637ZM24.1211 8.99695C24.1211 6.84207 23.6414 6.13002 22.2024 6.13002C21.6305 6.13002 21.1877 6.18624 20.9847 6.26119V11.805C21.077 11.8237 21.3906 11.8799 21.8518 11.8799C23.42 11.8799 24.1211 11.1866 24.1211 8.99427V8.99695Z" fill="#32C36C"/>
<path d="M28.8623 13.3816C28.8623 10.1212 31.2423 8.30627 33.6749 8.30627C36.1076 8.30627 37.8049 9.5992 37.8602 12.9881H31.7746C31.83 16.0612 32.9738 16.9017 34.8741 16.9017C36.018 16.9017 36.8851 16.5644 37.5861 16.1896V16.808C36.9404 17.5388 35.5383 18.5132 33.6775 18.5132C30.4674 18.5132 28.8649 16.5644 28.8649 13.3816H28.8623ZM31.7773 12.2761L34.9321 12.1074C34.9321 9.84012 34.6369 9.01564 33.53 9.01564C32.589 9.01564 31.8511 9.91507 31.7773 12.2761Z" fill="#32C36C"/>
<path d="M37.9528 21.6424L38.4325 21.5112C39.0413 21.3426 39.1151 21.2489 39.1151 20.4244V10.7583C39.1151 9.95254 39.0229 9.89632 38.5063 9.5403L37.8975 9.12806V8.7533L41.7902 8.30359L41.9932 8.43476L41.9563 9.59651H42.0485C42.8234 8.92194 43.8566 8.30359 45.148 8.30359C46.9007 8.30359 48.764 9.48409 48.764 12.9105C48.764 16.808 46.5132 18.5105 43.4349 18.5105C43.0474 18.5105 42.4386 18.4355 42.0327 18.3231C42.0327 18.3231 42.0512 18.8103 42.0512 19.4661V20.4218C42.0512 21.2837 42.1065 21.3587 42.6969 21.4898L43.3426 21.6397V22.1457H37.9581V21.6397L37.9528 21.6424ZM45.7357 13.5502C45.7357 10.8707 44.9424 9.9338 43.5403 9.9338C42.8023 9.9338 42.3411 10.1587 42.0459 10.2711V17.0891C42.378 17.4826 42.8761 17.7636 43.5034 17.7636C44.9609 17.7636 45.7357 16.9766 45.7357 13.5476V13.5502Z" fill="#32C36C"/>
<path d="M50.0526 16.0237V10.6673C50.0526 9.88027 50.0157 9.80532 49.4807 9.48677L48.835 9.11201V8.71851L52.7831 8.30627L53.0045 8.47492V15.2929C53.0045 16.3984 53.4288 16.8294 54.259 16.8294C54.9232 16.8294 55.5505 16.6046 55.9933 16.4546V10.6673C55.9933 9.88027 55.9379 9.78658 55.4029 9.48677L54.7756 9.11201V8.71851L58.7053 8.30627L58.9267 8.47492V16.0424C58.9267 16.9606 58.982 17.073 59.5355 17.2979L60.0705 17.5227V17.9724L56.2515 18.5158L56.0486 18.3659L56.0855 17.1105H55.9933C55.0154 17.8413 53.89 18.5158 52.4695 18.5158C51.0489 18.5158 50.0526 17.6726 50.0526 16.0237Z" fill="#32C36C"/>
<path d="M60.8615 17.4451V6.54489C60.8615 5.62673 60.8061 5.53304 60.2896 5.27071L59.6069 4.93342V4.50245L63.6631 4.12769L63.8661 4.27759C63.8661 4.27759 63.8107 5.15828 63.8107 6.46994V7.74413C63.8107 8.77472 63.7554 9.56172 63.7554 9.56172H63.8476C64.5671 8.92463 65.6003 8.30627 66.9102 8.30627C68.6444 8.30627 70.5078 9.48677 70.5078 12.9132C70.5078 16.8107 68.2016 18.5132 65.0494 18.5132C63.2414 18.5132 61.95 18.1571 60.8641 17.4451H60.8615ZM67.4821 13.5476C67.4821 10.868 66.6888 9.93113 65.2867 9.93113C64.5671 9.93113 64.0875 10.156 63.8107 10.2684V17.0864C64.1244 17.4799 64.6409 17.761 65.2682 17.761C66.7257 17.761 67.4821 16.974 67.4821 13.5449V13.5476Z" fill="#32C36C"/>
<path d="M70.6738 17.7824L71.1535 17.6512C71.7992 17.4826 71.873 17.3889 71.873 16.5831V6.54489C71.873 5.62673 71.7992 5.55178 71.2642 5.27071L70.5815 4.93342V4.50245L74.6773 4.12769L74.8802 4.27759C74.8802 4.27759 74.8064 5.21449 74.8064 6.46994V16.5858C74.8064 17.429 74.8802 17.4852 75.5259 17.6539L76.0056 17.785V18.291H70.6764V17.785L70.6738 17.7824Z" fill="#32C36C"/>
<path d="M75.9108 17.7824L76.3905 17.6513C76.9993 17.4826 77.0731 17.3889 77.0731 16.5832V10.7583C77.0731 9.95259 76.9809 9.89638 76.4643 9.54036L75.8555 9.12812V8.75336L79.8959 8.30364L80.0803 8.43481C80.0434 9.01569 80.0065 9.69026 80.0065 10.5897V16.5832C80.0065 17.4264 80.0803 17.5014 80.6892 17.6513L81.1688 17.7824V18.2883H75.9135V17.7824H75.9108ZM76.8333 5.84896C76.8333 4.93079 77.5528 4.2937 78.4568 4.2937C79.3608 4.2937 80.0803 4.93079 80.0803 5.84896C80.0803 6.76712 79.3608 7.38548 78.4568 7.38548C77.5528 7.38548 76.8333 6.74839 76.8333 5.84896Z" fill="#32C36C"/>
<path d="M81.2212 13.4566C81.2212 9.54299 84.2469 8.30627 86.8271 8.30627C88.6536 8.30627 89.7605 8.90589 89.7605 10.0489C89.7605 10.8172 89.244 11.3606 88.4506 11.3606C87.4913 11.3606 87.1961 10.686 87.1223 9.89901C87.0301 9.18696 86.9194 9.07453 86.3105 9.07453C85.2774 9.07453 84.1704 9.69289 84.1704 12.6535C84.1704 15.408 84.9822 16.9044 87.0485 16.9044C88.1924 16.9044 89.041 16.5671 89.7236 16.2111V16.8107C89.1886 17.4852 87.8418 18.5158 85.8493 18.5158C82.8605 18.5158 81.2212 16.5296 81.2212 13.4592V13.4566Z" fill="#32C36C"/>
<path d="M89.9636 16.0424C89.9636 14.3935 91.1997 13.6627 93.2844 13.1567L95.1478 12.6883V11.0581C95.1478 9.50282 94.8526 9.03437 93.8379 9.03437C93.2844 9.03437 93.0999 9.18428 93.063 9.70894C92.9708 10.8894 92.5834 11.3579 91.624 11.3579C90.8122 11.3579 90.3695 10.9269 90.3695 10.1961C90.3695 8.9969 91.8823 8.30359 94.4441 8.30359C96.7502 8.30359 98.097 9.03437 98.097 10.8707V16.0585C98.097 16.7518 98.1708 17.0328 98.5214 17.2202C98.7612 17.3514 99.1302 17.3889 99.3885 17.4076V17.8573C99.038 18.1384 98.3 18.5132 97.2299 18.5132C96.1599 18.5132 95.5142 18.1009 95.3112 17.3701H95.219C94.7577 17.9697 93.9275 18.5132 92.7283 18.5132C90.9941 18.5132 89.9609 17.6137 89.9609 16.0397L89.9636 16.0424ZM95.1452 16.642V13.6439L94.2965 13.7189C93.3556 13.7938 92.8575 14.2248 92.8575 15.574C92.8575 16.7919 93.3925 17.1854 94.112 17.1854C94.6286 17.1854 94.9791 16.9606 95.1452 16.642Z" fill="#32C36C"/>
<path d="M53.2523 7.48184C53.2523 7.48184 55.8246 7.20077 56.8341 5.75526C57.8435 4.30975 58.1334 0.695985 59.8281 0C59.8281 0 52.7594 0.963671 52.994 6.92505C52.994 6.92505 54.6755 4.19197 56.6285 2.77859C56.6285 2.77859 53.8058 6.04168 53.2523 7.48184Z" fill="#32C36C"/>
</g>
<defs>
<clipPath id="clip0_3925_1223">
<rect width="100" height="28" fill="white"/>
</clipPath>
</defs>
</svg>
