<?xml version="1.0" encoding="utf-8"?>
<!-- Generator: Adobe Illustrator 25.1.0, SVG Export Plug-In . SVG Version: 6.00 Build 0)  -->
<svg version="1.1" id="Capa_1" xmlns="http://www.w3.org/2000/svg" xmlns:xlink="http://www.w3.org/1999/xlink" x="0px" y="0px"
	 width="45.5px" height="12.4px" viewBox="0 0 45.5 12.4" style="enable-background:new 0 0 45.5 12.4;" xml:space="preserve">
<style type="text/css">
	.st0{fill:#6E6F70;}
	.st1{fill:#DD1F2E;}
	.st2{fill:url(#SVGID_1_);}
	.st3{clip-path:url(#SVGID_3_);}
	.st4{fill:url(#SVGID_4_);}
	.st5{fill:url(#SVGID_5_);}
	.st6{fill:url(#SVGID_6_);}
	.st7{fill:url(#SVGID_7_);}
	.st8{fill:url(#SVGID_8_);}
	.st9{fill:url(#SVGID_9_);}
	.st10{fill:url(#SVGID_10_);}
	.st11{fill:url(#SVGID_11_);}
	.st12{fill:url(#SVGID_12_);}
	.st13{fill:url(#SVGID_13_);}
	.st14{fill:url(#SVGID_14_);}
	.st15{fill:url(#SVGID_15_);}
	.st16{fill:url(#SVGID_16_);}
	.st17{opacity:0.1;clip-path:url(#SVGID_3_);}
	.st18{fill:none;stroke:#FFFFFF;stroke-width:0.1321;stroke-miterlimit:10;}
	.st19{fill:#FFFFFF;}
	.st20{fill:#FFFFFF;stroke:#878787;stroke-width:0.5;stroke-miterlimit:10;}
	.st21{fill:url(#SVGID_17_);}
	.st22{clip-path:url(#SVGID_19_);}
	.st23{fill:url(#SVGID_20_);}
	.st24{fill:url(#SVGID_21_);}
	.st25{fill:url(#SVGID_22_);}
	.st26{fill:url(#SVGID_23_);}
	.st27{fill:url(#SVGID_24_);}
	.st28{fill:url(#SVGID_25_);}
	.st29{fill:url(#SVGID_26_);}
	.st30{fill:url(#SVGID_27_);}
	.st31{fill:url(#SVGID_28_);}
	.st32{fill:url(#SVGID_29_);}
	.st33{fill:url(#SVGID_30_);}
	.st34{fill:url(#SVGID_31_);}
	.st35{fill:url(#SVGID_32_);}
	.st36{opacity:0.1;clip-path:url(#SVGID_19_);}
	.st37{fill:#1D1D1B;}
	.st38{fill-rule:evenodd;clip-rule:evenodd;fill:#1D1D1B;}
	.st39{fill:#55B697;}
	.st40{fill-rule:evenodd;clip-rule:evenodd;fill:#D82238;}
	.st41{fill:#005FDE;}
	.st42{fill:#515151;}
	.st43{fill:#00AAFF;}
	.st44{fill:#FF3785;}
	.st45{fill:#33FE88;}
	.st46{fill:#FEEA48;}
	.st47{fill:#3D81E4;}
	.st48{fill:#0062DB;}
	.st49{fill:url(#XMLID_3_);}
	.st50{fill:#00CEDC;}
	.st51{opacity:0.4;clip-path:url(#SVGID_34_);fill:url(#SVGID_35_);}
	.st52{fill:#AD00FF;}
	.st53{fill:#FFAC00;}
	.st54{fill:#D8D9DD;}
	.st55{fill:#EB661C;}
	.st56{fill:#DD0B14;}
	.st57{fill:#00CD91;}
	.st58{fill:#008053;}
	.st59{fill:#FF17E5;}
	.st60{fill:#3666FF;}
	.st61{fill:url(#SVGID_36_);}
	.st62{fill:#FF0000;}
	.st63{fill:none;stroke:#FFFFFF;stroke-width:0.5745;stroke-miterlimit:10;}
	.st64{fill:#EA5472;}
	.st65{fill:#127787;}
	.st66{fill:#068739;}
</style>
<g>
	<g>
		<g>
			<path class="st64" d="M21.9,4.6v4.7c0,0.2-0.1,0.3-0.3,0.3l-1.7,0.1c-0.2,0-0.4-0.1-0.4-0.3V9c-0.6,0.7-1.6,1.2-2.5,1.2
				c-1.8,0.1-3.3-0.9-3.3-2.5c0-1.7,1.6-2.9,3.6-3c0.7,0,1.5,0,2.2,0.3V4.8c0-0.9-0.6-1.6-2-1.5c-0.7,0-1.3,0.3-1.9,0.6
				c-0.2,0.1-0.4,0-0.5-0.1l-0.5-0.9c-0.1-0.2,0-0.4,0.1-0.5c1.1-0.6,2.2-0.9,3.3-1C20.3,1.1,21.9,2.4,21.9,4.6z M19.5,7.2V6.4
				c-0.6-0.2-1.2-0.2-1.9-0.2c-0.9,0.1-1.6,0.6-1.6,1.3c0,0.7,0.6,1.1,1.5,1C18.5,8.4,19.4,8,19.5,7.2z"/>
			<path class="st64" d="M32.2,4.7c0,2.6-1.7,4.5-4,4.7C27,9.5,26,9.1,25.4,8.2v3.7c0,0.2-0.1,0.3-0.3,0.3l-1.8,0.1
				c-0.2,0-0.4-0.1-0.4-0.3V1.5c0-0.2,0.1-0.3,0.3-0.3L25,1c0.2,0,0.4,0.1,0.4,0.3v0.8C26,1.3,27,0.7,28.2,0.6
				C30.5,0.4,32.2,2.2,32.2,4.7z M29.8,4.9c0-1.4-1-2.3-2.3-2.2c-1.2,0.1-2.1,1-2.2,2.2v0.7c0.1,1.2,1,2,2.2,1.9
				C28.9,7.4,29.8,6.3,29.8,4.9z"/>
			<path class="st64" d="M40.6,3.3V8c0,0.2-0.1,0.3-0.3,0.3l-1.7,0.1c-0.2,0-0.4-0.1-0.4-0.3V7.7c-0.6,0.7-1.6,1.2-2.5,1.2
				C33.8,9,32.4,8,32.4,6.4c0-1.7,1.6-2.9,3.6-3c0.7,0,1.5,0,2.2,0.3V3.5c0-0.9-0.6-1.6-2-1.5c-0.7,0-1.3,0.3-1.9,0.6
				c-0.2,0.1-0.4,0-0.5-0.1l-0.5-0.9c-0.1-0.2,0-0.4,0.1-0.5c1.1-0.6,2.2-0.9,3.3-1C39-0.1,40.6,1.1,40.6,3.3z M38.2,5.9V5.1
				c-0.6-0.2-1.2-0.2-1.9-0.2c-0.9,0.1-1.6,0.6-1.6,1.3c0,0.7,0.6,1.1,1.5,1C37.2,7.1,38.1,6.7,38.2,5.9z"/>
		</g>
		<path class="st64" d="M11.9,2.2l-1.6,5.1L8.7,2.4c0-0.1-0.2-0.2-0.3-0.2L6.8,2.3c-0.1,0-0.3,0.1-0.3,0.2L4.9,7.7L3.4,2.8
			c0-0.1-0.2-0.2-0.3-0.2L0.9,2.7l0,0l-0.6,0C0.1,2.8,0,2.9,0,3.1v0c0,1.2,0.8,2.2,1.9,2.4l0,0l-0.7,0C1.1,5.6,0.9,5.8,0.9,6v0
			c0,1.2,0.9,2.2,2,2.4L3,8.6l0.7,2.1c0.1,0.1,0.2,0.2,0.3,0.2l1.7-0.1c0.1,0,0.3-0.1,0.3-0.2l1.6-5.2l1.5,4.9
			c0,0.2,0.2,0.2,0.4,0.2l1.7-0.1c0.1,0,0.3-0.1,0.3-0.2l2.7-7.9c0.1-0.2-0.1-0.5-0.3-0.4l-1.6,0.1C12.1,1.9,11.9,2,11.9,2.2z"/>
	</g>
	<g>
		<path class="st64" d="M43.1,5.9l-0.3,0v0.4l0.3,0c0.1,0,0.2-0.1,0.2-0.2C43.3,6,43.2,5.9,43.1,5.9z"/>
		<path class="st64" d="M43.6,4.4c-1.1,0.1-1.9,1-1.9,2c0,1,0.9,1.8,1.9,1.8c1.1-0.1,1.9-1,1.9-2S44.6,4.3,43.6,4.4z M43.1,6.6
			l-0.3,0v0.5l-0.4,0V5.6l0.7-0.1c0.3,0,0.6,0.2,0.6,0.5C43.7,6.4,43.4,6.6,43.1,6.6z M44.9,6v0.3l-0.8,0.1v0.3L45,6.6V7l-1.2,0.1
			V5.5L45,5.4v0.3l-0.8,0.1v0.2L44.9,6z"/>
	</g>
</g>
</svg>
