<?xml version="1.0" encoding="utf-8"?>
<!-- Generator: Adobe Illustrator 25.1.0, SVG Export Plug-In . SVG Version: 6.00 Build 0)  -->
<svg version="1.1" id="Capa_1" xmlns="http://www.w3.org/2000/svg" xmlns:xlink="http://www.w3.org/1999/xlink" x="0px" y="0px"
	 viewBox="0 0 75.3 14.7" style="enable-background:new 0 0 75.3 14.7;" xml:space="preserve">
<style type="text/css">
	.st0{fill:#FFEA54;}
	.st1{fill:#1D1D1B;}
	.st2{fill:#FFFFFF;}
</style>
<g>
	<g>
		<g>
			<path class="st0" d="M4.5,5.5c0.7,0,0.9,0.4,1,1.3h-2C3.4,5.9,3.7,5.5,4.5,5.5z M8.4,8.3V7.4c0-2.7-1.3-4.1-4-4.1
				S0.1,4.8,0.1,7.1v1c0,2.5,1.7,3.8,4.7,3.8c1.2,0,2.4-0.2,3.5-0.9l-1-1.8C6.7,9.5,5.8,9.7,5,9.7c-1,0-1.5-0.3-1.6-1.3L8.4,8.3z"/>
		</g>
	</g>
	<g>
		<g>
			<path class="st1" d="M5.1,11.9c-0.1,0-0.2,0-0.3,0C1.6,11.9,0,10.6,0,8.1v-1c0-2.4,1.7-3.8,4.4-3.8c2.7,0,4.1,1.4,4.1,4.2v1l-5,0
				c0.1,0.7,0.5,1,1.5,1c0.8,0,1.6-0.2,2.4-0.5l0.1,0L8.6,11l-0.1,0.1C7.4,11.7,6.3,11.9,5.1,11.9z M4.4,3.5c-2.5,0-4.1,1.4-4.1,3.6
				v1c0,2.4,1.6,3.6,4.6,3.6c1.2,0.1,2.3-0.2,3.3-0.8L7.4,9.3C6.6,9.6,5.8,9.8,5,9.8c-1.1,0-1.6-0.4-1.7-1.4l0-0.1l5,0V7.4
				C8.3,4.8,7,3.5,4.4,3.5z M5.6,6.9H3.3l0-0.1c0-0.6,0.1-0.9,0.3-1.2c0.2-0.2,0.5-0.3,0.8-0.3c0.9,0,1.1,0.7,1.1,1.4L5.6,6.9z
				 M3.6,6.6h1.7C5.3,5.9,5,5.6,4.5,5.6C4.2,5.6,4,5.7,3.8,5.8C3.7,6,3.6,6.2,3.6,6.6z"/>
		</g>
	</g>
</g>
<g>
	<g>
		<polygon class="st0" points="8.2,11.6 13.4,11.6 13.4,9.7 12.4,9.7 12.4,0.1 8.1,0.1 8.1,2.1 9.2,2.1 9.2,9.7 8.2,9.7 		"/>
	</g>
	<g>
		<path class="st1" d="M13.5,11.7H8.1V9.6H9V2.2H8V0h4.5v9.6h1V11.7z M8.3,11.5h4.9V9.8h-1V0.3h-4V2h1v7.9H8.3V11.5z"/>
	</g>
</g>
<g>
	<g>
		<g>
			<path class="st2" d="M20.9,2.4h0.9c0.8,0,1.4,0.4,1.4,1.2v0.5c0,0.7-0.5,1.3-1.2,1.3c-0.1,0-0.1,0-0.2,0h-0.9V2.4z M16.1,11.6H22
				V9.7h-1.1V7.6h1.3c2.8,0,4.7-1,4.7-3.4V3.7c0-2.4-1.7-3.6-4.7-3.6h-6.1v2h1.1v7.6h-1.1V11.6z"/>
		</g>
	</g>
	<g>
		<g>
			<path class="st1" d="M22.1,11.7H16V9.6h1.1V2.3H16V0h6.2c1.8,0,3.1,0.4,3.9,1.2C26.7,1.9,27,2.7,27,3.7v0.5
				c0,2.3-1.7,3.5-4.9,3.5H21v1.9h1.1V11.7z M16.3,11.5h5.6V9.8h-1.1V7.5h1.4c2.1,0,4.6-0.6,4.6-3.2V3.7c0-0.9-0.3-1.7-0.8-2.3
				c-0.8-0.8-2-1.2-3.8-1.2h-5.9V2h1.1v7.8h-1.1V11.5z M22,5.6c0,0-0.1,0-0.1,0l-1.1,0V2.3h1.1c0.9,0,1.5,0.5,1.5,1.3v0.5
				C23.4,4.9,22.8,5.5,22,5.6C22,5.6,22,5.6,22,5.6z M21,5.3h0.8c0.1,0,0.1,0,0.2,0c0.6,0,1.1-0.6,1.1-1.2V3.7
				c0-0.7-0.5-1.1-1.2-1.1H21V5.3z"/>
		</g>
	</g>
</g>
<g>
	<g>
		<g>
			<path class="st2" d="M30.8,9.6c-0.8,0-1.1-0.6-1.1-1.6V7.1c0-1,0.3-1.6,1.1-1.6s1.1,0.6,1.1,1.6v0.9C31.8,9,31.6,9.6,30.8,9.6z
				 M30.8,11.8c2.6,0,4.4-1.4,4.4-3.7v-1c0-2.2-1.8-3.7-4.4-3.7s-4.4,1.5-4.4,3.7v1C26.4,10.4,28.3,11.8,30.8,11.8z"/>
		</g>
	</g>
	<g>
		<g>
			<path class="st1" d="M30.8,11.9c-1.4,0-2.7-0.5-3.5-1.3c-0.7-0.7-1-1.5-1-2.5v-1c0-2.3,1.8-3.8,4.5-3.8s4.5,1.5,4.5,3.8v1
				C35.3,10.4,33.5,11.9,30.8,11.9z M30.8,3.5c-2.5,0-4.2,1.4-4.2,3.6v1c0,0.9,0.3,1.7,0.9,2.3c0.8,0.8,1.9,1.2,3.3,1.2
				c2.6,0,4.3-1.4,4.3-3.5v-1C35,5,33.3,3.5,30.8,3.5z M30.8,9.8c-0.5,0-1.2-0.3-1.2-1.7V7.1c0-1.1,0.4-1.7,1.2-1.7S32,6,32,7.1v0.9
				C32,8.5,32,9.8,30.8,9.8z M30.8,5.7c-0.6,0-0.9,0.5-0.9,1.5v0.9c0,1,0.3,1.4,0.9,1.4c0.7,0,0.9-0.4,0.9-1.4V7.1
				C31.7,6.1,31.4,5.7,30.8,5.7z"/>
		</g>
	</g>
</g>
<g>
	<g>
		<g>
			<path class="st2" d="M40.2,5.7c0.7,0,1.1,0.5,1.1,1.5V8c0,1.1-0.4,1.5-1.1,1.5s-1.1-0.4-1.1-1.5V7C39.1,6.1,39.6,5.7,40.2,5.7z
				 M35,14.6H40v-1.8h-0.8v-2.2c0.5,0.8,1.5,1.2,2.4,1.2c1.4,0,3.1-0.9,3.1-3.8V7.1c0-2.6-1.5-3.7-3-3.7c-1.1,0-2.2,0.6-2.7,1.6
				c-0.1-0.7-0.3-1.4-0.5-1.4h-3.5v2h0.9v7.2H35V14.6z"/>
		</g>
	</g>
	<g>
		<g>
			<path class="st1" d="M40.1,14.7h-5.2v-2h0.8v-7h-0.9V3.5h3.7c0.2,0,0.4,0.6,0.5,1.2c0.6-0.9,1.6-1.4,2.7-1.4
				c1.6,0,3.1,1.2,3.1,3.9v0.8c0,2.9-1.8,3.9-3.3,3.9c-0.9,0.1-1.7-0.3-2.3-1v1.7h0.8V14.7z M35.2,14.5h4.7v-1.6H39v-2.7l0.2,0.3
				c0.5,0.8,1.4,1.2,2.3,1.1c1.5,0,3-1,3-3.7V7.1c0-2.5-1.4-3.6-2.9-3.6c-1.1,0-2.1,0.6-2.6,1.5l-0.2,0.3L38.8,5
				c-0.1-0.7-0.3-1.2-0.4-1.3h-3.4v1.8H36V13h-0.8V14.5z M40.2,9.7c-0.8,0-1.2-0.5-1.2-1.6V7c0-0.9,0.5-1.4,1.2-1.4
				c0.5,0,1.2,0.2,1.2,1.6V8C41.4,9.4,40.8,9.7,40.2,9.7z M40.2,5.8c-0.6,0-0.9,0.4-0.9,1.1v1.1c0,1.2,0.5,1.3,0.9,1.3
				c0.6,0,1-0.5,1-1.4V7.2C41.2,6.6,41,5.8,40.2,5.8z"/>
		</g>
	</g>
</g>
<g>
	<g>
		<g>
			<path class="st2" d="M74.1,3.4c-1.1,0-2.1,0.8-2.3,1.9c-0.1-0.7-0.4-1.8-0.5-1.8h-3.4v2h0.9v4.2h-1.3V7c0-2.4-1.4-3.7-4.3-3.7
				c-1.3,0-2.6,0.2-3.8,0.8l0.8,2.1C61,6,61.9,5.8,62.7,5.8c1,0,1.5,0.4,1.5,1.4c-0.5-0.3-1.1-0.4-1.7-0.4c-2.1,0-3.4,0.8-3.4,2.3
				v0.3c0,0.1,0,0.2,0,0.3h-0.8V0.1h-4.2v2h1v7.6h-1.6V3.5h-4v2h0.8v2.7c0,0.6-0.3,1.1-1,1.1S48.5,8.8,48.5,8V3.5h-4v2h0.7v3
				c0,2.3,1.2,3.3,2.8,3.3c1.1,0,2.1-0.6,2.5-1.6c0.1,0.6,0.3,1.4,0.5,1.4h8.4v-1.1c0.5,0.9,1.5,1.4,2.6,1.3c1,0.1,2-0.5,2.5-1.4
				c0.1,0.6,0.3,1.3,0.4,1.3h8V9.7H72V7.6c0-0.8,0.6-1.4,1.4-1.5c0.1,0,0.1,0,0.2,0c0.3,0,0.7,0,1,0.1l0.6-2.7
				C74.8,3.4,74.5,3.4,74.1,3.4z M63.2,9.6c-0.6,0-0.8-0.2-0.8-0.6V8.9c0-0.3,0.2-0.6,0.8-0.6c0.4,0,0.7,0.1,1,0.3
				C64.2,9.2,63.8,9.6,63.2,9.6z"/>
		</g>
	</g>
	<g>
		<g>
			<path class="st1" d="M48,12C48,12,48,12,48,12c-1.9,0-3-1.2-3-3.4V5.7h-0.7V3.4h4.2V8c0,1.2,0.6,1.2,0.8,1.2
				c0.5,0,0.8-0.3,0.8-0.9V5.7h-0.8V3.4h4.2v6.2H55V2.3h-1V0h4.5v9.6H59V9.1c0-1.6,1.3-2.5,3.6-2.5c0.5,0,1,0.1,1.5,0.3
				c-0.1-0.7-0.5-1-1.4-1c-0.8,0-1.7,0.2-2.4,0.5l-0.1,0.1l-0.9-2.4l0.1,0c1.2-0.6,2.5-0.8,3.9-0.8c2.9,0,4.4,1.3,4.4,3.8v2.6h1.1
				v-4h-0.9V3.4h3.6c0.1,0,0.3,0.1,0.6,1.4c0.4-0.9,1.2-1.5,2.2-1.5c0,0,0.1,0,0.1,0c0.3,0,0.7,0.1,1,0.2l0.1,0l0,0.1l-0.6,2.8
				l-0.1,0c-0.3-0.1-0.6-0.1-1-0.1c-0.1,0-0.1,0-0.2,0c-0.4,0-0.7,0.1-0.9,0.4c-0.2,0.2-0.4,0.6-0.4,0.9v2H73v2.1h-8.1
				c-0.1,0-0.3,0-0.5-1c-0.5,0.8-1.4,1.3-2.4,1.2c-0.9,0.1-1.9-0.3-2.4-1v0.9H51c-0.1,0-0.3-0.1-0.5-1.2C49.9,11.4,49,12,48,12z
				 M44.6,5.4h0.7v3.1c0,2,1,3.2,2.7,3.2c0,0,0,0,0.1,0c1,0,1.9-0.6,2.3-1.5l0.2-0.4l0.1,0.4c0.2,1,0.4,1.3,0.4,1.3h8.3V10l0.2,0.4
				c0.5,0.8,1.5,1.3,2.5,1.2c1,0.1,1.9-0.5,2.4-1.4l0.2-0.4l0.1,0.4c0.1,0.7,0.3,1.1,0.3,1.2h7.9V9.8h-0.9V7.6
				c0-0.4,0.2-0.8,0.5-1.1C72.6,6.2,73,6,73.4,6c0.1,0,0.1,0,0.2,0c0,0,0,0,0,0c0.3,0,0.6,0,0.9,0.1L75,3.7
				c-0.3-0.1-0.6-0.2-0.9-0.2h0c0,0,0,0,0,0c-1.1,0-2,0.8-2.1,1.8l-0.1,0.7l-0.1-0.7c-0.3-1.3-0.4-1.6-0.4-1.7H68v1.8h0.9v4.5h-1.6
				V7c0-2.3-1.4-3.5-4.1-3.5c-1.2,0-2.5,0.2-3.6,0.7l0.8,1.9c0.8-0.3,1.6-0.5,2.4-0.5c1.1,0,1.6,0.5,1.6,1.5l0,0.2l-0.2-0.1
				c-0.5-0.2-1.1-0.4-1.6-0.3c-1.2,0-3.3,0.3-3.3,2.2v0.7h-1V0.3h-4V2h1v7.8h-1.9V3.7h-3.8v1.8h0.8v2.8c0,0.7-0.4,1.2-1.1,1.2
				c-0.5,0-1-0.2-1-1.4V3.7h-3.8V5.4z M63.2,9.7L63.2,9.7c-0.7,0-1-0.4-1-0.7V8.9c0-0.3,0.3-0.7,0.9-0.7c0,0,0,0,0.1,0
				c0.4,0,0.7,0.1,1,0.3l0.1,0l0,0.1C64.3,9.2,63.8,9.7,63.2,9.7L63.2,9.7z M63.2,8.5C63.2,8.5,63.2,8.5,63.2,8.5
				c-0.5,0-0.7,0.2-0.7,0.4V9c0,0.3,0.3,0.4,0.7,0.4c0.4,0,0.8-0.4,0.8-0.8C63.8,8.5,63.5,8.5,63.2,8.5z"/>
		</g>
	</g>
</g>
</svg>
