<svg xmlns="http://www.w3.org/2000/svg" width="130" height="21" viewBox="35 2.8 130.2 21"><path d="M158.6 17.8c-0.6 0-1.2-0.3-1.2-1.8 0-1.5 0.4-2 1.3-2l0.6 0v3.4C159.2 17.6 159 17.8 158.6 17.8M156.6 19.6c1.5 0 2.3-0.7 2.9-1.4h0.1c0.3 0.9 1.2 1.4 2.5 1.4 1.5 0 2.4-0.5 2.9-0.9v-0.6c-0.2 0-0.7-0.1-1-0.2 -0.4-0.2-0.5-0.5-0.5-1.4V10.8c0-2.3-1.8-3.1-4.6-3.1 -3.7 0-5.2 1-5.2 2.4 0 1 0.6 1.5 1.6 1.5 1.2 0 1.9-0.5 2-2.2 0-0.6 0.2-0.7 0.7-0.7 0.9 0 1.3 0.4 1.3 2.3v1.7l-1.7 0.4c-3 0.7-4.3 1.6-4.3 3.6C153.3 18.5 154.5 19.6 156.6 19.6M148.5 19.6c2.5 0 4.1-1.3 4.7-2.2v-0.8c-0.9 0.4-1.7 0.8-2.9 0.8 -2.5 0-3.3-1.7-3.3-4.8 0-3.4 1.2-3.9 2.1-3.9 0.7 0 0.8 0.1 0.9 0.9 0.1 1 0.5 2 1.8 2 1 0 1.7-0.7 1.7-1.7 0-1.4-1.5-2.1-3.7-2.1 -3.2 0-6.8 1.5-6.8 5.9C142.9 17.3 144.9 19.6 148.5 19.6M139.5 7c1.2 0 2.2-0.8 2.2-2 0-1.2-1-2-2.2-2 -1.2 0-2.2 0.8-2.2 2C137.3 6.2 139.2 7 139.5 7M136.2 19.3h6.8v-0.7l-0.4-0.1c-0.8-0.2-0.9-0.3-0.9-1.3v-6.6c0-1 0-1.7 0.1-2.7l-0.3-0.2 -5.4 0.5v0.5l0.7 0.5c0.6 0.5 0.7 0.6 0.7 1.5v6.4c0 1 0 1.1-0.9 1.3l-0.4 0.1L136.2 19.3 136.2 19.3zM129.5 19.3h6.9v-0.7l-0.4-0.1c-0.9-0.2-1-0.3-1-1.3V5.7c0-1.4 0.1-2.5 0.1-2.5l-0.3-0.2 -5.4 0.5v0.6l0.7 0.4c0.7 0.4 0.8 0.5 0.8 1.6v11.1c0 1 0 1.1-1 1.3l-0.4 0.1V19.3zM123.3 18.6c-0.6 0-1.2-0.3-1.5-0.7v-7.7c0.3-0.1 0.7-0.3 1.4-0.3 1.4 0 2.2 0.9 2.2 4C125.3 18 124.6 18.6 123.3 18.6M123 19.6c3.8 0 6.6-1.9 6.6-6.5 0-3.8-2.2-5.3-4.2-5.3 -1.6 0-2.7 0.8-3.6 1.5h-0.1c0 0 0.1-0.9 0.1-2.2V5.7c0-1.4 0.1-2.5 0.1-2.5l-0.3-0.2L116.2 3.5v0.6l0.7 0.4c0.7 0.3 0.7 0.5 0.7 1.6v12.1C118.9 19.1 120.6 19.6 123 19.6M108.2 6.9l3.9-0.8c0.8-0.1 1.1-0.8 1.1-1.3 0-0.8-0.5-1.5-1.3-1.5 -0.5 0-0.9 0.2-1.3 0.6l-2.5 2.5L108.2 6.9zM107.2 19.6c1.8 0 3-0.8 4.2-1.7h0.1l0 1.5 0.3 0.2 5-0.7v-0.6l-0.5-0.2c-0.7-0.3-0.7-0.4-0.7-1.5V7.9l-0.3-0.2 -5.3 0.5v0.5l0.7 0.5c0.7 0.4 0.7 0.6 0.7 1.5v6.3c-0.4 0.1-0.9 0.3-1.5 0.3 -0.8 0-1.3-0.4-1.3-1.7V7.9l-0.3-0.2 -5.3 0.5v0.5l0.7 0.5c0.7 0.5 0.7 0.6 0.7 1.5v5.9C104.4 18.6 105.5 19.6 107.2 19.6M96.8 18.6c-0.6 0-1.2-0.3-1.5-0.7v-7.7c0.3-0.1 0.7-0.3 1.4-0.3 1.4 0 2.2 0.9 2.2 4C98.9 18 98.1 18.6 96.8 18.6M89.9 23.8h6.9v-0.7l-0.6-0.1c-0.8-0.2-0.8-0.3-0.8-1.3v-1.1c0-0.8 0-1.3 0-1.3 0.4 0.1 1.1 0.2 1.5 0.2 3.6 0 6.3-1.9 6.3-6.5 0-3.8-2.2-5.3-4.2-5.3 -1.6 0-2.7 0.8-3.6 1.6h-0.1l0-1.4 -0.3-0.2 -5.2 0.5v0.5l0.7 0.5c0.6 0.5 0.7 0.6 0.7 1.5v10.9c0 1 0 1.1-0.9 1.3l-0.4 0.1L89.9 23.8 89.9 23.8zM84.6 8.7c1.1 0 1.4 0.8 1.4 3.4l-3 0.2C83 9.5 83.7 8.7 84.6 8.7M84.8 19.6c2.3 0 4-1.1 4.8-2.2v-0.8c-0.8 0.4-1.9 0.8-3.1 0.8 -2.2 0-3.5-0.8-3.6-4.3h7c-0.1-3.9-2.1-5.4-5.2-5.4 -2.9 0-5.8 2-5.8 5.9C78.9 17.4 80.9 19.6 84.8 19.6M70.6 12.1c-0.5 0-0.7 0-0.9-0.1V5.6c0.1-0.1 0.6-0.2 1.1-0.2 1.5 0 1.9 0.9 1.9 3.3C72.8 11.4 72.1 12.1 70.6 12.1M63.4 19.3h7.8v-0.7l-0.6-0.1c-0.7-0.2-0.9-0.3-0.9-1.7v-3.7c0.2 0 0.6 0 0.9 0 0.6 1.9 2 4.9 3 6.3h5.6v-0.7l-0.3-0.1c-0.4-0.1-0.6-0.1-0.8-0.5 -1.1-1.6-2.5-4.1-3.2-5.9v-0.1c1.9-0.6 2.6-1.6 2.6-3.6 0-2.7-1.9-4-6.6-4h-7.6v0.7l0.6 0.2c0.7 0.2 0.9 0.3 0.9 1.7v9.7c0 1.5-0.2 1.6-0.9 1.7l-0.6 0.1V19.3zM53.2 17.8c-0.6 0-1.2-0.3-1.2-1.8 0-1.5 0.4-2 1.3-2l0.6 0v3.4C53.8 17.6 53.6 17.8 53.2 17.8M51.2 19.6c1.5 0 2.3-0.7 2.9-1.4h0.1c0.3 0.9 1.2 1.4 2.5 1.4 1.5 0 2.4-0.5 2.9-0.9v-0.6c-0.2 0-0.7-0.1-1-0.2 -0.4-0.2-0.5-0.5-0.5-1.4V10.8c0-2.3-1.8-3.1-4.6-3.1 -3.7 0-5.2 1-5.2 2.4 0 1 0.6 1.5 1.6 1.5 1.2 0 1.9-0.5 2-2.2 0-0.6 0.2-0.7 0.7-0.7 0.9 0 1.3 0.4 1.3 2.3v1.7l-1.7 0.4c-3 0.7-4.3 1.6-4.3 3.6C48 18.5 49.2 19.6 51.2 19.6M35 19.3h12.6l0.4-5.6h-0.8c-0.7 1.6-1.1 2.4-1.6 3.2 -0.7 1.1-1 1.4-2.6 1.4 -1.6 0-1.6-0.3-1.6-1.8v-9.4c0-1.5 0.2-1.6 0.9-1.7l0.7-0.2V4.4h-8v0.7l0.6 0.2c0.7 0.2 0.9 0.3 0.9 1.7v9.7c0 1.5-0.2 1.6-0.9 1.7l-0.6 0.1V19.3z" fill="#FFF"></path></svg>