<svg id="Capa_1" data-name="Capa 1" xmlns="http://www.w3.org/2000/svg" viewBox="0 0 38.84 32.38"><defs><style>.cls-1{fill:red;fill-rule:evenodd;}</style></defs><path class="cls-1" d="M27.1,19.62a2.43,2.43,0,0,1,.25-.2l.49-.33a5.52,5.52,0,0,0-.74-.21Z"/><path class="cls-1" d="M35.77,12.36a1,1,0,0,1-1,.13,1.93,1.93,0,0,0-.53-.11,1.31,1.31,0,0,0-.47.09,6.91,6.91,0,0,1-.73.24.31.31,0,0,1-.41-.35,2.69,2.69,0,0,1,.11-.52c-.17-.23-.32-.22-.5.06a1.41,1.41,0,0,1-.27.36.43.43,0,0,1-.32.08,7.13,7.13,0,0,1-.94-.53.76.76,0,0,0-.48-.15,1,1,0,0,1-.55-.11c-.32-.24-.61-.54-.91-.81a3.58,3.58,0,0,1-.26-.29l-.06,0c.1.2.2.41.31.61L28.5,11a.1.1,0,0,1,0,.05l.35.42-.19.09c.07.14.12.27.18.38s.07.07.1.11l.18.19.17.17c.11.09.23.16.33.25s.3.33.45.49a1.43,1.43,0,0,0,1.49.44c.1.19.08.3-.14.38a6.86,6.86,0,0,1-.78.2l-.29.08v.07l.3.13c-.06.07-.11.15-.19.24l.27,0c0,.11-.07.19-.11.32l.26-.08v.28l.24,0c0,.09,0,.19,0,.34l.23-.24c0,.08.09.15.14.25l.15-.16.19.26a2,2,0,0,1,.11-.25l.2.18,0-.06.23-.07.15-.09s.09-.08.14-.09c.21,0,.27-.13.14-.31a5.52,5.52,0,0,0-.43-.53c-.23-.26-.23-.34,0-.58l.21-.17c.05.25.19.33.4.24s.15-.12.23-.16a9.74,9.74,0,0,1,.92-.45c.28-.1.58-.15.86-.22l.06,0,.8-.65a1.39,1.39,0,0,0,.15-.19l0-.06C35.92,12.24,35.85,12.31,35.77,12.36Z"/><path class="cls-1" d="M25.46,4.87l-.29,0a1.35,1.35,0,0,1,.39-1,.44.44,0,0,0-.55.1.81.81,0,0,1-.56.23c-.19,0-.19-.32-.18-.51A.29.29,0,0,0,24,3.31a3.32,3.32,0,0,0-.61-.13C22.88,3.1,22.32,3,21.77,3c-.08,0-.16,0-.24.08a.78.78,0,0,0,.13.24c.33.23.66.44,1,.68a.84.84,0,0,1,.25.28,1.4,1.4,0,0,0,.68.81.36.36,0,0,1,0,.11s0,.07,0,.11h2.42A.62.62,0,0,0,25.46,4.87Z"/><path class="cls-1" d="M28.85,4.46a.25.25,0,0,1,.16,0l.39.42a1.46,1.46,0,0,1-.56.76c-.08.07-.19.13-.24.23a.25.25,0,0,0,0,.25A.36.36,0,0,0,29.22,6a1.39,1.39,0,0,1,.88-.89.31.31,0,0,1,.42.2,3.39,3.39,0,0,1,.15.45l.15.41.08,0A.34.34,0,0,0,31,6c.07-.5.15-1,.2-1.52A.62.62,0,0,0,31,4.12c-.05-.06-.2-.06-.36-.1.13-.22.26-.43.38-.65-.3-.12-.32-.11-.52.13a.75.75,0,0,1-.25.22.3.3,0,0,1-.24,0c-.05,0-.08-.14-.07-.21s-.08-.23-.21-.16c-.62.3-1.23.62-1.84.93v.07a1.59,1.59,0,0,0,.33.09C28.45,4.48,28.65,4.46,28.85,4.46Z"/><path class="cls-1" d="M32.39,8.72c.09.08.18.06.27,0a2,2,0,0,1,.43-.33.37.37,0,0,1,.32,0,4.26,4.26,0,0,1,.62.58.73.73,0,0,1,.12.34,2.45,2.45,0,0,0,.08.39,1.8,1.8,0,0,0,.17.34l.06,0a1.34,1.34,0,0,0,.07-.18c.06-.48.14-.95.17-1.43,0-.12-.14-.25-.23-.37s-.11-.06-.22-.12c.17-.2.32-.39.49-.58-.11-.11-.22-.07-.37,0a1.3,1.3,0,0,1-.4,0c0-.12,0-.25,0-.37s0-.25-.1-.29c-.47-.25-.94-.47-1.42-.7a.26.26,0,0,0-.15,0c0,.06,0,.13,0,.17a5.61,5.61,0,0,0,.41.55.77.77,0,0,1,.22.48,3.08,3.08,0,0,0,.21.63.88.88,0,0,1-.47.35c-.15,0-.3.07-.44.12s-.12.1-.18.14C32.17,8.5,32.27,8.62,32.39,8.72Z"/><path class="cls-1" d="M37.79,4.4c-.21-.38-.41-.75-.63-1.12s-.22-.28-.52-.18l0,0c-.13,0-.22,0-.24-.14s-.07-.31-.1-.46c-.14.09-.14.09-.19.28s-.26.34-.44.18-.38-.25-.6,0a8.52,8.52,0,0,0-.53.8c0,.06-.07.13-.11.2A4.68,4.68,0,0,0,35,3.7a.42.42,0,0,1,.48,0,.39.39,0,0,0,.19.06c.27,0,.36.13.31.41s-.1.35-.15.53a.35.35,0,0,0,.46,0,.89.89,0,0,1,0-.78c.27.09.56-.11.82.08s.46.3.7.44Z"/><path class="cls-1" d="M38.41,7.43c0-.21-.14-.38-.44-.37l.15-.49a2.08,2.08,0,0,0-.24.15c-.16.13-.23.1-.29-.09s-.05-.15-.1-.16a2.27,2.27,0,0,0-1.07-.06c.29.24.63.39.81.73h0c0,.07.07.17,0,.2a3.19,3.19,0,0,1-.31.33.71.71,0,0,0-.1.14.71.71,0,0,0,.14.1c.16.07.24,0,.31-.14s.12-.33.29-.27.56.13.69.44a.94.94,0,0,0,.23.26l.07,0C38.55,7.93,38.47,7.68,38.41,7.43Z"/><path class="cls-1" d="M37.06.42a.71.71,0,0,1,.75.28c.09.14.12.22,0,.34l-.31.29.24.14c.11-.18.2-.33.3-.51a2.85,2.85,0,0,1,.47.38,2.45,2.45,0,0,1,.26.48h.05c0-.32,0-.63,0-.94a.23.23,0,0,0-.15-.18C38.44.6,38.42.6,38.51.35c0,0,.05-.09.07-.14s0,0,0,0a1.19,1.19,0,0,0-.15.09c-.2.16-.27.15-.35-.09S37.88,0,37.75,0s-.52.21-.78.32C37,.41,37,.42,37.06.42Z"/><path class="cls-1" d="M6.32,9.68c0-.6-.47-.88-1.14-.88H4.37v1.75h.88C5.89,10.55,6.32,10.27,6.32,9.68Z"/><path class="cls-1" d="M9.64,16.41c-1.07,0-1.35.56-1.35,1.37s.28,1.37,1.35,1.37S11,18.58,11,17.78,10.72,16.41,9.64,16.41Z"/><path class="cls-1" d="M15.36,16.39H14.2v1.2h1.17c.56,0,.75-.11.75-.59S15.94,16.39,15.36,16.39Z"/><path class="cls-1" d="M9.15,22h-1v1h1c.49,0,.65-.1.65-.51S9.65,22,9.15,22Z"/><path class="cls-1" d="M3.94,27.08H3.5v2.26H4c1.13,0,1.26-.32,1.26-1.15S5.15,27.08,3.94,27.08Z"/><path class="cls-1" d="M5.09,22.56c0-.45-.17-.59-.7-.59h-1v1.16h1C4.9,23.13,5.09,23,5.09,22.56Z"/><path class="cls-1" d="M23.9,15.55a6.1,6.1,0,0,1,1.48,1.87c.25.52.43,1.07.64,1.61l.07.23a2.68,2.68,0,0,1,.84-.4.49.49,0,0,1,.17,0V5.28H25.93a.24.24,0,0,1,0,.09c.12.56.25,1.11.36,1.67a5.25,5.25,0,0,1,0,.56l-.07.05a2.22,2.22,0,0,1-.36-.32,5.45,5.45,0,0,1-.36-.63.9.9,0,0,0-.69-.53A.88.88,0,0,1,24.52,6c-.38-.29-.62-.27-.9.11a5.51,5.51,0,0,0-.34.58.22.22,0,0,1-.27.13,2.53,2.53,0,0,1-.55-.18c-.17-.09-.18-.22,0-.35a2.14,2.14,0,0,1,.32-.2,1.62,1.62,0,0,0,.76-.81H0v27.1H27.1V19.6a2.24,2.24,0,0,0-.58.77,1.31,1.31,0,0,1-1.24.84,1.09,1.09,0,0,0-1,.6c-.16.28-.32.56-.49.83a.87.87,0,0,1-.17.21c-.15.15-.26.13-.41,0a3.57,3.57,0,0,0-.46-.4c-.15-.11-.29-.2-.15-.41,0,0,0-.13-.07-.15-.29-.1-.3-.13-.09-.39l0,0s0,0,0,0l-.14-.28a.94.94,0,0,1,.3-.12,5.21,5.21,0,0,1,.79,0,.72.72,0,0,0,.78-.46l-.77-.23a.85.85,0,0,1-.54-.46,1.59,1.59,0,0,0-.29-.29c-.11-.11-.23-.2-.33-.31a.24.24,0,0,1,0-.34c.08-.11,0-.18-.08-.23h0l-.3-.2.27-.16c-.1-.24-.49,0-.58-.39a3.19,3.19,0,0,1,.43,0,5.27,5.27,0,0,1,1.95.94l.17.13a2.73,2.73,0,0,0-.42-1.23.58.58,0,0,1-.07-.3c0-.18,0-.36,0-.55l-.07,0,.25-.09-.32-.36,0-.05.37.06c-.11-.17-.21-.33-.3-.49a.1.1,0,0,1,0-.05l.35.05-.39-.55.07-.07A1.32,1.32,0,0,1,23.9,15.55ZM20.12,7H21.9V10.1c0,.57.19.86.55.86s.55-.29.55-.86V7h1.78v3c0,1.62-.78,2.43-2.33,2.43s-2.33-.81-2.33-2.43ZM8.3,7h5.31V8.8H10.37V9.9H12.9v1.78H10.37v1.09h3.24v1.77H8.3Zm7,15.57v1.1H13v.63h2.34v1.08H11.75V20.91h3.57V22H13v.54ZM9.64,20.43c-1.64,0-2.81-.68-2.81-2.68S8,15.08,9.64,15.08s2.82.68,2.82,2.67S11.29,20.43,9.64,20.43ZM2.31,7H5.13c2,0,3.08.72,3.08,2.7,0,1.69-1.27,2.63-3.12,2.63H4.38v2.2H2.31ZM3.93,30.43H2.25V26H3.93c1.81,0,2.59.43,2.59,2.24S5.74,30.43,3.93,30.43Zm-1.76-5V20.91H4.42c1.54,0,1.92.67,1.92,1.58s-.35,1.68-2,1.68H3.39v1.22Zm2.28-5a4.36,4.36,0,0,1-2.63-.72l.72-1a3.3,3.3,0,0,0,1.87.56c1,0,1-.14,1-.42s-.35-.32-1.08-.41c-1.52-.19-2.22-.49-2.22-1.65s.73-1.66,2.3-1.66a4.06,4.06,0,0,1,2.25.53l-.78,1.13a3,3,0,0,0-1.48-.4c-.76,0-.85.11-.85.36s.37.34,1.15.43c1.29.17,2.14.4,2.14,1.6S6.34,20.42,4.45,20.42Zm6.24,10H7.1V26h3.57v1.13H8.36v.55h2.25v1.09H8.36v.63h2.33Zm.33-5H9.68L9,24.05H8.14v1.34H6.92V20.91H9.19c1.61,0,1.88.7,1.88,1.54a1.35,1.35,0,0,1-.87,1.43Zm4.67,5H14.54L12.6,27.82v2.61H11.41V26h1.34l1.75,2.37V26h1.19Zm-.55-11.64H14.2v1.55H12.79V15.16h2.63c1.85,0,2.16.81,2.16,1.79a1.57,1.57,0,0,1-1,1.65l1,1.74H16Zm.91,2.12h1.34l1.75,2.37V20.91h1.2v4.48H19.18l-1.93-2.62v2.62h-1.2Zm4.33,6.17H18.89v3.35H17.64V27.08H16.15V26h4.23Zm4-1.13v1.13H22.08v.55h2.26v1.09H22.08v.63h2.34v1.08H20.83V26ZM22.16,14.63c-2.88,0-3.92-.63-4.74-1.44l-1-1h-.56v2.41H13.81V7h2.71c1.95,0,3.08.72,3.08,2.7a2.14,2.14,0,0,1-1.17,1.9l.42.39c.67.61,1.63.83,3.59.83h0a15.52,15.52,0,0,0,1.75-.14l.32,0v1.75A10.09,10.09,0,0,1,22.16,14.63Z"/><path class="cls-1" d="M16.6,8.81h-.71v1.75h.78c.64,0,1.08-.28,1.08-.87S17.28,8.81,16.6,8.81Z"/></svg>