<svg id="Capa_1" data-name="Capa 1" xmlns="http://www.w3.org/2000/svg" viewBox="0 0 29.43 26.81"><defs><style>.cls-1{fill:#1d1d1b;}</style></defs><path class="cls-1" d="M5.54,26.81a.16.16,0,0,1-.16-.16v-.31l3.24-6H5.83a.16.16,0,0,1-.16-.16V18.33a.16.16,0,0,1,.16-.15h6.24a.16.16,0,0,1,.16.15v.33L9,24.56h3.11a.16.16,0,0,1,.15.16v1.93a.16.16,0,0,1-.15.16Z"/><path class="cls-1" d="M16.17,27a4.22,4.22,0,0,1-4.41-4.48A4.28,4.28,0,0,1,16.21,18a4.25,4.25,0,0,1,4.4,4.48A4.26,4.26,0,0,1,16.17,27Zm0-6.58a1.92,1.92,0,0,0-2,2.1,1.93,1.93,0,0,0,1.93,2.1,2,2,0,0,0,1.94-2.1A1.94,1.94,0,0,0,16.21,20.39Z"/><path class="cls-1" d="M5.76,18a.21.21,0,0,1-.1,0,.16.16,0,0,1,0-.11L4.9,9.74a.15.15,0,0,1,0-.11A.17.17,0,0,1,5,9.57l.67-.05a.17.17,0,0,1,.1,0l4.26,3.37L9.76,9.35a.16.16,0,0,1,.14-.17L12,9a.17.17,0,0,1,.1,0,.24.24,0,0,1,.06.11l.7,8.08a.14.14,0,0,1,0,.11.14.14,0,0,1-.11.06l-.63.05a.2.2,0,0,1-.11,0L7.7,13.84,8,17.62a.15.15,0,0,1,0,.11.13.13,0,0,1-.11.06Z"/><path class="cls-1" d="M12.43,17.39a.15.15,0,0,1-.16-.14l0-.29,3-8.24a.17.17,0,0,1,.13-.1l1-.08a.17.17,0,0,1,.14.07l4.34,7.53,0,.35a.17.17,0,0,1,0,.12.12.12,0,0,1-.1.05l-2.19.19a.17.17,0,0,1-.14-.07l-.51-.88-2.81.25-.34,1a.17.17,0,0,1-.13.1ZM15.74,14l1.2-.1-.73-1.34Z"/><path class="cls-1" d="M4.44,8.36a.16.16,0,0,1-.16-.16V0a.16.16,0,0,1,.16-.16H8.06a2.57,2.57,0,0,1,2.75,2.68,2.14,2.14,0,0,1-.57,1.39,2.09,2.09,0,0,1,.91,1.79A2.54,2.54,0,0,1,8.39,8.36Zm3.8-2.18a.48.48,0,0,0,.48-.49.6.6,0,0,0-.23-.5.62.62,0,0,0-.26-.06H6.74v1Zm-.33-3.1a.47.47,0,0,0,.48-.49.63.63,0,0,0-.15-.44A.49.49,0,0,0,7.91,2H6.74V3.08Z"/><path class="cls-1" d="M14.64,8.51c-1.68,0-3.5-.93-3.5-3V0a.16.16,0,0,1,.16-.16h2.15a.16.16,0,0,1,.16.16V5.49c0,.6.56.82,1.05.82s1-.17,1-.82V0a.16.16,0,0,1,.16-.16H18a.16.16,0,0,1,.15.16v5.5C18.12,7.58,16.32,8.51,14.64,8.51Z"/><path class="cls-1" d="M18.69,8.41a.16.16,0,0,1-.15-.16V0a.16.16,0,0,1,.15-.16h5.13A.16.16,0,0,1,24,0V1.9a.16.16,0,0,1-.16.16H21v.86h2.59a.15.15,0,0,1,.15.15V5a.16.16,0,0,1-.15.16H21v1h2.93a.16.16,0,0,1,.15.16v2a.16.16,0,0,1-.15.16Z"/><path class="cls-1" d="M21.86,24.46a1.66,1.66,0,0,1,1.65-1.77A1.63,1.63,0,0,1,25.4,24.2,1.65,1.65,0,0,1,23.75,26,1.68,1.68,0,0,1,21.86,24.46ZM20.55,9.56l3.93-.29.12,12.48-2.25.11Z"/><path class="cls-1" d="M26.78,22.26l-.54-.38a14,14,0,0,0,2.49-9.08,13.82,13.82,0,0,0-3.68-8.62l.48-.46a14.46,14.46,0,0,1,3.86,9A14.59,14.59,0,0,1,26.78,22.26Z"/><path class="cls-1" d="M4.13,24A15.16,15.16,0,0,1,2,21.16,14.79,14.79,0,0,1,2.64,5.34l.55.39a14.05,14.05,0,0,0-.63,15.09,14.59,14.59,0,0,0,2.05,2.72Z"/></svg>