<svg xmlns="http://www.w3.org/2000/svg" xmlns:xlink="http://www.w3.org/1999/xlink" viewBox="0 0 58.22 24.79"><defs><style>.cls-1{fill:none;}.cls-2{isolation:isolate;}.cls-3,.cls-4,.cls-8{mix-blend-mode:screen;}.cls-3{fill:url(#radial-gradient);}.cls-4{fill:url(#radial-gradient-2);}.cls-5{fill:url(#Degradado_sin_nombre_10);}.cls-6{fill:url(#Degradado_sin_nombre_9);}.cls-7{fill:url(#Degradado_sin_nombre_7);}.cls-8{fill:url(#radial-gradient-3);}.cls-9{fill:url(#Degradado_sin_nombre_6);}.cls-10,.cls-11{opacity:0.7;}.cls-10{fill:url(#Degradado_sin_nombre_4);}.cls-11{fill:url(#Degradado_sin_nombre_3);}.cls-12{fill:url(#linear-gradient);}.cls-13,.cls-14{mix-blend-mode:multiply;}.cls-13{fill:url(#linear-gradient-2);}.cls-14{fill:url(#linear-gradient-3);}.cls-15{fill:#1d1d1b;}.cls-16{mix-blend-mode:overlay;}.cls-17{clip-path:url(#clip-path);}.cls-18{opacity:0.4;fill:url(#linear-gradient-4);}</style><radialGradient id="radial-gradient" cx="3301.86" cy="2345.59" r="21.06" gradientTransform="translate(3299.94 2359.84) rotate(180)" gradientUnits="userSpaceOnUse"><stop offset="0" stop-color="#ff80ab"/><stop offset="1"/></radialGradient><radialGradient id="radial-gradient-2" cx="3285.96" cy="2339.5" r="12.25" gradientTransform="translate(3299.94 2359.84) rotate(180)" gradientUnits="userSpaceOnUse"><stop offset="0" stop-color="#ffb05b"/><stop offset="1"/></radialGradient><linearGradient id="Degradado_sin_nombre_10" x1="3283.14" y1="2357.02" x2="3282.6" y2="2348.67" gradientTransform="translate(3299.94 2359.84) rotate(180)" gradientUnits="userSpaceOnUse"><stop offset="0" stop-color="#ff4353"/><stop offset="0.07" stop-color="#ff4d4a"/><stop offset="0.49" stop-color="#ff8915"/><stop offset="0.7" stop-color="#ffa000"/></linearGradient><linearGradient id="Degradado_sin_nombre_9" x1="3271.37" y1="2355.6" x2="3294.86" y2="2355.6" gradientTransform="translate(3299.94 2359.84) rotate(180)" gradientUnits="userSpaceOnUse"><stop offset="0.02" stop-color="#ff0054"/><stop offset="0.1" stop-color="#ff194a"/><stop offset="0.39" stop-color="#ff7822"/><stop offset="0.6" stop-color="#ffb50a"/><stop offset="0.7" stop-color="#fc0"/></linearGradient><linearGradient id="Degradado_sin_nombre_7" x1="3280.69" y1="2334.06" x2="3294.39" y2="2359.08" gradientTransform="translate(3299.94 2359.84) rotate(180)" gradientUnits="userSpaceOnUse"><stop offset="0.34" stop-color="#ff4790"/><stop offset="1" stop-color="red"/></linearGradient><radialGradient id="radial-gradient-3" cx="3302.17" cy="2329.32" r="46.56" gradientTransform="translate(3299.94 2359.84) rotate(180)" gradientUnits="userSpaceOnUse"><stop offset="0" stop-color="#ff7000"/><stop offset="0.09" stop-color="#d75e00"/><stop offset="0.23" stop-color="#9f4600"/><stop offset="0.36" stop-color="#6e3000"/><stop offset="0.5" stop-color="#461f00"/><stop offset="0.63" stop-color="#281100"/><stop offset="0.76" stop-color="#120800"/><stop offset="0.89" stop-color="#040200"/><stop offset="1"/></radialGradient><linearGradient id="Degradado_sin_nombre_6" x1="3281.46" y1="2338.27" x2="3285.46" y2="2343.83" gradientTransform="translate(3299.94 2359.84) rotate(180)" gradientUnits="userSpaceOnUse"><stop offset="0" stop-color="#00a3ff"/><stop offset="1" stop-color="#0069ff"/></linearGradient><linearGradient id="Degradado_sin_nombre_4" x1="3288.04" y1="2342.95" x2="3284.69" y2="2337.31" gradientTransform="translate(3299.94 2359.84) rotate(180)" gradientUnits="userSpaceOnUse"><stop offset="0" stop-color="#a300ad"/><stop offset="0.5" stop-color="#6642c7"/><stop offset="1" stop-color="#2c80e0"/></linearGradient><linearGradient id="Degradado_sin_nombre_3" x1="3287.56" y1="2343.05" x2="3281.91" y2="2335.54" gradientTransform="translate(3299.94 2359.84) rotate(180)" gradientUnits="userSpaceOnUse"><stop offset="0" stop-color="#9900d8"/><stop offset="0.05" stop-color="#9208d8"/><stop offset="0.7" stop-color="#3f66d5"/><stop offset="0.85" stop-color="#1d86e3"/><stop offset="1" stop-color="#00a2ef"/></linearGradient><linearGradient id="linear-gradient" x1="3284.27" y1="2337.81" x2="3281.06" y2="2348.83" gradientTransform="translate(3299.94 2359.84) rotate(180)" gradientUnits="userSpaceOnUse"><stop offset="0.02" stop-color="#0096ff"/><stop offset="0.36" stop-color="#00abcd"/><stop offset="0.79" stop-color="#00c591"/><stop offset="1" stop-color="#00cf7a"/></linearGradient><linearGradient id="linear-gradient-2" x1="3299.42" y1="2337.85" x2="3268.2" y2="2347.02" gradientTransform="translate(3299.94 2359.84) rotate(180)" gradientUnits="userSpaceOnUse"><stop offset="0" stop-color="#1a595e"/><stop offset="0.02" stop-color="#1e5c61"/><stop offset="0.51" stop-color="#96b3b5"/><stop offset="0.85" stop-color="#e1eaea"/><stop offset="1" stop-color="#fff"/></linearGradient><linearGradient id="linear-gradient-3" x1="3289.28" y1="2340.95" x2="3269.74" y2="2345.58" gradientTransform="translate(3299.94 2359.84) rotate(180)" gradientUnits="userSpaceOnUse"><stop offset="0" stop-color="#008599"/><stop offset="0.11" stop-color="#1e93a5"/><stop offset="0.55" stop-color="#96cdd5"/><stop offset="0.86" stop-color="#e1f1f3"/><stop offset="1" stop-color="#fff"/></linearGradient><clipPath id="clip-path"><path class="cls-1" d="M102.24,11a5,5,0,0,0-3.46,1.24,4.74,4.74,0,0,0-3.56-1.12H83.82v.25a6.87,6.87,0,0,0-2-.25H79V9.42H74.33l-.17,1.13-.08.56H66.64v4.11h.5v1.4h-.5v4.06h15.2a7,7,0,0,0,2-.25v.25H100v-.33a5.65,5.65,0,0,0,2.28.45,4.69,4.69,0,0,0,5-4.91A4.74,4.74,0,0,0,102.24,11Z"/></clipPath><linearGradient id="linear-gradient-4" x1="54.48" y1="-2.98" x2="120.03" y2="-2.98" gradientUnits="userSpaceOnUse"><stop offset="0.01" stop-color="#fff" stop-opacity="0"/><stop offset="1" stop-color="#fff"/></linearGradient></defs><g class="cls-2"><g id="Capa_1" data-name="Capa 1"><path class="cls-3" d="M7.89,10.82a11.06,11.06,0,0,1,10.57-8A11.55,11.55,0,0,0,10.4,6a10.92,10.92,0,0,0-2.81,4.8A11,11,0,0,0,10.4,21.67a12.07,12.07,0,0,0,4.93,2.77A11.07,11.07,0,0,1,7.89,10.82Z"/><path class="cls-4" d="M10.71,15.87a11.09,11.09,0,0,0,12.78,2.07c.05-.12.11-.23.16-.34a11.07,11.07,0,0,1-12.94-2,6.8,6.8,0,0,1-2-4.67A6.78,6.78,0,0,0,10.71,15.87Z"/><path class="cls-5" d="M20.3,6a7.13,7.13,0,0,1,1.07,1.4,1.07,1.07,0,0,0,1.32.46h0a1.06,1.06,0,0,0,.54-1.51,12.27,12.27,0,0,0-2.07-2.74q-.36-.36-.75-.69A11,11,0,0,0,10.71,6,6.78,6.78,0,0,1,20.3,6Z"/><path class="cls-6" d="M11.05,5.7c1-.9,4.5-3.25,10.7-1.44-.19-.21-.38-.42-.59-.63s-.49-.47-.75-.69A11,11,0,0,0,11.05,5.7Z"/><path class="cls-7" d="M15.33,24.44A11.07,11.07,0,0,1,10.71,6a11,11,0,0,1,9.7-3.08,12.4,12.4,0,1,0-5.08,21.5Z"/><path class="cls-8" d="M15.32,24.44h0A11.07,11.07,0,0,1,10.71,6a11,11,0,0,1,9.7-3.08A12.21,12.21,0,0,0,15.32.35a12.39,12.39,0,0,0,0,24.09Z"/><path class="cls-9" d="M15.33,24.44a12.33,12.33,0,0,0,5.83-3.28,12.08,12.08,0,0,0,2.49-3.56,11.07,11.07,0,0,1-12.94-2,6.78,6.78,0,0,1,0-9.59,11.07,11.07,0,0,0,4.62,18.42Z"/><path class="cls-10" d="M10.71,21.67a11,11,0,0,0,4.62,2.77,12.35,12.35,0,0,0,2.77-1h0C6.32,20.32,7.89,10.91,9.33,8a6.88,6.88,0,0,1,.79-1.32l.09-.11v0a10.91,10.91,0,0,0-2.31,4.26A11.05,11.05,0,0,0,10.71,21.67Z"/><path class="cls-11" d="M15.33,24.44a11.76,11.76,0,0,0,1.25-.37c-11.75-4.29-9-13.29-7.09-16.39a7.49,7.49,0,0,1,.63-1l.09-.11v0a10.91,10.91,0,0,0-2.31,4.26,11.07,11.07,0,0,0,7.44,13.62Z"/><path class="cls-12" d="M23.28,10.81a1.07,1.07,0,0,0-1.06.91,6.77,6.77,0,0,1-11.51,3.89,11.07,11.07,0,0,0,12.94,2,12.44,12.44,0,0,0,1.13-5.77,1.07,1.07,0,0,0-1.07-1Z"/><path class="cls-13" d="M15.67,17.59a6.72,6.72,0,0,1-4-1.16,2.48,2.48,0,0,1-.36-.24h0l.29.24,0,0,.27.21.07.06.27.18.09.06.26.17.1.07.26.15.11.06.26.15.12.05.26.14.12.05.26.12.12,0,.27.11.12,0,.28.1.11,0,.28.09.11,0,.3.08.09,0,.31.08h0a9.34,9.34,0,0,0,1.16.19h0l.29,0h.13l.25,0h1.22l.2,0,.22,0,.2,0,.21,0,.21,0,.2,0,.21,0,.2,0,.22-.05.19,0,.22-.06.19-.06.22-.07.18-.05.22-.08.18-.07.23-.09.16-.07.26-.11.13-.06.38-.19a12.42,12.42,0,0,0,1.12-4.42A9.26,9.26,0,0,1,15.67,17.59Z"/><path class="cls-14" d="M11.72,16.51l.16.12.19.14.17.12.18.12.18.12.18.11.18.11.19.1.18.11.19.09.19.1.19.09.19.08.19.08.19.08.21.08.18.07.23.07.17.06.38.11.17,0,.23.06.19,0,.22,0,.19,0,.22,0,.19,0,.22,0,.19,0,.22,0H19.1l.32,0h.09l.41,0,.14,0,.27,0,.16,0,.24-.05.17,0,.24-.05.17,0,.23-.06.17-.06.23-.07.17,0,.23-.08.16-.06.24-.1.15-.06.26-.12.12-.05.38-.19a11.66,11.66,0,0,0,.49-1.23A12,12,0,0,1,11.72,16.51Z"/><path class="cls-15" d="M38.09,18.31v.48H34.5l-2.21-4H30.52v4H27.14V5.86c1.92,0,3.78,0,5.68,0a4.44,4.44,0,0,1,4.66,4.58,4.55,4.55,0,0,1-1.92,3.77ZM32.81,12a1.46,1.46,0,0,0,1.4-1.62,1.41,1.41,0,0,0-1.4-1.57H30.46V12Z"/><path class="cls-15" d="M37.83,8.84v-3h9.6v3H44.27v10H41v-10Z"/><path class="cls-15" d="M52,13.1,53,9.72l1.59-3.84h3.6v.5L52.64,18.94h-1.4L45.61,6.38v-.5h3.6l1.62,3.84,1.09,3.38Z"/><path class="cls-15" d="M37.48,10.44a4.44,4.44,0,0,0-4.66-4.58c-1.9,0-3.76,0-5.68,0V18.79h3.38v-4h1.77l2.21,4h3.59v-.48l-2.53-4.1A4.55,4.55,0,0,0,37.48,10.44ZM32.81,12H30.46V8.8h2.35a1.41,1.41,0,0,1,1.4,1.57A1.46,1.46,0,0,1,32.81,12Z"/><polygon class="cls-15" points="54.62 5.88 53.03 9.72 51.98 13.1 51.92 13.1 50.83 9.72 49.21 5.88 47.43 5.88 45.61 5.88 37.83 5.88 37.83 8.84 41 8.84 41 18.81 44.27 18.81 44.27 8.84 46.71 8.84 51.24 18.94 52.64 18.94 58.22 6.38 58.22 5.88 54.62 5.88"/><g class="cls-16"><path class="cls-15" d="M38.09,18.31v.48H34.5l-2.21-4H30.52v4H27.14V5.86c1.92,0,3.78,0,5.68,0a4.44,4.44,0,0,1,4.66,4.58,4.55,4.55,0,0,1-1.92,3.77ZM32.81,12a1.46,1.46,0,0,0,1.4-1.62,1.41,1.41,0,0,0-1.4-1.57H30.46V12Z"/><path class="cls-15" d="M37.83,8.84v-3h9.6v3H44.27v10H41v-10Z"/><path class="cls-15" d="M52,13.1,53,9.72l1.59-3.84h3.6v.5L52.64,18.94h-1.4L45.61,6.38v-.5h3.6l1.62,3.84,1.09,3.38Z"/></g><g class="cls-17"><path class="cls-18" d="M120-3c0,10.67-14.67,19.32-32.78,19.32S54.48,7.69,54.48-3,69.15-22.3,87.25-22.3,120-13.65,120-3Z"/></g></g></g></svg>