<svg id="Capa_1" data-name="Capa 1" xmlns="http://www.w3.org/2000/svg" viewBox="0 0 82.24 16.5"><defs><style>.cls-1{fill:#eb661c;}.cls-2{fill:#dd0b14;}</style></defs><path class="cls-1" d="M0,6.92A6.18,6.18,0,0,1,.49,4.41,5.75,5.75,0,0,1,3.81,1.27,6.86,6.86,0,0,1,6.26.84a7.25,7.25,0,0,1,2.52.43,5.71,5.71,0,0,1,2,1.16L8.39,5.29a2.12,2.12,0,0,0-.81-.64,2.59,2.59,0,0,0-1.09-.22,2.46,2.46,0,0,0-.91.17,2.2,2.2,0,0,0-.74.5,2.27,2.27,0,0,0-.5.79,2.82,2.82,0,0,0-.18,1,2.73,2.73,0,0,0,.19,1,2.69,2.69,0,0,0,.5.77,2.13,2.13,0,0,0,.74.49,2.3,2.3,0,0,0,.9.18A2.33,2.33,0,0,0,7.64,9.1a2.42,2.42,0,0,0,.75-.65l2.38,2.84a5.6,5.6,0,0,1-1.92,1.25A6.8,6.8,0,0,1,6.26,13a6.66,6.66,0,0,1-2.45-.44A5.78,5.78,0,0,1,.49,9.4,6,6,0,0,1,0,6.92Z"/><path class="cls-1" d="M19.67,12.68H16.09v-.93h0a2.62,2.62,0,0,1-.94.81,3,3,0,0,1-1.45.34,3,3,0,0,1-1.46-.31,2.68,2.68,0,0,1-.92-.81,3.34,3.34,0,0,1-.47-1.13,6,6,0,0,1-.14-1.25V4.3h3.68V8.73a1.52,1.52,0,0,0,.2.89.72.72,0,0,0,.6.25.73.73,0,0,0,.61-.29A1.39,1.39,0,0,0,16,8.73V4.3h3.68Z"/><path class="cls-1" d="M26.05,12.9a3.47,3.47,0,0,1-1.22-.23,2.48,2.48,0,0,1-1-.65h0V16.5H20.16V4.3h3.46v.84h0a3,3,0,0,1,1.11-.79A3.35,3.35,0,0,1,26,4.08a3.42,3.42,0,0,1,1.66.38,3.72,3.72,0,0,1,1.19,1,4.43,4.43,0,0,1,.72,1.4,5.14,5.14,0,0,1,.25,1.6,5.27,5.27,0,0,1-.25,1.62,4.48,4.48,0,0,1-.72,1.43,3.64,3.64,0,0,1-1.19,1A3.46,3.46,0,0,1,26.05,12.9Zm.4-4.44a1.41,1.41,0,0,0-.35-1,1.24,1.24,0,0,0-1-.42,1.38,1.38,0,0,0-1.43,1.39,1.41,1.41,0,0,0,.39,1,1.35,1.35,0,0,0,1,.41,1.26,1.26,0,0,0,1-.4A1.46,1.46,0,0,0,26.45,8.46Z"/><path class="cls-1" d="M41.17,4.3h3.58v.92h0a2.84,2.84,0,0,1,.95-.8,3,3,0,0,1,1.44-.34,2.91,2.91,0,0,1,1.45.32,2.61,2.61,0,0,1,.92.82A3,3,0,0,1,50,6.34a5.81,5.81,0,0,1,.13,1.24v5.1H46.47V8.22a1.42,1.42,0,0,0-.2-.89.7.7,0,0,0-.59-.26.71.71,0,0,0-.6.3,1.31,1.31,0,0,0-.23.85v4.46H41.17Z"/><path class="cls-1" d="M50.53,1.88a1.8,1.8,0,0,1,.15-.73A1.87,1.87,0,0,1,51.1.56a2,2,0,0,1,.61-.41A1.86,1.86,0,0,1,52.46,0a1.79,1.79,0,0,1,.72.15,2,2,0,0,1,.59.41,1.87,1.87,0,0,1,.42.59,1.8,1.8,0,0,1,.15.73,1.85,1.85,0,0,1-.15.74,1.77,1.77,0,0,1-.42.59,2.16,2.16,0,0,1-.59.39,2,2,0,0,1-.72.14,2,2,0,0,1-.75-.14,2.12,2.12,0,0,1-.61-.39,1.77,1.77,0,0,1-.42-.59A1.85,1.85,0,0,1,50.53,1.88ZM50.6,4.3h3.68v8.38H50.6Z"/><path class="cls-1" d="M54.45,8.46a5.14,5.14,0,0,1,.25-1.6,4.43,4.43,0,0,1,.72-1.4,3.65,3.65,0,0,1,1.2-1,3.38,3.38,0,0,1,1.65-.38,3.21,3.21,0,0,1,1.21.23,2.21,2.21,0,0,1,1,.66h0V.64h3.68v12H60.85V11.8h0a2.44,2.44,0,0,1-1.07.81,3.87,3.87,0,0,1-1.48.29,3.49,3.49,0,0,1-1.65-.38,3.68,3.68,0,0,1-1.2-1,4.48,4.48,0,0,1-.72-1.43A5.27,5.27,0,0,1,54.45,8.46Zm3.41,0a1.51,1.51,0,0,0,.35,1,1.26,1.26,0,0,0,1,.4,1.35,1.35,0,0,0,1-.41,1.41,1.41,0,0,0,.39-1,1.38,1.38,0,0,0-1.43-1.39,1.24,1.24,0,0,0-1,.42A1.46,1.46,0,0,0,57.86,8.46Z"/><path class="cls-1" d="M69.09,7.36a.64.64,0,0,0-.27-.57,1.18,1.18,0,0,0-.69-.18,2.24,2.24,0,0,0-1,.21,3.85,3.85,0,0,0-.81.51L64.53,5.51a5.38,5.38,0,0,1,1.82-1.13A6,6,0,0,1,68.51,4a4.92,4.92,0,0,1,2,.34,3,3,0,0,1,1.23.92,3.53,3.53,0,0,1,.64,1.37,7.35,7.35,0,0,1,.18,1.66v4.41H69.21V12h0a1.67,1.67,0,0,1-.91.68,3.36,3.36,0,0,1-1.14.21,4,4,0,0,1-1-.14,2.68,2.68,0,0,1-.94-.47,2.34,2.34,0,0,1-.7-.82,2.67,2.67,0,0,1-.27-1.26,2.14,2.14,0,0,1,.46-1.43,3.14,3.14,0,0,1,1.15-.86,6.12,6.12,0,0,1,1.57-.42,14.12,14.12,0,0,1,1.7-.11Zm0,1.85a4,4,0,0,0-1.31.17.65.65,0,0,0-.49.65.48.48,0,0,0,.08.3.76.76,0,0,0,.2.2,1.39,1.39,0,0,0,.28.12,1.57,1.57,0,0,0,.28,0,1.15,1.15,0,0,0,.85-.34,1.2,1.2,0,0,0,.31-.86V9.21Z"/><path class="cls-1" d="M72.53,8.46a5.44,5.44,0,0,1,.24-1.6,4.67,4.67,0,0,1,.73-1.4,3.61,3.61,0,0,1,1.19-1,3.42,3.42,0,0,1,1.66-.38,3.28,3.28,0,0,1,1.21.23,2.27,2.27,0,0,1,1,.66h0V.64h3.68v12H78.93V11.8h0a2.5,2.5,0,0,1-1.07.81,3.9,3.9,0,0,1-1.48.29,3.53,3.53,0,0,1-1.66-.38,3.64,3.64,0,0,1-1.19-1,4.71,4.71,0,0,1-.73-1.43A5.58,5.58,0,0,1,72.53,8.46Zm3.4,0a1.51,1.51,0,0,0,.35,1,1.29,1.29,0,0,0,1,.4,1.36,1.36,0,0,0,1-.41,1.41,1.41,0,0,0,.39-1A1.38,1.38,0,0,0,77.3,7.07a1.27,1.27,0,0,0-1,.42A1.46,1.46,0,0,0,75.93,8.46Z"/><path class="cls-2" d="M35.13,2.27A6.41,6.41,0,0,0,31,13.58V16.4l2.18-1.62a6.27,6.27,0,0,0,2,.31,6.41,6.41,0,0,0,0-12.82Zm0,10.77a4.31,4.31,0,0,1-4.31-4.25h8.62A4.31,4.31,0,0,1,35.13,13Z"/></svg>