<svg id="Capa_1" data-name="Capa 1" xmlns="http://www.w3.org/2000/svg" xmlns:xlink="http://www.w3.org/1999/xlink" viewBox="0 0 56.42 24.02"><defs><style>.cls-1{fill:none;}.cls-2{fill:#ad00ff;}.cls-3{fill:#ffac00;}.cls-4{clip-path:url(#clip-path);}.cls-5{opacity:0.4;fill:url(#linear-gradient);}</style><clipPath id="clip-path"><path class="cls-1" d="M-12.48,13.05a5.06,5.06,0,0,0-3.46,1.24,4.73,4.73,0,0,0-3.55-1.12H-30.9v.25a6.85,6.85,0,0,0-2-.25h-2.8V11.48h-4.72l-.16,1.12-.08.57h-7.45v4.11h.51v1.4h-.51v4.06h15.21a7.22,7.22,0,0,0,2-.25v.25h16.14V22.4a5.52,5.52,0,0,0,2.28.46,4.69,4.69,0,0,0,5-4.91A4.74,4.74,0,0,0-12.48,13.05Z"/></clipPath><linearGradient id="linear-gradient" x1="-60.24" y1="-0.92" x2="5.31" y2="-0.92" gradientUnits="userSpaceOnUse"><stop offset="0.01" stop-color="#fff" stop-opacity="0"/><stop offset="1" stop-color="#fff"/></linearGradient></defs><path class="cls-2" d="M10.34,15.87H6.72V19h3.72c1.39,0,2.22-.49,2.22-1.55v0C12.66,16.46,12,15.87,10.34,15.87Z"/><path class="cls-2" d="M11.87,11.76v0c0-.94-.74-1.47-2.06-1.47H6.72v3H9.61C11,13.27,11.87,12.82,11.87,11.76Z"/><path class="cls-2" d="M17.42,5.24a.59.59,0,0,0-.59-.55H13.92a4.7,4.7,0,0,0-9.4,0H1.61a.61.61,0,0,0-.6.55L0,20.8v.05A3,3,0,0,0,3.18,24H15.25a3,3,0,0,0,3.18-3.15V20.8ZM9.22,1.19a3.5,3.5,0,0,1,3.5,3.5h-7A3.52,3.52,0,0,1,9.22,1.19Zm6.56,16.66c0,2.6-2.12,3.91-5.34,3.91H5.23a1.55,1.55,0,0,1-1.57-1.57V9.07A1.55,1.55,0,0,1,5.23,7.51h5A5.1,5.1,0,0,1,14,8.77a3.23,3.23,0,0,1,1,2.42v0a3.32,3.32,0,0,1-1.87,3.08c1.65.63,2.67,1.58,2.67,3.5Z"/><path class="cls-3" d="M19.15,18.88v0c0-2.22,1.69-3.25,4.11-3.25a7.14,7.14,0,0,1,2.49.42v-.17c0-1.2-.74-1.87-2.19-1.87a6.71,6.71,0,0,0-2,.29,1.36,1.36,0,0,1-.42.07,1.18,1.18,0,0,1-1.2-1.18A1.2,1.2,0,0,1,20.73,12,8.91,8.91,0,0,1,24,11.5a4.75,4.75,0,0,1,3.45,1.14,4.44,4.44,0,0,1,1.1,3.25v4.65a1.39,1.39,0,0,1-1.41,1.39,1.29,1.29,0,0,1-1.39-1.2v0A3.91,3.91,0,0,1,22.65,22C20.73,22,19.15,20.9,19.15,18.88Zm6.64-.66V17.7a4.48,4.48,0,0,0-1.85-.38c-1.23,0-2,.5-2,1.41v0c0,.78.65,1.24,1.58,1.24C24.88,20,25.79,19.26,25.79,18.22Z"/><path class="cls-3" d="M29.62,20.65v0a1.9,1.9,0,0,1,.64-1.41L35,14H31a1.17,1.17,0,0,1-1.18-1.16A1.18,1.18,0,0,1,31,11.61h6.34a1.25,1.25,0,0,1,1.41,1.16v.06a1.91,1.91,0,0,1-.65,1.41l-4.76,5.23h4.23a1.2,1.2,0,0,1,1.18,1.18,1.17,1.17,0,0,1-1.18,1.16H31A1.24,1.24,0,0,1,29.62,20.65Z"/><path class="cls-3" d="M39.23,18.88v0c0-2.22,1.69-3.25,4.11-3.25a7.25,7.25,0,0,1,2.5.42v-.17c0-1.2-.75-1.87-2.19-1.87a6.66,6.66,0,0,0-2,.29,1.41,1.41,0,0,1-.42.07A1.17,1.17,0,0,1,40,13.15,1.19,1.19,0,0,1,40.81,12a8.91,8.91,0,0,1,3.25-.53,4.71,4.71,0,0,1,3.45,1.14,4.44,4.44,0,0,1,1.1,3.25v4.65a1.38,1.38,0,0,1-1.4,1.39,1.29,1.29,0,0,1-1.39-1.2v0A3.94,3.94,0,0,1,42.73,22C40.81,22,39.23,20.9,39.23,18.88Zm6.64-.66V17.7A4.43,4.43,0,0,0,44,17.32c-1.24,0-2,.5-2,1.41v0c0,.78.65,1.24,1.58,1.24C45,20,45.87,19.26,45.87,18.22Z"/><path class="cls-3" d="M50.16,12.94a1.45,1.45,0,0,1,2.89,0v.46c.42-1,1.1-1.9,2-1.9a1.32,1.32,0,0,1,1.41,1.41,1.33,1.33,0,0,1-1.08,1.35c-1.47.34-2.29,1.46-2.29,3.52v2.7a1.45,1.45,0,1,1-2.89,0Z"/><path class="cls-3" d="M19.81,6.72a.42.42,0,0,1,.42-.42h1.15a1.31,1.31,0,0,1,1.47,1.33h0A1.37,1.37,0,0,1,21.3,9h-.65v.76a.42.42,0,0,1-.42.43.42.42,0,0,1-.42-.43Zm1.51,1.52A.59.59,0,0,0,22,7.66v0c0-.37-.26-.58-.68-.58h-.66V8.24Z"/><path class="cls-3" d="M24.51,10.21A1.48,1.48,0,0,1,23,8.69h0a1.47,1.47,0,0,1,1.46-1.53,1.38,1.38,0,0,1,1.41,1.41.38.38,0,0,1-.39.4H23.8a.69.69,0,0,0,.72.58.94.94,0,0,0,.59-.2.35.35,0,0,1,.21-.06.32.32,0,0,1,.32.32.33.33,0,0,1-.11.25A1.52,1.52,0,0,1,24.51,10.21Zm.54-1.77a.64.64,0,0,0-.62-.63c-.35,0-.57.25-.64.63Z"/><path class="cls-3" d="M26.21,7.58a.41.41,0,0,1,.41-.41.41.41,0,0,1,.42.41v.14c.12-.29.32-.55.57-.55a.38.38,0,0,1,.4.4A.38.38,0,0,1,27.7,8c-.42.1-.66.43-.66,1v.78a.42.42,0,0,1-.42.42.41.41,0,0,1-.41-.42Z"/><path class="cls-3" d="M30.9,9.76a.42.42,0,0,1-.42.42.41.41,0,0,1-.41-.42v0a1.07,1.07,0,0,1-.87.47,1,1,0,0,1-1-1.09V7.58a.42.42,0,0,1,.84,0V8.84c0,.4.19.6.5.6s.53-.2.53-.6V7.58a.41.41,0,0,1,.41-.41.41.41,0,0,1,.42.41Zm-1.58-3a.38.38,0,0,1,.05-.15l.31-.47A.34.34,0,0,1,30,6c.2,0,.47.13.47.25a.29.29,0,0,1-.11.2L30,6.73a.62.62,0,0,1-.48.18C29.41,6.91,29.32,6.85,29.32,6.77Z"/><g class="cls-4"><path class="cls-5" d="M5.31-.92C5.31,9.75-9.36,18.4-27.46,18.4S-60.24,9.75-60.24-.92s14.67-19.32,32.78-19.32S5.31-11.59,5.31-.92Z"/></g></svg>