<svg width="100" height="28" fill="none" xmlns="http://www.w3.org/2000/svg"><g clip-path="url(#a)" fill="#32C36C"><path d="M12.88 5.921c-.068.412-.179.918-.356 1.462a6.662 6.662 0 0 1 1.819 4.588 6.632 6.632 0 0 1-3.711 5.98 1.213 1.213 0 0 0-.435-.795c-.58-.5-1.486-.83-2.411-1.684l-.217-.198a.222.222 0 0 1-.042-.273c.538-.971 1.5-1.37 1.5-1.37-1.286.76-1.347 1.512-1.347 1.512 2.346-.372 2.314-3.121 2.314-3.121s-.063.356-1.347 1.215c-.832.56-1.154 1.264-1.278 1.748A3.451 3.451 0 0 1 7 14.262a3.884 3.884 0 0 1 .688-3.846C8.93 8.949 10.442 8.33 10.442 8.33c-2.82 1.807-3.37 3.467-3.37 3.467 5.476-.838 5.642-7.209 5.642-7.209s-.063.972-3.155 2.819c-3.784 2.265-3.344 5.675-3.315 6.256-.187-.6-.62-1.403-1.603-2.04-1.628-1.055-1.713-1.5-1.713-1.5s.124 3.43 3.079 3.85c0 0-.306-.891-1.835-1.847 0 0 1.191.471 1.887 1.655.145.246.253.516.34.79.39 1.255 1.426 1.921 2.475 2.505.282.158.509.32.688.487l.008.008a.498.498 0 0 1-.219.843 6.365 6.365 0 0 1-1.637.182c-3.581-.059-6.43-3.009-6.417-6.646C1.31 8.3 4.225 5.346 7.82 5.346a6.43 6.43 0 0 1 3.052.768 8.25 8.25 0 0 0 1.038-.91A7.7 7.7 0 0 0 7.7 4.034C3.434 4.098-.008 7.656 0 11.984c.008 4.38 3.505 7.926 7.817 7.926s7.817-3.554 7.817-7.94a7.968 7.968 0 0 0-2.756-6.049h.002ZM51.803 27.976c-.83 0-1.748-.303-2.478-.886l.598-.921c.63.482 1.316.73 1.914.73.598 0 .907-.245.907-.639v-.022c0-.46-.62-.618-1.305-.83-.862-.246-1.824-.604-1.824-1.74v-.02c0-1.125.917-1.808 2.08-1.808.73 0 1.526.257 2.145.675l-.53.966c-.564-.348-1.16-.562-1.647-.562-.52 0-.817.247-.817.595v.02c0 .427.63.609 1.315.83.851.271 1.813.662 1.813 1.73v.021c0 1.248-.951 1.864-2.166 1.864l-.005-.003ZM57.553 28c-1.779 0-3.096-1.381-3.096-3.076 0-1.694 1.325-3.11 3.117-3.11 1.793 0 3.108 1.381 3.108 3.089s-1.326 3.1-3.129 3.1V28Zm0-4.998c-1.072 0-1.758.854-1.758 1.898s.741 1.92 1.78 1.92c1.038 0 1.768-.855 1.768-1.898 0-1.044-.74-1.92-1.79-1.92ZM63.492 27.976c-.83 0-1.748-.303-2.478-.886l.598-.921c.63.482 1.316.73 1.914.73.598 0 .907-.245.907-.639v-.022c0-.46-.62-.618-1.305-.83-.862-.246-1.824-.604-1.824-1.74v-.02c0-1.125.917-1.808 2.08-1.808.73 0 1.526.257 2.145.675l-.53.966c-.564-.348-1.16-.562-1.647-.562-.52 0-.817.247-.817.595v.02c0 .427.63.609 1.315.83.851.271 1.813.662 1.813 1.73v.021c0 1.248-.951 1.864-2.166 1.864l-.005-.003ZM67.97 26.011c0 .527.266.742.719.742.298 0 .564-.067.83-.204v1.111c-.332.19-.706.302-1.204.302-.983 0-1.682-.439-1.682-1.74v-3.12h-.74v-1.168h.74v-1.627h1.34v1.627h1.57v1.167h-1.57v2.907l-.004.003ZM72.866 26.886c.651 0 1.118-.246 1.582-.706l.785.706c-.553.675-1.315 1.111-2.388 1.111-1.692 0-2.996-1.247-2.996-3.089 0-1.708 1.183-3.1 2.851-3.1 1.858 0 2.797 1.483 2.797 3.202 0 .123-.01.235-.021.37h-4.291c.155.966.817 1.504 1.681 1.504v.002Zm1.305-2.403c-.087-.876-.596-1.561-1.481-1.561-.817 0-1.394.64-1.516 1.56h2.997ZM77.631 27.863h-1.338v-5.929h1.338v.921c.377-.562.918-1.044 1.824-1.044 1.315 0 2.08.9 2.08 2.28v3.772h-1.34v-3.367c0-.92-.452-1.448-1.248-1.448s-1.316.551-1.316 1.472v3.346-.003ZM82.618 21.027v-1.29h1.437v1.29h-1.437Zm.056 6.836v-5.929h1.338v5.93h-1.338ZM88.522 27.99c-.962 0-1.571-.493-1.98-1.045v.921h-1.338V19.67h1.339v3.257c.432-.618 1.038-1.11 1.979-1.11 1.38 0 2.72 1.11 2.72 3.088 0 1.979-1.326 3.09-2.72 3.09v-.006Zm-.309-4.998c-.906 0-1.702.752-1.702 1.908 0 1.157.796 1.909 1.703 1.909.906 0 1.668-.731 1.668-1.909s-.762-1.909-1.669-1.909ZM92.138 27.863v-8.196h1.339v8.196h-1.34ZM97.367 26.886c.65 0 1.117-.246 1.581-.706l.786.706c-.554.675-1.316 1.111-2.388 1.111-1.692 0-2.997-1.247-2.997-3.089 0-1.708 1.183-3.1 2.852-3.1 1.858 0 2.796 1.483 2.796 3.202 0 .123-.01.235-.02.37h-4.292c.156.966.817 1.504 1.682 1.504v.002Zm1.304-2.403c-.087-.876-.595-1.561-1.48-1.561-.818 0-1.395.64-1.516 1.56h2.996ZM16.301 17.764l.628-.131c.553-.132.72-.225.72-1.368V7.332c0-1.143-.167-1.237-.72-1.368l-.628-.131v-.525h6.049c3.653 0 5.163 1.162 5.163 3.43 0 1.61-.793 2.604-2.509 3.129v.056c.756 1.667 2.011 3.897 3.026 5.281.203.281.332.356.7.469l.296.093v.525h-4.093c-1.033-1.443-2.288-3.916-2.97-5.675-.166 0-.886 0-.978-.019v3.673c0 1.143.129 1.237.7 1.368l.628.131v.525h-6.012v-.53Zm7.82-8.767c0-2.155-.48-2.867-1.919-2.867-.572 0-1.014.056-1.217.131v5.544c.092.019.406.075.867.075 1.568 0 2.27-.693 2.27-2.886v.003ZM28.862 13.382c0-3.26 2.38-5.076 4.813-5.076s4.13 1.293 4.185 4.682h-6.085c.055 3.073 1.199 3.914 3.1 3.914 1.143 0 2.01-.338 2.711-.712v.618c-.646.73-2.048 1.705-3.908 1.705-3.21 0-4.813-1.949-4.813-5.131h-.003Zm2.915-1.106 3.155-.169c0-2.267-.295-3.091-1.402-3.091-.941 0-1.679.9-1.753 3.26ZM37.953 21.642l.48-.13c.608-.17.682-.263.682-1.088v-9.666c0-.805-.092-.862-.609-1.218l-.608-.412v-.375l3.892-.45.203.132-.037 1.162h.092c.775-.675 1.809-1.293 3.1-1.293 1.753 0 3.616 1.18 3.616 4.607 0 3.897-2.25 5.6-5.33 5.6a6.14 6.14 0 0 1-1.401-.188s.018.487.018 1.143v.956c0 .862.055.937.646 1.068l.646.15v.506h-5.385v-.506l-.005.002Zm7.783-8.092c0-2.68-.794-3.616-2.196-3.616-.738 0-1.199.225-1.494.337v6.818c.332.394.83.675 1.457.675 1.458 0 2.233-.787 2.233-4.216v.002ZM50.053 16.024v-5.357c0-.787-.037-.862-.572-1.18l-.646-.375v-.393l3.948-.413.221.169v6.818c0 1.105.425 1.536 1.255 1.536.664 0 1.291-.224 1.734-.374v-5.788c0-.787-.055-.88-.59-1.18l-.627-.375v-.393l3.93-.413.22.169v7.567c0 .919.056 1.031.61 1.256l.535.225v.45l-3.82.543-.202-.15.037-1.256h-.093c-.978.731-2.103 1.406-3.524 1.406-1.42 0-2.416-.843-2.416-2.492ZM60.861 17.445v-10.9c0-.918-.055-1.012-.571-1.274l-.683-.338v-.43l4.056-.375.203.15s-.055.88-.055 2.192v1.274c0 1.03-.056 1.818-.056 1.818h.093c.72-.637 1.752-1.256 3.062-1.256 1.734 0 3.598 1.18 3.598 4.607 0 3.898-2.306 5.6-5.459 5.6-1.808 0-3.099-.356-4.185-1.068h-.002Zm6.621-3.897c0-2.68-.793-3.617-2.195-3.617-.72 0-1.2.225-1.476.337v6.818c.313.394.83.675 1.457.675 1.458 0 2.214-.787 2.214-4.216v.003ZM70.674 17.782l.48-.13c.645-.17.719-.263.719-1.069V6.545c0-.918-.074-.993-.609-1.274l-.682-.338v-.43l4.095-.375.203.15s-.074.936-.074 2.192v10.116c0 .843.074.9.72 1.068l.48.131v.506h-5.33v-.506l-.002-.003Z"/><path d="m75.91 17.782.48-.13c.61-.17.683-.263.683-1.069v-5.825c0-.805-.092-.862-.609-1.218l-.608-.412v-.375l4.04-.45.184.132c-.037.58-.073 1.255-.073 2.155v5.993c0 .843.073.918.682 1.068l.48.131v.506h-5.255v-.506h-.003Zm.923-11.933c0-.918.72-1.555 1.624-1.555.904 0 1.623.637 1.623 1.555 0 .918-.72 1.536-1.623 1.536-.904 0-1.624-.637-1.624-1.536ZM81.221 13.457c0-3.914 3.026-5.15 5.606-5.15 1.827 0 2.933.599 2.933 1.742 0 .768-.516 1.312-1.31 1.312-.959 0-1.254-.675-1.328-1.462-.092-.712-.203-.824-.811-.824-1.034 0-2.14.618-2.14 3.579 0 2.754.811 4.25 2.877 4.25 1.144 0 1.993-.337 2.676-.693v.6c-.535.674-1.882 1.705-3.875 1.705-2.989 0-4.628-1.986-4.628-5.057v-.002ZM89.964 16.042c0-1.649 1.236-2.38 3.32-2.885l1.864-.469v-1.63c0-1.555-.295-2.024-1.31-2.024-.554 0-.738.15-.775.675-.092 1.18-.48 1.649-1.439 1.649-.812 0-1.254-.431-1.254-1.162 0-1.2 1.512-1.892 4.074-1.892 2.306 0 3.653.73 3.653 2.567v5.187c0 .694.074.975.424 1.162.24.131.61.169.867.188v.45c-.35.28-1.088.655-2.158.655-1.07 0-1.716-.412-1.919-1.143h-.092c-.461.6-1.291 1.143-2.49 1.143-1.735 0-2.768-.9-2.768-2.473l.003.002Zm5.181.6v-2.998l-.849.075c-.94.075-1.439.506-1.439 1.855 0 1.218.535 1.611 1.255 1.611.517 0 .867-.224 1.033-.543ZM53.252 7.482s2.573-.281 3.582-1.727C57.844 4.31 58.134.696 59.828 0c0 0-7.069.964-6.834 6.925 0 0 1.681-2.733 3.635-4.146 0 0-2.823 3.263-3.377 4.703Z"/></g><defs><clipPath id="a"><path fill="#fff" d="M0 0h100v28H0z"/></clipPath></defs></svg>