<svg version="1.1" id="Capa_1" xmlns="http://www.w3.org/2000/svg" x="0" y="0" width="66" height="14.7" style="enable-background:new 0 0 66 14.7" xml:space="preserve"><style>.st65{fill:#127787}</style><path class="st65" d="M0 0h15.9v.8H0zM0 14h15.9v.8H0zM1.5 12.5h12.8v.8H1.5zM1.5 1.5h12.8v.8H1.5zM7.6 3h.8v8.7h-.8zM5.3 7.8v3.9H3v-.8h1.5V7.8z"/><path class="st65" d="m4.1 3.8 1 2.5H6V7H4.5L3.1 3h3.7v8.7H6V3.8zM11.7 3.8l-.9 2.5h-1V7h1.6l1.4-4H9.1v8.7h.7V3.8z"/><path class="st65" d="M10.6 7.8v3.9h2.2v-.8h-1.4V7.8zM22.1 10.6h-.2c-.2 0-.2-.1-.2-.2 0 0 0-.1.2-.2h.4s.1 0 .1-.1c0 0 0-.1.1-.3V5.4c0-.1 0-.2-.1-.3-.1-.1-.1-.1-.2-.1H22c-.2 0-.2-.1-.2-.2s.1-.2.2-.2h3.4c.1 0 .2 0 .2.2V5.6c0 .1-.1.1-.1.1-.1 0-.2 0-.2-.2v-.1c0-.1-.1-.1-.1-.2 0 0-.1-.1-.2-.1h-1.3V7H24.9v-.5c0-.1.1-.1.2-.1 0 0 .1 0 .2.2V7.9c0 .1-.1.1-.2.1s-.1 0-.2-.1V7.6s0-.1-.1-.1H23.6v2.1s0 .1.1.1c0 0 .1 0 .1.1h1c.1 0 .3 0 .4-.1.1 0 .1-.1.2-.1 0-.1.1-.1.1-.2s0-.1.1-.1c0-.1.1-.1.2-.1s.1 0 .1.1v.1c0 .1 0 .1-.1.2 0 .1-.1.2-.1.3 0 .1 0 .1-.1.2 0 .1 0 .1-.1.2 0 0-.1.1-.2.1h-.1l-3.1.2zM26.5 10.6c-.2 0-.2-.1-.2-.2 0 0 0-.1.1-.2h.5s.1-.2.1-.7V5.2s0-.1-.1-.1-.1-.1-.2-.1h-.2c-.1 0-.1-.1-.1-.1 0-.1 0-.1.1-.1h2.2c.3 0 .5 0 .7.1l.6.3c.2.1.3.3.4.5.1.2.2.4.2.7 0 .3-.1.5-.2.7-.1.2-.2.4-.3.5-.1.1-.2.2-.4.3-.1 0-.1.1-.1.1l1.2 1.4.3.3.3.3c.1.1.2.2.3.2.1.1.2.1.2.1H32.2c.1 0 .1.1.1.1s0 .2-.2.2H31c-.1 0-.3-.1-.4-.1-.1 0-.2-.1-.4-.2l-.3-.3-.9-1.3c-.1-.2-.2-.3-.3-.4-.1-.1-.2-.2-.3-.2H28v1.6c0 .2 0 .2.1.2 0 0 0 .1.1.1h.4c.1 0 .1.1.1.1 0 .1 0 .2-.3.2l-1.9.3zm1.6-3H29c.1 0 .2-.1.2-.2.1-.1.1-.2.2-.3 0-.1.1-.3.1-.6 0-.1 0-.3-.1-.4 0-.1-.1-.3-.2-.4l-.3-.3c-.1-.1-.3-.1-.5-.1H28.1V7.6zM34.6 10.7c-.4 0-.7 0-1-.1-.3-.1-.6-.2-.8-.4-.2-.2-.4-.4-.5-.7-.1-.3-.2-.6-.2-.9V5.2s-.1 0-.1-.1c-.1 0-.1 0-.2-.1h-.2c-.1 0-.1-.1-.1-.1 0-.1 0-.1.1-.1h2.1c.2 0 .3.1.3.2 0 0 0 .1-.1.1h-.4s-.1 0-.1.1v3.2c0 .2 0 .4.1.7 0 .2.1.4.2.6.1.2.2.3.4.4.2.1.4.2.7.2.2 0 .5 0 .7-.1l.6-.3c.2-.1.3-.3.4-.6.1-.2.2-.5.2-.8V5.6c0-.3-.1-.3-.1-.3-.1 0-.1-.1-.2-.1-.4-.1-.4-.2-.5-.2h-.2c-.1 0-.1-.1-.1-.2s.1-.1.1-.2h1.6c.1 0 .3 0 .3.2 0 0 0 .2-.2.2-.1 0-.1 0-.2.1-.1 0-.1.1-.2.3v2.7c0 .8-.2 1.4-.6 1.9-.4.5-1 .7-1.8.7M34 4.4c-.1 0-.2-.1-.2-.2s0-.1.1-.2c.1 0 .2-.1.3-.2l.8-.3c.1 0 .2-.1.2-.1h.1c.1 0 .1 0 .2.1l.1.1c.2.2.3.3.3.5 0 .1 0 .1-.1.2H34.9c-.1 0-.2 0-.3.1H34M41.3 10.6h-.2c-.1 0-.2-.1-.2-.2 0 0 0-.1.2-.2h.4s.1 0 .1-.1l.1-.1V5.2s0-.1-.1-.1H41.3c-.1 0-.1-.1-.1-.1 0-.1 0-.2.1-.2h2c.1 0 .2.1.2.2 0 0 0 .1-.1.2H43s-.1 0-.1.1c0 0-.1.1-.1.2v4.2c0 .1 0 .2.1.3 0 .1.1.1.1.1H44.2c.2 0 .2-.1.3-.1 0 0 .1 0 .1-.1s.1-.1.1-.2.1-.1.1-.2.1-.1.2-.1.2.1.2.1v.4c0 .1 0 .1-.1.2V10.4s0 .2-.3.2h-3.5zM45.8 10.6h-.2c-.2 0-.2-.1-.2-.2 0 0 0-.1.2-.2h.4s.1 0 .1-.1c0 0 0-.1.1-.3V5.4c0-.1 0-.2-.1-.3-.1 0-.2 0-.3-.1h-.2c-.2 0-.2-.1-.2-.2s.1-.2.2-.2H49c.1 0 .2 0 .2.2V5.6c0 .1-.1.1-.1.1-.1 0-.2 0-.2-.2v-.1c0-.1-.1-.1-.1-.2 0 0-.1-.1-.2-.1h-1.3V7H48.5v-.5c0-.1.1-.1.2-.1 0 0 .1 0 .2.2V7.9c0 .1-.1.1-.2.1s-.1 0-.2-.1V7.6s0-.1-.1-.1H47.2v2.1s0 .1.1.1c0 0 .1 0 .1.1h1c.1 0 .3 0 .4-.1.1 0 .1-.1.2-.1 0-.1.1-.1.1-.2s0-.1.1-.1c0-.1.1-.1.2-.1s.1 0 .1.1v.1c0 .1 0 .1-.1.2 0 .1-.1.2-.1.3 0 .1 0 .1-.1.2 0 .1 0 .1-.1.2l-.1.1h-3.2zM52.9 10.7c-.5 0-.9-.1-1.3-.2s-.7-.3-1-.6c-.3-.3-.5-.6-.6-1-.1-.4-.2-.9-.2-1.4 0-.4.1-.8.2-1.2.1-.4.3-.7.6-.9.3-.3.6-.5.9-.6.4-.1.7-.2 1.2-.2h.8c.2 0 .4.1.6.1.2 0 .3.1.4.1h.4c.1 0 .1 0 .1.1v1.3c0 .1-.1.1-.2.1 0 0-.1 0-.2-.1v-.4c0-.1-.1-.2-.1-.2l-.2-.2c-.1-.1-.2-.1-.4-.2s-.3-.1-.5-.2c-.2 0-.4-.1-.7-.1-.3 0-.5.1-.8.2-.2.1-.4.3-.6.4-.2.2-.3.4-.4.7.1.4.1.7.1 1 0 .5.1 1 .2 1.4.1.4.2.7.4.9.2.2.4.4.7.5.3.1.6.2.9.2h.2c.1 0 .1 0 .2-.1.1 0 .1 0 .2-.1.1 0 .1 0 .1-.1 0 0 .1-.1.1-.2V8.1s0-.1-.1-.1l-.1-.1h-.2c-.1 0-.1-.1-.1-.1s0-.2.3-.2H55.7s.1.1.1.2 0 .1-.1.1H55.4s-.1 0-.1.1v2.1c0 .1 0 .1-.1.2-.1 0-.1.1-.3.1-.1 0-.3.1-.5.1s-.4.1-.6.1c-.3.1-.6.1-.9.1M59.5 10.6h-.1c-.1 0-.1-.1-.1-.2s.1-.1.1-.2H59.7v-.4c0-.1-.1-.2-.1-.4l-.2-.5c0-.1-.1-.2-.1-.2s0-.1-.1-.1H57.5v.1l-.3.7c-.1.2-.1.3-.1.4v.4h.5c.1 0 .1.1.1.1 0 .1 0 .2-.1.2H55.8c-.1 0-.1-.1-.1-.2s0-.2.2-.2h.1c.1 0 .2-.1.3-.1.1-.1.1-.2.2-.3l2.1-5.1s0-.1.1-.1c.1-.1.1-.1.2-.1 0 0 .1 0 .2.1 0 0 0 .1.1.2l2 5c0 .1.1.1.1.2s.1.2.1.2h.5c.1 0 .1.1.1.2s-.1.2-.2.2H59.5zM59 8v-.1l-.6-1.4-.5 1.4c0 .1-.1.1-.1.2H59z"/><path class="st65" d="M62.3 10.6h-.2c-.1 0-.2-.1-.2-.2 0 0 0-.1.2-.2h.4s.1 0 .1-.1l.1-.1V5.2s0-.1-.1-.1H62.3c-.1 0-.1-.1-.1-.1 0-.1 0-.2.1-.2h2c.1 0 .2.1.2.2 0 0 0 .1-.1.2H64s-.1 0-.1.1c0 0-.1.1-.1.2v4.2c0 .1 0 .2.1.3 0 .1.1.1.1.1H65.2c.2 0 .2-.1.3-.1 0 0 .1 0 .1-.1s.1-.1.1-.2.1-.1.1-.2.1-.1.2-.1.2.1.2.1v.4c0 .1 0 .1-.1.2v.4c0 .1-.1.2-.3.2h-3.5zM17.2 10.6H17c-.1 0-.2-.1-.2-.2 0 0 0-.1.2-.2h.4s.1 0 .1-.1c0 0 0-.1.1-.1V5.2c0-.1-.1-.1-.1-.2h-.2c-.2 0-.2-.1-.2-.1 0-.1.1-.2.2-.2h2c.2 0 .5 0 .7.1.2.1.5.1.7.3.2.1.4.3.5.5.1.2.2.5.2.8 0 .4-.1.8-.3 1.1-.2.3-.5.5-.8.7-.1 0-.2.1-.3.1H18.8v1.5c0 .3.1.4.1.4l.1.1h.4c.1 0 .1.1.1.2 0 0 0 .1-.1.1h-2.2zm1.6-2.8h.8c.2 0 .4-.1.5-.3.1-.2.2-.5.2-.9 0-.5-.1-.9-.3-1.1-.2-.2-.6-.3-1-.3h-.1v.4l-.1 2.2"/></svg>